G04*
G04 #@! TF.GenerationSoftware,Altium Limited,Altium Designer,24.5.2 (23)*
G04*
G04 Layer_Color=8388736*
%FSLAX25Y25*%
%MOIN*%
G70*
G04*
G04 #@! TF.SameCoordinates,B46FEEB2-3EEE-4911-894C-B78D551571A6*
G04*
G04*
G04 #@! TF.FilePolarity,Negative*
G04*
G01*
G75*
%ADD42R,0.01102X0.03347*%
%ADD43R,0.03347X0.01102*%
%ADD44R,0.00083X0.00083*%
%ADD45R,0.05524X0.02375*%
%ADD46R,0.05039X0.01890*%
%ADD47R,0.03162X0.05524*%
%ADD48R,0.02835X0.05197*%
%ADD49R,0.05524X0.09461*%
%ADD50R,0.14580X0.09461*%
%ADD51R,0.08280X0.06706*%
%ADD52R,0.06312X0.04737*%
%ADD53R,0.04737X0.06391*%
%ADD54R,0.06312X0.05524*%
%ADD55R,0.14580X0.08083*%
%ADD56R,0.08083X0.14580*%
%ADD57R,0.04737X0.04343*%
%ADD58R,0.04816X0.04501*%
%ADD59R,0.04501X0.04816*%
%ADD60R,0.04343X0.04737*%
%ADD61R,0.04796X0.10800*%
%ADD62R,0.10800X0.04796*%
%ADD63R,0.10052X0.06902*%
%ADD64R,0.02375X0.03950*%
%ADD65R,0.03950X0.02375*%
%ADD66R,0.05485X0.13792*%
%ADD67R,0.05131X0.03359*%
%ADD68R,0.07493X0.05328*%
%ADD69R,0.02737X0.01981*%
%ADD70R,0.02480X0.21299*%
%ADD71R,0.01968X0.21299*%
%ADD72R,0.19685X0.01968*%
%ADD73R,0.01968X0.12598*%
%ADD74R,0.11811X0.01968*%
%ADD75R,0.11024X0.01968*%
%ADD76R,0.10630X0.01968*%
%ADD77R,0.01968X0.18386*%
%ADD78R,0.05792X0.05792*%
%ADD79C,0.05792*%
%ADD80C,0.14973*%
%ADD81C,0.00362*%
%ADD82C,0.08477*%
%ADD83C,0.06863*%
%ADD84C,0.04737*%
%ADD85C,0.10249*%
%ADD86C,0.09658*%
%ADD87C,0.05918*%
%ADD88R,0.08477X0.08477*%
%ADD89C,0.05603*%
%ADD90R,0.05603X0.05603*%
%ADD91C,0.06706*%
%ADD92C,0.03162*%
%ADD93C,0.18517*%
G36*
X386379Y383308D02*
X386933Y382753D01*
X387233Y382029D01*
Y381638D01*
Y224157D01*
Y223765D01*
X386933Y223041D01*
X386379Y222487D01*
X385655Y222187D01*
X227391D01*
X226667Y222487D01*
X226113Y223041D01*
X225813Y223765D01*
Y224157D01*
X225813Y375732D01*
Y376124D01*
X226113Y376848D01*
X226667Y377402D01*
X227391Y377702D01*
X227783Y377702D01*
X379358Y377702D01*
X379750D01*
X380474Y377402D01*
X381028Y376848D01*
X381328Y376124D01*
Y375732D01*
X381328Y230063D01*
X381328D01*
X381328Y229671D01*
X381028Y228947D01*
X380474Y228393D01*
X379750Y228093D01*
X379358Y228093D01*
X233688Y228093D01*
X233297D01*
X232573Y228393D01*
X232018Y228947D01*
X231719Y229671D01*
Y230063D01*
X231719Y369827D01*
Y370218D01*
X232018Y370942D01*
X232573Y371497D01*
X233297Y371796D01*
X233689D01*
X373452Y371796D01*
X373452Y371796D01*
X373844Y371796D01*
X374568Y371497D01*
X375122Y370942D01*
X375422Y370218D01*
X375422Y369827D01*
X375422Y235968D01*
X375422D01*
X375422Y235576D01*
X375122Y234852D01*
X374568Y234298D01*
X373844Y233998D01*
X373452Y233998D01*
X239594Y233998D01*
X239202D01*
X238478Y234298D01*
X237924Y234852D01*
X237624Y235576D01*
Y235968D01*
X237624Y363921D01*
Y364313D01*
X237924Y365037D01*
X238478Y365591D01*
X239202Y365891D01*
X239594Y365891D01*
X367547Y365891D01*
X367547Y365891D01*
X367939Y365891D01*
X368663Y365591D01*
X369217Y365037D01*
X369517Y364313D01*
X369517Y363921D01*
X369517Y241874D01*
X369517D01*
X369517Y241482D01*
X369217Y240758D01*
X368663Y240204D01*
X367939Y239904D01*
X367547Y239904D01*
X245500Y239904D01*
X245108D01*
X244384Y240204D01*
X243829Y240758D01*
X243530Y241482D01*
Y241874D01*
X243530Y358015D01*
Y358407D01*
X243829Y359131D01*
X244384Y359686D01*
X245108Y359985D01*
X245500D01*
X361641Y359985D01*
X361641Y359985D01*
X362033Y359985D01*
X362757Y359686D01*
X363311Y359131D01*
X363611Y358407D01*
X363611Y358015D01*
X363611Y247779D01*
Y247387D01*
X363311Y246663D01*
X362757Y246109D01*
X362033Y245809D01*
X251013D01*
X250289Y246109D01*
X249735Y246663D01*
X249435Y247387D01*
Y247779D01*
Y347990D01*
Y348382D01*
X249735Y349106D01*
X250289Y349660D01*
X251013Y349960D01*
X251797D01*
X252521Y349660D01*
X253075Y349106D01*
X253375Y348382D01*
Y347990D01*
Y249749D01*
X359671D01*
Y356046D01*
X247470Y356046D01*
X247470Y243844D01*
X365577D01*
X365577Y361951D01*
X241564Y361951D01*
X241564Y237938D01*
X371482D01*
X371482Y367857D01*
X235659Y367857D01*
X235659Y232033D01*
X377388D01*
X377388Y373762D01*
X229753Y373762D01*
X229753Y226127D01*
X383293D01*
Y379667D01*
X227167D01*
X226443Y379967D01*
X225889Y380522D01*
X225589Y381246D01*
Y382029D01*
X225889Y382753D01*
X226443Y383308D01*
X227167Y383608D01*
X385655D01*
X386379Y383308D01*
D02*
G37*
G36*
X282480Y124016D02*
X184055D01*
Y202756D01*
X282480D01*
Y124016D01*
D02*
G37*
G36*
X94541Y102760D02*
X94592Y102749D01*
X94642Y102733D01*
X94689Y102709D01*
X94732Y102680D01*
X94772Y102646D01*
X94806Y102606D01*
X94835Y102563D01*
X94858Y102516D01*
X94875Y102466D01*
X94886Y102415D01*
X94889Y102362D01*
Y98425D01*
X94886Y98373D01*
X94875Y98321D01*
X94858Y98272D01*
X94835Y98225D01*
X94806Y98181D01*
X94772Y98142D01*
X94732Y98107D01*
X94689Y98078D01*
X94642Y98055D01*
X94592Y98038D01*
X94541Y98028D01*
X94488Y98024D01*
X93905D01*
Y96858D01*
X94488D01*
X94541Y96854D01*
X94592Y96844D01*
X94642Y96827D01*
X94689Y96804D01*
X94732Y96775D01*
X94772Y96740D01*
X94806Y96701D01*
X94835Y96657D01*
X94858Y96610D01*
X94875Y96561D01*
X94886Y96509D01*
X94889Y96457D01*
Y92520D01*
X94886Y92467D01*
X94875Y92416D01*
X94858Y92366D01*
X94835Y92319D01*
X94806Y92276D01*
X94772Y92236D01*
X94732Y92202D01*
X94689Y92172D01*
X94642Y92149D01*
X94592Y92133D01*
X94541Y92122D01*
X94488Y92119D01*
X93905D01*
Y90952D01*
X94488D01*
X94541Y90949D01*
X94592Y90938D01*
X94642Y90921D01*
X94689Y90898D01*
X94732Y90869D01*
X94772Y90835D01*
X94806Y90795D01*
X94835Y90752D01*
X94858Y90705D01*
X94875Y90655D01*
X94886Y90604D01*
X94889Y90551D01*
Y86614D01*
X94886Y86562D01*
X94875Y86510D01*
X94858Y86461D01*
X94835Y86414D01*
X94806Y86370D01*
X94772Y86331D01*
X94732Y86296D01*
X94689Y86267D01*
X94642Y86244D01*
X94592Y86227D01*
X94541Y86217D01*
X94488Y86213D01*
X90551D01*
X90499Y86217D01*
X90447Y86227D01*
X90398Y86244D01*
X90351Y86267D01*
X90307Y86296D01*
X90268Y86331D01*
X90233Y86370D01*
X90204Y86414D01*
X90181Y86461D01*
X90164Y86510D01*
X90154Y86562D01*
X90150Y86614D01*
Y90551D01*
X90154Y90604D01*
X90164Y90655D01*
X90181Y90705D01*
X90204Y90752D01*
X90233Y90795D01*
X90268Y90835D01*
X90307Y90869D01*
X90351Y90898D01*
X90398Y90921D01*
X90447Y90938D01*
X90499Y90949D01*
X90551Y90952D01*
X91135D01*
Y92119D01*
X90551D01*
X90499Y92122D01*
X90447Y92133D01*
X90398Y92149D01*
X90351Y92172D01*
X90307Y92202D01*
X90268Y92236D01*
X90233Y92276D01*
X90204Y92319D01*
X90181Y92366D01*
X90164Y92416D01*
X90154Y92467D01*
X90150Y92520D01*
Y96457D01*
X90154Y96509D01*
X90164Y96561D01*
X90181Y96610D01*
X90204Y96657D01*
X90233Y96701D01*
X90268Y96740D01*
X90307Y96775D01*
X90351Y96804D01*
X90398Y96827D01*
X90447Y96844D01*
X90499Y96854D01*
X90551Y96858D01*
X91135D01*
Y98024D01*
X90551D01*
X90499Y98028D01*
X90447Y98038D01*
X90398Y98055D01*
X90351Y98078D01*
X90307Y98107D01*
X90268Y98142D01*
X90233Y98181D01*
X90204Y98225D01*
X90181Y98272D01*
X90164Y98321D01*
X90154Y98373D01*
X90150Y98425D01*
Y99009D01*
X88984D01*
Y98425D01*
X88980Y98373D01*
X88970Y98321D01*
X88953Y98272D01*
X88930Y98225D01*
X88901Y98181D01*
X88866Y98142D01*
X88827Y98107D01*
X88783Y98078D01*
X88736Y98055D01*
X88686Y98038D01*
X88635Y98028D01*
X88583Y98024D01*
X87999D01*
Y96858D01*
X88583D01*
X88635Y96854D01*
X88686Y96844D01*
X88736Y96827D01*
X88783Y96804D01*
X88827Y96775D01*
X88866Y96740D01*
X88901Y96701D01*
X88930Y96657D01*
X88953Y96610D01*
X88970Y96561D01*
X88980Y96509D01*
X88984Y96457D01*
Y92520D01*
X88980Y92467D01*
X88970Y92416D01*
X88953Y92366D01*
X88930Y92319D01*
X88901Y92276D01*
X88866Y92236D01*
X88827Y92202D01*
X88783Y92172D01*
X88736Y92149D01*
X88686Y92133D01*
X88635Y92122D01*
X88583Y92119D01*
X84646D01*
X84593Y92122D01*
X84542Y92133D01*
X84492Y92149D01*
X84445Y92172D01*
X84402Y92202D01*
X84362Y92236D01*
X84328Y92276D01*
X84298Y92319D01*
X84275Y92366D01*
X84259Y92416D01*
X84248Y92467D01*
X84245Y92520D01*
Y96457D01*
X84248Y96509D01*
X84259Y96561D01*
X84275Y96610D01*
X84298Y96657D01*
X84328Y96701D01*
X84362Y96740D01*
X84402Y96775D01*
X84445Y96804D01*
X84492Y96827D01*
X84542Y96844D01*
X84593Y96854D01*
X84646Y96858D01*
X85229D01*
Y98024D01*
X84646D01*
X84593Y98028D01*
X84542Y98038D01*
X84492Y98055D01*
X84445Y98078D01*
X84402Y98107D01*
X84362Y98142D01*
X84328Y98181D01*
X84298Y98225D01*
X84275Y98272D01*
X84259Y98321D01*
X84248Y98373D01*
X84245Y98425D01*
Y99009D01*
X83078D01*
Y98425D01*
X83075Y98373D01*
X83064Y98321D01*
X83047Y98272D01*
X83024Y98225D01*
X82995Y98181D01*
X82961Y98142D01*
X82921Y98107D01*
X82878Y98078D01*
X82831Y98055D01*
X82781Y98038D01*
X82730Y98028D01*
X82677Y98024D01*
X82094D01*
Y96858D01*
X82677D01*
X82730Y96854D01*
X82781Y96844D01*
X82831Y96827D01*
X82878Y96804D01*
X82921Y96775D01*
X82961Y96740D01*
X82995Y96701D01*
X83024Y96657D01*
X83047Y96610D01*
X83064Y96561D01*
X83075Y96509D01*
X83078Y96457D01*
Y92520D01*
X83075Y92467D01*
X83064Y92416D01*
X83047Y92366D01*
X83024Y92319D01*
X82995Y92276D01*
X82961Y92236D01*
X82921Y92202D01*
X82878Y92172D01*
X82831Y92149D01*
X82781Y92133D01*
X82730Y92122D01*
X82677Y92119D01*
X82094D01*
Y90952D01*
X82677D01*
X82730Y90949D01*
X82781Y90938D01*
X82831Y90921D01*
X82878Y90898D01*
X82921Y90869D01*
X82961Y90835D01*
X82995Y90795D01*
X83024Y90752D01*
X83047Y90705D01*
X83064Y90655D01*
X83075Y90604D01*
X83078Y90551D01*
Y86614D01*
X83075Y86562D01*
X83064Y86510D01*
X83047Y86461D01*
X83024Y86414D01*
X82995Y86370D01*
X82961Y86331D01*
X82921Y86296D01*
X82878Y86267D01*
X82831Y86244D01*
X82781Y86227D01*
X82730Y86217D01*
X82677Y86213D01*
X80709D01*
X80656Y86217D01*
X80605Y86227D01*
X80555Y86244D01*
X80508Y86267D01*
X80465Y86296D01*
X80425Y86331D01*
X78457Y88299D01*
X78422Y88339D01*
X78393Y88382D01*
X78370Y88429D01*
X78353Y88479D01*
X78343Y88530D01*
X78339Y88583D01*
Y90551D01*
X78343Y90604D01*
X78353Y90655D01*
X78370Y90705D01*
X78393Y90752D01*
X78422Y90795D01*
X78457Y90835D01*
X78496Y90869D01*
X78540Y90898D01*
X78587Y90921D01*
X78636Y90938D01*
X78688Y90949D01*
X78740Y90952D01*
X79324D01*
Y92119D01*
X78740D01*
X78688Y92122D01*
X78636Y92133D01*
X78587Y92149D01*
X78540Y92172D01*
X78496Y92202D01*
X78457Y92236D01*
X78422Y92276D01*
X78393Y92319D01*
X78370Y92366D01*
X78353Y92416D01*
X78343Y92467D01*
X78339Y92520D01*
Y96457D01*
X78343Y96509D01*
X78353Y96561D01*
X78370Y96610D01*
X78393Y96657D01*
X78422Y96701D01*
X78457Y96740D01*
X78496Y96775D01*
X78540Y96804D01*
X78587Y96827D01*
X78636Y96844D01*
X78688Y96854D01*
X78740Y96858D01*
X79324D01*
Y98024D01*
X78740D01*
X78688Y98028D01*
X78636Y98038D01*
X78587Y98055D01*
X78540Y98078D01*
X78496Y98107D01*
X78457Y98142D01*
X78422Y98181D01*
X78393Y98225D01*
X78370Y98272D01*
X78353Y98321D01*
X78343Y98373D01*
X78339Y98425D01*
Y102362D01*
X78343Y102415D01*
X78353Y102466D01*
X78370Y102516D01*
X78393Y102563D01*
X78422Y102606D01*
X78457Y102646D01*
X78496Y102680D01*
X78540Y102709D01*
X78587Y102733D01*
X78636Y102749D01*
X78688Y102760D01*
X78740Y102763D01*
X82677D01*
X82730Y102760D01*
X82781Y102749D01*
X82831Y102733D01*
X82878Y102709D01*
X82921Y102680D01*
X82961Y102646D01*
X82995Y102606D01*
X83024Y102563D01*
X83047Y102516D01*
X83064Y102466D01*
X83075Y102415D01*
X83078Y102362D01*
Y101779D01*
X84245D01*
Y102362D01*
X84248Y102415D01*
X84259Y102466D01*
X84275Y102516D01*
X84298Y102563D01*
X84328Y102606D01*
X84362Y102646D01*
X84402Y102680D01*
X84445Y102709D01*
X84492Y102733D01*
X84542Y102749D01*
X84593Y102760D01*
X84646Y102763D01*
X88583D01*
X88635Y102760D01*
X88686Y102749D01*
X88736Y102733D01*
X88783Y102709D01*
X88827Y102680D01*
X88866Y102646D01*
X88901Y102606D01*
X88930Y102563D01*
X88953Y102516D01*
X88970Y102466D01*
X88980Y102415D01*
X88984Y102362D01*
Y101779D01*
X90150D01*
Y102362D01*
X90154Y102415D01*
X90164Y102466D01*
X90181Y102516D01*
X90204Y102563D01*
X90233Y102606D01*
X90268Y102646D01*
X90307Y102680D01*
X90351Y102709D01*
X90398Y102733D01*
X90447Y102749D01*
X90499Y102760D01*
X90551Y102763D01*
X94488D01*
X94541Y102760D01*
D02*
G37*
G36*
X15603Y90549D02*
X15653Y90539D01*
X15702Y90522D01*
X15748Y90499D01*
X15791Y90470D01*
X15830Y90437D01*
X15864Y90398D01*
X15893Y90355D01*
X15916Y90308D01*
X15932Y90260D01*
X15942Y90209D01*
X15946Y90158D01*
Y87008D01*
X15942Y86956D01*
X15932Y86906D01*
X15916Y86857D01*
X15893Y86811D01*
X15864Y86768D01*
X15830Y86729D01*
X15791Y86695D01*
X15748Y86666D01*
X15702Y86643D01*
X15653Y86627D01*
X15603Y86617D01*
X15551Y86613D01*
X13189D01*
X13137Y86617D01*
X13087Y86627D01*
X13038Y86643D01*
X12992Y86666D01*
X12949Y86695D01*
X12910Y86729D01*
X12876Y86768D01*
X12847Y86811D01*
X12824Y86857D01*
X12808Y86906D01*
X12798Y86956D01*
X12794Y87008D01*
Y90158D01*
X12798Y90209D01*
X12808Y90260D01*
X12824Y90308D01*
X12847Y90355D01*
X12876Y90398D01*
X12910Y90437D01*
X12949Y90470D01*
X12992Y90499D01*
X13038Y90522D01*
X13087Y90539D01*
X13137Y90549D01*
X13189Y90552D01*
X15551D01*
X15603Y90549D01*
D02*
G37*
G36*
Y64958D02*
X15653Y64948D01*
X15702Y64931D01*
X15748Y64909D01*
X15791Y64880D01*
X15830Y64846D01*
X15864Y64807D01*
X15893Y64764D01*
X15916Y64718D01*
X15932Y64669D01*
X15942Y64618D01*
X15946Y64567D01*
Y61417D01*
X15942Y61366D01*
X15932Y61315D01*
X15916Y61266D01*
X15893Y61220D01*
X15864Y61177D01*
X15830Y61138D01*
X15791Y61104D01*
X15748Y61076D01*
X15702Y61053D01*
X15653Y61036D01*
X15603Y61026D01*
X15551Y61023D01*
X13189D01*
X13137Y61026D01*
X13087Y61036D01*
X13038Y61053D01*
X12992Y61076D01*
X12949Y61104D01*
X12910Y61138D01*
X12876Y61177D01*
X12847Y61220D01*
X12824Y61266D01*
X12808Y61315D01*
X12798Y61366D01*
X12794Y61417D01*
Y64567D01*
X12798Y64618D01*
X12808Y64669D01*
X12824Y64718D01*
X12847Y64764D01*
X12876Y64807D01*
X12910Y64846D01*
X12949Y64880D01*
X12992Y64909D01*
X13038Y64931D01*
X13087Y64948D01*
X13137Y64958D01*
X13189Y64961D01*
X15551D01*
X15603Y64958D01*
D02*
G37*
G36*
Y39367D02*
X15653Y39358D01*
X15702Y39341D01*
X15748Y39318D01*
X15791Y39289D01*
X15830Y39255D01*
X15864Y39217D01*
X15893Y39174D01*
X15916Y39127D01*
X15932Y39079D01*
X15942Y39028D01*
X15946Y38976D01*
Y35827D01*
X15942Y35775D01*
X15932Y35725D01*
X15916Y35676D01*
X15893Y35629D01*
X15864Y35587D01*
X15830Y35548D01*
X15791Y35514D01*
X15748Y35485D01*
X15702Y35462D01*
X15653Y35446D01*
X15603Y35436D01*
X15551Y35432D01*
X13189D01*
X13137Y35436D01*
X13087Y35446D01*
X13038Y35462D01*
X12992Y35485D01*
X12949Y35514D01*
X12910Y35548D01*
X12876Y35587D01*
X12847Y35629D01*
X12824Y35676D01*
X12808Y35725D01*
X12798Y35775D01*
X12794Y35827D01*
Y38976D01*
X12798Y39028D01*
X12808Y39079D01*
X12824Y39127D01*
X12847Y39174D01*
X12876Y39217D01*
X12910Y39255D01*
X12949Y39289D01*
X12992Y39318D01*
X13038Y39341D01*
X13087Y39358D01*
X13137Y39367D01*
X13189Y39371D01*
X15551D01*
X15603Y39367D01*
D02*
G37*
G36*
X183591Y32337D02*
X181623D01*
Y34305D01*
X183591D01*
Y32337D01*
D02*
G37*
G36*
X192660Y31813D02*
X190180D01*
Y34293D01*
X192660D01*
Y31813D01*
D02*
G37*
G36*
X208661Y388779D02*
X4921D01*
Y4921D01*
X388779D01*
Y204724D01*
X392717D01*
Y984D01*
X984D01*
Y4921D01*
Y388779D01*
Y392717D01*
X208661D01*
Y388779D01*
D02*
G37*
D42*
X75671Y321949D02*
D03*
X73702D02*
D03*
X71733D02*
D03*
X69764D02*
D03*
X67795D02*
D03*
X65826D02*
D03*
X63857D02*
D03*
X61888D02*
D03*
Y341437D02*
D03*
X63857D02*
D03*
X65826D02*
D03*
X67795D02*
D03*
X69764D02*
D03*
X71733D02*
D03*
X73702D02*
D03*
X75671D02*
D03*
D43*
X59035Y324803D02*
D03*
Y326772D02*
D03*
Y328740D02*
D03*
Y330709D02*
D03*
Y332677D02*
D03*
Y334646D02*
D03*
Y336614D02*
D03*
Y338583D02*
D03*
X78524D02*
D03*
Y336614D02*
D03*
Y334646D02*
D03*
Y332677D02*
D03*
Y330709D02*
D03*
Y328740D02*
D03*
Y326772D02*
D03*
Y324803D02*
D03*
D44*
X68779Y331693D02*
D03*
D45*
X176483Y75990D02*
D03*
Y70872D02*
D03*
D46*
X169003D02*
D03*
Y73431D02*
D03*
Y75990D02*
D03*
D47*
X157283Y191929D02*
D03*
X149803D02*
D03*
Y201772D02*
D03*
D48*
X153543D02*
D03*
X157283D02*
D03*
D49*
X258813Y68929D02*
D03*
X267868D02*
D03*
X276923D02*
D03*
D50*
X267868Y93338D02*
D03*
D51*
X131890Y120984D02*
D03*
Y130984D02*
D03*
X167323D02*
D03*
Y120984D02*
D03*
D52*
X128347Y34055D02*
D03*
X119685Y30315D02*
D03*
Y37795D02*
D03*
X104724Y34055D02*
D03*
X96063Y30315D02*
D03*
Y37795D02*
D03*
D53*
X56102Y28740D02*
D03*
X65945D02*
D03*
X125787Y288976D02*
D03*
X115945D02*
D03*
D54*
X77953Y306445D02*
D03*
X69291D02*
D03*
Y313138D02*
D03*
X77953D02*
D03*
D55*
X161024Y241142D02*
D03*
X140157D02*
D03*
D56*
X298206Y92354D02*
D03*
Y71488D02*
D03*
X236872Y68157D02*
D03*
Y89023D02*
D03*
D57*
X59881Y361024D02*
D03*
Y354331D02*
D03*
X53815Y361024D02*
D03*
Y354331D02*
D03*
X87008Y300197D02*
D03*
Y293504D02*
D03*
X150773Y336024D02*
D03*
Y329331D02*
D03*
X144342Y336030D02*
D03*
Y329337D02*
D03*
Y348406D02*
D03*
Y341714D02*
D03*
X120888Y329337D02*
D03*
Y336030D02*
D03*
X114606Y342717D02*
D03*
Y336024D02*
D03*
X73304Y361024D02*
D03*
Y354331D02*
D03*
X79997Y361024D02*
D03*
Y354331D02*
D03*
X70472Y300197D02*
D03*
Y293504D02*
D03*
X80709Y300197D02*
D03*
Y293504D02*
D03*
X93307Y300197D02*
D03*
Y293504D02*
D03*
X45840Y142717D02*
D03*
Y136024D02*
D03*
X39370Y175591D02*
D03*
Y168898D02*
D03*
X185008Y77362D02*
D03*
Y70669D02*
D03*
X216142Y363976D02*
D03*
Y370669D02*
D03*
X209452Y370669D02*
D03*
Y363976D02*
D03*
X187057Y370669D02*
D03*
Y363976D02*
D03*
X203143Y363976D02*
D03*
Y370669D02*
D03*
X166535Y363976D02*
D03*
Y370669D02*
D03*
X172047Y191929D02*
D03*
Y198622D02*
D03*
X165748Y191929D02*
D03*
Y198622D02*
D03*
X147244Y77362D02*
D03*
Y70669D02*
D03*
D58*
X164961Y345315D02*
D03*
Y351535D02*
D03*
X66611Y354842D02*
D03*
Y361063D02*
D03*
X57402Y299685D02*
D03*
Y293465D02*
D03*
X50709Y299685D02*
D03*
Y293465D02*
D03*
X64095Y299685D02*
D03*
Y293465D02*
D03*
X47244Y175354D02*
D03*
Y169134D02*
D03*
X37982Y136428D02*
D03*
Y142649D02*
D03*
X53485Y142649D02*
D03*
Y136428D02*
D03*
X112205Y36575D02*
D03*
Y30354D02*
D03*
X196372Y364458D02*
D03*
Y370679D02*
D03*
X309055Y143858D02*
D03*
Y137638D02*
D03*
X301181Y143858D02*
D03*
Y137638D02*
D03*
X88583Y36575D02*
D03*
Y30354D02*
D03*
X164961Y320974D02*
D03*
Y327195D02*
D03*
D59*
X40863Y306102D02*
D03*
X47083D02*
D03*
X40863Y312795D02*
D03*
X47083D02*
D03*
X40863Y318701D02*
D03*
X47083D02*
D03*
X40863Y324606D02*
D03*
X47083D02*
D03*
X40863Y330512D02*
D03*
X47083D02*
D03*
X40863Y336417D02*
D03*
X47083D02*
D03*
X40863Y342323D02*
D03*
X47083D02*
D03*
X40863Y348228D02*
D03*
X47083D02*
D03*
X13819Y101378D02*
D03*
X20039D02*
D03*
X146496Y92520D02*
D03*
X152717D02*
D03*
X167362Y109455D02*
D03*
X173583D02*
D03*
X167425Y101741D02*
D03*
X173645D02*
D03*
X13819Y75787D02*
D03*
X20039D02*
D03*
X13819Y50197D02*
D03*
X20039D02*
D03*
X151017Y215425D02*
D03*
X157238D02*
D03*
X160235Y70676D02*
D03*
X154014D02*
D03*
D60*
X103619Y306102D02*
D03*
X96926D02*
D03*
X156857Y348509D02*
D03*
X150164D02*
D03*
X121299D02*
D03*
X114606D02*
D03*
X89213Y338583D02*
D03*
X95905D02*
D03*
X89213Y332677D02*
D03*
X95906D02*
D03*
X135839Y345760D02*
D03*
X129146D02*
D03*
X103619Y318701D02*
D03*
X96926D02*
D03*
X103619Y324606D02*
D03*
X96926D02*
D03*
X103619Y312795D02*
D03*
X96926D02*
D03*
X284425Y105547D02*
D03*
X277732D02*
D03*
X255866D02*
D03*
X262559D02*
D03*
X67520Y51175D02*
D03*
X74213D02*
D03*
X67520Y57505D02*
D03*
X74213D02*
D03*
X67520Y63737D02*
D03*
X74213D02*
D03*
X173866Y370731D02*
D03*
X180559D02*
D03*
X180096Y363953D02*
D03*
X173403D02*
D03*
X180512Y377559D02*
D03*
X173819D02*
D03*
X13780Y31496D02*
D03*
Y43307D02*
D03*
Y57087D02*
D03*
Y68898D02*
D03*
Y82677D02*
D03*
Y94488D02*
D03*
D61*
X136993Y336221D02*
D03*
X127993D02*
D03*
D62*
X105093Y341707D02*
D03*
Y332707D02*
D03*
D63*
X208071Y37551D02*
D03*
X225000D02*
D03*
D64*
X67716Y71260D02*
D03*
X70866D02*
D03*
X74016D02*
D03*
X77165D02*
D03*
X80315D02*
D03*
X83465D02*
D03*
X86614D02*
D03*
X89764D02*
D03*
X92913D02*
D03*
X96063D02*
D03*
X99213D02*
D03*
X102362D02*
D03*
X105512D02*
D03*
Y117717D02*
D03*
X102362D02*
D03*
X99213D02*
D03*
X96063D02*
D03*
X92913D02*
D03*
X89764D02*
D03*
X86614D02*
D03*
X83465D02*
D03*
X80315D02*
D03*
X77165D02*
D03*
X74016D02*
D03*
X70866D02*
D03*
X67716D02*
D03*
D65*
X110433Y74016D02*
D03*
Y77165D02*
D03*
Y80315D02*
D03*
Y83465D02*
D03*
Y86614D02*
D03*
Y89764D02*
D03*
Y92913D02*
D03*
Y96063D02*
D03*
Y99213D02*
D03*
Y102362D02*
D03*
Y105512D02*
D03*
Y108661D02*
D03*
Y111811D02*
D03*
Y114961D02*
D03*
X62795D02*
D03*
Y111811D02*
D03*
Y108661D02*
D03*
Y105512D02*
D03*
Y102362D02*
D03*
Y99213D02*
D03*
Y96063D02*
D03*
Y92913D02*
D03*
Y89764D02*
D03*
Y86614D02*
D03*
Y83465D02*
D03*
Y80315D02*
D03*
Y77165D02*
D03*
Y74016D02*
D03*
D66*
X186457Y325984D02*
D03*
X196457Y351181D02*
D03*
X206457Y325984D02*
D03*
D67*
X36614Y59213D02*
D03*
Y66772D02*
D03*
X28346Y62992D02*
D03*
X28346Y37402D02*
D03*
X36614Y41181D02*
D03*
Y33622D02*
D03*
D68*
X139741Y203051D02*
D03*
Y190650D02*
D03*
D69*
X146949Y100036D02*
D03*
Y102004D02*
D03*
Y103972D02*
D03*
X153516D02*
D03*
Y102004D02*
D03*
Y100036D02*
D03*
D70*
X191409Y23654D02*
D03*
D71*
X182609Y23654D02*
D03*
D72*
X182806Y13989D02*
D03*
D73*
X173948Y19304D02*
D03*
X164105D02*
D03*
X155050D02*
D03*
X145208Y19304D02*
D03*
D74*
X169027Y24619D02*
D03*
X150129D02*
D03*
D75*
X159578Y13989D02*
D03*
D76*
X140877Y13989D02*
D03*
D77*
X136547Y22198D02*
D03*
D78*
X338957Y139980D02*
D03*
Y73051D02*
D03*
D79*
X328957Y144980D02*
D03*
X338957Y149980D02*
D03*
X328957Y154980D02*
D03*
X338957Y159980D02*
D03*
X328957Y164980D02*
D03*
X338957Y169980D02*
D03*
X328957Y174980D02*
D03*
Y78051D02*
D03*
X338957Y83051D02*
D03*
X328957Y88051D02*
D03*
X338957Y93051D02*
D03*
X328957Y98051D02*
D03*
X338957Y103051D02*
D03*
X328957Y108051D02*
D03*
D80*
X363957Y134980D02*
D03*
Y179980D02*
D03*
Y68051D02*
D03*
Y113051D02*
D03*
D81*
X68779Y331693D02*
D03*
D82*
X25646Y155492D02*
D03*
Y183091D02*
D03*
Y116122D02*
D03*
Y143720D02*
D03*
X329213Y39370D02*
D03*
X309213D02*
D03*
X289213D02*
D03*
X269213D02*
D03*
X249213D02*
D03*
D83*
X15843Y160433D02*
D03*
Y178150D02*
D03*
Y121063D02*
D03*
Y138779D02*
D03*
D84*
X222441Y381616D02*
D03*
X251362Y352160D02*
D03*
D85*
X159565Y288235D02*
D03*
Y308235D02*
D03*
X179565D02*
D03*
Y288235D02*
D03*
D86*
X169565Y298235D02*
D03*
D87*
X116142Y250079D02*
D03*
Y240079D02*
D03*
Y230079D02*
D03*
Y220079D02*
D03*
Y210079D02*
D03*
Y200079D02*
D03*
X148622Y143701D02*
D03*
Y183071D02*
D03*
X208661Y15748D02*
D03*
X216535D02*
D03*
X224410D02*
D03*
D88*
X349213Y39370D02*
D03*
D89*
X78110Y19685D02*
D03*
X88110D02*
D03*
X98110D02*
D03*
X108110D02*
D03*
X118110D02*
D03*
D90*
X128110D02*
D03*
D91*
X200787Y15748D02*
D03*
X232283D02*
D03*
D92*
X73504Y336417D02*
D03*
X68779D02*
D03*
X64055D02*
D03*
Y326969D02*
D03*
X68779D02*
D03*
X73504D02*
D03*
D93*
X377953Y15748D02*
D03*
X15748D02*
D03*
Y377953D02*
D03*
M02*
