G04*
G04 #@! TF.GenerationSoftware,Altium Limited,Altium Designer,24.5.2 (23)*
G04*
G04 Layer_Color=65535*
%FSLAX25Y25*%
%MOIN*%
G70*
G04*
G04 #@! TF.SameCoordinates,B46FEEB2-3EEE-4911-894C-B78D551571A6*
G04*
G04*
G04 #@! TF.FilePolarity,Positive*
G04*
G01*
G75*
%ADD10C,0.01000*%
%ADD11C,0.00394*%
%ADD12C,0.00787*%
%ADD13C,0.00500*%
%ADD14C,0.00600*%
%ADD15C,0.01575*%
G36*
X26443Y223003D02*
X27023D01*
Y222713D01*
X27313D01*
Y222423D01*
X27603D01*
Y220683D01*
X27313D01*
Y220103D01*
X27023D01*
Y219523D01*
X26443D01*
Y219233D01*
X24703D01*
Y219523D01*
X24123D01*
Y219813D01*
X23833D01*
Y220393D01*
X23543D01*
Y222713D01*
X23833D01*
Y223003D01*
X24123D01*
Y223293D01*
X26443D01*
Y223003D01*
D02*
G37*
G36*
X42393Y207633D02*
X31663D01*
Y207923D01*
X31953D01*
Y208213D01*
X32243D01*
Y208503D01*
X32533D01*
Y208793D01*
X32823D01*
Y209083D01*
X33113D01*
Y209663D01*
X33403D01*
Y210243D01*
X33693D01*
Y211113D01*
X33983D01*
Y211693D01*
X33403D01*
Y211983D01*
X32533D01*
Y212273D01*
X31953D01*
Y212563D01*
X31373D01*
Y212853D01*
X31083D01*
Y213143D01*
X30793D01*
Y213433D01*
X30503D01*
Y213723D01*
X30213D01*
Y214013D01*
X29923D01*
Y214593D01*
X29633D01*
Y217203D01*
X29923D01*
Y217783D01*
X30213D01*
Y218363D01*
X30503D01*
Y218653D01*
X30793D01*
Y218943D01*
X31083D01*
Y219233D01*
X31373D01*
Y219523D01*
X31663D01*
Y219813D01*
X32533D01*
Y220103D01*
X34273D01*
Y219813D01*
X34853D01*
Y219523D01*
X35143D01*
Y219233D01*
X35433D01*
Y218943D01*
X35723D01*
Y218653D01*
X36013D01*
Y218363D01*
X36303D01*
Y218073D01*
X36593D01*
Y217783D01*
X36883D01*
Y216913D01*
X37753D01*
Y218073D01*
X38043D01*
Y218653D01*
X38333D01*
Y219233D01*
X38623D01*
Y219523D01*
X38913D01*
Y220103D01*
X39203D01*
Y220683D01*
X39493D01*
Y220973D01*
X39783D01*
Y224163D01*
X39493D01*
Y224743D01*
X39203D01*
Y225033D01*
X38623D01*
Y225323D01*
X37753D01*
Y225613D01*
X35433D01*
Y225903D01*
X31373D01*
Y226193D01*
X27313D01*
Y226483D01*
X19483D01*
Y226193D01*
X19193D01*
Y225903D01*
X18903D01*
Y225323D01*
X18613D01*
Y222713D01*
X18903D01*
Y222133D01*
X19193D01*
Y221553D01*
X19483D01*
Y221263D01*
X19773D01*
Y220683D01*
X20063D01*
Y220393D01*
X20353D01*
Y219813D01*
X20643D01*
Y219523D01*
X20933D01*
Y218943D01*
X21223D01*
Y218653D01*
X21513D01*
Y218073D01*
X21803D01*
Y217493D01*
X22093D01*
Y217203D01*
X22383D01*
Y216623D01*
X22673D01*
Y216333D01*
X22963D01*
Y215753D01*
X23253D01*
Y215463D01*
X23543D01*
Y214883D01*
X23833D01*
Y214593D01*
X24123D01*
Y214013D01*
X24413D01*
Y213723D01*
X24703D01*
Y213143D01*
X24993D01*
Y212853D01*
X25283D01*
Y212273D01*
X25573D01*
Y211983D01*
X25863D01*
Y211403D01*
X26153D01*
Y211113D01*
X26443D01*
Y210533D01*
X26733D01*
Y210243D01*
X27023D01*
Y209663D01*
X27313D01*
Y209373D01*
X27603D01*
Y209083D01*
X27893D01*
Y208503D01*
X28183D01*
Y208213D01*
X28473D01*
Y207923D01*
X28763D01*
Y207633D01*
X18033D01*
Y272594D01*
X42393D01*
Y207633D01*
D02*
G37*
G36*
X55118Y115157D02*
X35433D01*
Y121063D01*
X55118D01*
Y115157D01*
D02*
G37*
G36*
X293437Y151183D02*
X296970D01*
Y127561D01*
X293437D01*
D01*
X290327D01*
Y151183D01*
X293437D01*
D01*
D02*
G37*
G36*
X134350Y6560D02*
X71358D01*
Y13125D01*
X134350D01*
Y6560D01*
D02*
G37*
G36*
X180561Y59362D02*
D01*
Y53989D01*
X158022D01*
Y59362D01*
Y64121D01*
X180561D01*
Y59362D01*
D02*
G37*
G36*
X23882Y44900D02*
Y29939D01*
X17976D01*
Y44900D01*
X23882D01*
D02*
G37*
G36*
X358268Y11811D02*
X240158D01*
Y20999D01*
X358268D01*
Y11811D01*
D02*
G37*
G36*
X55118Y156496D02*
X35433D01*
Y162402D01*
X55118D01*
Y156496D01*
D02*
G37*
G36*
X24021Y71270D02*
Y55522D01*
X18116D01*
Y71270D01*
X24021D01*
D02*
G37*
G36*
X203150Y280820D02*
X191339D01*
Y315243D01*
X203150D01*
Y280820D01*
D02*
G37*
G36*
X24213Y80637D02*
X18307D01*
Y96529D01*
X24213D01*
Y80637D01*
D02*
G37*
G36*
X48228Y11221D02*
X42323D01*
Y25000D01*
X48228D01*
Y11221D01*
D02*
G37*
%LPC*%
G36*
X37173Y270854D02*
X33693D01*
Y269694D01*
X33403D01*
Y268244D01*
X30793D01*
Y267954D01*
X28183D01*
Y270854D01*
X24703D01*
Y267954D01*
X21223D01*
Y266794D01*
X21513D01*
Y265634D01*
X21803D01*
Y264764D01*
X22093D01*
Y264184D01*
X24703D01*
Y261864D01*
X28183D01*
Y264184D01*
X34563D01*
Y264474D01*
X35143D01*
Y264764D01*
X35723D01*
Y265054D01*
X36013D01*
Y265344D01*
X36303D01*
Y265634D01*
X36593D01*
Y265924D01*
X36883D01*
Y266504D01*
X37173D01*
Y270854D01*
D02*
G37*
G36*
X36883Y260704D02*
X19193D01*
Y256644D01*
X37173D01*
Y260414D01*
X36883D01*
Y260704D01*
D02*
G37*
G36*
X24993Y255774D02*
X24703D01*
Y251714D01*
X24993D01*
Y251424D01*
X25283D01*
Y251134D01*
X26153D01*
Y250844D01*
X27023D01*
Y250554D01*
X27893D01*
Y250264D01*
X28763D01*
Y249974D01*
X29633D01*
Y249684D01*
X30503D01*
Y249394D01*
X31373D01*
Y248814D01*
X30503D01*
Y248524D01*
X29923D01*
Y248234D01*
X29343D01*
Y247944D01*
X28473D01*
Y247654D01*
X27893D01*
Y247364D01*
X27023D01*
Y247074D01*
X26443D01*
Y246784D01*
X25863D01*
Y246494D01*
X24993D01*
Y246204D01*
X24703D01*
Y238084D01*
X24993D01*
Y237793D01*
X25863D01*
Y237504D01*
X26733D01*
Y237213D01*
X27313D01*
Y236924D01*
X28183D01*
Y236633D01*
X29053D01*
Y236344D01*
X29633D01*
Y236053D01*
X30503D01*
Y235764D01*
X31083D01*
Y235473D01*
X31373D01*
Y234893D01*
X30503D01*
Y234604D01*
X29633D01*
Y234314D01*
X29053D01*
Y234023D01*
X28183D01*
Y233734D01*
X27313D01*
Y233443D01*
X26733D01*
Y233154D01*
X25863D01*
Y232863D01*
X24993D01*
Y232574D01*
X24703D01*
Y228223D01*
X25283D01*
Y228513D01*
X26153D01*
Y228803D01*
X26733D01*
Y229093D01*
X27603D01*
Y229383D01*
X28183D01*
Y229673D01*
X29053D01*
Y229963D01*
X29633D01*
Y230253D01*
X30503D01*
Y230543D01*
X31083D01*
Y230833D01*
X31663D01*
Y231123D01*
X32533D01*
Y231414D01*
X33113D01*
Y231703D01*
X33983D01*
Y231994D01*
X34563D01*
Y232283D01*
X35433D01*
Y232574D01*
X36013D01*
Y232863D01*
X36883D01*
Y233154D01*
X37173D01*
Y237504D01*
X36883D01*
Y237793D01*
X36013D01*
Y238084D01*
X35433D01*
Y238373D01*
X34853D01*
Y238664D01*
X33983D01*
Y238953D01*
X33403D01*
Y239244D01*
X32533D01*
Y239533D01*
X31953D01*
Y239824D01*
X31083D01*
Y240113D01*
X30503D01*
Y240404D01*
X29923D01*
Y240693D01*
X29053D01*
Y240984D01*
X28473D01*
Y241273D01*
X27603D01*
Y241564D01*
X26443D01*
Y241853D01*
X25863D01*
Y242434D01*
X26733D01*
Y242724D01*
X27313D01*
Y243014D01*
X28183D01*
Y243304D01*
X28763D01*
Y243594D01*
X29343D01*
Y243884D01*
X29923D01*
Y244174D01*
X30503D01*
Y244464D01*
X31083D01*
Y244754D01*
X31953D01*
Y245044D01*
X32533D01*
Y245334D01*
X33113D01*
Y245624D01*
X33693D01*
Y245914D01*
X34273D01*
Y246204D01*
X35143D01*
Y246494D01*
X36013D01*
Y246784D01*
X37173D01*
Y246494D01*
X37463D01*
Y246204D01*
X37753D01*
Y245914D01*
X38043D01*
Y244754D01*
X38333D01*
Y243884D01*
X41813D01*
Y246784D01*
X41523D01*
Y247654D01*
X41233D01*
Y248234D01*
X40943D01*
Y248524D01*
X40653D01*
Y248814D01*
X40363D01*
Y249394D01*
X40073D01*
Y249684D01*
X39783D01*
Y249974D01*
X39203D01*
Y250264D01*
X38913D01*
Y250554D01*
X38333D01*
Y250844D01*
X37463D01*
Y251134D01*
X36883D01*
Y251424D01*
X36303D01*
Y251714D01*
X35433D01*
Y252004D01*
X34563D01*
Y252294D01*
X33983D01*
Y252584D01*
X33113D01*
Y252874D01*
X32243D01*
Y253164D01*
X31663D01*
Y253454D01*
X30793D01*
Y253744D01*
X29923D01*
Y254034D01*
X29343D01*
Y254324D01*
X28473D01*
Y254614D01*
X27603D01*
Y254904D01*
X26733D01*
Y255194D01*
X25863D01*
Y255484D01*
X24993D01*
Y255774D01*
D02*
G37*
G36*
X19483Y246204D02*
X19193D01*
Y243884D01*
X19483D01*
Y246204D01*
D02*
G37*
G36*
X34273Y218943D02*
X32243D01*
Y218653D01*
X31663D01*
Y218363D01*
X31373D01*
Y218073D01*
X31083D01*
Y217493D01*
X30793D01*
Y216623D01*
X30503D01*
Y214883D01*
X30793D01*
Y214303D01*
X31083D01*
Y214013D01*
X31373D01*
Y213723D01*
X31953D01*
Y213433D01*
X33113D01*
Y213143D01*
X33983D01*
Y212853D01*
X34273D01*
Y212563D01*
X37173D01*
Y212853D01*
X37463D01*
Y213723D01*
X37173D01*
Y214883D01*
X36883D01*
Y215753D01*
X36593D01*
Y216333D01*
X36303D01*
Y216623D01*
X36013D01*
Y217203D01*
X35723D01*
Y217493D01*
X35433D01*
Y217783D01*
X35143D01*
Y218363D01*
X34853D01*
Y218653D01*
X34273D01*
Y218943D01*
D02*
G37*
G36*
X45437Y120070D02*
X45371D01*
X45213Y120065D01*
X45071Y120048D01*
X44945Y120027D01*
X44836Y120005D01*
X44787Y119989D01*
X44743Y119978D01*
X44710Y119967D01*
X44678Y119956D01*
X44656Y119945D01*
X44640Y119939D01*
X44629Y119934D01*
X44623D01*
X44514Y119879D01*
X44421Y119819D01*
X44339Y119754D01*
X44274Y119694D01*
X44219Y119639D01*
X44186Y119595D01*
X44159Y119563D01*
X44154Y119557D01*
Y119552D01*
X44099Y119459D01*
X44061Y119361D01*
X44033Y119268D01*
X44017Y119186D01*
X44006Y119115D01*
X43995Y119060D01*
Y119038D01*
Y119022D01*
Y119017D01*
Y119011D01*
X44001Y118929D01*
X44012Y118847D01*
X44028Y118776D01*
X44050Y118705D01*
X44104Y118574D01*
X44170Y118460D01*
X44197Y118411D01*
X44230Y118372D01*
X44257Y118334D01*
X44285Y118301D01*
X44306Y118280D01*
X44323Y118263D01*
X44334Y118252D01*
X44339Y118247D01*
X44388Y118209D01*
X44448Y118170D01*
X44508Y118132D01*
X44579Y118099D01*
X44716Y118034D01*
X44858Y117979D01*
X44929Y117957D01*
X44989Y117936D01*
X45049Y117919D01*
X45098Y117903D01*
X45136Y117892D01*
X45169Y117881D01*
X45191Y117876D01*
X45196D01*
X45284Y117854D01*
X45360Y117832D01*
X45431Y117815D01*
X45497Y117799D01*
X45551Y117783D01*
X45601Y117772D01*
X45644Y117755D01*
X45682Y117744D01*
X45715Y117739D01*
X45742Y117728D01*
X45781Y117717D01*
X45803Y117706D01*
X45808D01*
X45879Y117679D01*
X45933Y117652D01*
X45983Y117624D01*
X46021Y117597D01*
X46048Y117575D01*
X46065Y117559D01*
X46075Y117548D01*
X46081Y117542D01*
X46108Y117504D01*
X46130Y117466D01*
X46141Y117428D01*
X46152Y117395D01*
X46157Y117362D01*
X46163Y117335D01*
Y117318D01*
Y117313D01*
X46157Y117237D01*
X46136Y117171D01*
X46103Y117106D01*
X46070Y117051D01*
X46032Y117007D01*
X46005Y116975D01*
X45983Y116953D01*
X45972Y116947D01*
X45895Y116898D01*
X45808Y116860D01*
X45715Y116833D01*
X45628Y116816D01*
X45546Y116805D01*
X45480Y116794D01*
X45420D01*
X45295Y116800D01*
X45186Y116822D01*
X45093Y116849D01*
X45011Y116882D01*
X44945Y116914D01*
X44902Y116942D01*
X44874Y116964D01*
X44863Y116969D01*
X44792Y117045D01*
X44738Y117127D01*
X44689Y117220D01*
X44656Y117313D01*
X44629Y117395D01*
X44607Y117461D01*
X44601Y117482D01*
Y117504D01*
X44596Y117515D01*
Y117521D01*
X43853Y117450D01*
X43870Y117335D01*
X43892Y117226D01*
X43924Y117122D01*
X43951Y117029D01*
X43990Y116942D01*
X44028Y116860D01*
X44066Y116789D01*
X44104Y116723D01*
X44143Y116669D01*
X44181Y116620D01*
X44214Y116576D01*
X44246Y116538D01*
X44268Y116510D01*
X44290Y116494D01*
X44301Y116483D01*
X44306Y116478D01*
X44383Y116418D01*
X44465Y116368D01*
X44552Y116325D01*
X44645Y116287D01*
X44732Y116259D01*
X44825Y116232D01*
X45005Y116194D01*
X45087Y116177D01*
X45164Y116166D01*
X45229Y116161D01*
X45289Y116156D01*
X45338Y116150D01*
X43853D01*
Y120070D01*
D01*
Y116150D01*
X46927D01*
D01*
X45409D01*
X45584Y116156D01*
X45742Y116172D01*
X45884Y116194D01*
X45944Y116205D01*
X46005Y116221D01*
X46054Y116232D01*
X46097Y116243D01*
X46136Y116254D01*
X46168Y116265D01*
X46196Y116276D01*
X46212Y116281D01*
X46223Y116287D01*
X46228D01*
X46349Y116347D01*
X46447Y116412D01*
X46540Y116478D01*
X46611Y116549D01*
X46665Y116609D01*
X46709Y116663D01*
X46731Y116696D01*
X46742Y116702D01*
Y116707D01*
X46802Y116816D01*
X46851Y116920D01*
X46884Y117024D01*
X46905Y117122D01*
X46916Y117198D01*
X46922Y117237D01*
X46927Y117264D01*
Y117318D01*
X46922Y117450D01*
X46905Y117564D01*
X46878Y117668D01*
X46851Y117755D01*
X46823Y117826D01*
X46796Y117876D01*
X46780Y117908D01*
X46774Y117919D01*
X46714Y118007D01*
X46643Y118083D01*
X46572Y118149D01*
X46507Y118203D01*
X46447Y118247D01*
X46398Y118280D01*
X46365Y118301D01*
X46359Y118307D01*
X46354D01*
X46299Y118334D01*
X46245Y118361D01*
X46114Y118411D01*
X45977Y118454D01*
X45846Y118498D01*
X45786Y118514D01*
X45726Y118531D01*
X45671Y118547D01*
X45628Y118558D01*
X45590Y118569D01*
X45562Y118574D01*
X45540Y118580D01*
X45535D01*
X45437Y118607D01*
X45349Y118629D01*
X45267Y118651D01*
X45191Y118673D01*
X45131Y118694D01*
X45071Y118716D01*
X45022Y118738D01*
X44978Y118754D01*
X44940Y118771D01*
X44912Y118787D01*
X44885Y118798D01*
X44869Y118809D01*
X44842Y118825D01*
X44836Y118831D01*
X44798Y118869D01*
X44771Y118907D01*
X44754Y118946D01*
X44743Y118984D01*
X44732Y119011D01*
X44727Y119038D01*
Y119055D01*
Y119060D01*
X44732Y119115D01*
X44743Y119159D01*
X44765Y119202D01*
X44787Y119235D01*
X44809Y119262D01*
X44831Y119279D01*
X44842Y119290D01*
X44847Y119295D01*
X44923Y119344D01*
X45005Y119377D01*
X45093Y119404D01*
X45175Y119421D01*
X45246Y119432D01*
X45306Y119437D01*
X45360D01*
X45475Y119432D01*
X45573Y119415D01*
X45655Y119393D01*
X45721Y119371D01*
X45775Y119350D01*
X45813Y119328D01*
X45835Y119311D01*
X45841Y119306D01*
X45895Y119251D01*
X45944Y119186D01*
X45983Y119120D01*
X46010Y119049D01*
X46032Y118989D01*
X46043Y118940D01*
X46054Y118902D01*
Y118896D01*
Y118891D01*
X46818Y118918D01*
X46813Y119017D01*
X46796Y119104D01*
X46774Y119191D01*
X46747Y119268D01*
X46720Y119344D01*
X46687Y119415D01*
X46654Y119475D01*
X46622Y119535D01*
X46583Y119584D01*
X46551Y119628D01*
X46518Y119666D01*
X46490Y119699D01*
X46469Y119721D01*
X46452Y119737D01*
X46441Y119748D01*
X46436Y119754D01*
X46365Y119808D01*
X46288Y119857D01*
X46207Y119901D01*
X46119Y119939D01*
X46032Y119967D01*
X45944Y119994D01*
X45770Y120032D01*
X45688Y120043D01*
X45617Y120054D01*
X45546Y120060D01*
X45486Y120065D01*
X45437Y120070D01*
D02*
G37*
G36*
X53829Y119999D02*
X50831D01*
Y116221D01*
D01*
Y119361D01*
X51950D01*
Y116221D01*
X52715D01*
Y119361D01*
X53829D01*
Y119999D01*
D02*
G37*
G36*
X50378D02*
X47577D01*
Y116221D01*
X50449D01*
Y116860D01*
X48341D01*
Y117886D01*
X50236D01*
Y118525D01*
X48341D01*
Y119361D01*
X50378D01*
Y119999D01*
D02*
G37*
G36*
X43335D02*
X40534D01*
Y116221D01*
X43406D01*
Y116860D01*
X41298D01*
Y117886D01*
X43193D01*
Y118525D01*
X41298D01*
Y119361D01*
X43335D01*
Y119999D01*
D02*
G37*
G36*
X38426D02*
X36722D01*
Y116221D01*
X40119D01*
D01*
X39654Y116958D01*
X39605Y117035D01*
X39556Y117111D01*
X39513Y117177D01*
X39469Y117237D01*
X39431Y117291D01*
X39398Y117346D01*
X39332Y117428D01*
X39283Y117493D01*
X39250Y117537D01*
X39223Y117564D01*
X39218Y117570D01*
X39158Y117635D01*
X39087Y117695D01*
X39021Y117744D01*
X38956Y117794D01*
X38901Y117832D01*
X38857Y117859D01*
X38825Y117881D01*
X38819Y117886D01*
X38814D01*
X38906Y117903D01*
X38988Y117925D01*
X39065Y117946D01*
X39141Y117974D01*
X39207Y118001D01*
X39267Y118028D01*
X39327Y118056D01*
X39376Y118088D01*
X39420Y118116D01*
X39458Y118143D01*
X39491Y118170D01*
X39513Y118192D01*
X39534Y118209D01*
X39551Y118225D01*
X39556Y118230D01*
X39562Y118236D01*
X39605Y118290D01*
X39644Y118345D01*
X39709Y118465D01*
X39753Y118580D01*
X39780Y118694D01*
X39802Y118793D01*
X39807Y118831D01*
Y118869D01*
X39813Y118896D01*
Y118924D01*
Y118935D01*
Y118940D01*
X39807Y119060D01*
X39786Y119175D01*
X39758Y119273D01*
X39731Y119361D01*
X39698Y119432D01*
X39671Y119486D01*
X39660Y119502D01*
X39649Y119519D01*
X39644Y119524D01*
Y119530D01*
X39578Y119623D01*
X39507Y119699D01*
X39436Y119759D01*
X39365Y119814D01*
X39300Y119846D01*
X39250Y119874D01*
X39218Y119890D01*
X39212Y119896D01*
X39207D01*
X39152Y119912D01*
X39092Y119928D01*
X38956Y119956D01*
X38808Y119972D01*
X38666Y119989D01*
X38595D01*
X38535Y119994D01*
X38475D01*
X38426Y119999D01*
D02*
G37*
%LPD*%
G36*
X38410Y119355D02*
X38530D01*
X38579Y119350D01*
X38612D01*
X38628Y119344D01*
X38633D01*
X38699Y119328D01*
X38759Y119306D01*
X38808Y119284D01*
X38846Y119257D01*
X38879Y119229D01*
X38906Y119213D01*
X38917Y119197D01*
X38923Y119191D01*
X38956Y119148D01*
X38983Y119093D01*
X38999Y119044D01*
X39016Y118995D01*
X39021Y118951D01*
X39027Y118918D01*
Y118896D01*
Y118886D01*
X39021Y118825D01*
X39016Y118771D01*
X38999Y118722D01*
X38988Y118678D01*
X38972Y118645D01*
X38956Y118623D01*
X38950Y118607D01*
X38945Y118602D01*
X38912Y118563D01*
X38879Y118531D01*
X38808Y118482D01*
X38781Y118465D01*
X38754Y118454D01*
X38737Y118443D01*
X38732D01*
X38704Y118438D01*
X38661Y118427D01*
X38617Y118421D01*
X38568Y118416D01*
X38453Y118411D01*
X38339Y118405D01*
X38230Y118400D01*
X37487D01*
Y119361D01*
X38361D01*
X38410Y119355D01*
D02*
G37*
G36*
X37809Y117794D02*
X37875Y117788D01*
X37929Y117777D01*
X37973Y117772D01*
X38000Y117761D01*
X38017Y117755D01*
X38022D01*
X38066Y117734D01*
X38109Y117712D01*
X38148Y117684D01*
X38186Y117663D01*
X38213Y117635D01*
X38235Y117613D01*
X38246Y117603D01*
X38251Y117597D01*
X38273Y117570D01*
X38300Y117542D01*
X38361Y117461D01*
X38426Y117373D01*
X38497Y117275D01*
X38557Y117188D01*
X38584Y117144D01*
X38606Y117111D01*
X38628Y117084D01*
X38644Y117062D01*
X38650Y117045D01*
X38655Y117040D01*
X39201Y116221D01*
X37487D01*
Y117799D01*
X37733D01*
X37809Y117794D01*
D02*
G37*
%LPC*%
G36*
X293389Y150836D02*
X290870D01*
Y148485D01*
D01*
X292330Y149405D01*
X293389D01*
Y149915D01*
X292334D01*
X290870Y150836D01*
X293389D01*
D02*
G37*
G36*
X296474Y149198D02*
D01*
X295982Y148889D01*
X295931Y148856D01*
X295880Y148823D01*
X295837Y148794D01*
X295797Y148765D01*
X295760Y148739D01*
X295724Y148717D01*
X295669Y148674D01*
X295626Y148641D01*
X295597Y148619D01*
X295578Y148601D01*
X295575Y148597D01*
X295531Y148557D01*
X295491Y148510D01*
X295458Y148466D01*
X295425Y148423D01*
X295400Y148386D01*
X295382Y148357D01*
X295367Y148335D01*
X295363Y148332D01*
Y148328D01*
X295353Y148390D01*
X295338Y148444D01*
X295323Y148495D01*
X295305Y148546D01*
X295287Y148590D01*
X295269Y148630D01*
X295251Y148670D01*
X295229Y148703D01*
X295211Y148732D01*
X295193Y148758D01*
X295174Y148779D01*
X295160Y148794D01*
X295149Y148808D01*
X295138Y148819D01*
X295134Y148823D01*
X295131Y148827D01*
X295094Y148856D01*
X295058Y148881D01*
X294978Y148925D01*
X294901Y148954D01*
X294825Y148972D01*
X294759Y148987D01*
X294734Y148990D01*
X294708D01*
X294690Y148994D01*
X294672D01*
X294665D01*
X294661D01*
X294581Y148990D01*
X294504Y148976D01*
X294439Y148958D01*
X294381Y148940D01*
X294333Y148918D01*
X294297Y148899D01*
X294286Y148892D01*
X294275Y148885D01*
X294271Y148881D01*
X294268D01*
X294206Y148838D01*
X294155Y148790D01*
X294115Y148743D01*
X294079Y148696D01*
X294057Y148652D01*
X294039Y148619D01*
X294028Y148597D01*
X294024Y148594D01*
Y148590D01*
X294013Y148554D01*
X294002Y148514D01*
X293984Y148423D01*
X293973Y148324D01*
X293962Y148230D01*
Y148182D01*
X293958Y148142D01*
Y148102D01*
X293955Y148070D01*
Y146934D01*
X296474D01*
Y149198D01*
D02*
G37*
G36*
X293389Y148474D02*
X290870D01*
Y145947D01*
D01*
Y146923D01*
X293389Y145947D01*
Y146486D01*
X292818Y146694D01*
Y147705D01*
X293389Y147924D01*
Y148474D01*
X290870Y147462D01*
Y148474D01*
X293389D01*
D02*
G37*
G36*
Y145940D02*
Y145332D01*
X290870Y145940D01*
Y145427D01*
X292632Y145041D01*
X290870Y144604D01*
Y143993D01*
X292603Y143534D01*
X290870Y143156D01*
Y143458D01*
Y142635D01*
X293389Y143232D01*
Y143785D01*
X291507Y144288D01*
X293389Y144783D01*
Y145940D01*
D02*
G37*
G36*
X296474Y146501D02*
X296048D01*
Y145096D01*
X295363D01*
Y146359D01*
X294938D01*
Y145096D01*
X294381D01*
Y146453D01*
X293955D01*
Y144586D01*
X296474D01*
Y146501D01*
D02*
G37*
G36*
X295291Y144153D02*
X295240D01*
X295112Y144149D01*
X295000Y144138D01*
X294945Y144135D01*
X294898Y144127D01*
X294850Y144120D01*
X294810Y144113D01*
X294774Y144102D01*
X294741Y144095D01*
X294712Y144087D01*
X294690Y144084D01*
X294672Y144076D01*
X294657Y144073D01*
X294650Y144069D01*
X294647D01*
X294559Y144036D01*
X294479Y143996D01*
X294410Y143956D01*
X294352Y143916D01*
X294304Y143884D01*
X294268Y143854D01*
X294246Y143836D01*
X294239Y143833D01*
Y143829D01*
X294180Y143767D01*
X294133Y143705D01*
X294093Y143640D01*
X294060Y143581D01*
X294035Y143530D01*
X294017Y143487D01*
X294013Y143472D01*
X294009Y143461D01*
X294006Y143454D01*
Y143450D01*
X293988Y143381D01*
X293977Y143305D01*
X293966Y143225D01*
X293962Y143148D01*
X293958Y143079D01*
X293955Y143050D01*
Y142045D01*
X296474D01*
Y142999D01*
X296470Y143097D01*
X296466Y143188D01*
X296459Y143265D01*
X296448Y143327D01*
X296437Y143378D01*
X296430Y143418D01*
X296426Y143429D01*
Y143439D01*
X296423Y143443D01*
Y143447D01*
X296394Y143527D01*
X296361Y143600D01*
X296328Y143658D01*
X296295Y143709D01*
X296266Y143749D01*
X296244Y143778D01*
X296230Y143796D01*
X296223Y143803D01*
X296153Y143865D01*
X296081Y143920D01*
X296004Y143967D01*
X295935Y144004D01*
X295869Y144033D01*
X295844Y144047D01*
X295822Y144055D01*
X295800Y144062D01*
X295786Y144069D01*
X295778Y144073D01*
X295775D01*
X295688Y144098D01*
X295597Y144120D01*
X295509Y144135D01*
X295425Y144142D01*
X295385Y144146D01*
X295349Y144149D01*
X295320D01*
X295291Y144153D01*
D02*
G37*
G36*
X293389Y142449D02*
X292963D01*
Y141044D01*
X292279D01*
Y142307D01*
X291853D01*
Y141044D01*
X291296D01*
Y142402D01*
X290870D01*
Y140535D01*
X293389D01*
Y142449D01*
D02*
G37*
G36*
X296474Y141772D02*
X293955D01*
Y139246D01*
Y140222D01*
X296474Y139246D01*
Y139785D01*
X295902Y139992D01*
Y141004D01*
X296474Y141223D01*
Y141772D01*
X293955Y140760D01*
Y141772D01*
X296474D01*
D02*
G37*
G36*
X293389Y140203D02*
X290870D01*
Y138205D01*
X291296D01*
Y138951D01*
X293389D01*
Y139461D01*
X291296D01*
Y140203D01*
X293389D01*
D02*
G37*
G36*
X296474Y139072D02*
X296048D01*
Y137666D01*
X295363D01*
Y138929D01*
X294938D01*
Y137666D01*
X294381D01*
Y139024D01*
X293955D01*
Y137157D01*
X296474D01*
Y139072D01*
D02*
G37*
G36*
Y136880D02*
X295982Y136571D01*
X295931Y136538D01*
X295880Y136505D01*
X295837Y136476D01*
X295797Y136447D01*
X295760Y136422D01*
X295724Y136400D01*
X295669Y136356D01*
X295626Y136323D01*
X295597Y136301D01*
X295578Y136283D01*
X295575Y136280D01*
X295531Y136240D01*
X295491Y136192D01*
X295458Y136149D01*
X295425Y136105D01*
X295400Y136068D01*
X295382Y136039D01*
X295367Y136018D01*
X295363Y136014D01*
Y136010D01*
X295353Y136072D01*
X295338Y136127D01*
X295323Y136178D01*
X295305Y136229D01*
X295287Y136272D01*
X295269Y136312D01*
X295251Y136352D01*
X295229Y136385D01*
X295211Y136414D01*
X295193Y136440D01*
X295174Y136462D01*
X295160Y136476D01*
X295149Y136491D01*
X295138Y136502D01*
X295134Y136505D01*
X295131Y136509D01*
X295094Y136538D01*
X295058Y136564D01*
X294978Y136607D01*
X294901Y136636D01*
X294825Y136654D01*
X294759Y136669D01*
X294734Y136673D01*
X294708D01*
X294690Y136676D01*
X294672D01*
X294665D01*
X294661D01*
X294581Y136673D01*
X294504Y136658D01*
X294439Y136640D01*
X294381Y136622D01*
X294333Y136600D01*
X294297Y136582D01*
X294286Y136574D01*
X294275Y136567D01*
X294271Y136564D01*
X294268D01*
X294206Y136520D01*
X294155Y136472D01*
X294115Y136425D01*
X294079Y136378D01*
X294057Y136334D01*
X294039Y136301D01*
X294028Y136280D01*
X294024Y136276D01*
Y136272D01*
X294013Y136236D01*
X294002Y136196D01*
X293984Y136105D01*
X293973Y136007D01*
X293962Y135912D01*
Y135865D01*
X293958Y135825D01*
Y135784D01*
X293955Y135752D01*
Y136880D01*
Y134616D01*
X296474D01*
Y135195D01*
Y135126D01*
X295422D01*
Y135290D01*
X295425Y135340D01*
X295429Y135384D01*
X295436Y135421D01*
X295440Y135450D01*
X295447Y135468D01*
X295451Y135479D01*
Y135482D01*
X295465Y135512D01*
X295480Y135541D01*
X295498Y135566D01*
X295513Y135592D01*
X295531Y135610D01*
X295546Y135624D01*
X295553Y135632D01*
X295556Y135635D01*
X295575Y135650D01*
X295593Y135668D01*
X295648Y135708D01*
X295706Y135752D01*
X295771Y135799D01*
X295830Y135839D01*
X295859Y135857D01*
X295880Y135872D01*
X295899Y135886D01*
X295913Y135897D01*
X295924Y135901D01*
X295928Y135905D01*
X296474Y136269D01*
Y136880D01*
D02*
G37*
G36*
X293389Y138110D02*
X290870D01*
Y135584D01*
Y136560D01*
X293389Y135584D01*
Y136123D01*
X292818Y136330D01*
Y137343D01*
X293389Y137561D01*
Y138110D01*
X290870Y137099D01*
Y138110D01*
X293389D01*
D02*
G37*
G36*
X293437Y135370D02*
X292039D01*
Y134274D01*
X292465D01*
Y134856D01*
X292789D01*
X292821Y134813D01*
X292850Y134765D01*
X292876Y134718D01*
X292898Y134674D01*
X292916Y134638D01*
X292931Y134605D01*
X292938Y134587D01*
X292941Y134583D01*
Y134580D01*
X292963Y134521D01*
X292978Y134463D01*
X292989Y134409D01*
X292996Y134361D01*
X293000Y134318D01*
X293003Y134289D01*
Y134259D01*
X293000Y134201D01*
X292992Y134143D01*
X292982Y134092D01*
X292967Y134041D01*
X292931Y133950D01*
X292912Y133914D01*
X292891Y133877D01*
X292869Y133844D01*
X292850Y133815D01*
X292829Y133793D01*
X292814Y133772D01*
X292799Y133757D01*
X292789Y133746D01*
X292781Y133739D01*
X292778Y133735D01*
X292734Y133702D01*
X292683Y133670D01*
X292632Y133644D01*
X292578Y133622D01*
X292465Y133586D01*
X292355Y133564D01*
X292304Y133557D01*
X292253Y133550D01*
X292214Y133546D01*
X292173Y133542D01*
X292144Y133539D01*
X292119D01*
X292104D01*
X292101D01*
X292024Y133542D01*
X291955Y133546D01*
X291886Y133557D01*
X291824Y133568D01*
X291769Y133582D01*
X291718Y133600D01*
X291671Y133619D01*
X291627Y133637D01*
X291591Y133651D01*
X291558Y133670D01*
X291533Y133688D01*
X291511Y133702D01*
X291493Y133713D01*
X291482Y133724D01*
X291475Y133728D01*
X291471Y133732D01*
X291435Y133772D01*
X291398Y133812D01*
X291373Y133855D01*
X291347Y133899D01*
X291325Y133943D01*
X291307Y133986D01*
X291282Y134070D01*
X291274Y134110D01*
X291267Y134146D01*
X291263Y134179D01*
X291260Y134208D01*
X291256Y134230D01*
Y134263D01*
X291260Y134343D01*
X291274Y134412D01*
X291289Y134474D01*
X291311Y134529D01*
X291329Y134569D01*
X291347Y134601D01*
X291362Y134620D01*
X291365Y134627D01*
X291409Y134678D01*
X291456Y134722D01*
X291504Y134758D01*
X291551Y134783D01*
X291595Y134805D01*
X291627Y134820D01*
X291649Y134827D01*
X291653Y134831D01*
X291657D01*
X291562Y135337D01*
X291500Y135322D01*
X291438Y135300D01*
X291384Y135279D01*
X291333Y135249D01*
X291282Y135224D01*
X291238Y135195D01*
X291198Y135166D01*
X291161Y135137D01*
X291129Y135108D01*
X291100Y135082D01*
X291074Y135060D01*
X291056Y135038D01*
X291041Y135020D01*
X291027Y135006D01*
X291023Y134998D01*
X291020Y134995D01*
X290983Y134944D01*
X290954Y134889D01*
X290929Y134831D01*
X290907Y134769D01*
X290870Y134649D01*
X290848Y134532D01*
X290838Y134478D01*
X290834Y134427D01*
X290830Y134379D01*
X290827Y134339D01*
X290823Y134307D01*
Y134263D01*
X290827Y134132D01*
X290841Y134016D01*
X290852Y133965D01*
X290863Y133914D01*
X290874Y133866D01*
X290885Y133826D01*
X290899Y133790D01*
X290910Y133753D01*
X290921Y133728D01*
X290929Y133702D01*
X290939Y133684D01*
X290943Y133670D01*
X290950Y133662D01*
Y133659D01*
X291016Y133546D01*
X291056Y133499D01*
X291092Y133451D01*
X291132Y133408D01*
X291172Y133368D01*
X291213Y133331D01*
X291249Y133298D01*
X291285Y133273D01*
X291318Y133247D01*
X291347Y133226D01*
X291373Y133207D01*
X291394Y133196D01*
X291409Y133186D01*
X291420Y133182D01*
X291424Y133178D01*
X291482Y133149D01*
X291540Y133124D01*
X291660Y133084D01*
X291780Y133054D01*
X291886Y133036D01*
X291937Y133029D01*
X291981Y133022D01*
X292021Y133018D01*
X292057D01*
X292082Y133015D01*
X290823D01*
X292123D01*
X292257Y133022D01*
X292381Y133036D01*
X292494Y133062D01*
X292548Y133073D01*
X292596Y133087D01*
X292639Y133102D01*
X292679Y133113D01*
X292712Y133127D01*
X292741Y133138D01*
X292763Y133145D01*
X292781Y133153D01*
X292792Y133160D01*
X292796D01*
X292905Y133222D01*
X293000Y133291D01*
X293083Y133364D01*
X293149Y133437D01*
X293178Y133469D01*
X293204Y133502D01*
X293225Y133528D01*
X293240Y133553D01*
X293254Y133571D01*
X293265Y133590D01*
X293269Y133597D01*
X293273Y133600D01*
X293302Y133659D01*
X293327Y133713D01*
X293367Y133834D01*
X293396Y133950D01*
X293415Y134055D01*
X293422Y134107D01*
X293429Y134150D01*
X293433Y134190D01*
Y134227D01*
X293437Y134252D01*
Y133451D01*
Y134252D01*
Y134292D01*
X293433Y134409D01*
X293418Y134518D01*
X293400Y134623D01*
X293378Y134714D01*
X293367Y134754D01*
X293356Y134791D01*
X293345Y134824D01*
X293338Y134853D01*
X293331Y134874D01*
X293324Y134889D01*
X293320Y134900D01*
Y134904D01*
X293276Y135013D01*
X293229Y135104D01*
X293182Y135184D01*
X293142Y135253D01*
X293105Y135304D01*
X293091Y135322D01*
X293076Y135340D01*
X293065Y135351D01*
X293058Y135362D01*
X293051Y135370D01*
X293437D01*
D02*
G37*
G36*
X295800Y133353D02*
X295316D01*
Y132403D01*
X295800D01*
Y133353D01*
D02*
G37*
G36*
X292716Y131842D02*
X292232D01*
Y130892D01*
X292716D01*
Y131842D01*
D02*
G37*
G36*
X296474Y130652D02*
X293940D01*
Y129546D01*
D01*
Y130259D01*
X294024Y130223D01*
X294100Y130175D01*
X294173Y130124D01*
X294232Y130073D01*
X294279Y130030D01*
X294315Y129990D01*
X294330Y129975D01*
X294341Y129964D01*
X294344Y129957D01*
X294348Y129953D01*
X294406Y129873D01*
X294457Y129797D01*
X294497Y129728D01*
X294526Y129666D01*
X294548Y129615D01*
X294566Y129578D01*
X294570Y129564D01*
X294574Y129553D01*
X294577Y129549D01*
Y129546D01*
X293940D01*
X295014D01*
X294963Y129677D01*
X294908Y129793D01*
X294879Y129848D01*
X294847Y129899D01*
X294817Y129946D01*
X294788Y129990D01*
X294759Y130030D01*
X294734Y130066D01*
X294712Y130095D01*
X294690Y130121D01*
X294672Y130142D01*
X294661Y130157D01*
X294654Y130164D01*
X294650Y130168D01*
X296474D01*
Y130652D01*
D02*
G37*
G36*
X293437Y129542D02*
X290856D01*
Y127908D01*
D01*
Y128723D01*
X290859Y128657D01*
X290867Y128595D01*
X290881Y128534D01*
X290896Y128479D01*
X290918Y128428D01*
X290939Y128381D01*
X290961Y128341D01*
X290987Y128301D01*
X291012Y128268D01*
X291034Y128235D01*
X291056Y128210D01*
X291078Y128191D01*
X291092Y128173D01*
X291107Y128162D01*
X291114Y128155D01*
X291118Y128151D01*
X291180Y128108D01*
X291252Y128071D01*
X291329Y128039D01*
X291409Y128009D01*
X291493Y127988D01*
X291580Y127966D01*
X291664Y127951D01*
X291748Y127937D01*
X291828Y127929D01*
X291900Y127922D01*
X291970Y127915D01*
X292028Y127911D01*
X292075Y127908D01*
X292144D01*
D01*
X293437D01*
X292144D01*
X292275Y127911D01*
X292395Y127919D01*
X292508Y127929D01*
X292610Y127944D01*
X292701Y127959D01*
X292785Y127977D01*
X292858Y127999D01*
X292923Y128020D01*
X292978Y128039D01*
X293029Y128060D01*
X293069Y128079D01*
X293102Y128097D01*
X293124Y128108D01*
X293142Y128119D01*
X293153Y128126D01*
X293156Y128130D01*
X293207Y128173D01*
X293247Y128221D01*
X293287Y128268D01*
X293316Y128319D01*
X293345Y128366D01*
X293367Y128417D01*
X293386Y128464D01*
X293400Y128512D01*
X293415Y128556D01*
X293422Y128595D01*
X293429Y128632D01*
X293433Y128661D01*
Y128686D01*
X293437Y128708D01*
Y128723D01*
X293433Y128788D01*
X293426Y128850D01*
X293411Y128912D01*
X293396Y128967D01*
X293378Y129018D01*
X293356Y129065D01*
X293331Y129105D01*
X293305Y129145D01*
X293284Y129178D01*
X293258Y129211D01*
X293236Y129236D01*
X293218Y129258D01*
X293204Y129273D01*
X293189Y129283D01*
X293182Y129291D01*
X293178Y129294D01*
X293116Y129338D01*
X293043Y129375D01*
X292967Y129411D01*
X292883Y129436D01*
X292799Y129462D01*
X292716Y129480D01*
X292628Y129498D01*
X292545Y129513D01*
X292465Y129520D01*
X292392Y129527D01*
X292323Y129535D01*
X292264Y129538D01*
X292217Y129542D01*
X293437D01*
D02*
G37*
G36*
X292075Y127908D02*
X290856D01*
X292075D01*
D01*
D02*
G37*
%LPD*%
G36*
X291868Y149671D02*
X290870Y149078D01*
Y150250D01*
X291868Y149671D01*
D02*
G37*
G36*
X296474Y147443D02*
X295422D01*
Y147607D01*
X295425Y147658D01*
X295429Y147702D01*
X295436Y147738D01*
X295440Y147767D01*
X295447Y147786D01*
X295451Y147796D01*
Y147800D01*
X295465Y147829D01*
X295480Y147858D01*
X295498Y147884D01*
X295513Y147909D01*
X295531Y147928D01*
X295546Y147942D01*
X295553Y147949D01*
X295556Y147953D01*
X295575Y147968D01*
X295593Y147986D01*
X295648Y148026D01*
X295706Y148070D01*
X295771Y148117D01*
X295830Y148157D01*
X295859Y148175D01*
X295880Y148190D01*
X295899Y148204D01*
X295913Y148215D01*
X295924Y148219D01*
X295928Y148222D01*
X296474Y148586D01*
Y147443D01*
D02*
G37*
G36*
X294738Y148466D02*
X294774Y148463D01*
X294807Y148452D01*
X294836Y148444D01*
X294858Y148433D01*
X294872Y148423D01*
X294883Y148419D01*
X294887Y148415D01*
X294912Y148393D01*
X294934Y148372D01*
X294967Y148324D01*
X294978Y148306D01*
X294985Y148288D01*
X294992Y148277D01*
Y148273D01*
X294996Y148255D01*
X295003Y148226D01*
X295007Y148197D01*
X295010Y148164D01*
X295014Y148088D01*
X295018Y148011D01*
X295021Y147939D01*
Y147443D01*
X294381D01*
Y148026D01*
X294384Y148059D01*
Y148139D01*
X294388Y148171D01*
Y148193D01*
X294392Y148204D01*
Y148208D01*
X294403Y148251D01*
X294417Y148292D01*
X294432Y148324D01*
X294450Y148350D01*
X294468Y148372D01*
X294479Y148390D01*
X294490Y148397D01*
X294494Y148401D01*
X294523Y148423D01*
X294559Y148441D01*
X294592Y148452D01*
X294625Y148463D01*
X294654Y148466D01*
X294676Y148470D01*
X294690D01*
X294697D01*
X294738Y148466D01*
D02*
G37*
G36*
X292392Y146846D02*
X291456Y147189D01*
X292392Y147542D01*
Y146846D01*
D02*
G37*
G36*
X295320Y143625D02*
X295414Y143622D01*
X295491Y143611D01*
X295556Y143603D01*
X295611Y143592D01*
X295633Y143589D01*
X295648Y143581D01*
X295662Y143578D01*
X295673D01*
X295677Y143574D01*
X295680D01*
X295739Y143552D01*
X295789Y143534D01*
X295830Y143509D01*
X295862Y143490D01*
X295888Y143472D01*
X295906Y143458D01*
X295917Y143447D01*
X295920Y143443D01*
X295946Y143410D01*
X295968Y143378D01*
X295986Y143345D01*
X296001Y143312D01*
X296011Y143283D01*
X296019Y143261D01*
X296026Y143246D01*
Y143239D01*
X296033Y143199D01*
X296037Y143152D01*
X296044Y143101D01*
Y143050D01*
X296048Y143003D01*
Y142555D01*
X294381D01*
Y142886D01*
X294384Y142933D01*
Y142977D01*
X294388Y143014D01*
Y143046D01*
X294392Y143079D01*
Y143105D01*
X294399Y143145D01*
X294403Y143174D01*
X294406Y143192D01*
Y143196D01*
X294421Y143246D01*
X294439Y143290D01*
X294457Y143330D01*
X294479Y143367D01*
X294497Y143392D01*
X294512Y143414D01*
X294523Y143425D01*
X294526Y143429D01*
X294563Y143461D01*
X294603Y143490D01*
X294643Y143516D01*
X294679Y143538D01*
X294716Y143552D01*
X294745Y143563D01*
X294763Y143570D01*
X294767Y143574D01*
X294770D01*
X294836Y143592D01*
X294905Y143607D01*
X294981Y143614D01*
X295054Y143622D01*
X295116Y143625D01*
X295145Y143629D01*
X295171D01*
X295189D01*
X295203D01*
X295214D01*
X295218D01*
X295320Y143625D01*
D02*
G37*
G36*
X295476Y140145D02*
X294541Y140487D01*
X295476Y140840D01*
Y140145D01*
D02*
G37*
G36*
X294738Y136149D02*
X294774Y136145D01*
X294807Y136134D01*
X294836Y136127D01*
X294858Y136116D01*
X294872Y136105D01*
X294883Y136101D01*
X294887Y136098D01*
X294912Y136076D01*
X294934Y136054D01*
X294967Y136007D01*
X294978Y135988D01*
X294985Y135970D01*
X294992Y135959D01*
Y135956D01*
X294996Y135937D01*
X295003Y135908D01*
X295007Y135879D01*
X295010Y135846D01*
X295014Y135770D01*
X295018Y135694D01*
X295021Y135621D01*
Y135126D01*
X294381D01*
Y135708D01*
X294384Y135741D01*
Y135821D01*
X294388Y135854D01*
Y135875D01*
X294392Y135886D01*
Y135890D01*
X294403Y135934D01*
X294417Y135974D01*
X294432Y136007D01*
X294450Y136032D01*
X294468Y136054D01*
X294479Y136072D01*
X294490Y136079D01*
X294494Y136083D01*
X294523Y136105D01*
X294559Y136123D01*
X294592Y136134D01*
X294625Y136145D01*
X294654Y136149D01*
X294676Y136152D01*
X294690D01*
X294697D01*
X294738Y136149D01*
D02*
G37*
G36*
X292392Y136483D02*
X291456Y136826D01*
X292392Y137179D01*
Y136483D01*
D02*
G37*
G36*
X292017Y129538D02*
X291897Y129531D01*
X291788Y129520D01*
X291686Y129502D01*
X291591Y129484D01*
X291507Y129465D01*
X291431Y129440D01*
X291365Y129418D01*
X291303Y129396D01*
X291256Y129375D01*
X291213Y129353D01*
X291176Y129334D01*
X291151Y129316D01*
X291132Y129305D01*
X291122Y129298D01*
X291118Y129294D01*
X291071Y129254D01*
X291031Y129211D01*
X290998Y129163D01*
X290965Y129116D01*
X290939Y129069D01*
X290921Y129021D01*
X290903Y128978D01*
X290889Y128930D01*
X290878Y128887D01*
X290870Y128850D01*
X290863Y128814D01*
X290859Y128785D01*
X290856Y128759D01*
Y129542D01*
X292148D01*
X292017Y129538D01*
D02*
G37*
G36*
X292304Y129029D02*
X292374D01*
X292436Y129025D01*
X292494Y129021D01*
X292545Y129018D01*
X292592Y129010D01*
X292632Y129007D01*
X292669Y129003D01*
X292698Y128996D01*
X292723Y128992D01*
X292745Y128989D01*
X292759Y128985D01*
X292774D01*
X292778Y128981D01*
X292781D01*
X292832Y128967D01*
X292872Y128949D01*
X292909Y128930D01*
X292934Y128916D01*
X292956Y128901D01*
X292971Y128887D01*
X292978Y128879D01*
X292982Y128876D01*
X293000Y128850D01*
X293014Y128825D01*
X293022Y128799D01*
X293029Y128774D01*
X293033Y128756D01*
X293036Y128737D01*
Y128723D01*
X293033Y128690D01*
X293029Y128661D01*
X293018Y128636D01*
X293007Y128614D01*
X293000Y128595D01*
X292989Y128581D01*
X292985Y128574D01*
X292982Y128570D01*
X292956Y128548D01*
X292923Y128526D01*
X292887Y128508D01*
X292850Y128490D01*
X292818Y128479D01*
X292789Y128468D01*
X292770Y128464D01*
X292763Y128461D01*
X292727Y128454D01*
X292687Y128446D01*
X292643Y128439D01*
X292596Y128435D01*
X292494Y128428D01*
X292392Y128425D01*
X292344Y128421D01*
X292297D01*
X292257Y128417D01*
X292221D01*
X292192D01*
X292166D01*
X292152D01*
X292148D01*
X292068D01*
X291991Y128421D01*
X291926D01*
X291860Y128425D01*
X291806Y128428D01*
X291751Y128432D01*
X291707Y128435D01*
X291664Y128443D01*
X291627Y128446D01*
X291598Y128450D01*
X291573Y128454D01*
X291551Y128457D01*
X291536Y128461D01*
X291522D01*
X291518Y128464D01*
X291515D01*
X291464Y128479D01*
X291420Y128497D01*
X291387Y128512D01*
X291358Y128530D01*
X291340Y128545D01*
X291325Y128556D01*
X291318Y128563D01*
X291314Y128566D01*
X291296Y128592D01*
X291282Y128621D01*
X291271Y128647D01*
X291263Y128672D01*
X291260Y128690D01*
X291256Y128708D01*
Y128723D01*
X291260Y128756D01*
X291263Y128785D01*
X291274Y128810D01*
X291285Y128832D01*
X291296Y128850D01*
X291303Y128865D01*
X291311Y128872D01*
X291314Y128876D01*
X291340Y128898D01*
X291373Y128919D01*
X291409Y128938D01*
X291445Y128956D01*
X291482Y128967D01*
X291511Y128978D01*
X291529Y128981D01*
X291533Y128985D01*
X291536D01*
X291569Y128992D01*
X291609Y129000D01*
X291657Y129007D01*
X291704Y129014D01*
X291802Y129021D01*
X291904Y129025D01*
X291951Y129029D01*
X291999D01*
X292039Y129032D01*
X292075D01*
X292104D01*
X292130D01*
X292144D01*
X292148D01*
X292228D01*
X292304Y129029D01*
D02*
G37*
%LPC*%
G36*
X114857Y11673D02*
X114796D01*
D01*
D01*
D01*
X113047D01*
X114796D01*
X114612Y11668D01*
X114449Y11648D01*
X114378Y11633D01*
X114306Y11617D01*
X114240Y11602D01*
X114184Y11587D01*
X114133Y11566D01*
X114082Y11551D01*
X114046Y11536D01*
X114011Y11525D01*
X113985Y11510D01*
X113965Y11505D01*
X113954Y11495D01*
X113949D01*
X113791Y11403D01*
X113725Y11347D01*
X113659Y11296D01*
X113598Y11240D01*
X113541Y11184D01*
X113490Y11128D01*
X113444Y11077D01*
X113409Y11026D01*
X113373Y10980D01*
X113342Y10939D01*
X113317Y10903D01*
X113302Y10873D01*
X113286Y10852D01*
X113281Y10837D01*
X113276Y10832D01*
X113235Y10750D01*
X113200Y10669D01*
X113144Y10500D01*
X113103Y10332D01*
X113077Y10184D01*
X113067Y10113D01*
X113057Y10052D01*
X113052Y9995D01*
Y9945D01*
X113047Y9909D01*
Y9929D01*
Y9853D01*
X113057Y9664D01*
X113077Y9491D01*
X113113Y9332D01*
X113128Y9256D01*
X113149Y9190D01*
X113169Y9128D01*
X113184Y9072D01*
X113205Y9026D01*
X113220Y8986D01*
X113230Y8955D01*
X113241Y8930D01*
X113251Y8914D01*
Y8909D01*
X113337Y8756D01*
X113434Y8624D01*
X113536Y8506D01*
X113638Y8415D01*
X113684Y8374D01*
X113730Y8338D01*
X113766Y8307D01*
X113802Y8287D01*
X113827Y8267D01*
X113853Y8251D01*
X113863Y8246D01*
X113868Y8241D01*
X113949Y8200D01*
X114026Y8165D01*
X114194Y8108D01*
X114357Y8068D01*
X114505Y8042D01*
X114577Y8032D01*
X114638Y8022D01*
X114694Y8017D01*
X114745D01*
X114781Y8012D01*
X113047D01*
X116346D01*
X114837D01*
X115000Y8017D01*
X115153Y8037D01*
X115301Y8063D01*
X115428Y8093D01*
X115484Y8108D01*
X115535Y8124D01*
X115581Y8139D01*
X115622Y8149D01*
X115653Y8160D01*
X115673Y8170D01*
X115689Y8175D01*
X115694D01*
X115847Y8236D01*
X115974Y8302D01*
X116086Y8369D01*
X116183Y8425D01*
X116255Y8476D01*
X116280Y8496D01*
X116306Y8517D01*
X116321Y8532D01*
X116336Y8542D01*
X116346Y8552D01*
Y9970D01*
X114811D01*
Y9373D01*
X115627D01*
Y8919D01*
X115566Y8873D01*
X115500Y8833D01*
X115434Y8797D01*
X115372Y8766D01*
X115321Y8741D01*
X115275Y8721D01*
X115250Y8710D01*
X115245Y8705D01*
X115240D01*
X115158Y8675D01*
X115076Y8654D01*
X115000Y8639D01*
X114934Y8629D01*
X114873Y8624D01*
X114832Y8619D01*
X114791D01*
X114709Y8624D01*
X114628Y8634D01*
X114556Y8649D01*
X114485Y8670D01*
X114357Y8721D01*
X114306Y8746D01*
X114255Y8777D01*
X114209Y8807D01*
X114169Y8833D01*
X114138Y8863D01*
X114108Y8884D01*
X114087Y8904D01*
X114072Y8919D01*
X114062Y8930D01*
X114057Y8935D01*
X114011Y8996D01*
X113965Y9067D01*
X113929Y9139D01*
X113898Y9215D01*
X113847Y9373D01*
X113817Y9526D01*
X113807Y9598D01*
X113796Y9669D01*
X113791Y9725D01*
X113786Y9781D01*
X113781Y9822D01*
Y9858D01*
Y9878D01*
Y9883D01*
X113786Y9990D01*
X113791Y10087D01*
X113807Y10184D01*
X113822Y10271D01*
X113842Y10347D01*
X113868Y10419D01*
X113893Y10485D01*
X113919Y10546D01*
X113939Y10597D01*
X113965Y10643D01*
X113990Y10679D01*
X114011Y10710D01*
X114026Y10735D01*
X114041Y10750D01*
X114046Y10761D01*
X114051Y10766D01*
X114108Y10817D01*
X114164Y10868D01*
X114225Y10903D01*
X114286Y10939D01*
X114347Y10970D01*
X114408Y10995D01*
X114526Y11031D01*
X114582Y11041D01*
X114633Y11051D01*
X114679Y11056D01*
X114719Y11061D01*
X114750Y11067D01*
X114796D01*
X114908Y11061D01*
X115005Y11041D01*
X115092Y11021D01*
X115168Y10990D01*
X115224Y10965D01*
X115270Y10939D01*
X115296Y10919D01*
X115306Y10914D01*
X115377Y10852D01*
X115439Y10786D01*
X115490Y10720D01*
X115525Y10653D01*
X115556Y10592D01*
X115576Y10546D01*
X115586Y10516D01*
X115592Y10511D01*
Y10505D01*
X116300Y10638D01*
X116280Y10725D01*
X116250Y10812D01*
X116219Y10888D01*
X116178Y10959D01*
X116142Y11031D01*
X116102Y11092D01*
X116061Y11148D01*
X116020Y11199D01*
X115979Y11245D01*
X115944Y11286D01*
X115913Y11321D01*
X115882Y11347D01*
X115857Y11367D01*
X115836Y11388D01*
X115826Y11393D01*
X115821Y11398D01*
X115750Y11449D01*
X115673Y11490D01*
X115592Y11525D01*
X115505Y11556D01*
X115337Y11607D01*
X115173Y11638D01*
X115097Y11653D01*
X115025Y11658D01*
X114959Y11663D01*
X114903Y11668D01*
X114857Y11673D01*
D02*
G37*
G36*
X109803D02*
X109742D01*
X109594Y11668D01*
X109461Y11653D01*
X109344Y11633D01*
X109242Y11612D01*
X109196Y11597D01*
X109155Y11587D01*
X109125Y11576D01*
X109094Y11566D01*
X109074Y11556D01*
X109058Y11551D01*
X109048Y11546D01*
X109043D01*
X108941Y11495D01*
X108854Y11439D01*
X108778Y11378D01*
X108717Y11321D01*
X108666Y11270D01*
X108635Y11230D01*
X108610Y11199D01*
X108605Y11194D01*
Y11189D01*
X108554Y11102D01*
X108518Y11010D01*
X108492Y10924D01*
X108477Y10847D01*
X108467Y10781D01*
X108457Y10730D01*
Y10710D01*
Y10694D01*
Y10689D01*
Y10684D01*
X108462Y10607D01*
X108472Y10531D01*
X108487Y10465D01*
X108508Y10398D01*
X108559Y10276D01*
X108620Y10169D01*
X108645Y10123D01*
X108676Y10087D01*
X108702Y10052D01*
X108727Y10021D01*
X108747Y10001D01*
X108763Y9985D01*
X108773Y9975D01*
X108778Y9970D01*
X108824Y9934D01*
X108880Y9899D01*
X108936Y9863D01*
X109002Y9832D01*
X109130Y9771D01*
X109263Y9720D01*
X109329Y9700D01*
X109385Y9679D01*
X109441Y9664D01*
X109487Y9649D01*
X109523Y9639D01*
X109553Y9628D01*
X109574Y9623D01*
X109579D01*
X109660Y9603D01*
X109732Y9582D01*
X109798Y9567D01*
X109859Y9552D01*
X109910Y9537D01*
X109956Y9526D01*
X109997Y9511D01*
X110033Y9501D01*
X110063Y9496D01*
X110089Y9486D01*
X110124Y9475D01*
X110145Y9465D01*
X110150D01*
X110216Y9440D01*
X110267Y9414D01*
X110313Y9389D01*
X110349Y9363D01*
X110374Y9343D01*
X110390Y9327D01*
X110400Y9317D01*
X110405Y9312D01*
X110430Y9276D01*
X110451Y9241D01*
X110461Y9205D01*
X110471Y9174D01*
X110476Y9144D01*
X110481Y9118D01*
Y9103D01*
Y9098D01*
X110476Y9026D01*
X110456Y8965D01*
X110425Y8904D01*
X110395Y8853D01*
X110359Y8812D01*
X110334Y8782D01*
X110313Y8761D01*
X110303Y8756D01*
X110231Y8710D01*
X110150Y8675D01*
X110063Y8649D01*
X109982Y8634D01*
X109905Y8624D01*
X109844Y8613D01*
X109788D01*
X109670Y8619D01*
X109569Y8639D01*
X109482Y8664D01*
X109405Y8695D01*
X109344Y8726D01*
X109303Y8751D01*
X109278Y8771D01*
X109268Y8777D01*
X109201Y8848D01*
X109150Y8924D01*
X109104Y9011D01*
X109074Y9098D01*
X109048Y9174D01*
X109028Y9236D01*
X109023Y9256D01*
Y9276D01*
X109018Y9287D01*
Y9292D01*
X108324Y9225D01*
X108339Y9118D01*
X108360Y9016D01*
X108390Y8919D01*
X108416Y8833D01*
X108452Y8751D01*
X108487Y8675D01*
X108523Y8608D01*
X108559Y8547D01*
X108594Y8496D01*
X108630Y8450D01*
X108661Y8409D01*
X108691Y8374D01*
X108712Y8348D01*
X108732Y8333D01*
X108742Y8323D01*
X108747Y8318D01*
X108819Y8262D01*
X108895Y8216D01*
X108977Y8175D01*
X109064Y8139D01*
X109145Y8114D01*
X109232Y8088D01*
X109400Y8052D01*
X109477Y8037D01*
X109548Y8027D01*
X109609Y8022D01*
X109665Y8017D01*
X109711Y8012D01*
X108324D01*
X111195D01*
Y9103D01*
X111190Y9225D01*
X111175Y9332D01*
X111150Y9429D01*
X111124Y9511D01*
X111099Y9577D01*
X111073Y9623D01*
X111058Y9654D01*
X111053Y9664D01*
X110996Y9746D01*
X110930Y9817D01*
X110864Y9878D01*
X110803Y9929D01*
X110747Y9970D01*
X110701Y10001D01*
X110670Y10021D01*
X110665Y10026D01*
X110660D01*
X110609Y10052D01*
X110558Y10077D01*
X110435Y10123D01*
X110308Y10164D01*
X110186Y10205D01*
X110129Y10220D01*
X110073Y10235D01*
X110022Y10250D01*
X109982Y10261D01*
X109946Y10271D01*
X109920Y10276D01*
X109900Y10281D01*
X109895D01*
X109803Y10307D01*
X109722Y10327D01*
X109645Y10347D01*
X109574Y10368D01*
X109518Y10388D01*
X109461Y10409D01*
X109415Y10429D01*
X109375Y10444D01*
X109339Y10460D01*
X109313Y10475D01*
X109288Y10485D01*
X109273Y10495D01*
X109247Y10511D01*
X109242Y10516D01*
X109206Y10551D01*
X109181Y10587D01*
X109166Y10623D01*
X109155Y10659D01*
X109145Y10684D01*
X109140Y10710D01*
Y10725D01*
Y10730D01*
X109145Y10781D01*
X109155Y10822D01*
X109176Y10863D01*
X109196Y10893D01*
X109217Y10919D01*
X109237Y10934D01*
X109247Y10944D01*
X109252Y10949D01*
X109324Y10995D01*
X109400Y11026D01*
X109482Y11051D01*
X109558Y11067D01*
X109625Y11077D01*
X109681Y11082D01*
X109732D01*
X109839Y11077D01*
X109931Y11061D01*
X110007Y11041D01*
X110068Y11021D01*
X110119Y11000D01*
X110155Y10980D01*
X110175Y10965D01*
X110180Y10959D01*
X110231Y10908D01*
X110277Y10847D01*
X110313Y10786D01*
X110339Y10720D01*
X110359Y10664D01*
X110369Y10618D01*
X110379Y10582D01*
Y10577D01*
Y10572D01*
X111093Y10597D01*
X111088Y10689D01*
X111073Y10771D01*
X111053Y10852D01*
X111027Y10924D01*
X111002Y10995D01*
X110971Y11061D01*
X110940Y11118D01*
X110910Y11174D01*
X110874Y11220D01*
X110844Y11260D01*
X110813Y11296D01*
X110787Y11327D01*
X110767Y11347D01*
X110752Y11362D01*
X110741Y11372D01*
X110736Y11378D01*
X110670Y11429D01*
X110599Y11474D01*
X110522Y11515D01*
X110441Y11551D01*
X110359Y11576D01*
X110277Y11602D01*
X110114Y11638D01*
X110038Y11648D01*
X109971Y11658D01*
X109905Y11663D01*
X109849Y11668D01*
X109803Y11673D01*
D02*
G37*
G36*
X88582Y11607D02*
X87710D01*
X87751D01*
X87052Y10551D01*
X86353Y11607D01*
X85522D01*
X86629Y9914D01*
X85410Y8078D01*
X87049D01*
X86267D01*
X87052Y9271D01*
X87832Y8078D01*
X88689D01*
X87475Y9914D01*
X88582Y11607D01*
D02*
G37*
G36*
X131172Y11607D02*
X130412D01*
X129550Y8996D01*
X128653Y11607D01*
X127883D01*
Y8078D01*
Y11607D01*
X129147Y8078D01*
X131172D01*
X129918D01*
X131172Y11607D01*
D01*
D02*
G37*
G36*
X127577Y11561D02*
X125786D01*
X125440Y9720D01*
X125985Y9644D01*
X126031Y9690D01*
X126077Y9730D01*
X126123Y9766D01*
X126169Y9797D01*
X126256Y9843D01*
X126337Y9873D01*
X126409Y9888D01*
X126460Y9899D01*
X126480Y9904D01*
X126511D01*
X126592Y9899D01*
X126669Y9878D01*
X126735Y9853D01*
X126791Y9822D01*
X126832Y9786D01*
X126868Y9761D01*
X126888Y9741D01*
X126893Y9735D01*
X126944Y9669D01*
X126980Y9593D01*
X127005Y9511D01*
X127021Y9429D01*
X127036Y9358D01*
X127041Y9302D01*
Y9276D01*
Y9261D01*
Y9251D01*
Y9246D01*
X127036Y9123D01*
X127021Y9016D01*
X126995Y8930D01*
X126970Y8858D01*
X126939Y8797D01*
X126919Y8756D01*
X126898Y8736D01*
X126893Y8726D01*
X126837Y8670D01*
X126776Y8624D01*
X126715Y8593D01*
X126659Y8573D01*
X126608Y8562D01*
X126567Y8557D01*
X126541Y8552D01*
X126531D01*
X126465Y8557D01*
X126399Y8573D01*
X126342Y8593D01*
X126296Y8619D01*
X126256Y8644D01*
X126225Y8664D01*
X126205Y8680D01*
X126200Y8685D01*
X126154Y8741D01*
X126113Y8797D01*
X126082Y8858D01*
X126062Y8914D01*
X126047Y8965D01*
X126036Y9011D01*
X126031Y9037D01*
Y9047D01*
X125358Y8975D01*
X125373Y8894D01*
X125389Y8817D01*
X125440Y8680D01*
X125496Y8557D01*
X125526Y8506D01*
X125562Y8455D01*
X125593Y8415D01*
X125618Y8379D01*
X125649Y8348D01*
X125669Y8318D01*
X125690Y8297D01*
X125705Y8282D01*
X125715Y8277D01*
X125720Y8272D01*
X125781Y8226D01*
X125843Y8185D01*
X125909Y8149D01*
X125975Y8124D01*
X126113Y8073D01*
X126235Y8042D01*
X126296Y8032D01*
X126347Y8027D01*
X126399Y8022D01*
X126439Y8017D01*
X126475Y8012D01*
X126521D01*
X126633Y8017D01*
X126740Y8032D01*
X126837Y8052D01*
X126929Y8083D01*
X127016Y8119D01*
X127092Y8160D01*
X127164Y8200D01*
X127230Y8246D01*
X127286Y8287D01*
X127337Y8328D01*
X127383Y8369D01*
X127418Y8404D01*
X127444Y8435D01*
X127464Y8455D01*
X127475Y8471D01*
X127480Y8476D01*
X127526Y8542D01*
X127566Y8608D01*
X127597Y8675D01*
X127628Y8746D01*
X127673Y8879D01*
X127704Y9001D01*
X127714Y9052D01*
X127719Y9103D01*
X127730Y9149D01*
Y9190D01*
X127735Y9220D01*
Y9261D01*
X127730Y9358D01*
X127719Y9450D01*
X127704Y9537D01*
X127684Y9618D01*
X127663Y9690D01*
X127633Y9761D01*
X127607Y9827D01*
X127577Y9883D01*
X127546Y9934D01*
X127521Y9980D01*
X127490Y10021D01*
X127470Y10052D01*
X127449Y10077D01*
X127434Y10097D01*
X127424Y10108D01*
X127418Y10113D01*
X127357Y10169D01*
X127296Y10220D01*
X127230Y10266D01*
X127164Y10307D01*
X127102Y10337D01*
X127036Y10363D01*
X126919Y10403D01*
X126863Y10419D01*
X126812Y10429D01*
X126766Y10434D01*
X126730Y10439D01*
X126699Y10444D01*
X126654D01*
X126567Y10439D01*
X126480Y10424D01*
X126404Y10409D01*
X126332Y10388D01*
X126276Y10363D01*
X126230Y10347D01*
X126200Y10332D01*
X126195Y10327D01*
X126189D01*
X126296Y10929D01*
X127577D01*
Y11561D01*
D02*
G37*
G36*
X121977Y11607D02*
X120569D01*
Y8078D01*
X123522D01*
X121905D01*
X122043Y8083D01*
X122171Y8088D01*
X122278Y8098D01*
X122364Y8114D01*
X122436Y8129D01*
X122492Y8139D01*
X122507Y8144D01*
X122522D01*
X122528Y8149D01*
X122533D01*
X122645Y8190D01*
X122747Y8236D01*
X122828Y8282D01*
X122900Y8328D01*
X122956Y8369D01*
X122997Y8399D01*
X123022Y8420D01*
X123032Y8430D01*
X123119Y8527D01*
X123196Y8629D01*
X123262Y8736D01*
X123313Y8833D01*
X123354Y8924D01*
X123374Y8960D01*
X123384Y8991D01*
X123395Y9021D01*
X123405Y9042D01*
X123410Y9052D01*
Y9057D01*
X123446Y9179D01*
X123476Y9307D01*
X123497Y9429D01*
X123507Y9547D01*
X123512Y9603D01*
X123517Y9654D01*
Y9695D01*
X123522Y9735D01*
Y9807D01*
X123517Y9985D01*
X123502Y10143D01*
X123497Y10220D01*
X123486Y10286D01*
X123476Y10352D01*
X123466Y10409D01*
X123451Y10460D01*
X123441Y10505D01*
X123430Y10546D01*
X123425Y10577D01*
X123415Y10602D01*
X123410Y10623D01*
X123405Y10633D01*
Y10638D01*
X123359Y10761D01*
X123303Y10873D01*
X123247Y10970D01*
X123191Y11051D01*
X123145Y11118D01*
X123104Y11169D01*
X123078Y11199D01*
X123073Y11209D01*
X123068D01*
X122982Y11291D01*
X122895Y11357D01*
X122803Y11413D01*
X122721Y11459D01*
X122650Y11495D01*
X122589Y11520D01*
X122568Y11525D01*
X122553Y11531D01*
X122543Y11536D01*
X122538D01*
X122441Y11561D01*
X122334Y11576D01*
X122222Y11592D01*
X122115Y11597D01*
X122018Y11602D01*
X121977Y11607D01*
D02*
G37*
G36*
X119814D02*
X117009D01*
Y8078D01*
X117667D01*
Y10403D01*
X119100Y8078D01*
X119814D01*
Y11607D01*
D02*
G37*
G36*
X108049D02*
X105249D01*
Y8078D01*
Y11010D01*
X106294D01*
Y8078D01*
X107008D01*
Y11010D01*
X108049D01*
Y11607D01*
D02*
G37*
G36*
X103530D02*
X101939D01*
Y8078D01*
X105111D01*
X104678Y8766D01*
X104632Y8838D01*
X104586Y8909D01*
X104545Y8970D01*
X104504Y9026D01*
X104469Y9077D01*
X104438Y9128D01*
X104377Y9205D01*
X104331Y9266D01*
X104300Y9307D01*
X104275Y9332D01*
X104270Y9338D01*
X104214Y9399D01*
X104147Y9455D01*
X104086Y9501D01*
X104025Y9547D01*
X103974Y9582D01*
X103933Y9608D01*
X103902Y9628D01*
X103897Y9633D01*
X103892D01*
X103979Y9649D01*
X104055Y9669D01*
X104127Y9690D01*
X104198Y9715D01*
X104259Y9741D01*
X104315Y9766D01*
X104372Y9792D01*
X104418Y9822D01*
X104458Y9848D01*
X104494Y9873D01*
X104525Y9899D01*
X104545Y9919D01*
X104565Y9934D01*
X104581Y9950D01*
X104586Y9955D01*
X104591Y9960D01*
X104632Y10011D01*
X104667Y10062D01*
X104729Y10174D01*
X104769Y10281D01*
X104795Y10388D01*
X104815Y10480D01*
X104820Y10516D01*
Y10551D01*
X104825Y10577D01*
Y10602D01*
Y10613D01*
Y10618D01*
X104820Y10730D01*
X104800Y10837D01*
X104774Y10929D01*
X104749Y11010D01*
X104718Y11077D01*
X104693Y11128D01*
X104683Y11143D01*
X104673Y11158D01*
X104667Y11163D01*
Y11169D01*
X104606Y11255D01*
X104540Y11327D01*
X104474Y11383D01*
X104407Y11434D01*
X104346Y11464D01*
X104300Y11490D01*
X104270Y11505D01*
X104264Y11510D01*
X104259D01*
X104208Y11525D01*
X104152Y11541D01*
X104025Y11566D01*
X103887Y11582D01*
X103754Y11597D01*
X103688D01*
X103632Y11602D01*
X103576D01*
X103530Y11607D01*
D02*
G37*
G36*
X98598Y11607D02*
X97007D01*
Y8078D01*
X100179Y8078D01*
X99746Y8766D01*
X99700Y8838D01*
X99654Y8909D01*
X99613Y8970D01*
X99572Y9026D01*
X99537Y9077D01*
X99506Y9128D01*
X99445Y9205D01*
X99399Y9266D01*
X99369Y9307D01*
X99343Y9332D01*
X99338Y9338D01*
X99282Y9399D01*
X99216Y9455D01*
X99154Y9501D01*
X99093Y9547D01*
X99042Y9582D01*
X99001Y9608D01*
X98971Y9628D01*
X98966Y9633D01*
X98961D01*
X99047Y9649D01*
X99124Y9669D01*
X99195Y9690D01*
X99266Y9715D01*
X99328Y9741D01*
X99384Y9766D01*
X99440Y9792D01*
X99486Y9822D01*
X99527Y9848D01*
X99562Y9873D01*
X99593Y9899D01*
X99613Y9919D01*
X99634Y9934D01*
X99649Y9950D01*
X99654Y9955D01*
X99659Y9960D01*
X99700Y10011D01*
X99736Y10062D01*
X99797Y10174D01*
X99838Y10281D01*
X99863Y10388D01*
X99884Y10480D01*
X99889Y10516D01*
Y10551D01*
X99894Y10577D01*
Y10602D01*
Y10613D01*
Y10618D01*
X99889Y10730D01*
X99868Y10837D01*
X99843Y10929D01*
X99817Y11010D01*
X99787Y11077D01*
X99761Y11128D01*
X99751Y11143D01*
X99741Y11158D01*
X99736Y11163D01*
Y11169D01*
X99674Y11255D01*
X99608Y11327D01*
X99542Y11383D01*
X99476Y11434D01*
X99414Y11464D01*
X99369Y11490D01*
X99338Y11505D01*
X99333Y11510D01*
X99328D01*
X99277Y11525D01*
X99221Y11541D01*
X99093Y11566D01*
X98955Y11582D01*
X98823Y11597D01*
X98756D01*
X98700Y11602D01*
X98644D01*
X98598Y11607D01*
D02*
G37*
G36*
X96543D02*
X93743D01*
Y8078D01*
Y11010D01*
X94789D01*
Y8078D01*
X95503D01*
Y11010D01*
X96543D01*
Y11607D01*
D02*
G37*
G36*
X93386D02*
X90433D01*
Y8078D01*
X91769D01*
X91907Y8083D01*
X92035Y8088D01*
X92142Y8098D01*
X92229Y8114D01*
X92300Y8129D01*
X92356Y8139D01*
X92371Y8144D01*
X92387D01*
X92392Y8149D01*
X92397D01*
X92509Y8190D01*
X92611Y8236D01*
X92693Y8282D01*
X92764Y8328D01*
X92820Y8369D01*
X92861Y8399D01*
X92886Y8420D01*
X92897Y8430D01*
X92983Y8527D01*
X93060Y8629D01*
X93126Y8736D01*
X93177Y8833D01*
X93218Y8924D01*
X93238Y8960D01*
X93248Y8991D01*
X93259Y9021D01*
X93269Y9042D01*
X93274Y9052D01*
Y9057D01*
X93310Y9179D01*
X93340Y9307D01*
X93361Y9429D01*
X93371Y9547D01*
X93376Y9603D01*
X93381Y9654D01*
Y9695D01*
X93386Y9735D01*
Y9807D01*
X93381Y9985D01*
X93366Y10143D01*
X93361Y10220D01*
X93350Y10286D01*
X93340Y10352D01*
X93330Y10409D01*
X93315Y10460D01*
X93305Y10505D01*
X93294Y10546D01*
X93289Y10577D01*
X93279Y10602D01*
X93274Y10623D01*
X93269Y10633D01*
Y10638D01*
X93223Y10761D01*
X93167Y10873D01*
X93111Y10970D01*
X93055Y11051D01*
X93009Y11118D01*
X92968Y11169D01*
X92943Y11199D01*
X92937Y11209D01*
X92932D01*
X92846Y11291D01*
X92759Y11357D01*
X92667Y11413D01*
X92585Y11459D01*
X92514Y11495D01*
X92453Y11520D01*
X92432Y11525D01*
X92417Y11531D01*
X92407Y11536D01*
X92402D01*
X92305Y11561D01*
X92198Y11576D01*
X92086Y11592D01*
X91979Y11597D01*
X91882Y11602D01*
X91841Y11607D01*
X93386D01*
D01*
D02*
G37*
G36*
X85410D02*
D01*
Y8078D01*
Y11607D01*
D01*
D02*
G37*
G36*
X85308D02*
X82508D01*
Y8078D01*
Y11010D01*
X83553D01*
Y8078D01*
X84267D01*
Y11010D01*
X85308D01*
Y11607D01*
D02*
G37*
G36*
X81014D02*
X77734D01*
Y8078D01*
Y11607D01*
X77846D01*
X78953Y9914D01*
X77734Y8078D01*
X78591D01*
X79377Y9271D01*
X80157Y8078D01*
X81014D01*
X79800Y9914D01*
X80906Y11607D01*
X81014D01*
D01*
D02*
G37*
G36*
X76128D02*
X74537D01*
Y8078D01*
X77709D01*
X77275Y8766D01*
X77229Y8838D01*
X77184Y8909D01*
X77143Y8970D01*
X77102Y9026D01*
X77066Y9077D01*
X77036Y9128D01*
X76974Y9205D01*
X76929Y9266D01*
X76898Y9307D01*
X76872Y9332D01*
X76867Y9338D01*
X76811Y9399D01*
X76745Y9455D01*
X76684Y9501D01*
X76622Y9547D01*
X76572Y9582D01*
X76531Y9608D01*
X76500Y9628D01*
X76495Y9633D01*
X76490D01*
X76577Y9649D01*
X76653Y9669D01*
X76724Y9690D01*
X76796Y9715D01*
X76857Y9741D01*
X76913Y9766D01*
X76969Y9792D01*
X77015Y9822D01*
X77056Y9848D01*
X77092Y9873D01*
X77122Y9899D01*
X77143Y9919D01*
X77163Y9934D01*
X77178Y9950D01*
X77184Y9955D01*
X77189Y9960D01*
X77229Y10011D01*
X77265Y10062D01*
X77326Y10174D01*
X77367Y10281D01*
X77393Y10388D01*
X77413Y10480D01*
X77418Y10516D01*
Y10551D01*
X77423Y10577D01*
Y10602D01*
Y10613D01*
Y10618D01*
X77418Y10730D01*
X77398Y10837D01*
X77372Y10929D01*
X77347Y11010D01*
X77316Y11077D01*
X77291Y11128D01*
X77280Y11143D01*
X77270Y11158D01*
X77265Y11163D01*
Y11169D01*
X77204Y11255D01*
X77138Y11327D01*
X77071Y11383D01*
X77005Y11434D01*
X76944Y11464D01*
X76898Y11490D01*
X76867Y11505D01*
X76862Y11510D01*
X76857D01*
X76806Y11525D01*
X76750Y11541D01*
X76622Y11566D01*
X76485Y11582D01*
X76352Y11597D01*
X76286D01*
X76230Y11602D01*
X76174D01*
X76128Y11607D01*
D02*
G37*
%LPD*%
G36*
X111195Y8012D02*
X109778D01*
X109941Y8017D01*
X110089Y8032D01*
X110221Y8052D01*
X110277Y8063D01*
X110334Y8078D01*
X110379Y8088D01*
X110420Y8098D01*
X110456Y8108D01*
X110486Y8119D01*
X110512Y8129D01*
X110527Y8134D01*
X110538Y8139D01*
X110543D01*
X110655Y8195D01*
X110747Y8256D01*
X110833Y8318D01*
X110900Y8384D01*
X110951Y8440D01*
X110991Y8491D01*
X111012Y8522D01*
X111022Y8527D01*
Y8532D01*
X111078Y8634D01*
X111124Y8731D01*
X111155Y8828D01*
X111175Y8919D01*
X111185Y8991D01*
X111190Y9026D01*
X111195Y9052D01*
Y8012D01*
D02*
G37*
G36*
X121814Y11005D02*
X121875D01*
X121926Y11000D01*
X121972D01*
X122018Y10995D01*
X122053D01*
X122109Y10985D01*
X122150Y10980D01*
X122176Y10975D01*
X122181D01*
X122252Y10954D01*
X122313Y10929D01*
X122370Y10903D01*
X122421Y10873D01*
X122456Y10847D01*
X122487Y10827D01*
X122502Y10812D01*
X122507Y10806D01*
X122553Y10755D01*
X122594Y10699D01*
X122630Y10643D01*
X122660Y10592D01*
X122681Y10541D01*
X122696Y10500D01*
X122706Y10475D01*
X122711Y10470D01*
Y10465D01*
X122737Y10373D01*
X122757Y10276D01*
X122767Y10169D01*
X122777Y10067D01*
X122783Y9980D01*
X122788Y9939D01*
Y9904D01*
Y9878D01*
Y9858D01*
Y9843D01*
Y9837D01*
X122783Y9695D01*
X122777Y9562D01*
X122762Y9455D01*
X122752Y9363D01*
X122737Y9287D01*
X122732Y9256D01*
X122721Y9236D01*
X122716Y9215D01*
Y9200D01*
X122711Y9195D01*
Y9190D01*
X122681Y9108D01*
X122655Y9037D01*
X122619Y8981D01*
X122594Y8935D01*
X122568Y8899D01*
X122548Y8873D01*
X122533Y8858D01*
X122528Y8853D01*
X122482Y8817D01*
X122436Y8787D01*
X122390Y8761D01*
X122344Y8741D01*
X122303Y8726D01*
X122273Y8715D01*
X122252Y8705D01*
X122242D01*
X122186Y8695D01*
X122120Y8690D01*
X122048Y8680D01*
X121977D01*
X121911Y8675D01*
X121283D01*
Y11010D01*
X121747D01*
X121814Y11005D01*
D02*
G37*
G36*
X119157Y9230D02*
X117698Y11607D01*
X119157D01*
Y9230D01*
D02*
G37*
G36*
X103515Y11005D02*
X103627D01*
X103673Y11000D01*
X103703D01*
X103719Y10995D01*
X103724D01*
X103785Y10980D01*
X103841Y10959D01*
X103887Y10939D01*
X103923Y10914D01*
X103953Y10888D01*
X103979Y10873D01*
X103989Y10857D01*
X103994Y10852D01*
X104025Y10812D01*
X104050Y10761D01*
X104066Y10715D01*
X104081Y10669D01*
X104086Y10628D01*
X104091Y10597D01*
Y10577D01*
Y10567D01*
X104086Y10511D01*
X104081Y10460D01*
X104066Y10414D01*
X104055Y10373D01*
X104040Y10342D01*
X104025Y10322D01*
X104020Y10307D01*
X104015Y10301D01*
X103984Y10266D01*
X103953Y10235D01*
X103887Y10189D01*
X103862Y10174D01*
X103836Y10164D01*
X103821Y10154D01*
X103816D01*
X103790Y10148D01*
X103749Y10138D01*
X103709Y10133D01*
X103663Y10128D01*
X103556Y10123D01*
X103448Y10118D01*
X103347Y10113D01*
X102653D01*
Y11010D01*
X103469D01*
X103515Y11005D01*
D02*
G37*
G36*
X102954Y9547D02*
X103015Y9542D01*
X103066Y9531D01*
X103107Y9526D01*
X103132Y9516D01*
X103148Y9511D01*
X103153D01*
X103193Y9491D01*
X103234Y9470D01*
X103270Y9445D01*
X103306Y9424D01*
X103331Y9399D01*
X103352Y9378D01*
X103362Y9368D01*
X103367Y9363D01*
X103387Y9338D01*
X103413Y9312D01*
X103469Y9236D01*
X103530Y9154D01*
X103596Y9062D01*
X103653Y8981D01*
X103678Y8940D01*
X103698Y8909D01*
X103719Y8884D01*
X103734Y8863D01*
X103739Y8848D01*
X103744Y8843D01*
X104254Y8078D01*
X102653D01*
Y9552D01*
X102882D01*
X102954Y9547D01*
D02*
G37*
G36*
X98583Y11005D02*
X98695D01*
X98741Y11000D01*
X98772D01*
X98787Y10995D01*
X98792D01*
X98853Y10980D01*
X98909Y10959D01*
X98955Y10939D01*
X98991Y10914D01*
X99022Y10888D01*
X99047Y10873D01*
X99057Y10857D01*
X99063Y10852D01*
X99093Y10812D01*
X99119Y10761D01*
X99134Y10715D01*
X99149Y10669D01*
X99154Y10628D01*
X99159Y10597D01*
Y10577D01*
Y10567D01*
X99154Y10511D01*
X99149Y10460D01*
X99134Y10414D01*
X99124Y10373D01*
X99108Y10342D01*
X99093Y10322D01*
X99088Y10307D01*
X99083Y10301D01*
X99052Y10266D01*
X99022Y10235D01*
X98955Y10189D01*
X98930Y10174D01*
X98904Y10164D01*
X98889Y10154D01*
X98884D01*
X98858Y10148D01*
X98818Y10138D01*
X98777Y10133D01*
X98731Y10128D01*
X98624Y10123D01*
X98517Y10118D01*
X98415Y10113D01*
X97721D01*
Y11010D01*
X98537D01*
X98583Y11005D01*
D02*
G37*
G36*
X98022Y9547D02*
X98083Y9542D01*
X98134Y9531D01*
X98175Y9526D01*
X98201Y9516D01*
X98216Y9511D01*
X98221D01*
X98262Y9491D01*
X98303Y9470D01*
X98338Y9445D01*
X98374Y9424D01*
X98400Y9399D01*
X98420Y9378D01*
X98430Y9368D01*
X98435Y9363D01*
X98456Y9338D01*
X98481Y9312D01*
X98537Y9236D01*
X98598Y9154D01*
X98665Y9062D01*
X98721Y8981D01*
X98746Y8940D01*
X98767Y8909D01*
X98787Y8884D01*
X98802Y8863D01*
X98808Y8848D01*
X98813Y8843D01*
X99323Y8078D01*
X97721D01*
Y9552D01*
X97951D01*
X98022Y9547D01*
D02*
G37*
G36*
X91678Y11005D02*
X91739D01*
X91790Y11000D01*
X91836D01*
X91882Y10995D01*
X91917D01*
X91974Y10985D01*
X92014Y10980D01*
X92040Y10975D01*
X92045D01*
X92116Y10954D01*
X92177Y10929D01*
X92234Y10903D01*
X92285Y10873D01*
X92320Y10847D01*
X92351Y10827D01*
X92366Y10812D01*
X92371Y10806D01*
X92417Y10755D01*
X92458Y10699D01*
X92494Y10643D01*
X92524Y10592D01*
X92545Y10541D01*
X92560Y10500D01*
X92570Y10475D01*
X92575Y10470D01*
Y10465D01*
X92601Y10373D01*
X92621Y10276D01*
X92631Y10169D01*
X92642Y10067D01*
X92647Y9980D01*
X92652Y9939D01*
Y9904D01*
Y9878D01*
Y9858D01*
Y9843D01*
Y9837D01*
X92647Y9695D01*
X92642Y9562D01*
X92626Y9455D01*
X92616Y9363D01*
X92601Y9287D01*
X92596Y9256D01*
X92585Y9236D01*
X92580Y9215D01*
Y9200D01*
X92575Y9195D01*
Y9190D01*
X92545Y9108D01*
X92519Y9037D01*
X92484Y8981D01*
X92458Y8935D01*
X92432Y8899D01*
X92412Y8873D01*
X92397Y8858D01*
X92392Y8853D01*
X92346Y8817D01*
X92300Y8787D01*
X92254Y8761D01*
X92208Y8741D01*
X92167Y8726D01*
X92137Y8715D01*
X92116Y8705D01*
X92106D01*
X92050Y8695D01*
X91984Y8690D01*
X91912Y8680D01*
X91841D01*
X91775Y8675D01*
X91147D01*
Y11010D01*
X91611D01*
X91678Y11005D01*
D02*
G37*
G36*
X79377Y10551D02*
X78678Y11607D01*
X80075D01*
X79377Y10551D01*
D02*
G37*
G36*
X76113Y11005D02*
X76225D01*
X76271Y11000D01*
X76301D01*
X76316Y10995D01*
X76322D01*
X76383Y10980D01*
X76439Y10959D01*
X76485Y10939D01*
X76521Y10914D01*
X76551Y10888D01*
X76577Y10873D01*
X76587Y10857D01*
X76592Y10852D01*
X76622Y10812D01*
X76648Y10761D01*
X76663Y10715D01*
X76679Y10669D01*
X76684Y10628D01*
X76689Y10597D01*
Y10577D01*
Y10567D01*
X76684Y10511D01*
X76679Y10460D01*
X76663Y10414D01*
X76653Y10373D01*
X76638Y10342D01*
X76622Y10322D01*
X76617Y10307D01*
X76612Y10301D01*
X76582Y10266D01*
X76551Y10235D01*
X76485Y10189D01*
X76459Y10174D01*
X76434Y10164D01*
X76419Y10154D01*
X76413D01*
X76388Y10148D01*
X76347Y10138D01*
X76306Y10133D01*
X76260Y10128D01*
X76153Y10123D01*
X76046Y10118D01*
X75944Y10113D01*
X75251D01*
Y11010D01*
X76067D01*
X76113Y11005D01*
D02*
G37*
G36*
X75551Y9547D02*
X75613Y9542D01*
X75664Y9531D01*
X75704Y9526D01*
X75730Y9516D01*
X75745Y9511D01*
X75750D01*
X75791Y9491D01*
X75832Y9470D01*
X75868Y9445D01*
X75903Y9424D01*
X75929Y9399D01*
X75949Y9378D01*
X75959Y9368D01*
X75965Y9363D01*
X75985Y9338D01*
X76011Y9312D01*
X76067Y9236D01*
X76128Y9154D01*
X76194Y9062D01*
X76250Y8981D01*
X76276Y8940D01*
X76296Y8909D01*
X76316Y8884D01*
X76332Y8863D01*
X76337Y8848D01*
X76342Y8843D01*
X76852Y8078D01*
X75251D01*
Y9552D01*
X75480D01*
X75551Y9547D01*
D02*
G37*
%LPC*%
G36*
X178642Y63211D02*
X175480D01*
Y59433D01*
X176911D01*
X177058Y59438D01*
X177195Y59444D01*
X177309Y59455D01*
X177402Y59471D01*
X177479Y59487D01*
X177539Y59499D01*
X177555Y59504D01*
X177571D01*
X177577Y59509D01*
X177582D01*
X177702Y59553D01*
X177812Y59602D01*
X177899Y59651D01*
X177975Y59701D01*
X178035Y59744D01*
X178079Y59777D01*
X178106Y59799D01*
X178117Y59810D01*
X178210Y59913D01*
X178292Y60023D01*
X178363Y60137D01*
X178418Y60241D01*
X178461Y60339D01*
X178483Y60378D01*
X178494Y60410D01*
X178505Y60443D01*
X178516Y60465D01*
X178522Y60476D01*
Y60481D01*
X178560Y60612D01*
X178593Y60749D01*
X178614Y60880D01*
X178625Y61005D01*
X178631Y61066D01*
X178636Y61120D01*
Y61164D01*
X178642Y61207D01*
Y59793D01*
Y61284D01*
X178636Y61475D01*
X178620Y61644D01*
X178614Y61726D01*
X178603Y61797D01*
X178593Y61868D01*
X178582Y61928D01*
X178565Y61983D01*
X178554Y62032D01*
X178543Y62076D01*
X178538Y62108D01*
X178527Y62136D01*
X178522Y62157D01*
X178516Y62168D01*
Y62174D01*
X178467Y62305D01*
X178407Y62425D01*
X178347Y62529D01*
X178287Y62616D01*
X178238Y62687D01*
X178194Y62742D01*
X178167Y62774D01*
X178161Y62785D01*
X178156D01*
X178063Y62873D01*
X177970Y62944D01*
X177872Y63004D01*
X177784Y63053D01*
X177708Y63091D01*
X177642Y63118D01*
X177621Y63124D01*
X177604Y63129D01*
X177593Y63135D01*
X177588D01*
X177484Y63162D01*
X177369Y63178D01*
X177249Y63195D01*
X177135Y63200D01*
X177031Y63206D01*
X176987Y63211D01*
X178642D01*
D02*
G37*
G36*
X175065D02*
X171669D01*
Y59433D01*
X172530D01*
X172434D01*
Y61011D01*
X172679D01*
X172756Y61005D01*
X172821Y61000D01*
X172876Y60989D01*
X172919Y60984D01*
X172947Y60973D01*
X172963Y60967D01*
X172969D01*
X173012Y60945D01*
X173056Y60923D01*
X173094Y60896D01*
X173132Y60874D01*
X173160Y60847D01*
X173182Y60825D01*
X173193Y60814D01*
X173198Y60809D01*
X173220Y60782D01*
X173247Y60754D01*
X173307Y60672D01*
X173373Y60585D01*
X173444Y60487D01*
X173504Y60399D01*
X173531Y60356D01*
X173553Y60323D01*
X173575Y60296D01*
X173591Y60274D01*
X173597Y60257D01*
X173602Y60252D01*
X174148Y59433D01*
X175065D01*
X174601Y60170D01*
X174552Y60246D01*
X174503Y60323D01*
X174459Y60388D01*
X174416Y60448D01*
X174377Y60503D01*
X174345Y60558D01*
X174279Y60640D01*
X174230Y60705D01*
X174197Y60749D01*
X174170Y60776D01*
X174164Y60782D01*
X174104Y60847D01*
X174033Y60907D01*
X173968Y60956D01*
X173902Y61005D01*
X173848Y61044D01*
X173804Y61071D01*
X173771Y61093D01*
X173766Y61098D01*
X173760D01*
X173853Y61115D01*
X173935Y61137D01*
X174012Y61158D01*
X174088Y61186D01*
X174153Y61213D01*
X174214Y61240D01*
X174274Y61268D01*
X174323Y61300D01*
X174366Y61328D01*
X174405Y61355D01*
X174437Y61382D01*
X174459Y61404D01*
X174481Y61420D01*
X174497Y61437D01*
X174503Y61442D01*
X174508Y61448D01*
X174552Y61502D01*
X174590Y61557D01*
X174656Y61677D01*
X174699Y61792D01*
X174727Y61906D01*
X174749Y62005D01*
X174754Y62043D01*
Y62081D01*
X174759Y62108D01*
Y62136D01*
Y62147D01*
Y62152D01*
X174754Y62272D01*
X174732Y62387D01*
X174705Y62485D01*
X174678Y62572D01*
X174645Y62643D01*
X174618Y62698D01*
X174607Y62714D01*
X174596Y62731D01*
X174590Y62736D01*
Y62742D01*
X174525Y62835D01*
X174454Y62911D01*
X174383Y62971D01*
X174312Y63026D01*
X174246Y63058D01*
X174197Y63086D01*
X174164Y63102D01*
X174159Y63108D01*
X174153D01*
X174099Y63124D01*
X174039Y63140D01*
X173902Y63168D01*
X173755Y63184D01*
X173613Y63200D01*
X173542D01*
X173482Y63206D01*
X173422D01*
X173373Y63211D01*
X175065D01*
D01*
D02*
G37*
G36*
X171260D02*
X167470D01*
X168934D01*
X167470Y59433D01*
X168279D01*
X168590Y60290D01*
X170108D01*
X170435Y59433D01*
X171260D01*
X169742Y63211D01*
X171260D01*
D01*
D02*
G37*
G36*
X163102D02*
X159941D01*
Y59433D01*
X161579D01*
X161672Y59438D01*
X161836D01*
X161901Y59444D01*
X162005D01*
X162043Y59449D01*
X162098D01*
X162120Y59455D01*
X162142D01*
X162251Y59471D01*
X162349Y59499D01*
X162436Y59526D01*
X162513Y59558D01*
X162573Y59586D01*
X162617Y59613D01*
X162644Y59629D01*
X162655Y59635D01*
X162731Y59695D01*
X162791Y59761D01*
X162851Y59821D01*
X162895Y59886D01*
X162933Y59941D01*
X162961Y59984D01*
X162977Y60012D01*
X162982Y60023D01*
X163021Y60115D01*
X163053Y60203D01*
X163075Y60290D01*
X163086Y60367D01*
X163097Y60432D01*
X163102Y60481D01*
Y60530D01*
Y60525D01*
X163097Y60645D01*
X163075Y60754D01*
X163042Y60847D01*
X163010Y60935D01*
X162977Y61000D01*
X162944Y61049D01*
X162922Y61082D01*
X162917Y61093D01*
X162840Y61180D01*
X162758Y61251D01*
X162666Y61311D01*
X162584Y61355D01*
X162507Y61393D01*
X162442Y61420D01*
X162420Y61426D01*
X162404Y61431D01*
X162393Y61437D01*
X162387D01*
X162475Y61486D01*
X162551Y61535D01*
X162617Y61595D01*
X162671Y61644D01*
X162709Y61693D01*
X162742Y61732D01*
X162764Y61759D01*
X162769Y61770D01*
X162819Y61857D01*
X162857Y61939D01*
X162879Y62021D01*
X162900Y62097D01*
X162911Y62163D01*
X162917Y62212D01*
Y62245D01*
Y62250D01*
Y62256D01*
X162911Y62343D01*
X162900Y62431D01*
X162879Y62502D01*
X162857Y62567D01*
X162835Y62622D01*
X162813Y62665D01*
X162802Y62687D01*
X162797Y62698D01*
X162753Y62769D01*
X162704Y62829D01*
X162655Y62884D01*
X162611Y62933D01*
X162567Y62966D01*
X162535Y62993D01*
X162513Y63009D01*
X162507Y63015D01*
X162442Y63058D01*
X162371Y63091D01*
X162305Y63118D01*
X162245Y63140D01*
X162191Y63157D01*
X162152Y63168D01*
X162125Y63173D01*
X162114D01*
X162021Y63184D01*
X161918Y63195D01*
X161808Y63200D01*
X161699Y63206D01*
X161601Y63211D01*
X163102D01*
D02*
G37*
%LPD*%
G36*
X165428Y59362D02*
D01*
D01*
D01*
D02*
G37*
%LPC*%
G36*
X167257Y63282D02*
X163594D01*
X165418D01*
X165254Y63277D01*
X165095Y63260D01*
X164959Y63233D01*
X164839Y63206D01*
X164790Y63189D01*
X164740Y63178D01*
X164702Y63168D01*
X164670Y63151D01*
X164642Y63146D01*
X164620Y63135D01*
X164609Y63129D01*
X164604D01*
X164506Y63086D01*
X164413Y63031D01*
X164331Y62971D01*
X164260Y62916D01*
X164200Y62867D01*
X164151Y62824D01*
X164123Y62796D01*
X164118Y62791D01*
X164112Y62785D01*
X164036Y62698D01*
X163965Y62605D01*
X163905Y62523D01*
X163856Y62441D01*
X163818Y62370D01*
X163785Y62316D01*
X163779Y62294D01*
X163769Y62278D01*
X163763Y62272D01*
Y62267D01*
X163708Y62114D01*
X163665Y61950D01*
X163637Y61786D01*
X163616Y61633D01*
X163610Y61562D01*
X163605Y61497D01*
X163599Y61442D01*
Y61393D01*
X163594Y61349D01*
Y61295D01*
X163599Y61131D01*
X163616Y60973D01*
X163637Y60825D01*
X163670Y60689D01*
X163708Y60563D01*
X163752Y60448D01*
X163796Y60339D01*
X163845Y60246D01*
X163889Y60159D01*
X163932Y60088D01*
X163976Y60023D01*
X164014Y59968D01*
X164047Y59930D01*
X164069Y59897D01*
X164085Y59881D01*
X164091Y59875D01*
X164189Y59782D01*
X164293Y59706D01*
X164397Y59635D01*
X164511Y59580D01*
X164620Y59531D01*
X164735Y59487D01*
X164839Y59455D01*
X164948Y59427D01*
X165046Y59406D01*
X165139Y59389D01*
X165221Y59378D01*
X165292Y59373D01*
X165347Y59367D01*
X165390Y59362D01*
X165428D01*
X165636D01*
X165428D01*
X165581Y59367D01*
X165723Y59384D01*
X165860Y59411D01*
X165985Y59444D01*
X166105Y59482D01*
X166215Y59526D01*
X166313Y59569D01*
X166406Y59619D01*
X166482Y59668D01*
X166553Y59711D01*
X166613Y59755D01*
X166662Y59793D01*
X166706Y59826D01*
X166733Y59853D01*
X166750Y59870D01*
X166755Y59875D01*
X166842Y59979D01*
X166919Y60088D01*
X166990Y60203D01*
X167045Y60317D01*
X167094Y60438D01*
X167137Y60558D01*
X167170Y60678D01*
X167197Y60792D01*
X167214Y60896D01*
X167230Y61000D01*
X167241Y61087D01*
X167252Y61164D01*
Y61229D01*
X167257Y61278D01*
Y61322D01*
Y61317D01*
X167252Y61486D01*
X167236Y61644D01*
X167214Y61792D01*
X167181Y61934D01*
X167143Y62059D01*
X167099Y62179D01*
X167055Y62288D01*
X167006Y62381D01*
X166957Y62469D01*
X166913Y62545D01*
X166870Y62611D01*
X166832Y62665D01*
X166804Y62704D01*
X166777Y62736D01*
X166761Y62753D01*
X166755Y62758D01*
X166657Y62851D01*
X166553Y62933D01*
X166444Y63004D01*
X166335Y63064D01*
X166220Y63113D01*
X166111Y63157D01*
X166002Y63189D01*
X165898Y63217D01*
X165800Y63239D01*
X165707Y63255D01*
X165625Y63266D01*
X165554Y63277D01*
X165499D01*
X165456Y63282D01*
X167257D01*
D01*
D02*
G37*
G36*
X176447Y58606D02*
X173553D01*
Y54828D01*
X174317D01*
Y56253D01*
X174994D01*
X175076Y56258D01*
X175153D01*
X175224Y56264D01*
X175289Y56269D01*
X175349Y56275D01*
X175398Y56280D01*
X175447D01*
X175486Y56286D01*
X175524Y56291D01*
X175551Y56297D01*
X175573D01*
X175590Y56302D01*
X175600D01*
X175677Y56324D01*
X175748Y56351D01*
X175813Y56379D01*
X175873Y56411D01*
X175923Y56439D01*
X175961Y56460D01*
X175983Y56477D01*
X175994Y56482D01*
X176065Y56537D01*
X176125Y56597D01*
X176185Y56662D01*
X176228Y56717D01*
X176267Y56772D01*
X176294Y56815D01*
X176310Y56843D01*
X176316Y56854D01*
X176359Y56946D01*
X176392Y57045D01*
X176414Y57148D01*
X176430Y57241D01*
X176441Y57318D01*
Y57356D01*
X176447Y57383D01*
Y56892D01*
Y57443D01*
X176436Y57602D01*
X176414Y57749D01*
X176376Y57869D01*
X176338Y57978D01*
X176316Y58022D01*
X176294Y58060D01*
X176277Y58093D01*
X176256Y58126D01*
X176245Y58148D01*
X176234Y58164D01*
X176223Y58170D01*
Y58175D01*
X176135Y58273D01*
X176048Y58355D01*
X175955Y58421D01*
X175873Y58470D01*
X175797Y58503D01*
X175737Y58530D01*
X175715Y58535D01*
X175699Y58541D01*
X175688Y58546D01*
X175682D01*
X175639Y58557D01*
X175584Y58568D01*
X175519Y58574D01*
X175453Y58579D01*
X175300Y58590D01*
X175147Y58601D01*
X175005D01*
X174945Y58606D01*
X176447D01*
D01*
D02*
G37*
G36*
X172777D02*
X169141D01*
Y54828D01*
X169845D01*
Y57798D01*
X170588Y54828D01*
X171325D01*
X172068Y57798D01*
X172073Y54828D01*
X172777D01*
Y58606D01*
D02*
G37*
G36*
X168502D02*
X165630D01*
Y54828D01*
X168502D01*
Y55467D01*
X166395D01*
Y56493D01*
X168289D01*
Y57132D01*
X166395D01*
Y57968D01*
X168431D01*
Y58606D01*
X168502D01*
D01*
D02*
G37*
G36*
X165134D02*
X162136D01*
Y54828D01*
Y57968D01*
X163255D01*
Y54828D01*
X164020D01*
Y57968D01*
X165134D01*
Y58606D01*
D02*
G37*
%LPD*%
G36*
X176813Y62567D02*
X176878D01*
X176933Y62562D01*
X176982D01*
X177031Y62556D01*
X177069D01*
X177129Y62545D01*
X177173Y62540D01*
X177200Y62534D01*
X177206D01*
X177282Y62512D01*
X177348Y62485D01*
X177408Y62458D01*
X177462Y62425D01*
X177500Y62398D01*
X177533Y62376D01*
X177550Y62359D01*
X177555Y62354D01*
X177604Y62300D01*
X177648Y62239D01*
X177686Y62179D01*
X177719Y62125D01*
X177741Y62070D01*
X177757Y62026D01*
X177768Y61999D01*
X177773Y61994D01*
Y61988D01*
X177801Y61890D01*
X177823Y61786D01*
X177833Y61672D01*
X177844Y61562D01*
X177850Y61470D01*
X177855Y61426D01*
Y61388D01*
Y61360D01*
Y61339D01*
Y61322D01*
Y61317D01*
X177850Y61164D01*
X177844Y61022D01*
X177828Y60907D01*
X177817Y60809D01*
X177801Y60727D01*
X177795Y60694D01*
X177784Y60672D01*
X177779Y60650D01*
Y60634D01*
X177773Y60629D01*
Y60623D01*
X177741Y60536D01*
X177713Y60459D01*
X177675Y60399D01*
X177648Y60350D01*
X177621Y60312D01*
X177599Y60285D01*
X177582Y60268D01*
X177577Y60263D01*
X177528Y60225D01*
X177479Y60192D01*
X177429Y60165D01*
X177380Y60143D01*
X177337Y60126D01*
X177304Y60115D01*
X177282Y60105D01*
X177271D01*
X177211Y60094D01*
X177140Y60088D01*
X177064Y60077D01*
X176987D01*
X176916Y60072D01*
X176245D01*
Y62572D01*
X176742D01*
X176813Y62567D01*
D02*
G37*
G36*
X173356D02*
X173476D01*
X173526Y62562D01*
X173558D01*
X173575Y62556D01*
X173580D01*
X173646Y62540D01*
X173706Y62518D01*
X173755Y62496D01*
X173793Y62469D01*
X173826Y62441D01*
X173853Y62425D01*
X173864Y62409D01*
X173870Y62403D01*
X173902Y62359D01*
X173930Y62305D01*
X173946Y62256D01*
X173962Y62207D01*
X173968Y62163D01*
X173973Y62130D01*
Y62108D01*
Y62097D01*
X173968Y62037D01*
X173962Y61983D01*
X173946Y61934D01*
X173935Y61890D01*
X173919Y61857D01*
X173902Y61835D01*
X173897Y61819D01*
X173891Y61813D01*
X173859Y61775D01*
X173826Y61743D01*
X173755Y61693D01*
X173728Y61677D01*
X173700Y61666D01*
X173684Y61655D01*
X173678D01*
X173651Y61650D01*
X173608Y61639D01*
X173564Y61633D01*
X173515Y61628D01*
X173400Y61622D01*
X173285Y61617D01*
X173176Y61611D01*
X172434D01*
Y62572D01*
X173307D01*
X173356Y62567D01*
D02*
G37*
G36*
X169862Y60929D02*
X168819D01*
X169332Y62332D01*
X169862Y60929D01*
D02*
G37*
G36*
X161524Y62578D02*
X161667D01*
X161699Y62572D01*
X161759D01*
X161781Y62567D01*
X161787D01*
X161852Y62556D01*
X161912Y62540D01*
X161961Y62518D01*
X162005Y62496D01*
X162032Y62474D01*
X162060Y62452D01*
X162071Y62441D01*
X162076Y62436D01*
X162109Y62392D01*
X162130Y62343D01*
X162152Y62300D01*
X162163Y62256D01*
X162169Y62212D01*
X162174Y62179D01*
Y62157D01*
Y62152D01*
X162169Y62086D01*
X162158Y62026D01*
X162136Y61977D01*
X162120Y61934D01*
X162098Y61895D01*
X162076Y61874D01*
X162065Y61857D01*
X162060Y61852D01*
X162016Y61813D01*
X161967Y61786D01*
X161918Y61764D01*
X161869Y61748D01*
X161819Y61732D01*
X161787Y61726D01*
X161765Y61721D01*
X161732D01*
X161699Y61715D01*
X161530D01*
X161437Y61710D01*
X160705D01*
Y62583D01*
X161464D01*
X161524Y62578D01*
D02*
G37*
G36*
X161574Y61076D02*
X161639Y61071D01*
X161705D01*
X161759Y61066D01*
X161808Y61060D01*
X161847Y61055D01*
X161885Y61049D01*
X161912Y61044D01*
X161956Y61038D01*
X161983Y61027D01*
X161989D01*
X162043Y61005D01*
X162092Y60978D01*
X162136Y60951D01*
X162169Y60918D01*
X162196Y60896D01*
X162212Y60874D01*
X162223Y60858D01*
X162229Y60852D01*
X162256Y60803D01*
X162278Y60754D01*
X162294Y60711D01*
X162305Y60662D01*
X162311Y60623D01*
X162316Y60590D01*
Y60569D01*
Y60563D01*
X162311Y60492D01*
X162300Y60427D01*
X162283Y60372D01*
X162262Y60328D01*
X162240Y60290D01*
X162223Y60263D01*
X162212Y60246D01*
X162207Y60241D01*
X162163Y60203D01*
X162120Y60170D01*
X162071Y60143D01*
X162027Y60121D01*
X161989Y60110D01*
X161956Y60099D01*
X161934Y60094D01*
X161928D01*
X161907Y60088D01*
X161874D01*
X161803Y60083D01*
X161716Y60077D01*
X161628D01*
X161546Y60072D01*
X160705D01*
Y61082D01*
X161497D01*
X161574Y61076D01*
D02*
G37*
G36*
X165516Y62627D02*
X165598Y62616D01*
X165674Y62605D01*
X165745Y62583D01*
X165871Y62529D01*
X165931Y62502D01*
X165980Y62474D01*
X166029Y62441D01*
X166067Y62414D01*
X166100Y62387D01*
X166133Y62359D01*
X166155Y62338D01*
X166171Y62327D01*
X166176Y62316D01*
X166182Y62310D01*
X166231Y62245D01*
X166280Y62174D01*
X166318Y62103D01*
X166351Y62021D01*
X166400Y61857D01*
X166433Y61699D01*
X166449Y61628D01*
X166455Y61557D01*
X166460Y61497D01*
X166466Y61442D01*
X166471Y61393D01*
Y61360D01*
Y61339D01*
Y61333D01*
X166466Y61213D01*
X166460Y61098D01*
X166444Y60994D01*
X166428Y60902D01*
X166406Y60809D01*
X166378Y60727D01*
X166351Y60656D01*
X166324Y60590D01*
X166297Y60530D01*
X166269Y60481D01*
X166247Y60438D01*
X166220Y60399D01*
X166204Y60372D01*
X166187Y60356D01*
X166182Y60345D01*
X166176Y60339D01*
X166122Y60279D01*
X166062Y60230D01*
X165996Y60186D01*
X165936Y60148D01*
X165871Y60121D01*
X165811Y60094D01*
X165691Y60055D01*
X165587Y60028D01*
X165543Y60023D01*
X165505Y60017D01*
X165472Y60012D01*
X165428D01*
X165347Y60017D01*
X165265Y60028D01*
X165188Y60044D01*
X165117Y60066D01*
X164986Y60115D01*
X164882Y60181D01*
X164833Y60208D01*
X164795Y60241D01*
X164757Y60268D01*
X164729Y60296D01*
X164708Y60312D01*
X164691Y60328D01*
X164680Y60339D01*
X164675Y60345D01*
X164626Y60410D01*
X164577Y60481D01*
X164538Y60558D01*
X164506Y60640D01*
X164451Y60798D01*
X164418Y60956D01*
X164407Y61033D01*
X164397Y61098D01*
X164391Y61164D01*
X164385Y61218D01*
X164380Y61262D01*
Y61295D01*
Y61317D01*
Y61322D01*
X164385Y61442D01*
X164391Y61551D01*
X164407Y61655D01*
X164424Y61753D01*
X164446Y61841D01*
X164467Y61923D01*
X164495Y61994D01*
X164522Y62059D01*
X164549Y62119D01*
X164577Y62168D01*
X164599Y62207D01*
X164620Y62245D01*
X164637Y62272D01*
X164653Y62288D01*
X164658Y62300D01*
X164664Y62305D01*
X164719Y62365D01*
X164779Y62414D01*
X164844Y62458D01*
X164904Y62496D01*
X164970Y62529D01*
X165035Y62551D01*
X165155Y62594D01*
X165265Y62616D01*
X165308Y62622D01*
X165352Y62627D01*
X165385Y62633D01*
X165428D01*
X165516Y62627D01*
D02*
G37*
G36*
X174940Y57962D02*
X174989D01*
X175038Y57957D01*
X175109D01*
X175164Y57951D01*
X175202Y57946D01*
X175224Y57940D01*
X175229D01*
X175295Y57924D01*
X175355Y57902D01*
X175409Y57875D01*
X175453Y57842D01*
X175486Y57815D01*
X175513Y57793D01*
X175529Y57776D01*
X175535Y57771D01*
X175578Y57716D01*
X175606Y57662D01*
X175628Y57602D01*
X175644Y57547D01*
X175655Y57498D01*
X175660Y57460D01*
Y57438D01*
Y57427D01*
X175655Y57367D01*
X175649Y57312D01*
X175633Y57263D01*
X175617Y57219D01*
X175600Y57181D01*
X175590Y57154D01*
X175578Y57138D01*
X175573Y57132D01*
X175540Y57088D01*
X175497Y57050D01*
X175458Y57017D01*
X175420Y56990D01*
X175387Y56974D01*
X175360Y56957D01*
X175338Y56952D01*
X175333Y56946D01*
X175300Y56936D01*
X175262Y56930D01*
X175174Y56914D01*
X175076Y56903D01*
X174978Y56897D01*
X174880D01*
X174841Y56892D01*
X174317D01*
Y57968D01*
X174885D01*
X174940Y57962D01*
D02*
G37*
G36*
X170959Y56024D02*
X170282Y58606D01*
X171631D01*
X170959Y56024D01*
D02*
G37*
%LPC*%
G36*
X22818Y44545D02*
X19040Y43027D01*
Y42219D01*
X22818Y40756D01*
X19040D01*
D01*
X22818D01*
Y41564D01*
X21961Y41875D01*
Y43393D01*
X22818Y43720D01*
Y44545D01*
D02*
G37*
G36*
Y40646D02*
Y39533D01*
X19679D01*
Y40646D01*
X19040D01*
Y37649D01*
X22818D01*
Y40646D01*
D02*
G37*
G36*
Y37507D02*
D01*
X19040Y35989D01*
Y35181D01*
X22818Y33718D01*
X19040D01*
D01*
X22818D01*
Y37507D01*
D02*
G37*
G36*
X21044Y33456D02*
X20967D01*
X20776Y33450D01*
X20607Y33434D01*
X20525Y33428D01*
X20454Y33417D01*
X20383Y33407D01*
X20323Y33396D01*
X20268Y33379D01*
X20219Y33368D01*
X20176Y33357D01*
X20143Y33352D01*
X20115Y33341D01*
X20094Y33336D01*
X20083Y33330D01*
X20077D01*
X19946Y33281D01*
X19826Y33221D01*
X19722Y33161D01*
X19635Y33101D01*
X19564Y33052D01*
X19509Y33008D01*
X19477Y32981D01*
X19466Y32975D01*
Y32970D01*
X19378Y32877D01*
X19307Y32784D01*
X19247Y32686D01*
X19198Y32599D01*
X19160Y32522D01*
X19133Y32456D01*
X19127Y32435D01*
X19122Y32418D01*
X19116Y32407D01*
Y32402D01*
X19089Y32298D01*
X19073Y32184D01*
X19056Y32063D01*
X19051Y31949D01*
X19045Y31845D01*
X19040Y31801D01*
Y30294D01*
X22818D01*
Y31725D01*
X22813Y31872D01*
X22807Y32009D01*
X22796Y32124D01*
X22780Y32216D01*
X22763Y32293D01*
X22753Y32353D01*
X22747Y32369D01*
Y32386D01*
X22742Y32391D01*
Y32397D01*
X22698Y32517D01*
X22649Y32626D01*
X22600Y32713D01*
X22551Y32790D01*
X22507Y32850D01*
X22474Y32893D01*
X22452Y32921D01*
X22441Y32932D01*
X22338Y33024D01*
X22228Y33106D01*
X22114Y33177D01*
X22010Y33232D01*
X21912Y33275D01*
X21873Y33297D01*
X21841Y33308D01*
X21808Y33319D01*
X21786Y33330D01*
X21775Y33336D01*
X21770D01*
X21639Y33374D01*
X21502Y33407D01*
X21371Y33428D01*
X21246Y33439D01*
X21186Y33445D01*
X21131Y33450D01*
X21087D01*
X21044Y33456D01*
D02*
G37*
%LPD*%
G36*
X21322Y42104D02*
X19919Y42618D01*
X21322Y43147D01*
Y42104D01*
D02*
G37*
G36*
X22818Y37649D02*
X19679D01*
Y38768D01*
X22818D01*
Y37649D01*
D02*
G37*
G36*
X21322Y35066D02*
X19919Y35580D01*
X21322Y36109D01*
Y35066D01*
D02*
G37*
G36*
X22818Y34526D02*
X21961Y34837D01*
Y36355D01*
X22818Y36683D01*
Y34526D01*
D02*
G37*
G36*
X21087Y32664D02*
X21229Y32659D01*
X21344Y32642D01*
X21442Y32631D01*
X21524Y32615D01*
X21557Y32609D01*
X21579Y32599D01*
X21600Y32593D01*
X21617D01*
X21622Y32588D01*
X21628D01*
X21715Y32555D01*
X21792Y32528D01*
X21852Y32489D01*
X21901Y32462D01*
X21939Y32435D01*
X21966Y32413D01*
X21983Y32397D01*
X21988Y32391D01*
X22026Y32342D01*
X22059Y32293D01*
X22086Y32244D01*
X22108Y32195D01*
X22125Y32151D01*
X22136Y32118D01*
X22147Y32096D01*
Y32085D01*
X22158Y32025D01*
X22163Y31954D01*
X22174Y31878D01*
Y31801D01*
X22179Y31730D01*
Y31059D01*
X19679D01*
Y31556D01*
X19684Y31627D01*
Y31692D01*
X19690Y31747D01*
Y31796D01*
X19695Y31845D01*
Y31883D01*
X19706Y31943D01*
X19711Y31987D01*
X19717Y32014D01*
Y32020D01*
X19739Y32096D01*
X19766Y32162D01*
X19793Y32222D01*
X19826Y32276D01*
X19853Y32315D01*
X19875Y32347D01*
X19892Y32364D01*
X19897Y32369D01*
X19952Y32418D01*
X20012Y32462D01*
X20072Y32500D01*
X20126Y32533D01*
X20181Y32555D01*
X20225Y32571D01*
X20252Y32582D01*
X20257Y32588D01*
X20263D01*
X20361Y32615D01*
X20465Y32637D01*
X20580Y32648D01*
X20689Y32659D01*
X20782Y32664D01*
X20825Y32669D01*
X20863D01*
X20891D01*
X20913D01*
X20929D01*
X20934D01*
X21087Y32664D01*
D02*
G37*
%LPC*%
G36*
X329772Y19676D02*
D01*
Y16633D01*
X327030D01*
Y15567D01*
X328488D01*
Y14756D01*
X328378Y14674D01*
X328260Y14601D01*
X328141Y14537D01*
X328032Y14483D01*
X327941Y14437D01*
X327859Y14401D01*
X327814Y14383D01*
X327804Y14374D01*
X327795D01*
X327649Y14319D01*
X327504Y14282D01*
X327367Y14255D01*
X327249Y14237D01*
X327139Y14228D01*
X327066Y14219D01*
X326994D01*
X326848Y14228D01*
X326702Y14246D01*
X326574Y14273D01*
X326447Y14310D01*
X326219Y14401D01*
X326128Y14446D01*
X326037Y14501D01*
X325955Y14556D01*
X325882Y14601D01*
X325828Y14656D01*
X325773Y14692D01*
X325736Y14729D01*
X325709Y14756D01*
X325691Y14774D01*
X325682Y14784D01*
X325600Y14893D01*
X325518Y15020D01*
X325454Y15148D01*
X325399Y15284D01*
X325308Y15567D01*
X325254Y15840D01*
X325235Y15968D01*
X325217Y16095D01*
X325208Y16195D01*
X325199Y16296D01*
X325190Y16369D01*
Y16432D01*
Y16469D01*
Y16478D01*
X325199Y16669D01*
X325208Y16842D01*
X325235Y17015D01*
X325263Y17170D01*
X325299Y17307D01*
X325345Y17435D01*
X325390Y17553D01*
X325436Y17662D01*
X325472Y17753D01*
X325518Y17835D01*
X325563Y17899D01*
X325600Y17954D01*
X325627Y17999D01*
X325654Y18027D01*
X325663Y18045D01*
X325673Y18054D01*
X325773Y18145D01*
X325873Y18236D01*
X325982Y18300D01*
X326092Y18364D01*
X326201Y18418D01*
X326310Y18464D01*
X326520Y18528D01*
X326620Y18546D01*
X326711Y18564D01*
X326793Y18573D01*
X326866Y18582D01*
X326921Y18591D01*
X327003D01*
X327203Y18582D01*
X327376Y18546D01*
X327531Y18509D01*
X327668Y18455D01*
X327768Y18409D01*
X327850Y18364D01*
X327895Y18327D01*
X327914Y18318D01*
X328041Y18209D01*
X328151Y18090D01*
X328242Y17972D01*
X328305Y17854D01*
X328360Y17744D01*
X328397Y17662D01*
X328415Y17608D01*
X328424Y17598D01*
Y17589D01*
X329690Y17826D01*
X329654Y17981D01*
X329599Y18136D01*
X329544Y18273D01*
X329471Y18400D01*
X329408Y18528D01*
X329335Y18637D01*
X329262Y18737D01*
X329189Y18828D01*
X329116Y18910D01*
X329052Y18983D01*
X328998Y19047D01*
X328943Y19093D01*
X328898Y19129D01*
X328861Y19165D01*
X328843Y19174D01*
X328834Y19184D01*
X328706Y19275D01*
X328570Y19348D01*
X328424Y19411D01*
X328269Y19466D01*
X327968Y19557D01*
X327677Y19612D01*
X327540Y19639D01*
X327413Y19648D01*
X327294Y19657D01*
X327194Y19667D01*
X327112Y19676D01*
X327003D01*
X326675Y19667D01*
X326383Y19630D01*
X326256Y19603D01*
X326128Y19575D01*
X326010Y19548D01*
X325909Y19521D01*
X325818Y19484D01*
X325727Y19457D01*
X325663Y19430D01*
X325600Y19411D01*
X325554Y19384D01*
X325518Y19375D01*
X325500Y19357D01*
X325490D01*
X325208Y19193D01*
X325090Y19093D01*
X324971Y19001D01*
X324862Y18901D01*
X324762Y18801D01*
X324671Y18701D01*
X324588Y18610D01*
X324525Y18519D01*
X324461Y18437D01*
X324406Y18364D01*
X324361Y18300D01*
X324333Y18245D01*
X324306Y18209D01*
X324297Y18181D01*
X324288Y18172D01*
X324215Y18027D01*
X324151Y17881D01*
X324051Y17580D01*
X323978Y17280D01*
X323933Y17015D01*
X323914Y16888D01*
X323896Y16779D01*
X323887Y16678D01*
Y16587D01*
X323878Y16523D01*
Y13135D01*
Y16423D01*
X323896Y16086D01*
X323933Y15777D01*
X323996Y15494D01*
X324024Y15357D01*
X324060Y15239D01*
X324097Y15130D01*
X324124Y15029D01*
X324160Y14947D01*
X324188Y14875D01*
X324206Y14820D01*
X324224Y14774D01*
X324242Y14747D01*
Y14738D01*
X324397Y14465D01*
X324570Y14228D01*
X324752Y14018D01*
X324935Y13854D01*
X325017Y13781D01*
X325099Y13718D01*
X325162Y13663D01*
X325226Y13626D01*
X325272Y13590D01*
X325317Y13563D01*
X325336Y13554D01*
X325345Y13544D01*
X325490Y13472D01*
X325627Y13408D01*
X325928Y13308D01*
X326219Y13235D01*
X326483Y13189D01*
X326611Y13171D01*
X326720Y13153D01*
X326820Y13144D01*
X326912D01*
X326975Y13135D01*
X327076D01*
X327367Y13144D01*
X327640Y13180D01*
X327905Y13226D01*
X328132Y13280D01*
X328233Y13308D01*
X328324Y13335D01*
X328406Y13362D01*
X328479Y13381D01*
X328533Y13399D01*
X328570Y13417D01*
X328597Y13426D01*
X328606D01*
X328879Y13535D01*
X329107Y13654D01*
X329308Y13772D01*
X329481Y13872D01*
X329608Y13964D01*
X329654Y14000D01*
X329699Y14037D01*
X329727Y14064D01*
X329754Y14082D01*
X329772Y14100D01*
Y13135D01*
D01*
D01*
Y19676D01*
D02*
G37*
G36*
X335967Y19557D02*
X334792D01*
Y15312D01*
X332186Y19557D01*
X332919D01*
X330956D01*
Y13253D01*
X332132D01*
Y17407D01*
X334692Y13253D01*
X335967D01*
Y19557D01*
D02*
G37*
G36*
X298889Y16150D02*
X296512D01*
Y14938D01*
X298889D01*
Y16150D01*
D02*
G37*
G36*
X262923Y19475D02*
X258678D01*
X259443D01*
X258823Y16186D01*
X259798Y16050D01*
X259880Y16132D01*
X259962Y16205D01*
X260044Y16268D01*
X260126Y16323D01*
X260281Y16405D01*
X260427Y16460D01*
X260554Y16487D01*
X260645Y16505D01*
X260682Y16514D01*
X260736D01*
X260882Y16505D01*
X261019Y16469D01*
X261137Y16423D01*
X261238Y16369D01*
X261310Y16305D01*
X261374Y16259D01*
X261411Y16223D01*
X261420Y16214D01*
X261511Y16095D01*
X261575Y15959D01*
X261620Y15813D01*
X261648Y15667D01*
X261675Y15540D01*
X261684Y15439D01*
Y15394D01*
Y15367D01*
Y15348D01*
Y15339D01*
X261675Y15121D01*
X261648Y14929D01*
X261602Y14774D01*
X261556Y14647D01*
X261502Y14537D01*
X261465Y14465D01*
X261429Y14428D01*
X261420Y14410D01*
X261320Y14310D01*
X261210Y14228D01*
X261101Y14173D01*
X261001Y14137D01*
X260910Y14118D01*
X260837Y14109D01*
X260791Y14100D01*
X260773D01*
X260654Y14109D01*
X260536Y14137D01*
X260436Y14173D01*
X260354Y14219D01*
X260281Y14264D01*
X260226Y14301D01*
X260190Y14328D01*
X260181Y14337D01*
X260099Y14437D01*
X260026Y14537D01*
X259971Y14647D01*
X259935Y14747D01*
X259908Y14838D01*
X259889Y14920D01*
X259880Y14966D01*
Y14984D01*
X258678Y14856D01*
X258705Y14711D01*
X258732Y14574D01*
X258823Y14328D01*
X258924Y14109D01*
X258978Y14018D01*
X259042Y13927D01*
X259097Y13854D01*
X259142Y13791D01*
X259197Y13736D01*
X259233Y13681D01*
X259270Y13645D01*
X259297Y13617D01*
X259315Y13608D01*
X259325Y13599D01*
X259434Y13517D01*
X259543Y13444D01*
X259662Y13381D01*
X259780Y13335D01*
X260026Y13244D01*
X260245Y13189D01*
X260354Y13171D01*
X260445Y13162D01*
X260536Y13153D01*
X260609Y13144D01*
X260673Y13135D01*
X260755D01*
X260955Y13144D01*
X261146Y13171D01*
X261320Y13207D01*
X261484Y13262D01*
X261638Y13326D01*
X261775Y13399D01*
X261903Y13472D01*
X262021Y13554D01*
X262121Y13626D01*
X262212Y13699D01*
X262294Y13772D01*
X262358Y13836D01*
X262404Y13891D01*
X262440Y13927D01*
X262458Y13954D01*
X262467Y13964D01*
X262549Y14082D01*
X262622Y14200D01*
X262677Y14319D01*
X262732Y14446D01*
X262814Y14683D01*
X262868Y14902D01*
X262887Y14993D01*
X262896Y15084D01*
X262914Y15166D01*
Y15239D01*
X262923Y15294D01*
Y15494D01*
Y15367D01*
X262914Y15540D01*
X262896Y15704D01*
X262868Y15858D01*
X262832Y16004D01*
X262795Y16132D01*
X262741Y16259D01*
X262695Y16378D01*
X262641Y16478D01*
X262586Y16569D01*
X262540Y16651D01*
X262486Y16724D01*
X262449Y16779D01*
X262413Y16824D01*
X262385Y16861D01*
X262367Y16879D01*
X262358Y16888D01*
X262249Y16988D01*
X262140Y17079D01*
X262021Y17161D01*
X261903Y17234D01*
X261793Y17289D01*
X261675Y17334D01*
X261465Y17407D01*
X261365Y17435D01*
X261274Y17453D01*
X261192Y17462D01*
X261128Y17471D01*
X261074Y17480D01*
X260992D01*
X260837Y17471D01*
X260682Y17444D01*
X260545Y17416D01*
X260418Y17380D01*
X260317Y17334D01*
X260236Y17307D01*
X260181Y17280D01*
X260172Y17270D01*
X260163D01*
X260354Y18346D01*
X262641D01*
Y19475D01*
X262923D01*
D01*
D02*
G37*
G36*
X342590Y19557D02*
X337315D01*
Y13253D01*
X339702D01*
X339948Y13262D01*
X340176Y13271D01*
X340367Y13289D01*
X340522Y13317D01*
X340649Y13344D01*
X340750Y13362D01*
X340777Y13371D01*
X340804D01*
X340813Y13381D01*
X340823D01*
X341023Y13453D01*
X341205Y13535D01*
X341351Y13617D01*
X341478Y13699D01*
X341579Y13772D01*
X341652Y13827D01*
X341697Y13863D01*
X341715Y13882D01*
X341870Y14055D01*
X342007Y14237D01*
X342125Y14428D01*
X342216Y14601D01*
X342289Y14765D01*
X342326Y14829D01*
X342344Y14884D01*
X342362Y14938D01*
X342380Y14975D01*
X342389Y14993D01*
Y15002D01*
X342453Y15221D01*
X342508Y15449D01*
X342544Y15667D01*
X342563Y15877D01*
X342572Y15977D01*
X342581Y16068D01*
Y16141D01*
X342590Y16214D01*
Y16341D01*
X342581Y16660D01*
X342553Y16943D01*
X342544Y17079D01*
X342526Y17198D01*
X342508Y17316D01*
X342490Y17416D01*
X342462Y17507D01*
X342444Y17589D01*
X342426Y17662D01*
X342417Y17717D01*
X342399Y17763D01*
X342389Y17799D01*
X342380Y17817D01*
Y17826D01*
X342298Y18045D01*
X342198Y18245D01*
X342098Y18418D01*
X341998Y18564D01*
X341916Y18683D01*
X341843Y18774D01*
X341797Y18828D01*
X341788Y18846D01*
X341779D01*
X341624Y18992D01*
X341469Y19111D01*
X341305Y19211D01*
X341160Y19293D01*
X341032Y19357D01*
X340923Y19402D01*
X340886Y19411D01*
X340859Y19421D01*
X340841Y19430D01*
X340832D01*
X340659Y19475D01*
X340467Y19502D01*
X340267Y19530D01*
X340075Y19539D01*
X339902Y19548D01*
X339829Y19557D01*
X342590D01*
D01*
D02*
G37*
G36*
X269063Y19557D02*
X263187Y19557D01*
X265446Y13253D01*
X269063Y13253D01*
X266822Y13253D01*
X269063Y19557D01*
D02*
G37*
%LPD*%
G36*
X339538Y18482D02*
X339647D01*
X339738Y18473D01*
X339820D01*
X339902Y18464D01*
X339966D01*
X340066Y18446D01*
X340139Y18437D01*
X340185Y18428D01*
X340194D01*
X340321Y18391D01*
X340431Y18346D01*
X340531Y18300D01*
X340622Y18245D01*
X340686Y18200D01*
X340740Y18163D01*
X340768Y18136D01*
X340777Y18127D01*
X340859Y18036D01*
X340932Y17936D01*
X340996Y17835D01*
X341050Y17744D01*
X341087Y17653D01*
X341114Y17580D01*
X341132Y17535D01*
X341141Y17526D01*
Y17516D01*
X341187Y17353D01*
X341223Y17179D01*
X341242Y16988D01*
X341260Y16806D01*
X341269Y16651D01*
X341278Y16578D01*
Y16514D01*
Y16469D01*
Y16432D01*
Y16405D01*
Y16396D01*
X341269Y16141D01*
X341260Y15904D01*
X341232Y15713D01*
X341214Y15549D01*
X341187Y15412D01*
X341178Y15357D01*
X341160Y15321D01*
X341150Y15284D01*
Y15257D01*
X341141Y15248D01*
Y15239D01*
X341087Y15093D01*
X341041Y14966D01*
X340977Y14865D01*
X340932Y14784D01*
X340886Y14720D01*
X340850Y14674D01*
X340823Y14647D01*
X340813Y14638D01*
X340731Y14574D01*
X340649Y14519D01*
X340567Y14474D01*
X340486Y14437D01*
X340413Y14410D01*
X340358Y14392D01*
X340321Y14374D01*
X340303D01*
X340203Y14355D01*
X340085Y14346D01*
X339957Y14328D01*
X339829D01*
X339711Y14319D01*
X338591D01*
Y18491D01*
X339420D01*
X339538Y18482D01*
D02*
G37*
G36*
X266166Y14893D02*
X264563Y19557D01*
X267706D01*
X266166Y14893D01*
D02*
G37*
%LPC*%
G36*
X41061Y161338D02*
D01*
Y159378D01*
Y161338D01*
D02*
G37*
G36*
X52652D02*
X49654D01*
Y160699D01*
X50774D01*
Y157560D01*
X51538D01*
Y160699D01*
X52652D01*
Y157625D01*
Y161338D01*
D02*
G37*
G36*
X39559D02*
X37899D01*
Y157560D01*
X41061D01*
Y158766D01*
Y158652D01*
X41055Y158772D01*
X41033Y158881D01*
X41000Y158974D01*
X40968Y159061D01*
X40935Y159127D01*
X40902Y159176D01*
X40880Y159209D01*
X40875Y159220D01*
X40798Y159307D01*
X40716Y159378D01*
X40624Y159438D01*
X40542Y159482D01*
X40465Y159520D01*
X40400Y159547D01*
X40378Y159553D01*
X40362Y159558D01*
X40351Y159564D01*
X40345D01*
X40433Y159613D01*
X40509Y159662D01*
X40574Y159722D01*
X40629Y159771D01*
X40667Y159820D01*
X40700Y159858D01*
X40722Y159886D01*
X40727Y159897D01*
X40777Y159984D01*
X40815Y160066D01*
X40837Y160148D01*
X40858Y160224D01*
X40869Y160290D01*
X40875Y160339D01*
Y160372D01*
Y160377D01*
Y160382D01*
X40869Y160470D01*
X40858Y160557D01*
X40837Y160628D01*
X40815Y160694D01*
X40793Y160748D01*
X40771Y160792D01*
X40760Y160814D01*
X40755Y160825D01*
X40711Y160896D01*
X40662Y160956D01*
X40613Y161010D01*
X40569Y161059D01*
X40525Y161092D01*
X40493Y161120D01*
X40471Y161136D01*
X40465Y161141D01*
X40400Y161185D01*
X40329Y161218D01*
X40263Y161245D01*
X40203Y161267D01*
X40149Y161283D01*
X40110Y161294D01*
X40083Y161300D01*
X40072D01*
X39979Y161311D01*
X39876Y161322D01*
X39766Y161327D01*
X39657Y161332D01*
X39559Y161338D01*
D02*
G37*
G36*
X47520Y161409D02*
X47481D01*
X47318Y161404D01*
X47159Y161387D01*
X47023Y161360D01*
X46903Y161332D01*
X46854Y161316D01*
X46804Y161305D01*
X46766Y161294D01*
X46733Y161278D01*
X46706Y161273D01*
X46684Y161261D01*
X46673Y161256D01*
X46668D01*
X46570Y161212D01*
X46477Y161158D01*
X46395Y161098D01*
X46324Y161043D01*
X46264Y160994D01*
X46215Y160950D01*
X46187Y160923D01*
X46182Y160918D01*
X46176Y160912D01*
X46100Y160825D01*
X46029Y160732D01*
X45969Y160650D01*
X45920Y160568D01*
X45882Y160497D01*
X45849Y160442D01*
X45843Y160421D01*
X45832Y160404D01*
X45827Y160399D01*
Y160393D01*
X45772Y160240D01*
X45729Y160077D01*
X45702Y159913D01*
X45680Y159760D01*
X45674Y159689D01*
X45669Y159624D01*
X45663Y159569D01*
Y159520D01*
X45658Y159476D01*
Y159422D01*
X45663Y159258D01*
X45680Y159099D01*
X45702Y158952D01*
X45734Y158816D01*
X45772Y158690D01*
X45816Y158575D01*
X45860Y158466D01*
X45909Y158373D01*
X45953Y158286D01*
X45996Y158215D01*
X46040Y158149D01*
X46078Y158095D01*
X46111Y158056D01*
X46133Y158024D01*
X46149Y158007D01*
X46155Y158002D01*
X46253Y157909D01*
X46357Y157833D01*
X46460Y157762D01*
X46575Y157707D01*
X46684Y157658D01*
X46799Y157614D01*
X46903Y157581D01*
X47012Y157554D01*
X47110Y157532D01*
X47203Y157516D01*
X47285Y157505D01*
X47356Y157500D01*
X47410Y157494D01*
X47454Y157489D01*
X45658D01*
D01*
X49321D01*
Y159443D01*
X49316Y159613D01*
X49300Y159771D01*
X49278Y159918D01*
X49245Y160060D01*
X49207Y160186D01*
X49163Y160306D01*
X49119Y160415D01*
X49070Y160508D01*
X49021Y160595D01*
X48978Y160672D01*
X48934Y160737D01*
X48896Y160792D01*
X48868Y160830D01*
X48841Y160863D01*
X48825Y160879D01*
X48819Y160885D01*
X48721Y160978D01*
X48617Y161059D01*
X48508Y161130D01*
X48399Y161191D01*
X48284Y161240D01*
X48175Y161283D01*
X48066Y161316D01*
X47962Y161343D01*
X47864Y161365D01*
X47771Y161382D01*
X47689Y161393D01*
X47618Y161404D01*
X47563D01*
X47520Y161409D01*
D02*
G37*
G36*
X43414D02*
X43376D01*
X43212Y161404D01*
X43053Y161387D01*
X42917Y161360D01*
X42797Y161332D01*
X42748Y161316D01*
X42698Y161305D01*
X42660Y161294D01*
X42628Y161278D01*
X42600Y161273D01*
X42578Y161261D01*
X42567Y161256D01*
X42562D01*
X42464Y161212D01*
X42371Y161158D01*
X42289Y161098D01*
X42218Y161043D01*
X42158Y160994D01*
X42109Y160950D01*
X42081Y160923D01*
X42076Y160918D01*
X42071Y160912D01*
X41994Y160825D01*
X41923Y160732D01*
X41863Y160650D01*
X41814Y160568D01*
X41776Y160497D01*
X41743Y160442D01*
X41737Y160421D01*
X41727Y160404D01*
X41721Y160399D01*
Y160393D01*
X41666Y160240D01*
X41623Y160077D01*
X41596Y159913D01*
X41574Y159760D01*
X41568Y159689D01*
X41563Y159624D01*
X41557Y159569D01*
Y159520D01*
X41552Y159476D01*
Y159422D01*
X41557Y159258D01*
X41574Y159099D01*
X41596Y158952D01*
X41628Y158816D01*
X41666Y158690D01*
X41710Y158575D01*
X41754Y158466D01*
X41803Y158373D01*
X41847Y158286D01*
X41890Y158215D01*
X41934Y158149D01*
X41972Y158095D01*
X42005Y158056D01*
X42027Y158024D01*
X42043Y158007D01*
X42049Y158002D01*
X42147Y157909D01*
X42251Y157833D01*
X42355Y157762D01*
X42469Y157707D01*
X42578Y157658D01*
X42693Y157614D01*
X42797Y157581D01*
X42906Y157554D01*
X43004Y157532D01*
X43097Y157516D01*
X43179Y157505D01*
X43250Y157500D01*
X43304Y157494D01*
X43348Y157489D01*
X41552D01*
D01*
X45215D01*
Y159443D01*
X45210Y159613D01*
X45194Y159771D01*
X45172Y159918D01*
X45139Y160060D01*
X45101Y160186D01*
X45057Y160306D01*
X45013Y160415D01*
X44964Y160508D01*
X44915Y160595D01*
X44872Y160672D01*
X44828Y160737D01*
X44790Y160792D01*
X44762Y160830D01*
X44735Y160863D01*
X44719Y160879D01*
X44713Y160885D01*
X44615Y160978D01*
X44511Y161059D01*
X44402Y161130D01*
X44293Y161191D01*
X44178Y161240D01*
X44069Y161283D01*
X43960Y161316D01*
X43856Y161343D01*
X43758Y161365D01*
X43665Y161382D01*
X43583Y161393D01*
X43512Y161404D01*
X43457D01*
X43414Y161409D01*
D02*
G37*
%LPD*%
G36*
X39483Y160705D02*
X39625D01*
X39657Y160699D01*
X39717D01*
X39739Y160694D01*
X39745D01*
X39810Y160683D01*
X39870Y160666D01*
X39919Y160645D01*
X39963Y160623D01*
X39990Y160601D01*
X40018Y160579D01*
X40029Y160568D01*
X40034Y160563D01*
X40067Y160519D01*
X40089Y160470D01*
X40110Y160426D01*
X40121Y160382D01*
X40127Y160339D01*
X40132Y160306D01*
Y160284D01*
Y160279D01*
X40127Y160213D01*
X40116Y160153D01*
X40094Y160104D01*
X40078Y160060D01*
X40056Y160022D01*
X40034Y160000D01*
X40023Y159984D01*
X40018Y159978D01*
X39974Y159940D01*
X39925Y159913D01*
X39876Y159891D01*
X39827Y159875D01*
X39777Y159858D01*
X39745Y159853D01*
X39723Y159847D01*
X39690D01*
X39657Y159842D01*
X39488D01*
X39395Y159836D01*
X38664D01*
Y160710D01*
X39423D01*
X39483Y160705D01*
D02*
G37*
G36*
X39532Y159203D02*
X39597Y159198D01*
X39663D01*
X39717Y159192D01*
X39766Y159187D01*
X39805Y159181D01*
X39843Y159176D01*
X39870Y159170D01*
X39914Y159165D01*
X39941Y159154D01*
X39947D01*
X40001Y159132D01*
X40050Y159105D01*
X40094Y159078D01*
X40127Y159045D01*
X40154Y159023D01*
X40170Y159001D01*
X40181Y158985D01*
X40187Y158979D01*
X40214Y158930D01*
X40236Y158881D01*
X40252Y158837D01*
X40263Y158788D01*
X40269Y158750D01*
X40274Y158717D01*
Y158695D01*
Y158690D01*
X40269Y158619D01*
X40258Y158553D01*
X40242Y158499D01*
X40220Y158455D01*
X40198Y158417D01*
X40181Y158390D01*
X40170Y158373D01*
X40165Y158368D01*
X40121Y158329D01*
X40078Y158297D01*
X40029Y158270D01*
X39985Y158248D01*
X39947Y158237D01*
X39914Y158226D01*
X39892Y158220D01*
X39887D01*
X39865Y158215D01*
X39832D01*
X39761Y158209D01*
X39674Y158204D01*
X39586D01*
X39504Y158198D01*
X38664D01*
Y159209D01*
X39455D01*
X39532Y159203D01*
D02*
G37*
G36*
X41061Y157560D02*
X39537D01*
X39630Y157565D01*
X39794D01*
X39859Y157571D01*
X39963D01*
X40001Y157576D01*
X40056D01*
X40078Y157581D01*
X40099D01*
X40209Y157598D01*
X40307Y157625D01*
X40394Y157652D01*
X40471Y157685D01*
X40531Y157712D01*
X40574Y157740D01*
X40602Y157756D01*
X40613Y157762D01*
X40689Y157822D01*
X40749Y157887D01*
X40809Y157947D01*
X40853Y158013D01*
X40891Y158067D01*
X40918Y158111D01*
X40935Y158138D01*
X40940Y158149D01*
X40979Y158242D01*
X41011Y158329D01*
X41033Y158417D01*
X41044Y158493D01*
X41055Y158559D01*
X41061Y158608D01*
Y157560D01*
D02*
G37*
G36*
X47580Y160754D02*
X47662Y160743D01*
X47738Y160732D01*
X47809Y160710D01*
X47935Y160655D01*
X47995Y160628D01*
X48044Y160601D01*
X48093Y160568D01*
X48131Y160541D01*
X48164Y160513D01*
X48197Y160486D01*
X48219Y160464D01*
X48235Y160453D01*
X48240Y160442D01*
X48246Y160437D01*
X48295Y160372D01*
X48344Y160301D01*
X48382Y160230D01*
X48415Y160148D01*
X48464Y159984D01*
X48497Y159826D01*
X48513Y159755D01*
X48519Y159684D01*
X48524Y159624D01*
X48530Y159569D01*
X48535Y159520D01*
Y159487D01*
Y159465D01*
Y159460D01*
X48530Y159340D01*
X48524Y159225D01*
X48508Y159121D01*
X48491Y159028D01*
X48470Y158936D01*
X48442Y158854D01*
X48415Y158783D01*
X48388Y158717D01*
X48360Y158657D01*
X48333Y158608D01*
X48311Y158564D01*
X48284Y158526D01*
X48268Y158499D01*
X48251Y158482D01*
X48246Y158472D01*
X48240Y158466D01*
X48186Y158406D01*
X48126Y158357D01*
X48060Y158313D01*
X48000Y158275D01*
X47935Y158248D01*
X47875Y158220D01*
X47754Y158182D01*
X47651Y158155D01*
X47607Y158149D01*
X47569Y158144D01*
X47536Y158138D01*
X47492D01*
X47410Y158144D01*
X47329Y158155D01*
X47252Y158171D01*
X47181Y158193D01*
X47050Y158242D01*
X46946Y158308D01*
X46897Y158335D01*
X46859Y158368D01*
X46821Y158395D01*
X46793Y158422D01*
X46772Y158439D01*
X46755Y158455D01*
X46744Y158466D01*
X46739Y158472D01*
X46690Y158537D01*
X46641Y158608D01*
X46602Y158684D01*
X46570Y158766D01*
X46515Y158925D01*
X46482Y159083D01*
X46471Y159159D01*
X46460Y159225D01*
X46455Y159291D01*
X46450Y159345D01*
X46444Y159389D01*
Y159422D01*
Y159443D01*
Y159449D01*
X46450Y159569D01*
X46455Y159678D01*
X46471Y159782D01*
X46488Y159880D01*
X46510Y159968D01*
X46531Y160049D01*
X46559Y160120D01*
X46586Y160186D01*
X46613Y160246D01*
X46641Y160295D01*
X46662Y160333D01*
X46684Y160372D01*
X46701Y160399D01*
X46717Y160415D01*
X46722Y160426D01*
X46728Y160432D01*
X46782Y160492D01*
X46843Y160541D01*
X46908Y160584D01*
X46968Y160623D01*
X47034Y160655D01*
X47099Y160677D01*
X47219Y160721D01*
X47329Y160743D01*
X47372Y160748D01*
X47416Y160754D01*
X47449Y160759D01*
X47492D01*
X47580Y160754D01*
D02*
G37*
G36*
X49321Y157489D02*
X47492D01*
X47645Y157494D01*
X47787Y157510D01*
X47924Y157538D01*
X48049Y157571D01*
X48169Y157609D01*
X48279Y157652D01*
X48377Y157696D01*
X48470Y157745D01*
X48546Y157794D01*
X48617Y157838D01*
X48677Y157882D01*
X48726Y157920D01*
X48770Y157953D01*
X48797Y157980D01*
X48814Y157996D01*
X48819Y158002D01*
X48906Y158106D01*
X48983Y158215D01*
X49054Y158329D01*
X49108Y158444D01*
X49158Y158564D01*
X49201Y158684D01*
X49234Y158805D01*
X49261Y158919D01*
X49278Y159023D01*
X49294Y159127D01*
X49305Y159214D01*
X49316Y159291D01*
Y159356D01*
X49321Y159405D01*
Y157489D01*
D02*
G37*
G36*
X43474Y160754D02*
X43556Y160743D01*
X43632Y160732D01*
X43703Y160710D01*
X43829Y160655D01*
X43889Y160628D01*
X43938Y160601D01*
X43987Y160568D01*
X44025Y160541D01*
X44058Y160513D01*
X44091Y160486D01*
X44113Y160464D01*
X44129Y160453D01*
X44134Y160442D01*
X44140Y160437D01*
X44189Y160372D01*
X44238Y160301D01*
X44276Y160230D01*
X44309Y160148D01*
X44358Y159984D01*
X44391Y159826D01*
X44407Y159755D01*
X44413Y159684D01*
X44418Y159624D01*
X44424Y159569D01*
X44429Y159520D01*
Y159487D01*
Y159465D01*
Y159460D01*
X44424Y159340D01*
X44418Y159225D01*
X44402Y159121D01*
X44386Y159028D01*
X44364Y158936D01*
X44337Y158854D01*
X44309Y158783D01*
X44282Y158717D01*
X44255Y158657D01*
X44227Y158608D01*
X44205Y158564D01*
X44178Y158526D01*
X44162Y158499D01*
X44145Y158482D01*
X44140Y158472D01*
X44134Y158466D01*
X44080Y158406D01*
X44020Y158357D01*
X43954Y158313D01*
X43894Y158275D01*
X43829Y158248D01*
X43769Y158220D01*
X43648Y158182D01*
X43545Y158155D01*
X43501Y158149D01*
X43463Y158144D01*
X43430Y158138D01*
X43386D01*
X43304Y158144D01*
X43223Y158155D01*
X43146Y158171D01*
X43075Y158193D01*
X42944Y158242D01*
X42840Y158308D01*
X42791Y158335D01*
X42753Y158368D01*
X42715Y158395D01*
X42687Y158422D01*
X42666Y158439D01*
X42649Y158455D01*
X42638Y158466D01*
X42633Y158472D01*
X42584Y158537D01*
X42535Y158608D01*
X42496Y158684D01*
X42464Y158766D01*
X42409Y158925D01*
X42376Y159083D01*
X42365Y159159D01*
X42355Y159225D01*
X42349Y159291D01*
X42344Y159345D01*
X42338Y159389D01*
Y159422D01*
Y159443D01*
Y159449D01*
X42344Y159569D01*
X42349Y159678D01*
X42365Y159782D01*
X42382Y159880D01*
X42404Y159968D01*
X42426Y160049D01*
X42453Y160120D01*
X42480Y160186D01*
X42507Y160246D01*
X42535Y160295D01*
X42557Y160333D01*
X42578Y160372D01*
X42595Y160399D01*
X42611Y160415D01*
X42617Y160426D01*
X42622Y160432D01*
X42677Y160492D01*
X42737Y160541D01*
X42802Y160584D01*
X42862Y160623D01*
X42928Y160655D01*
X42993Y160677D01*
X43113Y160721D01*
X43223Y160743D01*
X43266Y160748D01*
X43310Y160754D01*
X43343Y160759D01*
X43386D01*
X43474Y160754D01*
D02*
G37*
G36*
X45215Y157489D02*
X43386D01*
X43539Y157494D01*
X43681Y157510D01*
X43818Y157538D01*
X43943Y157571D01*
X44063Y157609D01*
X44173Y157652D01*
X44271Y157696D01*
X44364Y157745D01*
X44440Y157794D01*
X44511Y157838D01*
X44571Y157882D01*
X44620Y157920D01*
X44664Y157953D01*
X44691Y157980D01*
X44708Y157996D01*
X44713Y158002D01*
X44801Y158106D01*
X44877Y158215D01*
X44948Y158329D01*
X45003Y158444D01*
X45052Y158564D01*
X45095Y158684D01*
X45128Y158805D01*
X45156Y158919D01*
X45172Y159023D01*
X45188Y159127D01*
X45199Y159214D01*
X45210Y159291D01*
Y159356D01*
X45215Y159405D01*
Y157489D01*
D02*
G37*
%LPC*%
G36*
X22450Y68747D02*
X20932D01*
Y67103D01*
X21571D01*
Y67977D01*
X22057D01*
X22106Y67911D01*
X22150Y67840D01*
X22188Y67769D01*
X22220Y67704D01*
X22248Y67649D01*
X22270Y67600D01*
X22280Y67573D01*
X22286Y67567D01*
Y67562D01*
X22319Y67474D01*
X22341Y67387D01*
X22357Y67305D01*
X22368Y67234D01*
X22373Y67169D01*
X22379Y67125D01*
Y67081D01*
X22373Y66994D01*
X22362Y66907D01*
X22346Y66830D01*
X22324Y66754D01*
X22270Y66617D01*
X22242Y66563D01*
X22209Y66508D01*
X22177Y66459D01*
X22150Y66415D01*
X22117Y66382D01*
X22095Y66350D01*
X22073Y66328D01*
X22057Y66312D01*
X22046Y66300D01*
X22040Y66295D01*
X21975Y66246D01*
X21898Y66197D01*
X21822Y66159D01*
X21740Y66126D01*
X21571Y66071D01*
X21407Y66039D01*
X21330Y66027D01*
X21254Y66017D01*
X21194Y66011D01*
X21134Y66006D01*
X21090Y66000D01*
X21052D01*
X21030D01*
X21025D01*
X20910Y66006D01*
X20806Y66011D01*
X20703Y66027D01*
X20610Y66044D01*
X20528Y66066D01*
X20451Y66093D01*
X20380Y66120D01*
X20315Y66148D01*
X20260Y66170D01*
X20211Y66197D01*
X20173Y66224D01*
X20140Y66246D01*
X20113Y66262D01*
X20097Y66279D01*
X20086Y66284D01*
X20080Y66290D01*
X20026Y66350D01*
X19971Y66410D01*
X19933Y66475D01*
X19895Y66541D01*
X19862Y66606D01*
X19834Y66672D01*
X19796Y66797D01*
X19785Y66857D01*
X19774Y66912D01*
X19769Y66961D01*
X19763Y67005D01*
X19758Y67038D01*
Y67087D01*
X19763Y67207D01*
X19785Y67311D01*
X19807Y67403D01*
X19840Y67485D01*
X19867Y67545D01*
X19895Y67595D01*
X19916Y67622D01*
X19922Y67633D01*
X19987Y67709D01*
X20058Y67775D01*
X20129Y67829D01*
X20200Y67868D01*
X20266Y67900D01*
X20315Y67922D01*
X20348Y67933D01*
X20353Y67939D01*
X20359D01*
X20217Y68698D01*
X20124Y68676D01*
X20031Y68643D01*
X19949Y68610D01*
X19873Y68566D01*
X19796Y68528D01*
X19731Y68484D01*
X19671Y68441D01*
X19616Y68397D01*
X19567Y68353D01*
X19523Y68315D01*
X19485Y68283D01*
X19458Y68250D01*
X19436Y68222D01*
X19414Y68201D01*
X19409Y68190D01*
X19403Y68184D01*
X19349Y68108D01*
X19305Y68026D01*
X19267Y67939D01*
X19234Y67846D01*
X19179Y67665D01*
X19147Y67491D01*
X19130Y67409D01*
X19125Y67333D01*
X19119Y67261D01*
X19114Y67201D01*
X19108Y67152D01*
Y68747D01*
Y65214D01*
Y67087D01*
X19114Y66890D01*
X19136Y66716D01*
X19152Y66639D01*
X19168Y66563D01*
X19185Y66492D01*
X19201Y66432D01*
X19223Y66377D01*
X19239Y66322D01*
X19256Y66284D01*
X19267Y66246D01*
X19283Y66219D01*
X19288Y66197D01*
X19299Y66186D01*
Y66180D01*
X19398Y66011D01*
X19458Y65940D01*
X19512Y65869D01*
X19572Y65804D01*
X19632Y65744D01*
X19692Y65689D01*
X19747Y65640D01*
X19802Y65602D01*
X19851Y65563D01*
X19895Y65531D01*
X19933Y65503D01*
X19965Y65487D01*
X19987Y65471D01*
X20004Y65465D01*
X20009Y65460D01*
X20097Y65416D01*
X20184Y65378D01*
X20364Y65318D01*
X20544Y65274D01*
X20703Y65247D01*
X20779Y65236D01*
X20844Y65225D01*
X20905Y65219D01*
X20959D01*
X20997Y65214D01*
X21057D01*
X21260Y65225D01*
X21445Y65247D01*
X21614Y65285D01*
X21696Y65301D01*
X21767Y65323D01*
X21833Y65345D01*
X21893Y65361D01*
X21942Y65383D01*
X21986Y65400D01*
X22018Y65411D01*
X22046Y65421D01*
X22062Y65432D01*
X22068D01*
X22231Y65525D01*
X22373Y65629D01*
X22499Y65738D01*
X22597Y65847D01*
X22641Y65896D01*
X22679Y65946D01*
X22712Y65984D01*
X22734Y66022D01*
X22756Y66049D01*
X22772Y66077D01*
X22777Y66088D01*
X22783Y66093D01*
X22827Y66180D01*
X22865Y66262D01*
X22925Y66443D01*
X22968Y66617D01*
X22996Y66776D01*
X23007Y66852D01*
X23018Y66918D01*
X23023Y66978D01*
Y67032D01*
X23029Y67070D01*
Y67130D01*
X23023Y67305D01*
X23001Y67469D01*
X22974Y67627D01*
X22941Y67764D01*
X22925Y67824D01*
X22908Y67879D01*
X22892Y67928D01*
X22881Y67971D01*
X22870Y68004D01*
X22859Y68026D01*
X22854Y68042D01*
Y68048D01*
X22788Y68212D01*
X22717Y68348D01*
X22646Y68468D01*
X22586Y68572D01*
X22532Y68648D01*
X22510Y68676D01*
X22488Y68703D01*
X22472Y68719D01*
X22461Y68736D01*
X22450Y68747D01*
D02*
G37*
G36*
X22958Y64941D02*
D01*
X19179Y63423D01*
Y62615D01*
X22958Y61152D01*
Y64941D01*
D02*
G37*
G36*
Y61043D02*
Y59929D01*
X19818D01*
Y61043D01*
X22958D01*
X19179D01*
Y58045D01*
X19818D01*
Y59164D01*
X22958D01*
Y61043D01*
D02*
G37*
%LPD*%
G36*
X21462Y62500D02*
X20058Y63014D01*
X21462Y63543D01*
Y62500D01*
D02*
G37*
G36*
X22958Y61960D02*
X22100Y62271D01*
Y63789D01*
X22958Y64117D01*
Y61960D01*
D02*
G37*
%LPC*%
G36*
X201400Y310923D02*
X197622Y309405D01*
Y308597D01*
X201400Y307133D01*
Y310923D01*
D02*
G37*
G36*
Y306713D02*
X197622D01*
Y306009D01*
X200166D01*
X197622Y304447D01*
Y303710D01*
X201400D01*
Y306713D01*
D02*
G37*
G36*
X195092Y303866D02*
X195015D01*
X194824Y303860D01*
X194655Y303844D01*
X194573Y303838D01*
X194502Y303827D01*
X194431Y303816D01*
X194371Y303805D01*
X194316Y303789D01*
X194267Y303778D01*
X194224Y303767D01*
X194191Y303762D01*
X194164Y303751D01*
X194142Y303745D01*
X194131Y303740D01*
X194125D01*
X193994Y303691D01*
X193874Y303631D01*
X193771Y303571D01*
X193683Y303511D01*
X193612Y303462D01*
X193558Y303418D01*
X193525Y303391D01*
X193514Y303385D01*
Y303380D01*
X193427Y303287D01*
X193356Y303194D01*
X193296Y303096D01*
X193246Y303008D01*
X193208Y302932D01*
X193181Y302866D01*
X193175Y302845D01*
X193170Y302828D01*
X193165Y302817D01*
Y302812D01*
X193137Y302708D01*
X193121Y302593D01*
X193104Y302473D01*
X193099Y302359D01*
X193094Y302255D01*
X193088Y302211D01*
Y303866D01*
D01*
Y300704D01*
X196866D01*
Y302135D01*
X196861Y302282D01*
X196855Y302419D01*
X196844Y302533D01*
X196828Y302626D01*
X196812Y302702D01*
X196801Y302763D01*
X196795Y302779D01*
Y302795D01*
X196790Y302801D01*
Y302806D01*
X196746Y302926D01*
X196697Y303036D01*
X196648Y303123D01*
X196599Y303199D01*
X196555Y303259D01*
X196522Y303303D01*
X196501Y303330D01*
X196490Y303341D01*
X196386Y303434D01*
X196277Y303516D01*
X196162Y303587D01*
X196058Y303642D01*
X195960Y303685D01*
X195922Y303707D01*
X195889Y303718D01*
X195856Y303729D01*
X195834Y303740D01*
X195824Y303745D01*
X195818D01*
X195687Y303784D01*
X195551Y303816D01*
X195419Y303838D01*
X195294Y303849D01*
X195234Y303855D01*
X195179Y303860D01*
X195135D01*
X195092Y303866D01*
D02*
G37*
G36*
X201400Y302902D02*
X197622D01*
Y302198D01*
X200166D01*
X197622Y300636D01*
Y299899D01*
X201400D01*
Y302902D01*
D02*
G37*
G36*
X196866Y299973D02*
X193088D01*
Y299208D01*
X196866D01*
Y299973D01*
D02*
G37*
G36*
X201400Y299249D02*
X197622D01*
X200762D01*
Y297142D01*
X199735D01*
Y299036D01*
X199096D01*
Y297142D01*
X198261D01*
Y299178D01*
X197622D01*
Y296377D01*
X201400D01*
Y299249D01*
D02*
G37*
G36*
X193727Y298602D02*
X193088D01*
Y296009D01*
X196866D01*
Y296773D01*
X195261D01*
Y298351D01*
X194622D01*
Y296773D01*
X193727D01*
Y298602D01*
D02*
G37*
G36*
X201400Y295880D02*
Y294766D01*
X198261D01*
Y295880D01*
X197622D01*
Y292883D01*
X201400D01*
Y295880D01*
D02*
G37*
G36*
X196866Y295594D02*
X196129Y295129D01*
X196053Y295080D01*
X195976Y295031D01*
X195911Y294988D01*
X195851Y294944D01*
X195796Y294906D01*
X195742Y294873D01*
X195660Y294807D01*
X195594Y294758D01*
X195551Y294725D01*
X195523Y294698D01*
X195518Y294693D01*
X195452Y294633D01*
X195392Y294562D01*
X195343Y294496D01*
X195294Y294431D01*
X195256Y294376D01*
X195228Y294332D01*
X195206Y294300D01*
X195201Y294294D01*
Y294289D01*
X195185Y294381D01*
X195163Y294463D01*
X195141Y294540D01*
X195114Y294616D01*
X195086Y294682D01*
X195059Y294742D01*
X195032Y294802D01*
X194999Y294851D01*
X194972Y294895D01*
X194944Y294933D01*
X194917Y294966D01*
X194895Y294988D01*
X194879Y295009D01*
X194862Y295026D01*
X194857Y295031D01*
X194852Y295037D01*
X194797Y295080D01*
X194742Y295119D01*
X194622Y295184D01*
X194508Y295228D01*
X194393Y295255D01*
X194295Y295277D01*
X194256Y295282D01*
X194218D01*
X194191Y295288D01*
X194164D01*
X194153D01*
X194147D01*
X194027Y295282D01*
X193912Y295261D01*
X193814Y295233D01*
X193727Y295206D01*
X193656Y295173D01*
X193601Y295146D01*
X193585Y295135D01*
X193569Y295124D01*
X193563Y295119D01*
X193558D01*
X193465Y295053D01*
X193388Y294982D01*
X193328Y294911D01*
X193274Y294840D01*
X193241Y294775D01*
X193214Y294725D01*
X193197Y294693D01*
X193192Y294687D01*
Y294682D01*
X193175Y294627D01*
X193159Y294567D01*
X193132Y294431D01*
X193115Y294283D01*
X193099Y294141D01*
Y294070D01*
X193094Y294010D01*
Y293950D01*
X193088Y293901D01*
Y295594D01*
X196866D01*
X193088D01*
Y292197D01*
X196866D01*
Y292962D01*
X195288D01*
Y293208D01*
X195294Y293284D01*
X195299Y293350D01*
X195310Y293404D01*
X195316Y293448D01*
X195327Y293475D01*
X195332Y293492D01*
Y293497D01*
X195354Y293541D01*
X195376Y293584D01*
X195403Y293623D01*
X195425Y293661D01*
X195452Y293688D01*
X195474Y293710D01*
X195485Y293721D01*
X195490Y293726D01*
X195518Y293748D01*
X195545Y293775D01*
X195627Y293835D01*
X195714Y293901D01*
X195813Y293972D01*
X195900Y294032D01*
X195944Y294059D01*
X195976Y294081D01*
X196004Y294103D01*
X196026Y294119D01*
X196042Y294125D01*
X196047Y294130D01*
X196866Y294676D01*
Y295594D01*
D02*
G37*
G36*
X201400Y292342D02*
X197622D01*
Y291638D01*
X200166D01*
X197622Y290076D01*
Y289339D01*
X201400D01*
Y292342D01*
D02*
G37*
G36*
Y288930D02*
X197622Y287412D01*
Y286604D01*
X201400Y285140D01*
Y288930D01*
D02*
G37*
%LPD*%
G36*
X199904Y308482D02*
X198501Y308995D01*
X199904Y309525D01*
Y308482D01*
D02*
G37*
G36*
X201400Y307941D02*
X200543Y308253D01*
Y309770D01*
X201400Y310098D01*
Y307941D01*
D02*
G37*
G36*
Y304414D02*
X198911D01*
X201400Y305948D01*
Y304414D01*
D02*
G37*
G36*
X195135Y303074D02*
X195278Y303068D01*
X195392Y303052D01*
X195490Y303041D01*
X195572Y303025D01*
X195605Y303019D01*
X195627Y303008D01*
X195649Y303003D01*
X195665D01*
X195671Y302997D01*
X195676D01*
X195763Y302965D01*
X195840Y302937D01*
X195900Y302899D01*
X195949Y302872D01*
X195987Y302845D01*
X196015Y302823D01*
X196031Y302806D01*
X196036Y302801D01*
X196075Y302752D01*
X196107Y302702D01*
X196135Y302653D01*
X196157Y302604D01*
X196173Y302561D01*
X196184Y302528D01*
X196195Y302506D01*
Y302495D01*
X196206Y302435D01*
X196211Y302364D01*
X196222Y302288D01*
Y302211D01*
X196228Y302140D01*
Y301469D01*
X193727D01*
Y301965D01*
X193732Y302036D01*
Y302102D01*
X193738Y302156D01*
Y302206D01*
X193743Y302255D01*
Y302293D01*
X193754Y302353D01*
X193760Y302397D01*
X193765Y302424D01*
Y302430D01*
X193787Y302506D01*
X193814Y302572D01*
X193842Y302632D01*
X193874Y302686D01*
X193902Y302724D01*
X193923Y302757D01*
X193940Y302773D01*
X193945Y302779D01*
X194000Y302828D01*
X194060Y302872D01*
X194120Y302910D01*
X194175Y302943D01*
X194229Y302965D01*
X194273Y302981D01*
X194300Y302992D01*
X194306Y302997D01*
X194311D01*
X194409Y303025D01*
X194513Y303046D01*
X194628Y303057D01*
X194737Y303068D01*
X194830Y303074D01*
X194873Y303079D01*
X194912D01*
X194939D01*
X194961D01*
X194977D01*
X194983D01*
X195135Y303074D01*
D02*
G37*
G36*
X201400Y300603D02*
X198911D01*
X201400Y302137D01*
Y300603D01*
D02*
G37*
G36*
Y292883D02*
X198261D01*
Y294002D01*
X201400D01*
Y292883D01*
D02*
G37*
G36*
X194262Y294496D02*
X194316Y294491D01*
X194366Y294474D01*
X194409Y294463D01*
X194442Y294447D01*
X194464Y294431D01*
X194480Y294425D01*
X194486Y294420D01*
X194524Y294387D01*
X194557Y294354D01*
X194606Y294283D01*
X194622Y294256D01*
X194633Y294229D01*
X194644Y294212D01*
Y294207D01*
X194650Y294180D01*
X194660Y294136D01*
X194666Y294092D01*
X194671Y294043D01*
X194677Y293928D01*
X194682Y293814D01*
X194688Y293704D01*
Y292962D01*
X193727D01*
Y293835D01*
X193732Y293885D01*
Y294005D01*
X193738Y294054D01*
Y294087D01*
X193743Y294103D01*
Y294109D01*
X193760Y294174D01*
X193781Y294234D01*
X193803Y294283D01*
X193831Y294321D01*
X193858Y294354D01*
X193874Y294381D01*
X193891Y294392D01*
X193896Y294398D01*
X193940Y294431D01*
X193994Y294458D01*
X194044Y294474D01*
X194093Y294491D01*
X194136Y294496D01*
X194169Y294502D01*
X194191D01*
X194202D01*
X194262Y294496D01*
D02*
G37*
G36*
X201400Y290043D02*
X198911D01*
X201400Y291578D01*
Y290043D01*
D02*
G37*
G36*
X199904Y286489D02*
X198501Y287002D01*
X199904Y287532D01*
Y286489D01*
D02*
G37*
G36*
X201400Y285948D02*
X200543Y286260D01*
Y287778D01*
X201400Y288105D01*
Y285948D01*
D02*
G37*
%LPC*%
G36*
X23149Y94534D02*
X19371D01*
D01*
X23149D01*
X22412Y94070D01*
X22336Y94021D01*
X22259Y93972D01*
X22194Y93928D01*
X22134Y93884D01*
X22079Y93846D01*
X22024Y93813D01*
X21942Y93748D01*
X21877Y93699D01*
X21833Y93666D01*
X21806Y93639D01*
X21801Y93633D01*
X21735Y93573D01*
X21675Y93502D01*
X21626Y93437D01*
X21577Y93371D01*
X21539Y93317D01*
X21511Y93273D01*
X21489Y93240D01*
X21484Y93235D01*
Y93229D01*
X21467Y93322D01*
X21446Y93404D01*
X21424Y93480D01*
X21396Y93557D01*
X21369Y93622D01*
X21342Y93682D01*
X21315Y93742D01*
X21282Y93792D01*
X21255Y93835D01*
X21227Y93873D01*
X21200Y93906D01*
X21178Y93928D01*
X21162Y93950D01*
X21145Y93966D01*
X21140Y93972D01*
X21134Y93977D01*
X21080Y94021D01*
X21025Y94059D01*
X20905Y94125D01*
X20790Y94168D01*
X20676Y94196D01*
X20577Y94217D01*
X20539Y94223D01*
X20501D01*
X20474Y94228D01*
X20447D01*
X20436D01*
X20430D01*
X20310Y94223D01*
X20195Y94201D01*
X20097Y94174D01*
X20010Y94146D01*
X19939Y94114D01*
X19884Y94086D01*
X19868Y94075D01*
X19851Y94064D01*
X19846Y94059D01*
X19840D01*
X19748Y93994D01*
X19671Y93923D01*
X19611Y93852D01*
X19557Y93781D01*
X19524Y93715D01*
X19496Y93666D01*
X19480Y93633D01*
X19475Y93628D01*
Y93622D01*
X19458Y93568D01*
X19442Y93508D01*
X19414Y93371D01*
X19398Y93224D01*
X19382Y93082D01*
Y93011D01*
X19376Y92951D01*
Y92891D01*
X19371Y92842D01*
Y91138D01*
X23149D01*
Y94534D01*
D02*
G37*
G36*
Y90739D02*
X19371D01*
Y85782D01*
D01*
X23149Y86677D01*
Y87507D01*
X20326Y88261D01*
X23149Y89003D01*
Y89828D01*
X19371Y90739D01*
X23149D01*
D01*
D02*
G37*
G36*
Y85525D02*
X19371D01*
Y82631D01*
X23149D01*
Y83396D01*
X21724D01*
Y84073D01*
X21719Y84155D01*
Y84231D01*
X21713Y84302D01*
X21708Y84368D01*
X21702Y84428D01*
X21697Y84477D01*
Y84526D01*
X21691Y84564D01*
X21686Y84602D01*
X21680Y84630D01*
Y84651D01*
X21675Y84668D01*
Y84679D01*
X21653Y84755D01*
X21626Y84826D01*
X21599Y84892D01*
X21566Y84952D01*
X21539Y85001D01*
X21517Y85039D01*
X21500Y85061D01*
X21495Y85072D01*
X21440Y85143D01*
X21380Y85203D01*
X21315Y85263D01*
X21260Y85307D01*
X21205Y85345D01*
X21162Y85372D01*
X21134Y85389D01*
X21124Y85394D01*
X21031Y85438D01*
X20932Y85470D01*
X20829Y85492D01*
X20736Y85509D01*
X20659Y85520D01*
X20621D01*
X20594Y85525D01*
X23149D01*
D01*
D02*
G37*
%LPD*%
G36*
Y91902D02*
X21571D01*
Y92148D01*
X21577Y92225D01*
X21582Y92290D01*
X21593Y92345D01*
X21599Y92388D01*
X21610Y92416D01*
X21615Y92432D01*
Y92437D01*
X21637Y92481D01*
X21659Y92525D01*
X21686Y92563D01*
X21708Y92601D01*
X21735Y92629D01*
X21757Y92650D01*
X21768Y92661D01*
X21773Y92667D01*
X21801Y92689D01*
X21828Y92716D01*
X21910Y92776D01*
X21997Y92842D01*
X22095Y92913D01*
X22183Y92972D01*
X22226Y93000D01*
X22259Y93022D01*
X22287Y93044D01*
X22308Y93060D01*
X22325Y93065D01*
X22330Y93071D01*
X23149Y93617D01*
Y91902D01*
D02*
G37*
G36*
X20545Y93437D02*
X20599Y93431D01*
X20649Y93415D01*
X20692Y93404D01*
X20725Y93388D01*
X20747Y93371D01*
X20763Y93366D01*
X20769Y93360D01*
X20807Y93327D01*
X20840Y93295D01*
X20889Y93224D01*
X20905Y93196D01*
X20916Y93169D01*
X20927Y93153D01*
Y93147D01*
X20932Y93120D01*
X20943Y93076D01*
X20949Y93033D01*
X20954Y92983D01*
X20960Y92869D01*
X20965Y92754D01*
X20971Y92645D01*
Y91902D01*
X20010D01*
Y92776D01*
X20015Y92825D01*
Y92945D01*
X20021Y92994D01*
Y93027D01*
X20026Y93044D01*
Y93049D01*
X20042Y93115D01*
X20064Y93174D01*
X20086Y93224D01*
X20113Y93262D01*
X20141Y93295D01*
X20157Y93322D01*
X20174Y93333D01*
X20179Y93338D01*
X20223Y93371D01*
X20277Y93398D01*
X20326Y93415D01*
X20376Y93431D01*
X20419Y93437D01*
X20452Y93442D01*
X20474D01*
X20485D01*
X20545Y93437D01*
D02*
G37*
G36*
X22014Y89391D02*
X19371Y88736D01*
Y89969D01*
X22014Y89391D01*
D02*
G37*
G36*
X21970Y87130D02*
X19371Y86563D01*
Y87818D01*
X21970Y87130D01*
D02*
G37*
G36*
X20376Y85514D02*
X20228Y85492D01*
X20108Y85454D01*
X19999Y85416D01*
X19955Y85394D01*
X19917Y85372D01*
X19884Y85356D01*
X19851Y85334D01*
X19829Y85323D01*
X19813Y85312D01*
X19808Y85301D01*
X19802D01*
X19704Y85214D01*
X19622Y85127D01*
X19557Y85034D01*
X19507Y84952D01*
X19475Y84875D01*
X19447Y84815D01*
X19442Y84793D01*
X19436Y84777D01*
X19431Y84766D01*
Y84761D01*
X19420Y84717D01*
X19409Y84662D01*
X19404Y84597D01*
X19398Y84531D01*
X19387Y84378D01*
X19376Y84226D01*
Y84084D01*
X19371Y84024D01*
Y85525D01*
X20534D01*
X20376Y85514D01*
D02*
G37*
G36*
X20610Y84733D02*
X20665Y84728D01*
X20714Y84711D01*
X20758Y84695D01*
X20796Y84679D01*
X20823Y84668D01*
X20840Y84657D01*
X20845Y84651D01*
X20889Y84619D01*
X20927Y84575D01*
X20960Y84537D01*
X20987Y84499D01*
X21003Y84466D01*
X21020Y84439D01*
X21025Y84417D01*
X21031Y84411D01*
X21042Y84378D01*
X21047Y84340D01*
X21064Y84253D01*
X21074Y84155D01*
X21080Y84056D01*
Y83958D01*
X21085Y83920D01*
Y83396D01*
X20010D01*
Y83964D01*
X20015Y84018D01*
Y84067D01*
X20021Y84116D01*
Y84187D01*
X20026Y84242D01*
X20031Y84280D01*
X20037Y84302D01*
Y84307D01*
X20053Y84373D01*
X20075Y84433D01*
X20102Y84488D01*
X20135Y84531D01*
X20163Y84564D01*
X20184Y84591D01*
X20201Y84608D01*
X20206Y84613D01*
X20261Y84657D01*
X20315Y84684D01*
X20376Y84706D01*
X20430Y84723D01*
X20479Y84733D01*
X20517Y84739D01*
X20539D01*
X20550D01*
X20610Y84733D01*
D02*
G37*
%LPC*%
G36*
X47165Y23079D02*
X43387D01*
Y20185D01*
X47165D01*
Y21577D01*
Y20949D01*
X45740D01*
Y21627D01*
X45734Y21709D01*
Y21785D01*
X45729Y21856D01*
X45723Y21921D01*
X45718Y21982D01*
X45713Y22031D01*
Y22080D01*
X45707Y22118D01*
X45702Y22156D01*
X45696Y22184D01*
Y22205D01*
X45691Y22222D01*
Y22233D01*
X45669Y22309D01*
X45641Y22380D01*
X45614Y22446D01*
X45581Y22506D01*
X45554Y22555D01*
X45532Y22593D01*
X45516Y22615D01*
X45511Y22626D01*
X45456Y22697D01*
X45396Y22757D01*
X45330Y22817D01*
X45276Y22861D01*
X45221Y22899D01*
X45177Y22926D01*
X45150Y22942D01*
X45139Y22948D01*
X45046Y22992D01*
X44948Y23024D01*
X44844Y23046D01*
X44752Y23063D01*
X44675Y23074D01*
X44637D01*
X44610Y23079D01*
X47165D01*
D02*
G37*
G36*
X46122Y19535D02*
X46067D01*
X45936Y19530D01*
X45822Y19514D01*
X45718Y19486D01*
X45631Y19459D01*
X45560Y19432D01*
X45511Y19404D01*
X45478Y19388D01*
X45467Y19383D01*
X45379Y19322D01*
X45303Y19252D01*
X45237Y19181D01*
X45183Y19115D01*
X45139Y19055D01*
X45106Y19006D01*
X45085Y18973D01*
X45079Y18968D01*
Y18962D01*
X45052Y18907D01*
X45024Y18853D01*
X44975Y18722D01*
X44932Y18585D01*
X44888Y18454D01*
X44872Y18394D01*
X44855Y18334D01*
X44839Y18280D01*
X44828Y18236D01*
X44817Y18198D01*
X44812Y18170D01*
X44806Y18149D01*
Y18143D01*
X44779Y18045D01*
X44757Y17957D01*
X44735Y17876D01*
X44713Y17799D01*
X44692Y17739D01*
X44670Y17679D01*
X44648Y17630D01*
X44631Y17586D01*
X44615Y17548D01*
X44599Y17521D01*
X44588Y17493D01*
X44577Y17477D01*
X44560Y17450D01*
X44555Y17444D01*
X44517Y17406D01*
X44478Y17379D01*
X44440Y17362D01*
X44402Y17351D01*
X44375Y17341D01*
X44348Y17335D01*
X44331D01*
X44326D01*
X44271Y17341D01*
X44227Y17351D01*
X44184Y17373D01*
X44151Y17395D01*
X44124Y17417D01*
X44107Y17439D01*
X44096Y17450D01*
X44091Y17455D01*
X44042Y17532D01*
X44009Y17614D01*
X43982Y17701D01*
X43965Y17783D01*
X43954Y17854D01*
X43949Y17914D01*
Y17968D01*
X43954Y18083D01*
X43971Y18181D01*
X43993Y18263D01*
X44014Y18329D01*
X44036Y18383D01*
X44058Y18421D01*
X44074Y18443D01*
X44080Y18449D01*
X44135Y18504D01*
X44200Y18553D01*
X44266Y18591D01*
X44337Y18618D01*
X44397Y18640D01*
X44446Y18651D01*
X44484Y18662D01*
X44489D01*
X44495D01*
X44468Y19426D01*
X44369Y19421D01*
X44282Y19404D01*
X44195Y19383D01*
X44118Y19355D01*
X44042Y19328D01*
X43971Y19295D01*
X43911Y19262D01*
X43851Y19230D01*
X43802Y19191D01*
X43758Y19159D01*
X43720Y19126D01*
X43687Y19099D01*
X43665Y19077D01*
X43649Y19060D01*
X43638Y19049D01*
X43632Y19044D01*
X43578Y18973D01*
X43529Y18897D01*
X43485Y18815D01*
X43447Y18727D01*
X43419Y18640D01*
X43392Y18553D01*
X43354Y18378D01*
X43343Y18296D01*
X43332Y18225D01*
X43327Y18154D01*
X43321Y18094D01*
X43316Y18045D01*
Y19535D01*
Y16461D01*
D01*
Y17979D01*
X43321Y17821D01*
X43337Y17679D01*
X43359Y17553D01*
X43381Y17444D01*
X43397Y17395D01*
X43408Y17351D01*
X43419Y17319D01*
X43430Y17286D01*
X43441Y17264D01*
X43447Y17248D01*
X43452Y17237D01*
Y17231D01*
X43507Y17122D01*
X43567Y17029D01*
X43632Y16947D01*
X43692Y16882D01*
X43747Y16827D01*
X43791Y16794D01*
X43823Y16767D01*
X43829Y16762D01*
X43834D01*
X43927Y16707D01*
X44025Y16669D01*
X44118Y16642D01*
X44200Y16625D01*
X44271Y16614D01*
X44326Y16603D01*
X44348D01*
X44364D01*
X44369D01*
X44375D01*
X44457Y16609D01*
X44539Y16620D01*
X44610Y16636D01*
X44681Y16658D01*
X44812Y16713D01*
X44926Y16778D01*
X44975Y16805D01*
X45014Y16838D01*
X45052Y16865D01*
X45085Y16893D01*
X45106Y16915D01*
X45123Y16931D01*
X45134Y16942D01*
X45139Y16947D01*
X45177Y16996D01*
X45216Y17056D01*
X45254Y17117D01*
X45287Y17188D01*
X45352Y17324D01*
X45407Y17466D01*
X45429Y17537D01*
X45450Y17597D01*
X45467Y17657D01*
X45483Y17706D01*
X45494Y17744D01*
X45505Y17777D01*
X45511Y17799D01*
Y17805D01*
X45532Y17892D01*
X45554Y17968D01*
X45570Y18039D01*
X45587Y18105D01*
X45603Y18159D01*
X45614Y18209D01*
X45631Y18252D01*
X45641Y18291D01*
X45647Y18323D01*
X45658Y18351D01*
X45669Y18389D01*
X45680Y18411D01*
Y18416D01*
X45707Y18487D01*
X45734Y18542D01*
X45762Y18591D01*
X45789Y18629D01*
X45811Y18656D01*
X45827Y18673D01*
X45838Y18684D01*
X45843Y18689D01*
X45882Y18716D01*
X45920Y18738D01*
X45958Y18749D01*
X45991Y18760D01*
X46024Y18766D01*
X46051Y18771D01*
X46067D01*
X46073D01*
X46149Y18766D01*
X46215Y18744D01*
X46280Y18711D01*
X46335Y18678D01*
X46379Y18640D01*
X46411Y18613D01*
X46433Y18591D01*
X46439Y18580D01*
X46488Y18504D01*
X46526Y18416D01*
X46553Y18323D01*
X46570Y18236D01*
X46581Y18154D01*
X46591Y18089D01*
Y18028D01*
X46586Y17903D01*
X46564Y17794D01*
X46537Y17701D01*
X46504Y17619D01*
X46471Y17553D01*
X46444Y17510D01*
X46422Y17482D01*
X46417Y17471D01*
X46340Y17401D01*
X46259Y17346D01*
X46166Y17297D01*
X46073Y17264D01*
X45991Y17237D01*
X45925Y17215D01*
X45904Y17209D01*
X45882D01*
X45871Y17204D01*
X45865D01*
X45936Y16461D01*
X46051Y16478D01*
X46160Y16500D01*
X46264Y16532D01*
X46357Y16560D01*
X46444Y16598D01*
X46526Y16636D01*
X46597Y16674D01*
X46663Y16713D01*
X46717Y16751D01*
X46766Y16789D01*
X46810Y16822D01*
X46848Y16854D01*
X46876Y16876D01*
X46892Y16898D01*
X46903Y16909D01*
X46908Y16915D01*
X46968Y16991D01*
X47017Y17073D01*
X47061Y17160D01*
X47099Y17253D01*
X47127Y17341D01*
X47154Y17433D01*
X47192Y17614D01*
X47208Y17695D01*
X47219Y17772D01*
X47225Y17837D01*
X47230Y17897D01*
X47236Y17946D01*
Y18018D01*
X47230Y18192D01*
X47214Y18351D01*
X47192Y18493D01*
X47181Y18553D01*
X47165Y18613D01*
X47154Y18662D01*
X47143Y18706D01*
X47132Y18744D01*
X47121Y18776D01*
X47110Y18804D01*
X47105Y18820D01*
X47099Y18831D01*
Y18836D01*
X47039Y18957D01*
X46974Y19055D01*
X46908Y19148D01*
X46837Y19219D01*
X46777Y19273D01*
X46723Y19317D01*
X46690Y19339D01*
X46684Y19350D01*
X46679D01*
X46570Y19410D01*
X46466Y19459D01*
X46362Y19492D01*
X46264Y19514D01*
X46187Y19524D01*
X46149Y19530D01*
X46122Y19535D01*
D02*
G37*
G36*
X47165Y16014D02*
X43387D01*
Y13142D01*
X47165D01*
Y16014D01*
D02*
G37*
%LPD*%
G36*
X44391Y23068D02*
X44244Y23046D01*
X44124Y23008D01*
X44014Y22970D01*
X43971Y22948D01*
X43933Y22926D01*
X43900Y22910D01*
X43867Y22888D01*
X43845Y22877D01*
X43829Y22866D01*
X43823Y22855D01*
X43818D01*
X43720Y22768D01*
X43638Y22680D01*
X43572Y22588D01*
X43523Y22506D01*
X43490Y22429D01*
X43463Y22369D01*
X43457Y22347D01*
X43452Y22331D01*
X43447Y22320D01*
Y22314D01*
X43436Y22271D01*
X43425Y22216D01*
X43419Y22151D01*
X43414Y22085D01*
X43403Y21932D01*
X43392Y21779D01*
Y21637D01*
X43387Y21577D01*
Y23079D01*
X44550D01*
X44391Y23068D01*
D02*
G37*
G36*
X44626Y22287D02*
X44681Y22282D01*
X44730Y22265D01*
X44773Y22249D01*
X44812Y22233D01*
X44839Y22222D01*
X44855Y22211D01*
X44861Y22205D01*
X44904Y22173D01*
X44943Y22129D01*
X44975Y22091D01*
X45003Y22052D01*
X45019Y22020D01*
X45035Y21992D01*
X45041Y21971D01*
X45046Y21965D01*
X45057Y21932D01*
X45063Y21894D01*
X45079Y21807D01*
X45090Y21709D01*
X45096Y21610D01*
Y21512D01*
X45101Y21474D01*
Y20949D01*
X44025D01*
Y21517D01*
X44031Y21572D01*
Y21621D01*
X44036Y21670D01*
Y21741D01*
X44042Y21796D01*
X44047Y21834D01*
X44053Y21856D01*
Y21861D01*
X44069Y21927D01*
X44091Y21987D01*
X44118Y22041D01*
X44151Y22085D01*
X44178Y22118D01*
X44200Y22145D01*
X44216Y22162D01*
X44222Y22167D01*
X44276Y22211D01*
X44331Y22238D01*
X44391Y22260D01*
X44446Y22276D01*
X44495Y22287D01*
X44533Y22293D01*
X44555D01*
X44566D01*
X44626Y22287D01*
D02*
G37*
G36*
X46526Y13906D02*
X45500D01*
Y15801D01*
X44861D01*
Y13906D01*
X44025D01*
Y15943D01*
X43387D01*
Y16014D01*
X46526D01*
Y13906D01*
D02*
G37*
D10*
X234415Y37551D02*
X233580Y38033D01*
Y37069D01*
X234415Y37551D01*
X135675Y38475D02*
Y40574D01*
X136724Y41623D01*
X137774Y40574D01*
Y38475D01*
Y40049D01*
X135675D01*
X138823Y38475D02*
Y41623D01*
X140922Y38475D01*
Y41623D01*
X141972D02*
X144071D01*
X143022D01*
Y38475D01*
X147220D02*
X145121D01*
X147220Y40574D01*
Y41099D01*
X146695Y41623D01*
X145645D01*
X145121Y41099D01*
X88188Y322965D02*
X85565D01*
X85040Y322440D01*
Y321391D01*
X85565Y320866D01*
X88188D01*
X85040Y319817D02*
Y318767D01*
Y319292D01*
X88188D01*
X87664Y319817D01*
X310629Y124739D02*
X307481D01*
Y126313D01*
X308006Y126838D01*
X309055D01*
X309580Y126313D01*
Y124739D01*
Y125788D02*
X310629Y126838D01*
X308006Y127887D02*
X307481Y128412D01*
Y129462D01*
X308006Y129987D01*
X308530D01*
X309055Y129462D01*
Y128937D01*
Y129462D01*
X309580Y129987D01*
X310105D01*
X310629Y129462D01*
Y128412D01*
X310105Y127887D01*
X310629Y133135D02*
Y131036D01*
X308530Y133135D01*
X308006D01*
X307481Y132610D01*
Y131561D01*
X308006Y131036D01*
X302755Y126248D02*
X299607D01*
Y127822D01*
X300132Y128347D01*
X301181D01*
X301706Y127822D01*
Y126248D01*
Y127297D02*
X302755Y128347D01*
X300132Y129396D02*
X299607Y129921D01*
Y130971D01*
X300132Y131496D01*
X300656D01*
X301181Y130971D01*
Y130446D01*
Y130971D01*
X301706Y131496D01*
X302231D01*
X302755Y130971D01*
Y129921D01*
X302231Y129396D01*
X302755Y132545D02*
Y133595D01*
Y133070D01*
X299607D01*
X300132Y132545D01*
X319075Y129534D02*
Y128485D01*
Y129009D01*
X321699D01*
X322224Y128485D01*
Y127960D01*
X321699Y127435D01*
Y130584D02*
X322224Y131109D01*
Y132158D01*
X321699Y132683D01*
X319600D01*
X319075Y132158D01*
Y131109D01*
X319600Y130584D01*
X320125D01*
X320650Y131109D01*
Y132683D01*
X363779Y27100D02*
Y28149D01*
Y27624D01*
X361155D01*
X360630Y28149D01*
Y28674D01*
X361155Y29199D01*
X363254Y26050D02*
X363779Y25525D01*
Y24476D01*
X363254Y23951D01*
X362730D01*
X362205Y24476D01*
Y25001D01*
Y24476D01*
X361680Y23951D01*
X361155D01*
X360630Y24476D01*
Y25525D01*
X361155Y26050D01*
X166273Y229200D02*
X165749Y228675D01*
Y227626D01*
X166273Y227101D01*
X168372D01*
X168897Y227626D01*
Y228675D01*
X168372Y229200D01*
X168897Y231824D02*
X165749D01*
X167323Y230250D01*
Y232349D01*
X168897Y234973D02*
X165749D01*
X167323Y233398D01*
Y235497D01*
X126379Y191600D02*
X129527D01*
X128478Y190551D01*
X129527Y189501D01*
X126379D01*
X129002Y188452D02*
X129527Y187927D01*
Y186877D01*
X129002Y186353D01*
X128478D01*
X127953Y186877D01*
Y187402D01*
Y186877D01*
X127428Y186353D01*
X126903D01*
X126379Y186877D01*
Y187927D01*
X126903Y188452D01*
X186352Y376641D02*
X185827Y376116D01*
Y375067D01*
X186352Y374542D01*
X188451D01*
X188976Y375067D01*
Y376116D01*
X188451Y376641D01*
X188976Y379265D02*
X185827D01*
X187401Y377691D01*
Y379790D01*
X186352Y380839D02*
X185827Y381364D01*
Y382414D01*
X186352Y382938D01*
X186877D01*
X187401Y382414D01*
Y381889D01*
Y382414D01*
X187926Y382938D01*
X188451D01*
X188976Y382414D01*
Y381364D01*
X188451Y380839D01*
X174673Y359711D02*
X174148Y360236D01*
X173098D01*
X172573Y359711D01*
Y357612D01*
X173098Y357087D01*
X174148D01*
X174673Y357612D01*
X177296Y357087D02*
Y360236D01*
X175722Y358661D01*
X177821D01*
X180970Y357087D02*
X178871D01*
X180970Y359186D01*
Y359711D01*
X180445Y360236D01*
X179395D01*
X178871Y359711D01*
X160368Y364961D02*
X159843Y364436D01*
Y363387D01*
X160368Y362862D01*
X162467D01*
X162992Y363387D01*
Y364436D01*
X162467Y364961D01*
X162992Y367585D02*
X159843D01*
X161417Y366011D01*
Y368110D01*
X162992Y369159D02*
Y370209D01*
Y369684D01*
X159843D01*
X160368Y369159D01*
X163421Y383323D02*
X162896Y383848D01*
X161847D01*
X161322Y383323D01*
Y381224D01*
X161847Y380699D01*
X162896D01*
X163421Y381224D01*
X166045Y380699D02*
Y383848D01*
X164471Y382274D01*
X166570D01*
X167619Y383323D02*
X168144Y383848D01*
X169194D01*
X169718Y383323D01*
Y381224D01*
X169194Y380699D01*
X168144D01*
X167619Y381224D01*
Y383323D01*
X202100Y377035D02*
X201575Y376510D01*
Y375461D01*
X202100Y374936D01*
X204199D01*
X204724Y375461D01*
Y376510D01*
X204199Y377035D01*
X202100Y378084D02*
X201575Y378609D01*
Y379659D01*
X202100Y380183D01*
X202625D01*
X203150Y379659D01*
Y379134D01*
Y379659D01*
X203674Y380183D01*
X204199D01*
X204724Y379659D01*
Y378609D01*
X204199Y378084D01*
X202100Y381233D02*
X201575Y381758D01*
Y382807D01*
X202100Y383332D01*
X202625D01*
X203150Y382807D01*
X203674Y383332D01*
X204199D01*
X204724Y382807D01*
Y381758D01*
X204199Y381233D01*
X203674D01*
X203150Y381758D01*
X202625Y381233D01*
X202100D01*
X203150Y381758D02*
Y382807D01*
X178741Y202098D02*
X181889D01*
Y200524D01*
X181365Y199999D01*
X180315D01*
X179790Y200524D01*
Y202098D01*
X181889Y198949D02*
Y196850D01*
Y197900D01*
X178741D01*
X181365Y193702D02*
X181889Y194227D01*
Y195276D01*
X181365Y195801D01*
X179265D01*
X178741Y195276D01*
Y194227D01*
X179265Y193702D01*
X178741Y192652D02*
Y191603D01*
Y192128D01*
X181889D01*
X181365Y192652D01*
X222311Y386615D02*
Y388714D01*
X223361Y389763D01*
X224411Y388714D01*
Y386615D01*
Y388189D01*
X222311D01*
X225460Y386615D02*
Y389763D01*
X227559Y386615D01*
Y389763D01*
X228609D02*
X230708D01*
X229658D01*
Y386615D01*
X231757D02*
X232807D01*
X232282D01*
Y389763D01*
X231757Y389239D01*
X181496Y342652D02*
X178347D01*
Y344227D01*
X178872Y344751D01*
X179921D01*
X180446Y344227D01*
Y342652D01*
Y343702D02*
X181496Y344751D01*
X178872Y345801D02*
X178347Y346326D01*
Y347375D01*
X178872Y347900D01*
X179396D01*
X179921Y347375D01*
Y346850D01*
Y347375D01*
X180446Y347900D01*
X180971D01*
X181496Y347375D01*
Y346326D01*
X180971Y345801D01*
X178872Y348949D02*
X178347Y349474D01*
Y350524D01*
X178872Y351048D01*
X180971D01*
X181496Y350524D01*
Y349474D01*
X180971Y348949D01*
X178872D01*
X194882Y384119D02*
X198031D01*
Y382545D01*
X197506Y382020D01*
X196457D01*
X195932Y382545D01*
Y384119D01*
Y383070D02*
X194882Y382020D01*
Y378872D02*
Y380971D01*
X196982Y378872D01*
X197506D01*
X198031Y379397D01*
Y380446D01*
X197506Y380971D01*
X195407Y377822D02*
X194882Y377297D01*
Y376248D01*
X195407Y375723D01*
X197506D01*
X198031Y376248D01*
Y377297D01*
X197506Y377822D01*
X196982D01*
X196457Y377297D01*
Y375723D01*
X58793Y367192D02*
X58268Y366668D01*
Y365618D01*
X58793Y365093D01*
X60892D01*
X61417Y365618D01*
Y366668D01*
X60892Y367192D01*
X58793Y368242D02*
X58268Y368767D01*
Y369816D01*
X58793Y370341D01*
X59318D01*
X59842Y369816D01*
Y369291D01*
Y369816D01*
X60367Y370341D01*
X60892D01*
X61417Y369816D01*
Y368767D01*
X60892Y368242D01*
X61417Y373489D02*
Y371390D01*
X59318Y373489D01*
X58793D01*
X58268Y372965D01*
Y371915D01*
X58793Y371390D01*
X208399Y377035D02*
X207874Y376510D01*
Y375461D01*
X208399Y374936D01*
X210498D01*
X211023Y375461D01*
Y376510D01*
X210498Y377035D01*
X208399Y378084D02*
X207874Y378609D01*
Y379659D01*
X208399Y380183D01*
X208924D01*
X209449Y379659D01*
Y379134D01*
Y379659D01*
X209974Y380183D01*
X210498D01*
X211023Y379659D01*
Y378609D01*
X210498Y378084D01*
Y381233D02*
X211023Y381758D01*
Y382807D01*
X210498Y383332D01*
X208399D01*
X207874Y382807D01*
Y381758D01*
X208399Y381233D01*
X208924D01*
X209449Y381758D01*
Y383332D01*
X163301Y377161D02*
X162776Y377685D01*
X161727D01*
X161202Y377161D01*
Y375062D01*
X161727Y374537D01*
X162776D01*
X163301Y375062D01*
X164350Y377161D02*
X164875Y377685D01*
X165925D01*
X166449Y377161D01*
Y376636D01*
X165925Y376111D01*
X165400D01*
X165925D01*
X166449Y375587D01*
Y375062D01*
X165925Y374537D01*
X164875D01*
X164350Y375062D01*
X167499Y377685D02*
X169598D01*
Y377161D01*
X167499Y375062D01*
Y374537D01*
X214699Y377035D02*
X214174Y376510D01*
Y375461D01*
X214699Y374936D01*
X216797D01*
X217322Y375461D01*
Y376510D01*
X216797Y377035D01*
X214699Y378084D02*
X214174Y378609D01*
Y379659D01*
X214699Y380183D01*
X215223D01*
X215748Y379659D01*
Y379134D01*
Y379659D01*
X216273Y380183D01*
X216797D01*
X217322Y379659D01*
Y378609D01*
X216797Y378084D01*
X214174Y383332D02*
X214699Y382282D01*
X215748Y381233D01*
X216797D01*
X217322Y381758D01*
Y382807D01*
X216797Y383332D01*
X216273D01*
X215748Y382807D01*
Y381233D01*
X172834Y344227D02*
X169685D01*
Y345801D01*
X170210Y346326D01*
X171260D01*
X171785Y345801D01*
Y344227D01*
Y345277D02*
X172834Y346326D01*
Y349475D02*
Y347376D01*
X170735Y349475D01*
X170210D01*
X169685Y348950D01*
Y347900D01*
X170210Y347376D01*
Y350524D02*
X169685Y351049D01*
Y352099D01*
X170210Y352623D01*
X170735D01*
X171260Y352099D01*
X171785Y352623D01*
X172309D01*
X172834Y352099D01*
Y351049D01*
X172309Y350524D01*
X171785D01*
X171260Y351049D01*
X170735Y350524D01*
X170210D01*
X171260Y351049D02*
Y352099D01*
X178592Y214201D02*
X179116Y214725D01*
Y215775D01*
X178592Y216300D01*
X176493D01*
X175968Y215775D01*
Y214725D01*
X176493Y214201D01*
X178592Y213151D02*
X179116Y212626D01*
Y211577D01*
X178592Y211052D01*
X178067D01*
X177542Y211577D01*
Y212102D01*
Y211577D01*
X177017Y211052D01*
X176493D01*
X175968Y211577D01*
Y212626D01*
X176493Y213151D01*
X179116Y207904D02*
Y210002D01*
X177542D01*
X178067Y208953D01*
Y208428D01*
X177542Y207904D01*
X176493D01*
X175968Y208428D01*
Y209478D01*
X176493Y210002D01*
X171528Y214468D02*
X172052Y214993D01*
Y216042D01*
X171528Y216567D01*
X169428D01*
X168904Y216042D01*
Y214993D01*
X169428Y214468D01*
X171528Y213419D02*
X172052Y212894D01*
Y211844D01*
X171528Y211320D01*
X171003D01*
X170478Y211844D01*
Y212369D01*
Y211844D01*
X169953Y211320D01*
X169428D01*
X168904Y211844D01*
Y212894D01*
X169428Y213419D01*
X171528Y210270D02*
X172052Y209745D01*
Y208696D01*
X171528Y208171D01*
X171003D01*
X170478Y208696D01*
Y209221D01*
Y208696D01*
X169953Y208171D01*
X169428D01*
X168904Y208696D01*
Y209745D01*
X169428Y210270D01*
X150526Y220079D02*
Y223228D01*
X152101D01*
X152625Y222703D01*
Y221654D01*
X152101Y221129D01*
X150526D01*
X151576D02*
X152625Y220079D01*
X155774D02*
X153675D01*
X155774Y222178D01*
Y222703D01*
X155249Y223228D01*
X154200D01*
X153675Y222703D01*
X156824Y223228D02*
X158923D01*
Y222703D01*
X156824Y220604D01*
Y220079D01*
X165290Y84842D02*
Y82218D01*
X165814Y81693D01*
X166864D01*
X167389Y82218D01*
Y84842D01*
X170537D02*
X168438D01*
Y83268D01*
X169488Y83793D01*
X170012D01*
X170537Y83268D01*
Y82218D01*
X170012Y81693D01*
X168963D01*
X168438Y82218D01*
X145251Y85699D02*
Y88848D01*
X146825D01*
X147350Y88323D01*
Y87274D01*
X146825Y86749D01*
X145251D01*
X146301D02*
X147350Y85699D01*
X150499D02*
X148400D01*
X150499Y87798D01*
Y88323D01*
X149974Y88848D01*
X148925D01*
X148400Y88323D01*
X153647Y88848D02*
X152598Y88323D01*
X151548Y87274D01*
Y86224D01*
X152073Y85699D01*
X153123D01*
X153647Y86224D01*
Y86749D01*
X153123Y87274D01*
X151548D01*
X161285Y78936D02*
Y75788D01*
X159710D01*
X159186Y76313D01*
Y77362D01*
X159710Y77887D01*
X161285D01*
X160235D02*
X159186Y78936D01*
X156037D02*
X158136D01*
X156037Y76837D01*
Y76313D01*
X156562Y75788D01*
X157611D01*
X158136Y76313D01*
X152889Y75788D02*
X154988D01*
Y77362D01*
X153938Y76837D01*
X153413D01*
X152889Y77362D01*
Y78412D01*
X153413Y78936D01*
X154463D01*
X154988Y78412D01*
X183596Y84121D02*
X183071Y83597D01*
Y82547D01*
X183596Y82022D01*
X185695D01*
X186220Y82547D01*
Y83597D01*
X185695Y84121D01*
X186220Y87270D02*
Y85171D01*
X184121Y87270D01*
X183596D01*
X183071Y86745D01*
Y85696D01*
X183596Y85171D01*
X183071Y88319D02*
Y90419D01*
X183596D01*
X185695Y88319D01*
X186220D01*
X145902Y63967D02*
X145377Y63442D01*
Y62392D01*
X145902Y61868D01*
X148001D01*
X148526Y62392D01*
Y63442D01*
X148001Y63967D01*
X145377Y67115D02*
X145902Y66066D01*
X146951Y65016D01*
X148001D01*
X148526Y65541D01*
Y66590D01*
X148001Y67115D01*
X147476D01*
X146951Y66590D01*
Y65016D01*
X165747Y216010D02*
X163124D01*
X162599Y215485D01*
Y214435D01*
X163124Y213911D01*
X165747D01*
X162599Y211287D02*
X165747D01*
X164173Y212861D01*
Y210762D01*
X178744Y121694D02*
X176120D01*
X175595Y121169D01*
Y120120D01*
X176120Y119595D01*
X178744D01*
X175595Y116446D02*
Y118545D01*
X177694Y116446D01*
X178219D01*
X178744Y116971D01*
Y118020D01*
X178219Y118545D01*
X140551Y178085D02*
X137402D01*
Y179660D01*
X137927Y180184D01*
X138976D01*
X139501Y179660D01*
Y178085D01*
Y179135D02*
X140551Y180184D01*
Y183333D02*
Y181234D01*
X138452Y183333D01*
X137927D01*
X137402Y182808D01*
Y181759D01*
X137927Y181234D01*
X140551Y185957D02*
X137402D01*
X138976Y184382D01*
Y186482D01*
X155519Y109261D02*
Y112410D01*
X157093D01*
X157618Y111885D01*
Y110836D01*
X157093Y110311D01*
X155519D01*
X156568D02*
X157618Y109261D01*
X160766D02*
X158667D01*
X160766Y111360D01*
Y111885D01*
X160242Y112410D01*
X159192D01*
X158667Y111885D01*
X161816D02*
X162341Y112410D01*
X163390D01*
X163915Y111885D01*
Y111360D01*
X163390Y110836D01*
X162865D01*
X163390D01*
X163915Y110311D01*
Y109786D01*
X163390Y109261D01*
X162341D01*
X161816Y109786D01*
X165996Y94526D02*
Y97675D01*
X167571D01*
X168095Y97150D01*
Y96100D01*
X167571Y95575D01*
X165996D01*
X167046D02*
X168095Y94526D01*
X171244D02*
X169145D01*
X171244Y96625D01*
Y97150D01*
X170719Y97675D01*
X169670D01*
X169145Y97150D01*
X174393Y94526D02*
X172293D01*
X174393Y96625D01*
Y97150D01*
X173868Y97675D01*
X172818D01*
X172293Y97150D01*
X159809Y98053D02*
Y100152D01*
X159284Y100677D01*
X158235D01*
X157710Y100152D01*
Y98053D01*
X158235Y97528D01*
X159284D01*
X158759Y98578D02*
X159809Y97528D01*
X159284D02*
X159809Y98053D01*
X162958Y100677D02*
X160858D01*
Y99102D01*
X161908Y99627D01*
X162433D01*
X162958Y99102D01*
Y98053D01*
X162433Y97528D01*
X161383D01*
X160858Y98053D01*
X155381Y319685D02*
X154331D01*
X154856D01*
Y317061D01*
X154331Y316536D01*
X153806D01*
X153282Y317061D01*
X158529Y316536D02*
X156430D01*
X158529Y318635D01*
Y319160D01*
X158005Y319685D01*
X156955D01*
X156430Y319160D01*
X227232Y28609D02*
X226707Y29133D01*
X225657D01*
X225133Y28609D01*
Y28084D01*
X225657Y27559D01*
X226707D01*
X227232Y27034D01*
Y26509D01*
X226707Y25985D01*
X225657D01*
X225133Y26509D01*
X228281Y29133D02*
Y25985D01*
X229331Y27034D01*
X230380Y25985D01*
Y29133D01*
X231430Y28609D02*
X231955Y29133D01*
X233004D01*
X233529Y28609D01*
Y28084D01*
X233004Y27559D01*
X232479D01*
X233004D01*
X233529Y27034D01*
Y26509D01*
X233004Y25985D01*
X231955D01*
X231430Y26509D01*
X227095Y62710D02*
X226570Y63235D01*
X225521D01*
X224996Y62710D01*
Y60611D01*
X225521Y60087D01*
X226570D01*
X227095Y60611D01*
X229719Y60087D02*
Y63235D01*
X228145Y61661D01*
X230244D01*
X36619Y131559D02*
X39768D01*
Y129984D01*
X39243Y129459D01*
X38194D01*
X37669Y129984D01*
Y131559D01*
Y130509D02*
X36619Y129459D01*
X39768Y128410D02*
Y126311D01*
X39243D01*
X37144Y128410D01*
X36619D01*
X36674Y25867D02*
Y27966D01*
X36149Y28491D01*
X35099D01*
X34574Y27966D01*
Y25867D01*
X35099Y25342D01*
X36149D01*
X35624Y26392D02*
X36674Y25342D01*
X36149D02*
X36674Y25867D01*
X39297Y25342D02*
Y28491D01*
X37723Y26916D01*
X39822D01*
X44191Y65290D02*
X42092D01*
X41568Y64766D01*
Y63716D01*
X42092Y63191D01*
X44191D01*
X44716Y63716D01*
Y64766D01*
X43667Y64241D02*
X44716Y65290D01*
Y64766D02*
X44191Y65290D01*
X42092Y66340D02*
X41568Y66865D01*
Y67914D01*
X42092Y68439D01*
X42617D01*
X43142Y67914D01*
Y67389D01*
Y67914D01*
X43667Y68439D01*
X44191D01*
X44716Y67914D01*
Y66865D01*
X44191Y66340D01*
X29687Y132020D02*
X30212Y132545D01*
Y133595D01*
X29687Y134119D01*
X29162D01*
X28638Y133595D01*
Y132545D01*
X28113Y132020D01*
X27588D01*
X27064Y132545D01*
Y133595D01*
X27588Y134119D01*
X30212Y130971D02*
X27064D01*
X28113Y129921D01*
X27064Y128872D01*
X30212D01*
X27064Y125723D02*
Y127822D01*
X29162Y125723D01*
X29687D01*
X30212Y126248D01*
Y127297D01*
X29687Y127822D01*
X29687Y170866D02*
X30212Y171390D01*
Y172440D01*
X29687Y172965D01*
X29163D01*
X28638Y172440D01*
Y171390D01*
X28113Y170866D01*
X27588D01*
X27064Y171390D01*
Y172440D01*
X27588Y172965D01*
X30212Y169816D02*
X27064D01*
X28113Y168767D01*
X27064Y167717D01*
X30212D01*
X27064Y166667D02*
Y165618D01*
Y166143D01*
X30212D01*
X29687Y166667D01*
X57228Y67672D02*
X54079D01*
X55129Y68721D01*
X54079Y69771D01*
X57228D01*
Y70820D02*
Y71870D01*
Y71345D01*
X54079D01*
X54604Y70820D01*
X68110Y366405D02*
X64961D01*
Y367980D01*
X65486Y368504D01*
X66535D01*
X67060Y367980D01*
Y366405D01*
Y367455D02*
X68110Y368504D01*
Y371653D02*
Y369554D01*
X66011Y371653D01*
X65486D01*
X64961Y371128D01*
Y370079D01*
X65486Y369554D01*
X68110Y372703D02*
Y373752D01*
Y373227D01*
X64961D01*
X65486Y372703D01*
X55906Y288056D02*
X59055D01*
Y286482D01*
X58530Y285957D01*
X57480D01*
X56956Y286482D01*
Y288056D01*
Y287007D02*
X55906Y285957D01*
Y282809D02*
Y284908D01*
X58005Y282809D01*
X58530D01*
X59055Y283333D01*
Y284383D01*
X58530Y284908D01*
Y281759D02*
X59055Y281234D01*
Y280185D01*
X58530Y279660D01*
X56431D01*
X55906Y280185D01*
Y281234D01*
X56431Y281759D01*
X58530D01*
X49213Y287794D02*
X52362D01*
Y286220D01*
X51837Y285695D01*
X50787D01*
X50263Y286220D01*
Y287794D01*
Y286744D02*
X49213Y285695D01*
Y284645D02*
Y283596D01*
Y284121D01*
X52362D01*
X51837Y284645D01*
X49738Y282022D02*
X49213Y281497D01*
Y280447D01*
X49738Y279923D01*
X51837D01*
X52362Y280447D01*
Y281497D01*
X51837Y282022D01*
X51312D01*
X50787Y281497D01*
Y279923D01*
X27954Y304725D02*
Y307874D01*
X29528D01*
X30053Y307349D01*
Y306299D01*
X29528Y305774D01*
X27954D01*
X29004D02*
X30053Y304725D01*
X31103D02*
X32152D01*
X31627D01*
Y307874D01*
X31103Y307349D01*
X33726D02*
X34251Y307874D01*
X35301D01*
X35825Y307349D01*
Y306824D01*
X35301Y306299D01*
X35825Y305774D01*
Y305250D01*
X35301Y304725D01*
X34251D01*
X33726Y305250D01*
Y305774D01*
X34251Y306299D01*
X33726Y306824D01*
Y307349D01*
X34251Y306299D02*
X35301D01*
X27793Y311221D02*
Y314370D01*
X29367D01*
X29892Y313845D01*
Y312795D01*
X29367Y312270D01*
X27793D01*
X28842D02*
X29892Y311221D01*
X30942D02*
X31991D01*
X31466D01*
Y314370D01*
X30942Y313845D01*
X33565Y314370D02*
X35664D01*
Y313845D01*
X33565Y311746D01*
Y311221D01*
X27793Y317126D02*
Y320275D01*
X29367D01*
X29892Y319750D01*
Y318701D01*
X29367Y318176D01*
X27793D01*
X28842D02*
X29892Y317126D01*
X30942D02*
X31991D01*
X31466D01*
Y320275D01*
X30942Y319750D01*
X35664Y320275D02*
X34615Y319750D01*
X33565Y318701D01*
Y317651D01*
X34090Y317126D01*
X35140D01*
X35664Y317651D01*
Y318176D01*
X35140Y318701D01*
X33565D01*
X21718Y323195D02*
Y326343D01*
X23292D01*
X23817Y325818D01*
Y324769D01*
X23292Y324244D01*
X21718D01*
X22768D02*
X23817Y323195D01*
X24867D02*
X25916D01*
X25391D01*
Y326343D01*
X24867Y325818D01*
X29589Y326343D02*
X27490D01*
Y324769D01*
X28540Y325294D01*
X29065D01*
X29589Y324769D01*
Y323719D01*
X29065Y323195D01*
X28015D01*
X27490Y323719D01*
X21781Y328687D02*
Y331836D01*
X23355D01*
X23880Y331311D01*
Y330262D01*
X23355Y329737D01*
X21781D01*
X22831D02*
X23880Y328687D01*
X24930D02*
X25979D01*
X25454D01*
Y331836D01*
X24930Y331311D01*
X29128Y328687D02*
Y331836D01*
X27553Y330262D01*
X29653D01*
X21907Y334559D02*
Y337707D01*
X23482D01*
X24006Y337183D01*
Y336133D01*
X23482Y335608D01*
X21907D01*
X22957D02*
X24006Y334559D01*
X25056D02*
X26105D01*
X25581D01*
Y337707D01*
X25056Y337183D01*
X27680D02*
X28205Y337707D01*
X29254D01*
X29779Y337183D01*
Y336658D01*
X29254Y336133D01*
X28729D01*
X29254D01*
X29779Y335608D01*
Y335084D01*
X29254Y334559D01*
X28205D01*
X27680Y335084D01*
X21781Y340999D02*
Y344147D01*
X23355D01*
X23880Y343622D01*
Y342573D01*
X23355Y342048D01*
X21781D01*
X22831D02*
X23880Y340999D01*
X24930D02*
X25979D01*
X25455D01*
Y344147D01*
X24930Y343622D01*
X29653Y340999D02*
X27553D01*
X29653Y343098D01*
Y343622D01*
X29128Y344147D01*
X28078D01*
X27553Y343622D01*
X21864Y346933D02*
Y350082D01*
X23438D01*
X23963Y349557D01*
Y348508D01*
X23438Y347983D01*
X21864D01*
X22914D02*
X23963Y346933D01*
X25012D02*
X26062D01*
X25537D01*
Y350082D01*
X25012Y349557D01*
X27636Y346933D02*
X28686D01*
X28161D01*
Y350082D01*
X27636Y349557D01*
X112862Y304987D02*
X112337Y305511D01*
X111287D01*
X110763Y304987D01*
Y302888D01*
X111287Y302363D01*
X112337D01*
X112862Y302888D01*
X113911Y304987D02*
X114436Y305511D01*
X115485D01*
X116010Y304987D01*
Y304462D01*
X115485Y303937D01*
X114961D01*
X115485D01*
X116010Y303412D01*
Y302888D01*
X115485Y302363D01*
X114436D01*
X113911Y302888D01*
X118634Y302363D02*
Y305511D01*
X117060Y303937D01*
X119159D01*
X52887Y367323D02*
X52363Y366799D01*
Y365749D01*
X52887Y365224D01*
X54987D01*
X55511Y365749D01*
Y366799D01*
X54987Y367323D01*
X52887Y368373D02*
X52363Y368898D01*
Y369947D01*
X52887Y370472D01*
X53412D01*
X53937Y369947D01*
Y369422D01*
Y369947D01*
X54462Y370472D01*
X54987D01*
X55511Y369947D01*
Y368898D01*
X54987Y368373D01*
X55511Y371521D02*
Y372571D01*
Y372046D01*
X52363D01*
X52887Y371521D01*
X48426Y28609D02*
Y27560D01*
Y28084D01*
X51050D01*
X51574Y27560D01*
Y27035D01*
X51050Y26510D01*
X48426Y29659D02*
Y31758D01*
X48950D01*
X51050Y29659D01*
X51574D01*
X86714Y315709D02*
X83566Y313610D01*
X86714D02*
X83566Y315709D01*
Y312560D02*
Y311511D01*
Y312035D01*
X86714D01*
X86190Y312560D01*
X254331Y91864D02*
X256955D01*
X257480Y92389D01*
Y93439D01*
X256955Y93963D01*
X254331D01*
X254856Y95013D02*
X254331Y95538D01*
Y96587D01*
X254856Y97112D01*
X255381D01*
X255906Y96587D01*
Y96062D01*
Y96587D01*
X256430Y97112D01*
X256955D01*
X257480Y96587D01*
Y95538D01*
X256955Y95013D01*
X51575Y131888D02*
X54724D01*
Y130314D01*
X54199Y129789D01*
X53150D01*
X52625Y130314D01*
Y131888D01*
Y130839D02*
X51575Y129789D01*
Y128740D02*
Y127690D01*
Y128215D01*
X54724D01*
X54199Y128740D01*
Y126116D02*
X54724Y125591D01*
Y124542D01*
X54199Y124017D01*
X52100D01*
X51575Y124542D01*
Y125591D01*
X52100Y126116D01*
X54199D01*
X27558Y98754D02*
X24410D01*
Y100328D01*
X24935Y100853D01*
X25984D01*
X26509Y100328D01*
Y98754D01*
Y99804D02*
X27558Y100853D01*
X27034Y101903D02*
X27558Y102427D01*
Y103477D01*
X27034Y104002D01*
X24935D01*
X24410Y103477D01*
Y102427D01*
X24935Y101903D01*
X25460D01*
X25984Y102427D01*
Y104002D01*
X33070Y73164D02*
X29922D01*
Y74738D01*
X30446Y75263D01*
X31496D01*
X32021Y74738D01*
Y73164D01*
Y74213D02*
X33070Y75263D01*
X30446Y76312D02*
X29922Y76837D01*
Y77886D01*
X30446Y78411D01*
X30971D01*
X31496Y77886D01*
X32021Y78411D01*
X32546D01*
X33070Y77886D01*
Y76837D01*
X32546Y76312D01*
X32021D01*
X31496Y76837D01*
X30971Y76312D01*
X30446D01*
X31496Y76837D02*
Y77886D01*
X114001Y40814D02*
X110853D01*
Y42388D01*
X111377Y42913D01*
X112427D01*
X112952Y42388D01*
Y40814D01*
Y41864D02*
X114001Y42913D01*
X110853Y46062D02*
X111377Y45012D01*
X112427Y43963D01*
X113477D01*
X114001Y44487D01*
Y45537D01*
X113477Y46062D01*
X112952D01*
X112427Y45537D01*
Y43963D01*
X90157Y40683D02*
X87008D01*
Y42258D01*
X87533Y42782D01*
X88583D01*
X89107Y42258D01*
Y40683D01*
Y41733D02*
X90157Y42782D01*
X87008Y45931D02*
Y43832D01*
X88583D01*
X88058Y44881D01*
Y45406D01*
X88583Y45931D01*
X89632D01*
X90157Y45406D01*
Y44357D01*
X89632Y43832D01*
X48415Y179916D02*
X45266D01*
Y181490D01*
X45791Y182015D01*
X46841D01*
X47365Y181490D01*
Y179916D01*
Y180965D02*
X48415Y182015D01*
Y184638D02*
X45266D01*
X46841Y183064D01*
Y185163D01*
X172834Y321786D02*
X169685D01*
Y323360D01*
X170210Y323885D01*
X171260D01*
X171785Y323360D01*
Y321786D01*
Y322835D02*
X172834Y323885D01*
X170210Y324934D02*
X169685Y325459D01*
Y326508D01*
X170210Y327033D01*
X170735D01*
X171260Y326508D01*
Y325984D01*
Y326508D01*
X171785Y327033D01*
X172309D01*
X172834Y326508D01*
Y325459D01*
X172309Y324934D01*
X25099Y45900D02*
Y49049D01*
X26673D01*
X27198Y48524D01*
Y47475D01*
X26673Y46950D01*
X25099D01*
X26149D02*
X27198Y45900D01*
X30347D02*
X28247D01*
X30347Y47999D01*
Y48524D01*
X29822Y49049D01*
X28772D01*
X28247Y48524D01*
X62599Y287532D02*
X65747D01*
Y285958D01*
X65223Y285433D01*
X64173D01*
X63648Y285958D01*
Y287532D01*
Y286483D02*
X62599Y285433D01*
Y284384D02*
Y283334D01*
Y283859D01*
X65747D01*
X65223Y284384D01*
X104444Y43335D02*
Y45434D01*
X103919Y45959D01*
X102869D01*
X102345Y45434D01*
Y43335D01*
X102869Y42811D01*
X103919D01*
X103394Y43860D02*
X104444Y42811D01*
X103919D02*
X104444Y43335D01*
X107592Y42811D02*
X105493D01*
X107592Y44910D01*
Y45434D01*
X107068Y45959D01*
X106018D01*
X105493Y45434D01*
X129921Y43439D02*
Y45538D01*
X129396Y46062D01*
X128347D01*
X127822Y45538D01*
Y43439D01*
X128347Y42914D01*
X129396D01*
X128872Y43963D02*
X129921Y42914D01*
X129396D02*
X129921Y43439D01*
X130971Y42914D02*
X132020D01*
X131496D01*
Y46062D01*
X130971Y45538D01*
X131108Y324906D02*
Y321758D01*
X133207D01*
X136356D02*
X134256D01*
X136356Y323857D01*
Y324382D01*
X135831Y324906D01*
X134781D01*
X134256Y324382D01*
X103544Y346326D02*
X106692D01*
Y348425D01*
Y349475D02*
Y350524D01*
Y349999D01*
X103544D01*
X104069Y349475D01*
X318485Y62605D02*
Y61556D01*
Y62080D01*
X321109D01*
X321633Y61556D01*
Y61031D01*
X321109Y60506D01*
X318485Y65754D02*
X319009Y64704D01*
X320059Y63655D01*
X321109D01*
X321633Y64179D01*
Y65229D01*
X321109Y65754D01*
X320584D01*
X320059Y65229D01*
Y63655D01*
X74672Y29527D02*
X73623D01*
X74147D01*
Y26903D01*
X73623Y26379D01*
X73098D01*
X72573Y26903D01*
X77296Y26379D02*
Y29527D01*
X75722Y27953D01*
X77821D01*
X132647Y290583D02*
X131597D01*
X132122D01*
Y287959D01*
X131597Y287434D01*
X131073D01*
X130548Y287959D01*
X133697Y287434D02*
X134746D01*
X134221D01*
Y290583D01*
X133697Y290058D01*
X25001Y73164D02*
X28149D01*
Y74738D01*
X27624Y75263D01*
X25525D01*
X25001Y74738D01*
Y73164D01*
X28149Y77886D02*
X25001D01*
X26575Y76312D01*
Y78411D01*
X25513Y28534D02*
Y25386D01*
X27088D01*
X27612Y25911D01*
Y28010D01*
X27088Y28534D01*
X25513D01*
X28662Y28010D02*
X29187Y28534D01*
X30236D01*
X30761Y28010D01*
Y27485D01*
X30236Y26960D01*
X29711D01*
X30236D01*
X30761Y26436D01*
Y25911D01*
X30236Y25386D01*
X29187D01*
X28662Y25911D01*
X25062Y54227D02*
Y51078D01*
X26636D01*
X27161Y51603D01*
Y53702D01*
X26636Y54227D01*
X25062D01*
X30310Y51078D02*
X28210D01*
X30310Y53177D01*
Y53702D01*
X29785Y54227D01*
X28735D01*
X28210Y53702D01*
X201641Y49803D02*
Y46654D01*
X203215D01*
X203740Y47179D01*
Y49278D01*
X203215Y49803D01*
X201641D01*
X204790Y46654D02*
X205839D01*
X205314D01*
Y49803D01*
X204790Y49278D01*
X307940Y99475D02*
X307416Y99999D01*
X306366D01*
X305841Y99475D01*
Y97376D01*
X306366Y96851D01*
X307416D01*
X307940Y97376D01*
X308990Y99475D02*
X309515Y99999D01*
X310564D01*
X311089Y99475D01*
Y98950D01*
X310564Y98425D01*
X310039D01*
X310564D01*
X311089Y97900D01*
Y97376D01*
X310564Y96851D01*
X309515D01*
X308990Y97376D01*
X312138Y99475D02*
X312663Y99999D01*
X313713D01*
X314237Y99475D01*
Y97376D01*
X313713Y96851D01*
X312663D01*
X312138Y97376D01*
Y99475D01*
X38094Y181723D02*
X37569Y181198D01*
Y180149D01*
X38094Y179624D01*
X40193D01*
X40718Y180149D01*
Y181198D01*
X40193Y181723D01*
X40718Y184872D02*
Y182773D01*
X38619Y184872D01*
X38094D01*
X37569Y184347D01*
Y183297D01*
X38094Y182773D01*
X40193Y185921D02*
X40718Y186446D01*
Y187496D01*
X40193Y188020D01*
X38094D01*
X37569Y187496D01*
Y186446D01*
X38094Y185921D01*
X38619D01*
X39143Y186446D01*
Y188020D01*
X87874Y282821D02*
X88399Y283346D01*
Y284396D01*
X87874Y284920D01*
X85775D01*
X85250Y284396D01*
Y283346D01*
X85775Y282821D01*
X85250Y279673D02*
Y281772D01*
X87349Y279673D01*
X87874D01*
X88399Y280197D01*
Y281247D01*
X87874Y281772D01*
Y278623D02*
X88399Y278098D01*
Y277049D01*
X87874Y276524D01*
X87349D01*
X86825Y277049D01*
X86300Y276524D01*
X85775D01*
X85250Y277049D01*
Y278098D01*
X85775Y278623D01*
X86300D01*
X86825Y278098D01*
X87349Y278623D01*
X87874D01*
X86825Y278098D02*
Y277049D01*
X151444Y343569D02*
X150919Y344094D01*
X149870D01*
X149345Y343569D01*
Y341470D01*
X149870Y340945D01*
X150919D01*
X151444Y341470D01*
X154593Y340945D02*
X152494D01*
X154593Y343044D01*
Y343569D01*
X154068Y344094D01*
X153019D01*
X152494Y343569D01*
X157741Y344094D02*
X156692Y343569D01*
X155642Y342520D01*
Y341470D01*
X156167Y340945D01*
X157217D01*
X157741Y341470D01*
Y341995D01*
X157217Y342520D01*
X155642D01*
X115618Y354987D02*
X115093Y355511D01*
X114043D01*
X113518Y354987D01*
Y352888D01*
X114043Y352363D01*
X115093D01*
X115618Y352888D01*
X118766Y352363D02*
X116667D01*
X118766Y354462D01*
Y354987D01*
X118241Y355511D01*
X117192D01*
X116667Y354987D01*
X121915Y355511D02*
X119816D01*
Y353937D01*
X120865Y354462D01*
X121390D01*
X121915Y353937D01*
Y352888D01*
X121390Y352363D01*
X120340D01*
X119816Y352888D01*
X155447Y326641D02*
X154922Y326116D01*
Y325067D01*
X155447Y324542D01*
X157546D01*
X158070Y325067D01*
Y326116D01*
X157546Y326641D01*
X158070Y329790D02*
Y327691D01*
X155971Y329790D01*
X155447D01*
X154922Y329265D01*
Y328215D01*
X155447Y327691D01*
X158070Y332414D02*
X154922D01*
X156496Y330839D01*
Y332938D01*
X139874Y314640D02*
X139350Y314115D01*
Y313066D01*
X139874Y312541D01*
X141973D01*
X142498Y313066D01*
Y314115D01*
X141973Y314640D01*
X142498Y317789D02*
Y315690D01*
X140399Y317789D01*
X139874D01*
X139350Y317264D01*
Y316214D01*
X139874Y315690D01*
Y318838D02*
X139350Y319363D01*
Y320413D01*
X139874Y320937D01*
X140399D01*
X140924Y320413D01*
Y319888D01*
Y320413D01*
X141449Y320937D01*
X141973D01*
X142498Y320413D01*
Y319363D01*
X141973Y318838D01*
X143045Y354200D02*
X142520Y353675D01*
Y352626D01*
X143045Y352101D01*
X145144D01*
X145669Y352626D01*
Y353675D01*
X145144Y354200D01*
X145669Y357349D02*
Y355250D01*
X143570Y357349D01*
X143045D01*
X142520Y356824D01*
Y355774D01*
X143045Y355250D01*
X145669Y360497D02*
Y358398D01*
X143570Y360497D01*
X143045D01*
X142520Y359973D01*
Y358923D01*
X143045Y358398D01*
X125163Y314947D02*
X124638Y314422D01*
Y313373D01*
X125163Y312848D01*
X127262D01*
X127787Y313373D01*
Y314422D01*
X127262Y314947D01*
X127787Y318096D02*
Y315997D01*
X125688Y318096D01*
X125163D01*
X124638Y317571D01*
Y316521D01*
X125163Y315997D01*
X127787Y319145D02*
Y320195D01*
Y319670D01*
X124638D01*
X125163Y319145D01*
X113517Y326247D02*
X112993Y325723D01*
Y324673D01*
X113517Y324148D01*
X115617D01*
X116141Y324673D01*
Y325723D01*
X115617Y326247D01*
X116141Y329396D02*
Y327297D01*
X114042Y329396D01*
X113517D01*
X112993Y328871D01*
Y327822D01*
X113517Y327297D01*
Y330446D02*
X112993Y330970D01*
Y332020D01*
X113517Y332545D01*
X115617D01*
X116141Y332020D01*
Y330970D01*
X115617Y330446D01*
X113517D01*
X90683Y344750D02*
X90158Y345275D01*
X89109D01*
X88584Y344750D01*
Y342651D01*
X89109Y342126D01*
X90158D01*
X90683Y342651D01*
X91733Y342126D02*
X92782D01*
X92257D01*
Y345275D01*
X91733Y344750D01*
X94356Y342651D02*
X94881Y342126D01*
X95931D01*
X96455Y342651D01*
Y344750D01*
X95931Y345275D01*
X94881D01*
X94356Y344750D01*
Y344226D01*
X94881Y343701D01*
X96455D01*
X86746Y328215D02*
X86221Y328740D01*
X85172D01*
X84647Y328215D01*
Y326116D01*
X85172Y325591D01*
X86221D01*
X86746Y326116D01*
X87796Y325591D02*
X88845D01*
X88320D01*
Y328740D01*
X87796Y328215D01*
X90419D02*
X90944Y328740D01*
X91994D01*
X92518Y328215D01*
Y327690D01*
X91994Y327165D01*
X92518Y326641D01*
Y326116D01*
X91994Y325591D01*
X90944D01*
X90419Y326116D01*
Y326641D01*
X90944Y327165D01*
X90419Y327690D01*
Y328215D01*
X90944Y327165D02*
X91994D01*
X131234Y352231D02*
X130709Y352755D01*
X129660D01*
X129135Y352231D01*
Y350132D01*
X129660Y349607D01*
X130709D01*
X131234Y350132D01*
X132284Y349607D02*
X133333D01*
X132808D01*
Y352755D01*
X132284Y352231D01*
X134907Y352755D02*
X137007D01*
Y352231D01*
X134907Y350132D01*
Y349607D01*
X47309Y129322D02*
X47834Y129847D01*
Y130896D01*
X47309Y131421D01*
X45210D01*
X44686Y130896D01*
Y129847D01*
X45210Y129322D01*
X44686Y128272D02*
Y127223D01*
Y127748D01*
X47834D01*
X47309Y128272D01*
X47834Y123550D02*
X47309Y124599D01*
X46260Y125649D01*
X45210D01*
X44686Y125124D01*
Y124074D01*
X45210Y123550D01*
X45735D01*
X46260Y124074D01*
Y125649D01*
X80053Y52231D02*
X79528Y52755D01*
X78479D01*
X77954Y52231D01*
Y50132D01*
X78479Y49607D01*
X79528D01*
X80053Y50132D01*
X81103Y49607D02*
X82152D01*
X81627D01*
Y52755D01*
X81103Y52231D01*
X85826Y52755D02*
X83726D01*
Y51181D01*
X84776Y51706D01*
X85301D01*
X85826Y51181D01*
Y50132D01*
X85301Y49607D01*
X84251D01*
X83726Y50132D01*
X80053Y64829D02*
X79528Y65354D01*
X78479D01*
X77954Y64829D01*
Y62730D01*
X78479Y62205D01*
X79528D01*
X80053Y62730D01*
X81103Y62205D02*
X82152D01*
X81627D01*
Y65354D01*
X81103Y64829D01*
X85301Y62205D02*
Y65354D01*
X83726Y63779D01*
X85826D01*
X80053Y58924D02*
X79528Y59448D01*
X78479D01*
X77954Y58924D01*
Y56824D01*
X78479Y56300D01*
X79528D01*
X80053Y56824D01*
X81103Y56300D02*
X82152D01*
X81627D01*
Y59448D01*
X81103Y58924D01*
X83726D02*
X84251Y59448D01*
X85301D01*
X85826Y58924D01*
Y58399D01*
X85301Y57874D01*
X84776D01*
X85301D01*
X85826Y57349D01*
Y56824D01*
X85301Y56300D01*
X84251D01*
X83726Y56824D01*
X72179Y372179D02*
X71654Y371654D01*
Y370605D01*
X72179Y370080D01*
X74278D01*
X74803Y370605D01*
Y371654D01*
X74278Y372179D01*
X74803Y373229D02*
Y374278D01*
Y373753D01*
X71654D01*
X72179Y373229D01*
X74803Y377952D02*
Y375852D01*
X72704Y377952D01*
X72179D01*
X71654Y377427D01*
Y376377D01*
X72179Y375852D01*
X78478Y372310D02*
X77953Y371785D01*
Y370736D01*
X78478Y370211D01*
X80577D01*
X81102Y370736D01*
Y371785D01*
X80577Y372310D01*
X81102Y373360D02*
Y374409D01*
Y373884D01*
X77953D01*
X78478Y373360D01*
X81102Y375984D02*
Y377033D01*
Y376508D01*
X77953D01*
X78478Y375984D01*
X113124Y316010D02*
X112599Y316535D01*
X111550D01*
X111025Y316010D01*
Y313911D01*
X111550Y313386D01*
X112599D01*
X113124Y313911D01*
X114173Y313386D02*
X115223D01*
X114698D01*
Y316535D01*
X114173Y316010D01*
X116797D02*
X117322Y316535D01*
X118372D01*
X118896Y316010D01*
Y313911D01*
X118372Y313386D01*
X117322D01*
X116797Y313911D01*
Y316010D01*
X113255Y321522D02*
X112730Y322047D01*
X111680D01*
X111156Y321522D01*
Y319423D01*
X111680Y318898D01*
X112730D01*
X113255Y319423D01*
X114304D02*
X114829Y318898D01*
X115879D01*
X116403Y319423D01*
Y321522D01*
X115879Y322047D01*
X114829D01*
X114304Y321522D01*
Y320997D01*
X114829Y320472D01*
X116403D01*
X71568Y283005D02*
X72093Y283530D01*
Y284579D01*
X71568Y285104D01*
X69469D01*
X68944Y284579D01*
Y283530D01*
X69469Y283005D01*
X71568Y281956D02*
X72093Y281431D01*
Y280381D01*
X71568Y279857D01*
X71043D01*
X70518Y280381D01*
X69994Y279857D01*
X69469D01*
X68944Y280381D01*
Y281431D01*
X69469Y281956D01*
X69994D01*
X70518Y281431D01*
X71043Y281956D01*
X71568D01*
X70518Y281431D02*
Y280381D01*
X81703Y283005D02*
X82228Y283530D01*
Y284579D01*
X81703Y285104D01*
X79604D01*
X79080Y284579D01*
Y283530D01*
X79604Y283005D01*
X82228Y281956D02*
Y279856D01*
X81703D01*
X79604Y281956D01*
X79080D01*
X94252Y282695D02*
X94776Y283220D01*
Y284269D01*
X94252Y284794D01*
X92153D01*
X91628Y284269D01*
Y283220D01*
X92153Y282695D01*
X94776Y279546D02*
Y281645D01*
X93202D01*
X93727Y280596D01*
Y280071D01*
X93202Y279546D01*
X92153D01*
X91628Y280071D01*
Y281120D01*
X92153Y281645D01*
X258333Y112270D02*
X257809Y112795D01*
X256759D01*
X256235Y112270D01*
Y110171D01*
X256759Y109646D01*
X257809D01*
X258333Y110171D01*
X259383Y112270D02*
X259908Y112795D01*
X260957D01*
X261482Y112270D01*
Y111745D01*
X260957Y111221D01*
X260433D01*
X260957D01*
X261482Y110696D01*
Y110171D01*
X260957Y109646D01*
X259908D01*
X259383Y110171D01*
X279987Y112270D02*
X279462Y112795D01*
X278413D01*
X277888Y112270D01*
Y110171D01*
X278413Y109646D01*
X279462D01*
X279987Y110171D01*
X283136Y109646D02*
X281037D01*
X283136Y111745D01*
Y112270D01*
X282611Y112795D01*
X281561D01*
X281037Y112270D01*
X112992Y310498D02*
X112467Y311023D01*
X111418D01*
X110893Y310498D01*
Y308399D01*
X111418Y307874D01*
X112467D01*
X112992Y308399D01*
X114042Y307874D02*
X115091D01*
X114566D01*
Y311023D01*
X114042Y310498D01*
D11*
X10831Y41086D02*
X9917Y40685D01*
X9133Y40067D01*
X8530Y39272D01*
X8146Y38351D01*
X8006Y37363D01*
X8119Y36371D01*
X8478Y35439D01*
X9059Y34628D01*
X9826Y33989D01*
X10729Y33564D01*
X10831Y66676D02*
X9917Y66275D01*
X9133Y65658D01*
X8530Y64863D01*
X8146Y63941D01*
X8006Y62953D01*
X8119Y61961D01*
X8478Y61030D01*
X9059Y60219D01*
X9826Y59580D01*
X10729Y59154D01*
X10831Y92267D02*
X9917Y91866D01*
X9133Y91248D01*
X8530Y90453D01*
X8146Y89532D01*
X8006Y88544D01*
X8119Y87552D01*
X8478Y86620D01*
X9059Y85809D01*
X9826Y85170D01*
X10729Y84745D01*
X82480Y320093D02*
Y320393D01*
X80480Y318093D02*
X82480Y320093D01*
X80480Y318093D02*
X81679D01*
X81859Y317913D01*
Y318372D01*
X82100D01*
X82480Y318752D01*
X82139Y319093D02*
X82480Y318752D01*
X82139Y318652D02*
Y319093D01*
X81580Y318093D02*
X82139Y318652D01*
X81480Y318193D02*
X81580Y318093D01*
X81480Y318193D02*
Y319093D01*
Y318643D02*
Y319093D01*
Y318643D02*
X81929Y319093D01*
X82139D01*
X81689Y318643D02*
X82139Y319093D01*
X81689Y318402D02*
Y318643D01*
X81379Y318093D02*
X81689Y318402D01*
X80480Y318093D02*
X81379D01*
X80480D02*
X81139D01*
X81480Y318434D01*
Y318868D01*
X81704Y319093D01*
X82480Y319868D02*
Y320243D01*
X81914Y319302D02*
X82480Y319868D01*
X81914Y318877D02*
Y319302D01*
Y318877D02*
X81959Y318922D01*
Y319032D01*
X82239Y318752D01*
Y318234D02*
Y318752D01*
X82018Y318454D02*
X82239Y318234D01*
X82018Y318454D02*
Y318972D01*
X81139Y318093D02*
X82018Y318972D01*
X81139Y318093D02*
X81480Y318434D01*
X80821D02*
X81480D01*
X80821D02*
X80918Y318531D01*
X81143D01*
X81584Y318972D01*
X81809D01*
X82480Y319643D01*
Y319434D02*
Y319643D01*
X82018Y318972D02*
X82480Y319434D01*
X82018Y318972D02*
X82139Y318852D01*
Y318334D02*
Y318852D01*
X162264Y205714D02*
Y206361D01*
X161926Y206700D02*
X162264Y206361D01*
X161494Y206700D02*
X161926D01*
X161494D02*
X162326Y205868D01*
Y205468D02*
Y205868D01*
X161156Y206638D02*
X162326Y205468D01*
X160817Y206638D02*
X161156D01*
X160817D02*
X162402Y205054D01*
Y204724D02*
Y205054D01*
X160433Y206693D02*
X162402Y204724D01*
X160433Y206693D02*
X160433D01*
X162402Y187008D02*
Y206693D01*
X144685Y187008D02*
X162402D01*
X144685D02*
Y206693D01*
X162402D01*
X173228Y114173D02*
Y137795D01*
X125984D02*
X173228D01*
X125984Y114173D02*
Y137795D01*
Y114173D02*
X173228D01*
X173228Y116142D02*
X173228D01*
X171260Y114173D02*
X173228Y116142D01*
X171260Y114173D02*
X171598Y114511D01*
X172944D01*
X172914Y114541D02*
X172944Y114511D01*
X172914Y114541D02*
Y115549D01*
X172144Y114778D02*
X172914Y115549D01*
X172144Y114719D02*
Y114778D01*
Y114719D02*
X172203Y114660D01*
X172648D01*
Y115045D01*
X173003Y115401D01*
X172944D02*
X173003D01*
X172381Y114837D02*
X172944Y115401D01*
X172292Y114837D02*
X172381D01*
X172203Y114926D02*
X172292Y114837D01*
X172203Y114926D02*
X172499D01*
X173240Y115667D01*
X173211D02*
X173240D01*
X173181Y115638D02*
X173211Y115667D01*
X173181Y114512D02*
Y115638D01*
X172944Y114275D02*
X173181Y114512D01*
X172944Y114275D02*
Y114541D01*
X173003Y114600D01*
X115748Y26969D02*
X132283D01*
X115748D02*
Y41142D01*
X132283D01*
Y26969D02*
Y41142D01*
X81596Y316163D02*
Y316565D01*
X81552Y316609D02*
X81596Y316565D01*
X81050Y316609D02*
X81552D01*
X81050D02*
X81775Y315884D01*
Y315806D02*
Y315884D01*
X81776Y303036D02*
Y316681D01*
X65399D02*
X81776D01*
X65399Y303036D02*
Y316681D01*
Y303036D02*
X81776D01*
X92126Y26969D02*
X108661D01*
X92126D02*
Y41142D01*
X108661D01*
Y26969D02*
Y41142D01*
X59055Y67323D02*
X114173D01*
Y121653D01*
X59055D02*
X114173D01*
X59055Y67323D02*
Y121653D01*
X61417Y67323D02*
X61417D01*
X59055Y69685D02*
X61417Y67323D01*
X59055Y69261D02*
Y69685D01*
Y69261D02*
X60901Y67415D01*
Y67397D02*
Y67415D01*
X60723Y67576D02*
X60901Y67397D01*
X60133Y67576D02*
X60723D01*
X59328Y68380D02*
X60133Y67576D01*
X59328Y68380D02*
Y68845D01*
X60347Y67826D01*
Y67737D02*
Y67826D01*
X60168Y67558D02*
X60347Y67737D01*
X59704Y67558D02*
X60168D01*
X59650Y67611D02*
X59704Y67558D01*
X59436Y67611D02*
X59650D01*
X59293D02*
X59436D01*
X59293D02*
X59346Y67665D01*
Y68434D01*
X59597Y68183D01*
Y67844D02*
Y68183D01*
Y67844D02*
X59614D01*
X59704Y67754D01*
X60097D01*
X59382Y68470D02*
X60097Y67754D01*
X39644Y56770D02*
X39961Y57087D01*
X39644Y56222D02*
Y56770D01*
Y55905D02*
Y56222D01*
X39212Y56338D02*
X39644Y55905D01*
X39212Y55924D02*
Y56338D01*
X38780Y55905D02*
X39961Y57087D01*
X25000Y55905D02*
Y70079D01*
Y55905D02*
X39961D01*
Y70079D01*
X25000D02*
X39961D01*
X25000Y44488D02*
X39961D01*
Y30315D02*
Y44488D01*
X25000Y30315D02*
X39961D01*
X25000D02*
Y44488D01*
X38780Y30315D02*
X39961Y31496D01*
X39212Y30333D02*
Y30747D01*
X39644Y30315D01*
Y30631D01*
Y31180D01*
X39961Y31496D01*
X10827Y41101D02*
Y46260D01*
X17063D01*
Y28543D02*
Y46260D01*
X16234Y28604D02*
X16250D01*
X16985Y29338D01*
Y28932D02*
Y29338D01*
X16844Y28791D02*
X16985Y28932D01*
X16703Y28791D02*
X16844D01*
X10729Y28543D02*
Y33564D01*
Y28543D02*
X17063D01*
X10827Y66691D02*
Y71850D01*
X17063D01*
Y54134D02*
Y71850D01*
X16234Y54194D02*
X16250D01*
X16985Y54929D01*
Y54522D02*
Y54929D01*
X16844Y54382D02*
X16985Y54522D01*
X16703Y54382D02*
X16844D01*
X10729Y54134D02*
Y59154D01*
Y54134D02*
X17063D01*
X10827Y92282D02*
Y97441D01*
X17063D01*
Y79724D02*
Y97441D01*
X16234Y79785D02*
X16250D01*
X16985Y80520D01*
Y80113D02*
Y80520D01*
X16844Y79972D02*
X16985Y80113D01*
X16703Y79972D02*
X16844D01*
X10729Y79724D02*
Y84745D01*
Y79724D02*
X17063D01*
X142693Y195079D02*
Y198622D01*
X136788Y195079D02*
Y198622D01*
X156138Y97083D02*
Y106925D01*
X144327D02*
X156138D01*
X144327Y97083D02*
Y106925D01*
Y97083D02*
X156138D01*
X155154D02*
X156138Y98067D01*
X155154Y97083D02*
X155431D01*
X155832Y97483D01*
Y97448D02*
Y97483D01*
Y97448D02*
X155950Y97330D01*
X6842Y155295D02*
Y183287D01*
X19780D01*
X6842Y155295D02*
X19780D01*
X31591Y183287D02*
X31630D01*
X31591Y155295D02*
X31630D01*
Y183287D01*
X6842Y115925D02*
Y143917D01*
X19780D01*
X6842Y115925D02*
X19780D01*
X31591Y143917D02*
X31630D01*
X31591Y115925D02*
X31630D01*
Y143917D01*
X152832Y281502D02*
Y314967D01*
X186297Y281502D02*
Y314967D01*
X152832D02*
X186297D01*
X152832Y281502D02*
X186297D01*
X359082Y23807D02*
X359113Y23838D01*
Y23838D01*
X358769Y23494D02*
X359113Y23838D01*
X358362Y23494D02*
X358769D01*
X358362D02*
X359144Y24276D01*
Y24573D01*
X358221Y23651D02*
X359144Y24573D01*
X357407Y23651D02*
X358221D01*
X357407D02*
X359019Y25262D01*
Y25528D01*
X357251Y23760D02*
X359019Y25528D01*
X357251Y23541D02*
Y23760D01*
X357141Y23431D02*
X357251Y23541D01*
X357141Y23431D02*
Y23870D01*
X356513Y23370D02*
X359218Y26076D01*
X356513Y23370D02*
X357613D01*
X359213Y24970D01*
Y25570D01*
X239213Y23327D02*
X359213D01*
X239213D02*
Y55413D01*
X359213D01*
Y23327D02*
Y55413D01*
X152559Y139764D02*
Y139764D01*
X160433Y147638D01*
X160433D01*
X168307Y139764D01*
X176181Y147638D01*
X184055Y139764D01*
X152559Y187008D02*
X160433Y179134D01*
Y179134D02*
Y179134D01*
Y179134D02*
X168307Y187008D01*
X176181Y179134D01*
Y179134D02*
Y179134D01*
Y179134D02*
X184055Y187008D01*
Y124016D02*
Y202756D01*
Y124016D02*
X282480D01*
Y202756D01*
X184055D02*
X282480D01*
X144685Y187008D02*
X184055D01*
X144685Y179134D02*
Y187008D01*
Y179134D02*
X184055D01*
X144685Y147638D02*
X184055D01*
X144685Y139764D02*
Y147638D01*
Y139764D02*
X184055D01*
X199606Y19685D02*
Y24213D01*
X233465D01*
Y19685D02*
Y24213D01*
X199606Y7283D02*
Y11811D01*
Y7283D02*
X233465D01*
Y11811D01*
D12*
X136063Y19685D02*
X135276D01*
X136063D01*
X277710Y89008D02*
X281647D01*
X254088D02*
X258025D01*
X254088Y74244D02*
Y89008D01*
X281647Y74244D02*
Y89008D01*
X231102Y30858D02*
Y44638D01*
X201181D02*
X231102D01*
X201181Y30858D02*
Y44638D01*
Y30858D02*
X231102D01*
X183248Y333858D02*
Y351181D01*
X192520D01*
X200394D02*
X209665D01*
Y333858D02*
Y351181D01*
X190157Y323465D02*
X202756D01*
D13*
X324114Y125984D02*
X387795D01*
X324114D02*
Y188976D01*
X387795D01*
Y125984D02*
Y188976D01*
X324114Y59055D02*
X387795D01*
X324114D02*
Y122047D01*
X387795D01*
Y59055D02*
Y122047D01*
X73110Y14685D02*
X133110D01*
X73110Y24685D02*
X133110D01*
Y14685D02*
Y24685D01*
X73110Y14685D02*
Y24685D01*
D14*
X55000Y317913D02*
Y345472D01*
X82559D01*
Y317913D02*
Y345472D01*
X55000Y317913D02*
X82559D01*
X165853Y79337D02*
X180617D01*
Y67526D02*
Y79337D01*
X164869Y67526D02*
X180617D01*
X164869D02*
Y79337D01*
X165853D01*
X164869Y77368D02*
X164869D01*
X166838Y79337D01*
X166426D02*
X166838D01*
X164952Y77864D02*
X166426Y79337D01*
X164952Y77864D02*
Y78280D01*
X165883Y79211D01*
X165530D02*
X165883D01*
X164985Y78665D02*
X165530Y79211D01*
X164985Y78665D02*
Y79051D01*
X165049Y79115D01*
X165787D01*
X53150Y24803D02*
Y32677D01*
Y24803D02*
X68898D01*
Y32677D01*
X53150D02*
X68898D01*
X128740Y285039D02*
Y292913D01*
X112992D02*
X128740D01*
X112992Y285039D02*
Y292913D01*
Y285039D02*
X128740D01*
X163591Y228142D02*
Y234642D01*
X144091Y228142D02*
X163591D01*
X137591Y234642D02*
X144091Y228142D01*
X163591Y247642D02*
Y254142D01*
X144091D02*
X163591D01*
X137591Y247642D02*
X144091Y254142D01*
X304706Y94921D02*
X311206D01*
Y75421D02*
Y94921D01*
X304706Y68921D02*
X311206Y75421D01*
X285206Y94921D02*
X291706D01*
X285206Y75421D02*
Y94921D01*
Y75421D02*
X291706Y68921D01*
X223872Y65590D02*
X230372D01*
X223872D02*
Y85090D01*
X230372Y91590D01*
X243372Y65590D02*
X249872D01*
Y85090D01*
X243372Y91590D02*
X249872Y85090D01*
X133743Y251740D02*
X137742D01*
X135742Y253740D02*
Y249741D01*
X287608Y65073D02*
Y69072D01*
X285608Y67073D02*
X289607D01*
X247470Y95438D02*
Y91439D01*
X249470Y93438D02*
X245471D01*
D15*
X122110Y185911D02*
X123915Y187715D01*
Y189444D01*
X120180Y185709D02*
X123915Y189444D01*
X118514Y185709D02*
X120180D01*
X118514D02*
X124016Y191210D01*
Y192598D01*
X59055Y185709D02*
Y264449D01*
X124016D01*
X59055Y185709D02*
X124016D01*
Y264449D01*
M02*
