G04*
G04 #@! TF.GenerationSoftware,Altium Limited,Altium Designer,24.5.2 (23)*
G04*
G04 Layer_Color=32768*
%FSLAX25Y25*%
%MOIN*%
G70*
G04*
G04 #@! TF.SameCoordinates,B46FEEB2-3EEE-4911-894C-B78D551571A6*
G04*
G04*
G04 #@! TF.FilePolarity,Positive*
G04*
G01*
G75*
%ADD109C,0.02362*%
%ADD112C,0.03937*%
%ADD121C,0.03150*%
D109*
X23622Y390748D02*
D03*
X26575D02*
D03*
X29528D02*
D03*
X32480D02*
D03*
X35433D02*
D03*
X38386D02*
D03*
X41339D02*
D03*
X44291D02*
D03*
X47244D02*
D03*
X50197D02*
D03*
X53150D02*
D03*
X56102D02*
D03*
X59055D02*
D03*
X62008D02*
D03*
X64961D02*
D03*
X2953Y269685D02*
D03*
X67913Y390748D02*
D03*
X70866D02*
D03*
X73819D02*
D03*
X76772D02*
D03*
X79724D02*
D03*
X82677D02*
D03*
X85630D02*
D03*
X88583D02*
D03*
X91535D02*
D03*
X94488D02*
D03*
X97441D02*
D03*
X100394D02*
D03*
X103347D02*
D03*
X106299D02*
D03*
X109252Y2953D02*
D03*
X112205D02*
D03*
X115157D02*
D03*
X118110D02*
D03*
X121063D02*
D03*
X124016D02*
D03*
X126969D02*
D03*
X129921D02*
D03*
X132874D02*
D03*
X135827D02*
D03*
X138779D02*
D03*
X141732D02*
D03*
X144685D02*
D03*
X147638D02*
D03*
X150591D02*
D03*
X153543D02*
D03*
X218504D02*
D03*
X156496D02*
D03*
X159449D02*
D03*
X162402D02*
D03*
X212598D02*
D03*
X245079D02*
D03*
X191929D02*
D03*
X239173D02*
D03*
X197835D02*
D03*
X248031D02*
D03*
X188976D02*
D03*
X230315D02*
D03*
X283465D02*
D03*
X227362D02*
D03*
X280512D02*
D03*
X277559D02*
D03*
X256890D02*
D03*
X177165D02*
D03*
X186024D02*
D03*
X224409D02*
D03*
X183071D02*
D03*
X236221D02*
D03*
X262795D02*
D03*
X250984D02*
D03*
X200787D02*
D03*
X171260D02*
D03*
X174213D02*
D03*
X168307D02*
D03*
X165354D02*
D03*
X265748D02*
D03*
X259842D02*
D03*
X180118D02*
D03*
X194882D02*
D03*
X203740D02*
D03*
X206693D02*
D03*
X209646D02*
D03*
X215551D02*
D03*
X221457D02*
D03*
X242126D02*
D03*
X233268D02*
D03*
X253937D02*
D03*
X271654D02*
D03*
X268701D02*
D03*
X274606D02*
D03*
X286417D02*
D03*
X289370D02*
D03*
X307087D02*
D03*
X312992D02*
D03*
X315945D02*
D03*
X292323D02*
D03*
X295276D02*
D03*
X318898D02*
D03*
X301181D02*
D03*
X304134D02*
D03*
X298228D02*
D03*
X330709D02*
D03*
X310039D02*
D03*
X321850D02*
D03*
X324803D02*
D03*
X327756D02*
D03*
X336614D02*
D03*
X333661D02*
D03*
X339567D02*
D03*
X342520D02*
D03*
X345472D02*
D03*
X348425D02*
D03*
X351378D02*
D03*
X354331D02*
D03*
X357283D02*
D03*
X360236D02*
D03*
X363189D02*
D03*
X366142D02*
D03*
X369094D02*
D03*
X390748Y24606D02*
D03*
Y27559D02*
D03*
Y30512D02*
D03*
Y33465D02*
D03*
Y36417D02*
D03*
Y39370D02*
D03*
Y42323D02*
D03*
Y45276D02*
D03*
Y48228D02*
D03*
Y51181D02*
D03*
Y54134D02*
D03*
Y57087D02*
D03*
Y60039D02*
D03*
Y62992D02*
D03*
Y65945D02*
D03*
Y68898D02*
D03*
Y71850D02*
D03*
Y74803D02*
D03*
Y77756D02*
D03*
Y80709D02*
D03*
Y83661D02*
D03*
Y86614D02*
D03*
Y89567D02*
D03*
Y92520D02*
D03*
Y95472D02*
D03*
Y98425D02*
D03*
X390748Y169291D02*
D03*
Y172244D02*
D03*
Y175197D02*
D03*
Y178150D02*
D03*
Y181102D02*
D03*
Y184055D02*
D03*
Y187008D02*
D03*
X390748Y189961D02*
D03*
Y192913D02*
D03*
Y195866D02*
D03*
Y198819D02*
D03*
Y201772D02*
D03*
X390748Y101378D02*
D03*
Y104331D02*
D03*
Y107283D02*
D03*
Y110236D02*
D03*
Y113189D02*
D03*
Y116142D02*
D03*
Y119095D02*
D03*
Y122047D02*
D03*
Y125000D02*
D03*
Y127953D02*
D03*
Y130905D02*
D03*
Y133858D02*
D03*
Y136811D02*
D03*
Y139764D02*
D03*
Y142717D02*
D03*
Y145669D02*
D03*
Y148622D02*
D03*
Y151575D02*
D03*
Y154528D02*
D03*
Y157480D02*
D03*
Y160433D02*
D03*
Y163386D02*
D03*
Y166339D02*
D03*
X144685Y390748D02*
D03*
X109252D02*
D03*
X121063D02*
D03*
X118110D02*
D03*
X132874D02*
D03*
X141732D02*
D03*
X153543D02*
D03*
X112205D02*
D03*
X115157D02*
D03*
X138779D02*
D03*
X135827D02*
D03*
X126969D02*
D03*
X124016D02*
D03*
X129921D02*
D03*
X147638D02*
D03*
X150591D02*
D03*
X156496D02*
D03*
X159449D02*
D03*
X162402D02*
D03*
X165354D02*
D03*
X197835D02*
D03*
X191929D02*
D03*
X188976D02*
D03*
X186024D02*
D03*
X183071D02*
D03*
X180118D02*
D03*
X171260D02*
D03*
X177165D02*
D03*
X206693D02*
D03*
X168307D02*
D03*
X174213D02*
D03*
X194882D02*
D03*
X203740D02*
D03*
X200787D02*
D03*
X2953Y352362D02*
D03*
Y302165D02*
D03*
Y355315D02*
D03*
Y349410D02*
D03*
Y305118D02*
D03*
Y308071D02*
D03*
Y313976D02*
D03*
Y328740D02*
D03*
Y319882D02*
D03*
Y322835D02*
D03*
Y358268D02*
D03*
Y361221D02*
D03*
Y364173D02*
D03*
Y325787D02*
D03*
Y367126D02*
D03*
Y316929D02*
D03*
Y60039D02*
D03*
Y2953D02*
D03*
Y24606D02*
D03*
Y57087D02*
D03*
Y54134D02*
D03*
Y27559D02*
D03*
Y51181D02*
D03*
Y39370D02*
D03*
Y36417D02*
D03*
Y33465D02*
D03*
Y30512D02*
D03*
Y42323D02*
D03*
Y65945D02*
D03*
Y45276D02*
D03*
Y62992D02*
D03*
Y48228D02*
D03*
Y68898D02*
D03*
Y71850D02*
D03*
Y74803D02*
D03*
Y77756D02*
D03*
Y80709D02*
D03*
Y83661D02*
D03*
Y86614D02*
D03*
Y89567D02*
D03*
Y92520D02*
D03*
Y95472D02*
D03*
Y98425D02*
D03*
Y101378D02*
D03*
Y104331D02*
D03*
Y107283D02*
D03*
Y110236D02*
D03*
Y113189D02*
D03*
Y116142D02*
D03*
Y119095D02*
D03*
Y122047D02*
D03*
Y125000D02*
D03*
Y145669D02*
D03*
Y154528D02*
D03*
Y157480D02*
D03*
Y148622D02*
D03*
Y160433D02*
D03*
Y163386D02*
D03*
Y166339D02*
D03*
Y181102D02*
D03*
Y133858D02*
D03*
Y172244D02*
D03*
Y175197D02*
D03*
Y178150D02*
D03*
Y130905D02*
D03*
Y127953D02*
D03*
Y139764D02*
D03*
Y169291D02*
D03*
Y142717D02*
D03*
Y136811D02*
D03*
Y151575D02*
D03*
X62008Y2953D02*
D03*
X64961D02*
D03*
X67913D02*
D03*
X70866D02*
D03*
X73819D02*
D03*
X76772D02*
D03*
X79724D02*
D03*
X82677D02*
D03*
X85630D02*
D03*
X88583D02*
D03*
X91535D02*
D03*
X94488D02*
D03*
X97441D02*
D03*
X100394D02*
D03*
X103347D02*
D03*
X106299D02*
D03*
X2953Y225394D02*
D03*
Y184055D02*
D03*
Y187008D02*
D03*
Y189961D02*
D03*
Y192913D02*
D03*
Y195866D02*
D03*
Y198819D02*
D03*
Y201772D02*
D03*
Y204724D02*
D03*
Y207677D02*
D03*
Y210630D02*
D03*
Y213583D02*
D03*
Y216535D02*
D03*
Y219488D02*
D03*
Y222441D02*
D03*
Y228346D02*
D03*
Y231299D02*
D03*
Y234252D02*
D03*
Y237205D02*
D03*
Y240158D02*
D03*
Y243110D02*
D03*
Y246063D02*
D03*
Y249016D02*
D03*
Y251969D02*
D03*
Y254921D02*
D03*
Y257874D02*
D03*
Y260827D02*
D03*
Y263779D02*
D03*
Y266732D02*
D03*
Y272638D02*
D03*
Y275590D02*
D03*
Y278543D02*
D03*
Y281496D02*
D03*
Y284449D02*
D03*
Y287402D02*
D03*
Y290354D02*
D03*
Y293307D02*
D03*
Y296260D02*
D03*
Y299213D02*
D03*
Y370079D02*
D03*
Y343504D02*
D03*
Y340551D02*
D03*
Y337598D02*
D03*
Y334646D02*
D03*
Y331693D02*
D03*
Y311024D02*
D03*
Y346457D02*
D03*
X26575Y2953D02*
D03*
X29528D02*
D03*
X32480D02*
D03*
X35433D02*
D03*
X38386D02*
D03*
X41339D02*
D03*
X44291D02*
D03*
X47244D02*
D03*
X50197D02*
D03*
X53150D02*
D03*
X56102D02*
D03*
X58784Y2979D02*
D03*
X23622Y2953D02*
D03*
X20669D02*
D03*
X17717D02*
D03*
X14764D02*
D03*
X11811D02*
D03*
X8858D02*
D03*
X5906D02*
D03*
X2953Y8858D02*
D03*
Y11811D02*
D03*
Y14764D02*
D03*
Y5906D02*
D03*
Y17717D02*
D03*
Y20669D02*
D03*
X372047Y2953D02*
D03*
X375000D02*
D03*
X377953D02*
D03*
X380906D02*
D03*
X383858D02*
D03*
X386811D02*
D03*
X390748Y21654D02*
D03*
Y18701D02*
D03*
Y15748D02*
D03*
Y12795D02*
D03*
Y9843D02*
D03*
Y6890D02*
D03*
X2953Y373031D02*
D03*
Y375984D02*
D03*
Y378937D02*
D03*
Y381890D02*
D03*
Y384842D02*
D03*
Y387795D02*
D03*
Y390748D02*
D03*
X5906D02*
D03*
X8858D02*
D03*
X11811D02*
D03*
X14764D02*
D03*
X17717D02*
D03*
X20669D02*
D03*
X390170Y3384D02*
D03*
D112*
X63763Y310548D02*
D03*
X73294Y366560D02*
D03*
X79945Y366586D02*
D03*
X190920Y70760D02*
D03*
X125000Y51181D02*
D03*
X118110Y81496D02*
D03*
Y89764D02*
D03*
Y96063D02*
D03*
X178792Y101786D02*
D03*
X172244Y204724D02*
D03*
X118110Y106961D02*
D03*
X178946Y109413D02*
D03*
X118110Y114567D02*
D03*
X112205Y137795D02*
D03*
X139764Y143701D02*
D03*
X133858D02*
D03*
X122047Y147638D02*
D03*
X139764Y151575D02*
D03*
X133858D02*
D03*
X124016Y170079D02*
D03*
X246063Y68898D02*
D03*
X252953D02*
D03*
X214067Y73805D02*
D03*
X219972D02*
D03*
X226878D02*
D03*
X252481Y74668D02*
D03*
X246063Y74803D02*
D03*
X214567Y86614D02*
D03*
X220472D02*
D03*
X227134Y94073D02*
D03*
X214567Y94488D02*
D03*
X220472D02*
D03*
X227362Y101378D02*
D03*
X248031D02*
D03*
X234252D02*
D03*
X241142D02*
D03*
X269343Y105723D02*
D03*
X315945Y81693D02*
D03*
X309055D02*
D03*
X315945Y87598D02*
D03*
X309055D02*
D03*
X315945Y93504D02*
D03*
X309055D02*
D03*
X172110Y187572D02*
D03*
X152559Y208661D02*
D03*
X144095Y215748D02*
D03*
X165748Y204724D02*
D03*
X173020Y234733D02*
D03*
Y240639D02*
D03*
Y246545D02*
D03*
X212857Y352008D02*
D03*
X203150Y358268D02*
D03*
X209449D02*
D03*
X20127Y39011D02*
D03*
X53150Y13780D02*
D03*
X60039D02*
D03*
X66929D02*
D03*
X29528Y86614D02*
D03*
X34631Y47426D02*
D03*
X34687Y109992D02*
D03*
X35433Y101671D02*
D03*
X45276Y33858D02*
D03*
X46850Y58268D02*
D03*
X52756Y37795D02*
D03*
Y43701D02*
D03*
X53150Y19685D02*
D03*
Y169291D02*
D03*
X59646Y37795D02*
D03*
Y43701D02*
D03*
X60039Y19685D02*
D03*
Y142717D02*
D03*
Y135827D02*
D03*
X62420Y51073D02*
D03*
X62479Y63716D02*
D03*
X62537Y57657D02*
D03*
X66535Y37795D02*
D03*
Y43701D02*
D03*
X66929Y19685D02*
D03*
X74669Y128931D02*
D03*
X81481Y129206D02*
D03*
X95607Y62992D02*
D03*
X102362D02*
D03*
X104766Y27762D02*
D03*
X105905Y125591D02*
D03*
X34208Y348421D02*
D03*
X34252Y324410D02*
D03*
Y336221D02*
D03*
Y342324D02*
D03*
X47004Y354327D02*
D03*
X47988Y361217D02*
D03*
X70619Y289049D02*
D03*
X80669Y288976D02*
D03*
X83465Y336036D02*
D03*
X86980Y288896D02*
D03*
X87358Y359248D02*
D03*
X93270Y289149D02*
D03*
X98441Y301027D02*
D03*
X103150Y295866D02*
D03*
Y288976D02*
D03*
Y282087D02*
D03*
X107989Y318894D02*
D03*
X108027Y324799D02*
D03*
Y312988D02*
D03*
Y306099D02*
D03*
X109055Y282087D02*
D03*
Y288976D02*
D03*
Y295866D02*
D03*
X120866Y324410D02*
D03*
X144427D02*
D03*
X150735D02*
D03*
X121317Y342515D02*
D03*
X156949Y354327D02*
D03*
D121*
X75658Y300549D02*
D03*
M02*
