G04*
G04 #@! TF.GenerationSoftware,Altium Limited,Altium Designer,24.5.2 (23)*
G04*
G04 Layer_Color=255*
%FSLAX25Y25*%
%MOIN*%
G70*
G04*
G04 #@! TF.SameCoordinates,B46FEEB2-3EEE-4911-894C-B78D551571A6*
G04*
G04*
G04 #@! TF.FilePolarity,Positive*
G04*
G01*
G75*
%ADD16R,0.02480X0.02480*%
%ADD17R,0.01968X0.01968*%
%ADD19R,0.04724X0.01575*%
%ADD20R,0.02362X0.04724*%
%ADD21R,0.04724X0.08661*%
%ADD22R,0.13780X0.08661*%
%ADD23R,0.07480X0.05906*%
%ADD24R,0.05512X0.03937*%
%ADD25R,0.03937X0.05591*%
%ADD26R,0.05512X0.04724*%
%ADD27R,0.13780X0.07284*%
%ADD28R,0.07284X0.13780*%
%ADD29R,0.03937X0.03543*%
%ADD30R,0.04016X0.03701*%
%ADD31R,0.03701X0.04016*%
%ADD32R,0.03543X0.03937*%
%ADD33R,0.03996X0.10000*%
%ADD34R,0.10000X0.03996*%
%ADD35R,0.09252X0.06102*%
%ADD36R,0.01575X0.03150*%
%ADD37R,0.03150X0.01575*%
%ADD38R,0.04685X0.12992*%
%ADD39R,0.04331X0.02559*%
%ADD40R,0.06693X0.04528*%
%ADD41R,0.01937X0.01181*%
%ADD42R,0.01102X0.03347*%
%ADD43R,0.03347X0.01102*%
%ADD97R,0.13583X0.13583*%
%AMCUSTOMSHAPE98*
4,1,61,0.07874,-0.07874,0.07874,-0.03937,0.06890,-0.03937,0.06890,-0.01968,0.07874,-0.01968,0.07874,0.01968,0.06890,0.01968,0.06890,0.03937,0.07874,0.03937,0.07874,0.07874,0.03937,0.07874,0.03937,0.06890,0.01968,0.06890,0.01968,0.07874,-0.01968,0.07874,-0.01968,0.06890,-0.03937,0.06890,-0.03937,0.07874,-0.07874,0.07874,-0.07874,0.03937,-0.06890,0.03937,-0.06890,0.01968,-0.07874,0.01968,-0.07874,-0.01968,-0.06890,-0.01968,-0.06890,-0.03937,-0.07874,-0.03937,-0.07874,-0.05906,-0.05906,-0.07874,-0.03937,-0.07874,-0.03937,-0.03937,-0.04921,-0.03937,-0.04921,-0.01968,-0.03937,-0.01968,-0.03937,0.01968,-0.04921,0.01968,-0.04921,0.03937,-0.03937,0.03937,-0.03937,0.04921,-0.01968,0.04921,-0.01968,0.03937,-0.00984,0.03937,-0.00984,0.01968,-0.01968,0.01968,-0.01968,-0.01968,0.01968,-0.01968,0.01968,0.01968,0.00984,0.01968,0.00984,0.03937,0.01968,0.03937,0.01968,0.04921,0.03937,0.04921,0.03937,0.03937,0.04921,0.03937,0.04921,0.01968,0.03937,0.01968,0.03937,-0.01968,0.04921,-0.01968,0.04921,-0.03937,0.03937,-0.03937,0.03937,-0.07874,0.07874,-0.07874,0.0*%
%ADD98CUSTOMSHAPE98*%

%ADD106R,0.04992X0.04992*%
%ADD107C,0.04992*%
%ADD108C,0.14173*%
%ADD109C,0.02362*%
%ADD110C,0.07677*%
%ADD111C,0.06063*%
%ADD112C,0.03937*%
%ADD113C,0.09449*%
%ADD114C,0.08858*%
%ADD115C,0.05118*%
%ADD116R,0.07677X0.07677*%
%ADD117C,0.04803*%
%ADD118R,0.04803X0.04803*%
%ADD119C,0.05906*%
D16*
X191420Y33053D02*
D03*
D17*
X182607Y33321D02*
D03*
D19*
X176483Y75990D02*
D03*
Y70872D02*
D03*
X169003D02*
D03*
Y73431D02*
D03*
Y75990D02*
D03*
D20*
X157283Y191929D02*
D03*
X149803D02*
D03*
Y201772D02*
D03*
X153543D02*
D03*
X157283D02*
D03*
D21*
X258813Y68929D02*
D03*
X267868D02*
D03*
X276923D02*
D03*
D22*
X267868Y93338D02*
D03*
D23*
X131890Y120984D02*
D03*
Y130984D02*
D03*
X167323D02*
D03*
Y120984D02*
D03*
D24*
X128347Y34055D02*
D03*
X119685Y30315D02*
D03*
Y37795D02*
D03*
X104724Y34055D02*
D03*
X96063Y30315D02*
D03*
Y37795D02*
D03*
D25*
X56102Y28740D02*
D03*
X65945D02*
D03*
X125787Y288976D02*
D03*
X115945D02*
D03*
D26*
X77953Y306445D02*
D03*
X69291D02*
D03*
Y313138D02*
D03*
X77953D02*
D03*
D27*
X161024Y241142D02*
D03*
X140157D02*
D03*
D28*
X298206Y92354D02*
D03*
Y71488D02*
D03*
X236872Y68157D02*
D03*
Y89023D02*
D03*
D29*
X59881Y361024D02*
D03*
Y354331D02*
D03*
X53815Y361024D02*
D03*
Y354331D02*
D03*
X87008Y300197D02*
D03*
Y293504D02*
D03*
X150773Y336024D02*
D03*
Y329331D02*
D03*
X144342Y336030D02*
D03*
Y329337D02*
D03*
Y348406D02*
D03*
Y341714D02*
D03*
X120888Y329337D02*
D03*
Y336030D02*
D03*
X114606Y342717D02*
D03*
Y336024D02*
D03*
X73304Y361024D02*
D03*
Y354331D02*
D03*
X79997Y361024D02*
D03*
Y354331D02*
D03*
X70472Y300197D02*
D03*
Y293504D02*
D03*
X80709Y300197D02*
D03*
Y293504D02*
D03*
X93307Y300197D02*
D03*
Y293504D02*
D03*
X45840Y142717D02*
D03*
Y136024D02*
D03*
X39370Y175591D02*
D03*
Y168898D02*
D03*
X185008Y77362D02*
D03*
Y70669D02*
D03*
X216142Y363976D02*
D03*
Y370669D02*
D03*
X209452Y370669D02*
D03*
Y363976D02*
D03*
X187057Y370669D02*
D03*
Y363976D02*
D03*
X203143Y363976D02*
D03*
Y370669D02*
D03*
X166535Y363976D02*
D03*
Y370669D02*
D03*
X172047Y191929D02*
D03*
Y198622D02*
D03*
X165748Y191929D02*
D03*
Y198622D02*
D03*
X147244Y77362D02*
D03*
Y70669D02*
D03*
D30*
X164961Y345315D02*
D03*
Y351535D02*
D03*
X66611Y354842D02*
D03*
Y361063D02*
D03*
X57402Y299685D02*
D03*
Y293465D02*
D03*
X50709Y299685D02*
D03*
Y293465D02*
D03*
X64095Y299685D02*
D03*
Y293465D02*
D03*
X47244Y175354D02*
D03*
Y169134D02*
D03*
X37982Y136428D02*
D03*
Y142649D02*
D03*
X53485Y142649D02*
D03*
Y136428D02*
D03*
X112205Y36575D02*
D03*
Y30354D02*
D03*
X196372Y364458D02*
D03*
Y370679D02*
D03*
X309055Y143858D02*
D03*
Y137638D02*
D03*
X301181Y143858D02*
D03*
Y137638D02*
D03*
X88583Y36575D02*
D03*
Y30354D02*
D03*
X164961Y320974D02*
D03*
Y327195D02*
D03*
D31*
X40863Y306102D02*
D03*
X47083D02*
D03*
X40863Y312795D02*
D03*
X47083D02*
D03*
X40863Y318701D02*
D03*
X47083D02*
D03*
X40863Y324606D02*
D03*
X47083D02*
D03*
X40863Y330512D02*
D03*
X47083D02*
D03*
X40863Y336417D02*
D03*
X47083D02*
D03*
X40863Y342323D02*
D03*
X47083D02*
D03*
X40863Y348228D02*
D03*
X47083D02*
D03*
X13819Y101378D02*
D03*
X20039D02*
D03*
X146496Y92520D02*
D03*
X152717D02*
D03*
X167362Y109455D02*
D03*
X173583D02*
D03*
X167425Y101741D02*
D03*
X173645D02*
D03*
X13819Y75787D02*
D03*
X20039D02*
D03*
X13819Y50197D02*
D03*
X20039D02*
D03*
X151017Y215425D02*
D03*
X157238D02*
D03*
X160235Y70676D02*
D03*
X154014D02*
D03*
D32*
X103619Y306102D02*
D03*
X96926D02*
D03*
X156857Y348509D02*
D03*
X150164D02*
D03*
X121299D02*
D03*
X114606D02*
D03*
X89213Y338583D02*
D03*
X95905D02*
D03*
X89213Y332677D02*
D03*
X95906D02*
D03*
X135839Y345760D02*
D03*
X129146D02*
D03*
X103619Y318701D02*
D03*
X96926D02*
D03*
X103619Y324606D02*
D03*
X96926D02*
D03*
X103619Y312795D02*
D03*
X96926D02*
D03*
X284425Y105547D02*
D03*
X277732D02*
D03*
X255866D02*
D03*
X262559D02*
D03*
X67520Y51175D02*
D03*
X74213D02*
D03*
X67520Y57505D02*
D03*
X74213D02*
D03*
X67520Y63737D02*
D03*
X74213D02*
D03*
X173866Y370731D02*
D03*
X180559D02*
D03*
X180096Y363953D02*
D03*
X173403D02*
D03*
X180512Y377559D02*
D03*
X173819D02*
D03*
X13780Y31496D02*
D03*
Y43307D02*
D03*
Y57087D02*
D03*
Y68898D02*
D03*
Y82677D02*
D03*
Y94488D02*
D03*
D33*
X136993Y336221D02*
D03*
X127993D02*
D03*
D34*
X105093Y341707D02*
D03*
Y332707D02*
D03*
D35*
X208071Y37551D02*
D03*
X225000D02*
D03*
D36*
X67716Y71260D02*
D03*
X70866D02*
D03*
X74016D02*
D03*
X77165D02*
D03*
X80315D02*
D03*
X83465D02*
D03*
X86614D02*
D03*
X89764D02*
D03*
X92913D02*
D03*
X96063D02*
D03*
X99213D02*
D03*
X102362D02*
D03*
X105512D02*
D03*
Y117717D02*
D03*
X102362D02*
D03*
X99213D02*
D03*
X96063D02*
D03*
X92913D02*
D03*
X89764D02*
D03*
X86614D02*
D03*
X83465D02*
D03*
X80315D02*
D03*
X77165D02*
D03*
X74016D02*
D03*
X70866D02*
D03*
X67716D02*
D03*
D37*
X110433Y74016D02*
D03*
Y77165D02*
D03*
Y80315D02*
D03*
Y83465D02*
D03*
Y86614D02*
D03*
Y89764D02*
D03*
Y92913D02*
D03*
Y96063D02*
D03*
Y99213D02*
D03*
Y102362D02*
D03*
Y105512D02*
D03*
Y108661D02*
D03*
Y111811D02*
D03*
Y114961D02*
D03*
X62795D02*
D03*
Y111811D02*
D03*
Y108661D02*
D03*
Y105512D02*
D03*
Y102362D02*
D03*
Y99213D02*
D03*
Y96063D02*
D03*
Y92913D02*
D03*
Y89764D02*
D03*
Y86614D02*
D03*
Y83465D02*
D03*
Y80315D02*
D03*
Y77165D02*
D03*
Y74016D02*
D03*
D38*
X186457Y325984D02*
D03*
X196457Y351181D02*
D03*
X206457Y325984D02*
D03*
D39*
X36614Y59213D02*
D03*
Y66772D02*
D03*
X28346Y62992D02*
D03*
X28346Y37402D02*
D03*
X36614Y41181D02*
D03*
Y33622D02*
D03*
D40*
X139741Y203051D02*
D03*
Y190650D02*
D03*
D41*
X146949Y100036D02*
D03*
Y102004D02*
D03*
Y103972D02*
D03*
X153516D02*
D03*
Y102004D02*
D03*
Y100036D02*
D03*
D42*
X75671Y321949D02*
D03*
X73702D02*
D03*
X71733D02*
D03*
X69764D02*
D03*
X67795D02*
D03*
X65826D02*
D03*
X63857D02*
D03*
X61888D02*
D03*
Y341437D02*
D03*
X63857D02*
D03*
X65826D02*
D03*
X67795D02*
D03*
X69764D02*
D03*
X71733D02*
D03*
X73702D02*
D03*
X75671D02*
D03*
D43*
X59035Y324803D02*
D03*
Y326772D02*
D03*
Y328740D02*
D03*
Y330709D02*
D03*
Y332677D02*
D03*
Y334646D02*
D03*
Y336614D02*
D03*
Y338583D02*
D03*
X78524D02*
D03*
Y336614D02*
D03*
Y334646D02*
D03*
Y332677D02*
D03*
Y330709D02*
D03*
Y328740D02*
D03*
Y326772D02*
D03*
Y324803D02*
D03*
D97*
X68779Y331693D02*
D03*
D98*
X86614Y94488D02*
D03*
D106*
X338957Y139980D02*
D03*
Y73051D02*
D03*
D107*
X328957Y144980D02*
D03*
X338957Y149980D02*
D03*
X328957Y154980D02*
D03*
X338957Y159980D02*
D03*
X328957Y164980D02*
D03*
X338957Y169980D02*
D03*
X328957Y174980D02*
D03*
Y78051D02*
D03*
X338957Y83051D02*
D03*
X328957Y88051D02*
D03*
X338957Y93051D02*
D03*
X328957Y98051D02*
D03*
X338957Y103051D02*
D03*
X328957Y108051D02*
D03*
D108*
X363957Y134980D02*
D03*
Y179980D02*
D03*
Y68051D02*
D03*
Y113051D02*
D03*
D109*
X68779Y331693D02*
D03*
D110*
X25646Y155492D02*
D03*
Y183091D02*
D03*
Y116122D02*
D03*
Y143720D02*
D03*
X329213Y39370D02*
D03*
X309213D02*
D03*
X289213D02*
D03*
X269213D02*
D03*
X249213D02*
D03*
D111*
X15843Y160433D02*
D03*
Y178150D02*
D03*
Y121063D02*
D03*
Y138779D02*
D03*
D112*
X222441Y381616D02*
D03*
X251362Y352160D02*
D03*
D113*
X159565Y288235D02*
D03*
Y308235D02*
D03*
X179565D02*
D03*
Y288235D02*
D03*
D114*
X169565Y298235D02*
D03*
D115*
X116142Y250079D02*
D03*
Y240079D02*
D03*
Y230079D02*
D03*
Y220079D02*
D03*
Y210079D02*
D03*
Y200079D02*
D03*
X148622Y143701D02*
D03*
Y183071D02*
D03*
X208661Y15748D02*
D03*
X216535D02*
D03*
X224410D02*
D03*
D116*
X349213Y39370D02*
D03*
D117*
X78110Y19685D02*
D03*
X88110D02*
D03*
X98110D02*
D03*
X108110D02*
D03*
X118110D02*
D03*
D118*
X128110D02*
D03*
D119*
X200787Y15748D02*
D03*
X232283D02*
D03*
M02*
