G04*
G04 #@! TF.GenerationSoftware,Altium Limited,Altium Designer,24.5.2 (23)*
G04*
G04 Layer_Color=255*
%FSLAX25Y25*%
%MOIN*%
G70*
G04*
G04 #@! TF.SameCoordinates,B46FEEB2-3EEE-4911-894C-B78D551571A6*
G04*
G04*
G04 #@! TF.FilePolarity,Positive*
G04*
G01*
G75*
%ADD25R,0.03937X0.05591*%
%ADD106R,0.04992X0.04992*%
%ADD107C,0.04992*%
%ADD108C,0.14173*%
%ADD109C,0.02362*%
%ADD110C,0.07677*%
%ADD111C,0.06063*%
%ADD112C,0.03937*%
%ADD113C,0.09449*%
%ADD114C,0.08858*%
%ADD115C,0.05118*%
%ADD116R,0.07677X0.07677*%
%ADD117C,0.04803*%
%ADD118R,0.04803X0.04803*%
%ADD119C,0.05906*%
%ADD122O,0.19685X0.05906*%
%ADD123O,0.19685X0.11811*%
D25*
X41846Y22321D02*
D03*
X32004D02*
D03*
D106*
X338957Y139980D02*
D03*
Y73051D02*
D03*
D107*
X328957Y144980D02*
D03*
X338957Y149980D02*
D03*
X328957Y154980D02*
D03*
X338957Y159980D02*
D03*
X328957Y164980D02*
D03*
X338957Y169980D02*
D03*
X328957Y174980D02*
D03*
Y78051D02*
D03*
X338957Y83051D02*
D03*
X328957Y88051D02*
D03*
X338957Y93051D02*
D03*
X328957Y98051D02*
D03*
X338957Y103051D02*
D03*
X328957Y108051D02*
D03*
D108*
X363957Y134980D02*
D03*
Y179980D02*
D03*
Y68051D02*
D03*
Y113051D02*
D03*
D109*
X68779Y331693D02*
D03*
D110*
X25646Y155492D02*
D03*
Y183091D02*
D03*
Y116122D02*
D03*
Y143720D02*
D03*
X329213Y39370D02*
D03*
X309213D02*
D03*
X289213D02*
D03*
X269213D02*
D03*
X249213D02*
D03*
D111*
X15843Y160433D02*
D03*
Y178150D02*
D03*
Y121063D02*
D03*
Y138779D02*
D03*
D112*
X222441Y381616D02*
D03*
X251362Y352160D02*
D03*
D113*
X159565Y288235D02*
D03*
Y308235D02*
D03*
X179565D02*
D03*
Y288235D02*
D03*
D114*
X169565Y298235D02*
D03*
D115*
X116142Y250079D02*
D03*
Y240079D02*
D03*
Y230079D02*
D03*
Y220079D02*
D03*
Y210079D02*
D03*
Y200079D02*
D03*
X148622Y143701D02*
D03*
Y183071D02*
D03*
X208661Y15748D02*
D03*
X216535D02*
D03*
X224410D02*
D03*
D116*
X349213Y39370D02*
D03*
D117*
X78110Y19685D02*
D03*
X88110D02*
D03*
X98110D02*
D03*
X108110D02*
D03*
X118110D02*
D03*
D118*
X128110D02*
D03*
D119*
X200787Y15748D02*
D03*
X232283D02*
D03*
D122*
X41732Y140000D02*
D03*
Y130000D02*
D03*
Y120000D02*
D03*
Y110000D02*
D03*
X19883Y76108D02*
D03*
Y66108D02*
D03*
Y56108D02*
D03*
Y46108D02*
D03*
D123*
X210236Y144016D02*
D03*
Y124016D02*
D03*
Y104016D02*
D03*
X188387Y80124D02*
D03*
Y60124D02*
D03*
Y40124D02*
D03*
M02*
