G04*
G04 #@! TF.GenerationSoftware,Altium Limited,Altium Designer,24.5.2 (23)*
G04*
G04 Layer_Color=128*
%FSLAX25Y25*%
%MOIN*%
G70*
G04*
G04 #@! TF.SameCoordinates,B46FEEB2-3EEE-4911-894C-B78D551571A6*
G04*
G04*
G04 #@! TF.FilePolarity,Positive*
G04*
G01*
G75*
%ADD13C,0.00500*%
D13*
X337461Y139980D02*
X340453D01*
X338957Y138484D02*
Y141476D01*
X327461Y144980D02*
X330453D01*
X328957Y143484D02*
Y146476D01*
X337461Y149980D02*
X340453D01*
X338957Y148484D02*
Y151476D01*
X327461Y154980D02*
X330453D01*
X328957Y153484D02*
Y156476D01*
X337461Y159980D02*
X340453D01*
X338957Y158484D02*
Y161476D01*
X327461Y164980D02*
X330453D01*
X328957Y163484D02*
Y166476D01*
X337461Y169980D02*
X340453D01*
X338957Y168484D02*
Y171476D01*
X327461Y174980D02*
X330453D01*
X328957Y173484D02*
Y176476D01*
X357658Y134980D02*
X370256D01*
X363957Y128681D02*
Y141279D01*
X357658Y179980D02*
X370256D01*
X363957Y173681D02*
Y186279D01*
X337461Y73051D02*
X340453D01*
X338957Y71555D02*
Y74547D01*
X327461Y78051D02*
X330453D01*
X328957Y76555D02*
Y79547D01*
X337461Y83051D02*
X340453D01*
X338957Y81555D02*
Y84547D01*
X327461Y88051D02*
X330453D01*
X328957Y86555D02*
Y89547D01*
X337461Y93051D02*
X340453D01*
X338957Y91555D02*
Y94547D01*
X327461Y98051D02*
X330453D01*
X328957Y96555D02*
Y99547D01*
X337461Y103051D02*
X340453D01*
X338957Y101555D02*
Y104547D01*
X327461Y108051D02*
X330453D01*
X328957Y106555D02*
Y109547D01*
X357658Y68051D02*
X370256D01*
X363957Y61752D02*
Y74350D01*
X357658Y113051D02*
X370256D01*
X363957Y106752D02*
Y119350D01*
X68189Y331693D02*
X69370D01*
X68779Y331102D02*
Y332283D01*
X23087Y155492D02*
X28205D01*
X25646Y152933D02*
Y158051D01*
X23087Y183091D02*
X28205D01*
X25646Y180532D02*
Y185650D01*
X13894Y160433D02*
X17791D01*
X15843Y158484D02*
Y162382D01*
X13894Y178150D02*
X17791D01*
X15843Y176201D02*
Y180098D01*
X23087Y116122D02*
X28205D01*
X25646Y113563D02*
Y118681D01*
X23087Y143720D02*
X28205D01*
X25646Y141161D02*
Y146280D01*
X13894Y121063D02*
X17791D01*
X15843Y119114D02*
Y123012D01*
X13894Y138779D02*
X17791D01*
X15843Y136831D02*
Y140728D01*
X221457Y381616D02*
X223425D01*
X222441Y380632D02*
Y382601D01*
X250378Y352160D02*
X252346D01*
X251362Y351175D02*
Y353144D01*
X156415Y288235D02*
X162714D01*
X159565Y285085D02*
Y291384D01*
X156415Y308235D02*
X162714D01*
X159565Y305085D02*
Y311384D01*
X176415Y308235D02*
X182714D01*
X179565Y305085D02*
Y311384D01*
X176415Y288235D02*
X182714D01*
X179565Y285085D02*
Y291384D01*
X166612Y298235D02*
X172518D01*
X169565Y295282D02*
Y301187D01*
X114370Y250079D02*
X117913D01*
X116142Y248307D02*
Y251850D01*
X114370Y240079D02*
X117913D01*
X116142Y238307D02*
Y241850D01*
X114370Y230079D02*
X117913D01*
X116142Y228307D02*
Y231850D01*
X114370Y220079D02*
X117913D01*
X116142Y218307D02*
Y221850D01*
X114370Y210079D02*
X117913D01*
X116142Y208307D02*
Y211850D01*
X114370Y200079D02*
X117913D01*
X116142Y198307D02*
Y201850D01*
X346654Y39370D02*
X351772D01*
X349213Y36811D02*
Y41929D01*
X326654Y39370D02*
X331772D01*
X329213Y36811D02*
Y41929D01*
X306653Y39370D02*
X311772D01*
X309213Y36811D02*
Y41929D01*
X286653Y39370D02*
X291772D01*
X289213Y36811D02*
Y41929D01*
X266653Y39370D02*
X271772D01*
X269213Y36811D02*
Y41929D01*
X246654Y39370D02*
X251772D01*
X249213Y36811D02*
Y41929D01*
X147047Y143701D02*
X150197D01*
X148622Y142126D02*
Y145276D01*
X147047Y183071D02*
X150197D01*
X148622Y181496D02*
Y184646D01*
X76516Y19685D02*
X79705D01*
X78110Y18090D02*
Y21280D01*
X86516Y19685D02*
X89705D01*
X88110Y18090D02*
Y21280D01*
X96516Y19685D02*
X99705D01*
X98110Y18090D02*
Y21280D01*
X106516Y19685D02*
X109705D01*
X108110Y18090D02*
Y21280D01*
X116516Y19685D02*
X119705D01*
X118110Y18090D02*
Y21280D01*
X126516Y19685D02*
X129705D01*
X128110Y18090D02*
Y21280D01*
X207087Y15748D02*
X210236D01*
X208661Y14173D02*
Y17323D01*
X214961Y15748D02*
X218110D01*
X216535Y14173D02*
Y17323D01*
X222835Y15748D02*
X225984D01*
X224410Y14173D02*
Y17323D01*
X198819Y15748D02*
X202756D01*
X200787Y13780D02*
Y17717D01*
X230315Y15748D02*
X234252D01*
X232283Y13780D02*
Y17717D01*
X72913Y336417D02*
X74094D01*
X73504Y335827D02*
Y337008D01*
X68189Y336417D02*
X69370D01*
X68779Y335827D02*
Y337008D01*
X63465Y336417D02*
X64646D01*
X64055Y335827D02*
Y337008D01*
X63465Y326969D02*
X64646D01*
X64055Y326378D02*
Y327559D01*
X68189Y326969D02*
X69370D01*
X68779Y326378D02*
Y327559D01*
X72913Y326969D02*
X74094D01*
X73504Y326378D02*
Y327559D01*
X389580Y3384D02*
X390761D01*
X390170Y2793D02*
Y3974D01*
X20079Y390748D02*
X21260D01*
X20669Y390158D02*
Y391339D01*
X17126Y390748D02*
X18307D01*
X17717Y390158D02*
Y391339D01*
X14173Y390748D02*
X15354D01*
X14764Y390158D02*
Y391339D01*
X11220Y390748D02*
X12402D01*
X11811Y390158D02*
Y391339D01*
X8268Y390748D02*
X9449D01*
X8858Y390158D02*
Y391339D01*
X5315Y390748D02*
X6496D01*
X5906Y390158D02*
Y391339D01*
X2362Y390748D02*
X3543D01*
X2953Y390158D02*
Y391339D01*
X2362Y387795D02*
X3543D01*
X2953Y387205D02*
Y388386D01*
X2362Y384842D02*
X3543D01*
X2953Y384252D02*
Y385433D01*
X2362Y381890D02*
X3543D01*
X2953Y381299D02*
Y382480D01*
X2362Y378937D02*
X3543D01*
X2953Y378346D02*
Y379528D01*
X2362Y375984D02*
X3543D01*
X2953Y375394D02*
Y376575D01*
X2362Y373031D02*
X3543D01*
X2953Y372441D02*
Y373622D01*
X390158Y6890D02*
X391339D01*
X390748Y6299D02*
Y7480D01*
X390158Y9843D02*
X391339D01*
X390748Y9252D02*
Y10433D01*
X390158Y12795D02*
X391339D01*
X390748Y12205D02*
Y13386D01*
X390158Y15748D02*
X391339D01*
X390748Y15157D02*
Y16339D01*
X390158Y18701D02*
X391339D01*
X390748Y18110D02*
Y19291D01*
X390158Y21654D02*
X391339D01*
X390748Y21063D02*
Y22244D01*
X386221Y2953D02*
X387402D01*
X386811Y2362D02*
Y3543D01*
X383268Y2953D02*
X384449D01*
X383858Y2362D02*
Y3543D01*
X380315Y2953D02*
X381496D01*
X380906Y2362D02*
Y3543D01*
X377362Y2953D02*
X378543D01*
X377953Y2362D02*
Y3543D01*
X374410Y2953D02*
X375590D01*
X375000Y2362D02*
Y3543D01*
X371457Y2953D02*
X372638D01*
X372047Y2362D02*
Y3543D01*
X2362Y20669D02*
X3543D01*
X2953Y20079D02*
Y21260D01*
X2362Y17717D02*
X3543D01*
X2953Y17126D02*
Y18307D01*
X2362Y5906D02*
X3543D01*
X2953Y5315D02*
Y6496D01*
X2362Y14764D02*
X3543D01*
X2953Y14173D02*
Y15354D01*
X2362Y11811D02*
X3543D01*
X2953Y11220D02*
Y12402D01*
X2362Y8858D02*
X3543D01*
X2953Y8268D02*
Y9449D01*
X5315Y2953D02*
X6496D01*
X5906Y2362D02*
Y3543D01*
X8268Y2953D02*
X9449D01*
X8858Y2362D02*
Y3543D01*
X11220Y2953D02*
X12402D01*
X11811Y2362D02*
Y3543D01*
X14173Y2953D02*
X15354D01*
X14764Y2362D02*
Y3543D01*
X17126Y2953D02*
X18307D01*
X17717Y2362D02*
Y3543D01*
X20079Y2953D02*
X21260D01*
X20669Y2362D02*
Y3543D01*
X23031Y2953D02*
X24213D01*
X23622Y2362D02*
Y3543D01*
X370079Y15748D02*
X385827D01*
X377953Y7874D02*
Y23622D01*
X7874Y15748D02*
X23622D01*
X15748Y7874D02*
Y23622D01*
X7874Y377953D02*
X23622D01*
X15748Y370079D02*
Y385827D01*
X155965Y354327D02*
X157933D01*
X156949Y353343D02*
Y355311D01*
X120333Y342515D02*
X122301D01*
X121317Y341530D02*
Y343499D01*
X149751Y324410D02*
X151719D01*
X150735Y323425D02*
Y325394D01*
X143443Y324410D02*
X145412D01*
X144427Y323425D02*
Y325394D01*
X119882Y324410D02*
X121850D01*
X120866Y323425D02*
Y325394D01*
X108071Y295866D02*
X110039D01*
X109055Y294882D02*
Y296850D01*
X108071Y288976D02*
X110039D01*
X109055Y287992D02*
Y289961D01*
X108071Y282087D02*
X110039D01*
X109055Y281102D02*
Y283071D01*
X107043Y306099D02*
X109011D01*
X108027Y305114D02*
Y307083D01*
X107043Y312988D02*
X109011D01*
X108027Y312004D02*
Y313973D01*
X107043Y324799D02*
X109011D01*
X108027Y323815D02*
Y325784D01*
X107004Y318894D02*
X108973D01*
X107989Y317910D02*
Y319878D01*
X102165Y282087D02*
X104134D01*
X103150Y281102D02*
Y283071D01*
X102165Y288976D02*
X104134D01*
X103150Y287992D02*
Y289961D01*
X102165Y295866D02*
X104134D01*
X103150Y294882D02*
Y296850D01*
X97457Y301027D02*
X99426D01*
X98441Y300042D02*
Y302011D01*
X92286Y289149D02*
X94255D01*
X93270Y288165D02*
Y290134D01*
X86374Y359248D02*
X88342D01*
X87358Y358264D02*
Y360232D01*
X85996Y288896D02*
X87964D01*
X86980Y287912D02*
Y289880D01*
X82481Y336036D02*
X84449D01*
X83465Y335051D02*
Y337020D01*
X79685Y288976D02*
X81653D01*
X80669Y287992D02*
Y289961D01*
X69635Y289049D02*
X71603D01*
X70619Y288064D02*
Y290033D01*
X47004Y361217D02*
X48972D01*
X47988Y360232D02*
Y362201D01*
X46019Y354327D02*
X47988D01*
X47004Y353343D02*
Y355311D01*
X33268Y342324D02*
X35236D01*
X34252Y341339D02*
Y343308D01*
X33268Y336221D02*
X35236D01*
X34252Y335236D02*
Y337205D01*
X33268Y324410D02*
X35236D01*
X34252Y323425D02*
Y325394D01*
X33224Y348421D02*
X35192D01*
X34208Y347437D02*
Y349406D01*
X58193Y2979D02*
X59374D01*
X58784Y2389D02*
Y3570D01*
X55512Y2953D02*
X56693D01*
X56102Y2362D02*
Y3543D01*
X52559Y2953D02*
X53740D01*
X53150Y2362D02*
Y3543D01*
X49606Y2953D02*
X50787D01*
X50197Y2362D02*
Y3543D01*
X46654Y2953D02*
X47835D01*
X47244Y2362D02*
Y3543D01*
X43701Y2953D02*
X44882D01*
X44291Y2362D02*
Y3543D01*
X40748Y2953D02*
X41929D01*
X41339Y2362D02*
Y3543D01*
X37795Y2953D02*
X38976D01*
X38386Y2362D02*
Y3543D01*
X34843Y2953D02*
X36024D01*
X35433Y2362D02*
Y3543D01*
X31890Y2953D02*
X33071D01*
X32480Y2362D02*
Y3543D01*
X28937Y2953D02*
X30118D01*
X29528Y2362D02*
Y3543D01*
X25984Y2953D02*
X27165D01*
X26575Y2362D02*
Y3543D01*
X2362Y346457D02*
X3543D01*
X2953Y345866D02*
Y347047D01*
X2362Y311024D02*
X3543D01*
X2953Y310433D02*
Y311614D01*
X2362Y331693D02*
X3543D01*
X2953Y331102D02*
Y332283D01*
X2362Y334646D02*
X3543D01*
X2953Y334055D02*
Y335236D01*
X2362Y337598D02*
X3543D01*
X2953Y337008D02*
Y338189D01*
X2362Y340551D02*
X3543D01*
X2953Y339961D02*
Y341142D01*
X2362Y343504D02*
X3543D01*
X2953Y342913D02*
Y344094D01*
X2362Y370079D02*
X3543D01*
X2953Y369488D02*
Y370669D01*
X2362Y299213D02*
X3543D01*
X2953Y298622D02*
Y299803D01*
X2362Y296260D02*
X3543D01*
X2953Y295669D02*
Y296850D01*
X2362Y293307D02*
X3543D01*
X2953Y292717D02*
Y293898D01*
X2362Y290354D02*
X3543D01*
X2953Y289764D02*
Y290945D01*
X2362Y287402D02*
X3543D01*
X2953Y286811D02*
Y287992D01*
X2362Y284449D02*
X3543D01*
X2953Y283858D02*
Y285039D01*
X2362Y281496D02*
X3543D01*
X2953Y280906D02*
Y282087D01*
X2362Y278543D02*
X3543D01*
X2953Y277953D02*
Y279134D01*
X2362Y275590D02*
X3543D01*
X2953Y275000D02*
Y276181D01*
X2362Y272638D02*
X3543D01*
X2953Y272047D02*
Y273228D01*
X2362Y266732D02*
X3543D01*
X2953Y266142D02*
Y267323D01*
X2362Y263779D02*
X3543D01*
X2953Y263189D02*
Y264370D01*
X2362Y260827D02*
X3543D01*
X2953Y260236D02*
Y261417D01*
X2362Y257874D02*
X3543D01*
X2953Y257283D02*
Y258465D01*
X2362Y254921D02*
X3543D01*
X2953Y254331D02*
Y255512D01*
X2362Y251969D02*
X3543D01*
X2953Y251378D02*
Y252559D01*
X2362Y249016D02*
X3543D01*
X2953Y248425D02*
Y249606D01*
X2362Y246063D02*
X3543D01*
X2953Y245472D02*
Y246654D01*
X2362Y243110D02*
X3543D01*
X2953Y242520D02*
Y243701D01*
X2362Y240158D02*
X3543D01*
X2953Y239567D02*
Y240748D01*
X2362Y237205D02*
X3543D01*
X2953Y236614D02*
Y237795D01*
X2362Y234252D02*
X3543D01*
X2953Y233661D02*
Y234842D01*
X2362Y231299D02*
X3543D01*
X2953Y230709D02*
Y231890D01*
X2362Y228346D02*
X3543D01*
X2953Y227756D02*
Y228937D01*
X2362Y222441D02*
X3543D01*
X2953Y221850D02*
Y223031D01*
X2362Y219488D02*
X3543D01*
X2953Y218898D02*
Y220079D01*
X2362Y216535D02*
X3543D01*
X2953Y215945D02*
Y217126D01*
X2362Y213583D02*
X3543D01*
X2953Y212992D02*
Y214173D01*
X2362Y210630D02*
X3543D01*
X2953Y210039D02*
Y211221D01*
X2362Y207677D02*
X3543D01*
X2953Y207087D02*
Y208268D01*
X2362Y204724D02*
X3543D01*
X2953Y204134D02*
Y205315D01*
X2362Y201772D02*
X3543D01*
X2953Y201181D02*
Y202362D01*
X2362Y198819D02*
X3543D01*
X2953Y198228D02*
Y199409D01*
X2362Y195866D02*
X3543D01*
X2953Y195276D02*
Y196457D01*
X2362Y192913D02*
X3543D01*
X2953Y192323D02*
Y193504D01*
X2362Y189961D02*
X3543D01*
X2953Y189370D02*
Y190551D01*
X2362Y187008D02*
X3543D01*
X2953Y186417D02*
Y187598D01*
X2362Y184055D02*
X3543D01*
X2953Y183465D02*
Y184646D01*
X2362Y225394D02*
X3543D01*
X2953Y224803D02*
Y225984D01*
X104921Y125591D02*
X106890D01*
X105905Y124606D02*
Y126575D01*
X103782Y27762D02*
X105750D01*
X104766Y26778D02*
Y28746D01*
X101378Y62992D02*
X103347D01*
X102362Y62008D02*
Y63976D01*
X94623Y62992D02*
X96591D01*
X95607Y62008D02*
Y63976D01*
X80496Y129206D02*
X82465D01*
X81481Y128221D02*
Y130190D01*
X73684Y128931D02*
X75653D01*
X74669Y127947D02*
Y129916D01*
X65945Y19685D02*
X67913D01*
X66929Y18701D02*
Y20669D01*
X65551Y43701D02*
X67520D01*
X66535Y42717D02*
Y44685D01*
X65551Y37795D02*
X67520D01*
X66535Y36811D02*
Y38780D01*
X61553Y57657D02*
X63521D01*
X62537Y56673D02*
Y58641D01*
X61494Y63716D02*
X63463D01*
X62479Y62732D02*
Y64701D01*
X61436Y51073D02*
X63405D01*
X62420Y50089D02*
Y52057D01*
X59055Y135827D02*
X61024D01*
X60039Y134843D02*
Y136811D01*
X59055Y142717D02*
X61024D01*
X60039Y141732D02*
Y143701D01*
X59055Y19685D02*
X61024D01*
X60039Y18701D02*
Y20669D01*
X58661Y43701D02*
X60630D01*
X59646Y42717D02*
Y44685D01*
X58661Y37795D02*
X60630D01*
X59646Y36811D02*
Y38780D01*
X52165Y169291D02*
X54134D01*
X53150Y168307D02*
Y170276D01*
X52165Y19685D02*
X54134D01*
X53150Y18701D02*
Y20669D01*
X51772Y43701D02*
X53740D01*
X52756Y42717D02*
Y44685D01*
X51772Y37795D02*
X53740D01*
X52756Y36811D02*
Y38780D01*
X45866Y58268D02*
X47835D01*
X46850Y57284D02*
Y59252D01*
X44291Y33858D02*
X46260D01*
X45276Y32874D02*
Y34843D01*
X34449Y101671D02*
X36417D01*
X35433Y100686D02*
Y102655D01*
X33702Y109992D02*
X35671D01*
X34687Y109008D02*
Y110977D01*
X33647Y47426D02*
X35615D01*
X34631Y46442D02*
Y48410D01*
X28543Y86614D02*
X30512D01*
X29528Y85630D02*
Y87598D01*
X105709Y2953D02*
X106890D01*
X106299Y2362D02*
Y3543D01*
X102756Y2953D02*
X103937D01*
X103347Y2362D02*
Y3543D01*
X99803Y2953D02*
X100984D01*
X100394Y2362D02*
Y3543D01*
X96850Y2953D02*
X98032D01*
X97441Y2362D02*
Y3543D01*
X93898Y2953D02*
X95079D01*
X94488Y2362D02*
Y3543D01*
X90945Y2953D02*
X92126D01*
X91535Y2362D02*
Y3543D01*
X87992Y2953D02*
X89173D01*
X88583Y2362D02*
Y3543D01*
X85039Y2953D02*
X86221D01*
X85630Y2362D02*
Y3543D01*
X82087Y2953D02*
X83268D01*
X82677Y2362D02*
Y3543D01*
X79134Y2953D02*
X80315D01*
X79724Y2362D02*
Y3543D01*
X76181Y2953D02*
X77362D01*
X76772Y2362D02*
Y3543D01*
X73228Y2953D02*
X74409D01*
X73819Y2362D02*
Y3543D01*
X70276Y2953D02*
X71457D01*
X70866Y2362D02*
Y3543D01*
X67323Y2953D02*
X68504D01*
X67913Y2362D02*
Y3543D01*
X65945Y13780D02*
X67913D01*
X66929Y12795D02*
Y14764D01*
X64370Y2953D02*
X65551D01*
X64961Y2362D02*
Y3543D01*
X61417Y2953D02*
X62598D01*
X62008Y2362D02*
Y3543D01*
X59055Y13780D02*
X61024D01*
X60039Y12795D02*
Y14764D01*
X52165Y13780D02*
X54134D01*
X53150Y12795D02*
Y14764D01*
X2362Y151575D02*
X3543D01*
X2953Y150984D02*
Y152165D01*
X2362Y136811D02*
X3543D01*
X2953Y136221D02*
Y137402D01*
X2362Y142717D02*
X3543D01*
X2953Y142126D02*
Y143307D01*
X2362Y169291D02*
X3543D01*
X2953Y168701D02*
Y169882D01*
X2362Y139764D02*
X3543D01*
X2953Y139173D02*
Y140354D01*
X2362Y127953D02*
X3543D01*
X2953Y127362D02*
Y128543D01*
X2362Y130905D02*
X3543D01*
X2953Y130315D02*
Y131496D01*
X2362Y178150D02*
X3543D01*
X2953Y177559D02*
Y178740D01*
X2362Y175197D02*
X3543D01*
X2953Y174606D02*
Y175787D01*
X2362Y172244D02*
X3543D01*
X2953Y171653D02*
Y172835D01*
X2362Y133858D02*
X3543D01*
X2953Y133268D02*
Y134449D01*
X2362Y181102D02*
X3543D01*
X2953Y180512D02*
Y181693D01*
X2362Y166339D02*
X3543D01*
X2953Y165748D02*
Y166929D01*
X2362Y163386D02*
X3543D01*
X2953Y162795D02*
Y163976D01*
X2362Y160433D02*
X3543D01*
X2953Y159843D02*
Y161024D01*
X2362Y148622D02*
X3543D01*
X2953Y148031D02*
Y149213D01*
X2362Y157480D02*
X3543D01*
X2953Y156890D02*
Y158071D01*
X2362Y154528D02*
X3543D01*
X2953Y153937D02*
Y155118D01*
X2362Y145669D02*
X3543D01*
X2953Y145079D02*
Y146260D01*
X2362Y125000D02*
X3543D01*
X2953Y124409D02*
Y125591D01*
X2362Y122047D02*
X3543D01*
X2953Y121457D02*
Y122638D01*
X2362Y119095D02*
X3543D01*
X2953Y118504D02*
Y119685D01*
X2362Y116142D02*
X3543D01*
X2953Y115551D02*
Y116732D01*
X2362Y113189D02*
X3543D01*
X2953Y112598D02*
Y113779D01*
X2362Y110236D02*
X3543D01*
X2953Y109646D02*
Y110827D01*
X2362Y107283D02*
X3543D01*
X2953Y106693D02*
Y107874D01*
X19142Y39011D02*
X21111D01*
X20127Y38027D02*
Y39995D01*
X2362Y104331D02*
X3543D01*
X2953Y103740D02*
Y104921D01*
X2362Y101378D02*
X3543D01*
X2953Y100787D02*
Y101969D01*
X2362Y98425D02*
X3543D01*
X2953Y97835D02*
Y99016D01*
X2362Y95472D02*
X3543D01*
X2953Y94882D02*
Y96063D01*
X2362Y92520D02*
X3543D01*
X2953Y91929D02*
Y93110D01*
X2362Y89567D02*
X3543D01*
X2953Y88976D02*
Y90158D01*
X2362Y86614D02*
X3543D01*
X2953Y86024D02*
Y87205D01*
X2362Y83661D02*
X3543D01*
X2953Y83071D02*
Y84252D01*
X2362Y80709D02*
X3543D01*
X2953Y80118D02*
Y81299D01*
X2362Y77756D02*
X3543D01*
X2953Y77165D02*
Y78347D01*
X2362Y74803D02*
X3543D01*
X2953Y74213D02*
Y75394D01*
X2362Y71850D02*
X3543D01*
X2953Y71260D02*
Y72441D01*
X2362Y68898D02*
X3543D01*
X2953Y68307D02*
Y69488D01*
X2362Y48228D02*
X3543D01*
X2953Y47638D02*
Y48819D01*
X2362Y62992D02*
X3543D01*
X2953Y62402D02*
Y63583D01*
X2362Y45276D02*
X3543D01*
X2953Y44685D02*
Y45866D01*
X2362Y65945D02*
X3543D01*
X2953Y65354D02*
Y66535D01*
X2362Y42323D02*
X3543D01*
X2953Y41732D02*
Y42913D01*
X2362Y30512D02*
X3543D01*
X2953Y29921D02*
Y31102D01*
X2362Y33465D02*
X3543D01*
X2953Y32874D02*
Y34055D01*
X2362Y36417D02*
X3543D01*
X2953Y35827D02*
Y37008D01*
X2362Y39370D02*
X3543D01*
X2953Y38780D02*
Y39961D01*
X2362Y51181D02*
X3543D01*
X2953Y50591D02*
Y51772D01*
X2362Y27559D02*
X3543D01*
X2953Y26969D02*
Y28150D01*
X2362Y54134D02*
X3543D01*
X2953Y53543D02*
Y54724D01*
X2362Y57087D02*
X3543D01*
X2953Y56496D02*
Y57677D01*
X2362Y24606D02*
X3543D01*
X2953Y24016D02*
Y25197D01*
X2362Y2953D02*
X3543D01*
X2953Y2362D02*
Y3543D01*
X2362Y60039D02*
X3543D01*
X2953Y59449D02*
Y60630D01*
X2362Y316929D02*
X3543D01*
X2953Y316339D02*
Y317520D01*
X2362Y367126D02*
X3543D01*
X2953Y366535D02*
Y367717D01*
X2362Y325787D02*
X3543D01*
X2953Y325197D02*
Y326378D01*
X2362Y364173D02*
X3543D01*
X2953Y363583D02*
Y364764D01*
X2362Y361221D02*
X3543D01*
X2953Y360630D02*
Y361811D01*
X2362Y358268D02*
X3543D01*
X2953Y357677D02*
Y358858D01*
X2362Y322835D02*
X3543D01*
X2953Y322244D02*
Y323425D01*
X2362Y319882D02*
X3543D01*
X2953Y319291D02*
Y320472D01*
X2362Y328740D02*
X3543D01*
X2953Y328150D02*
Y329331D01*
X2362Y313976D02*
X3543D01*
X2953Y313386D02*
Y314567D01*
X2362Y308071D02*
X3543D01*
X2953Y307480D02*
Y308661D01*
X2362Y305118D02*
X3543D01*
X2953Y304528D02*
Y305709D01*
X2362Y349410D02*
X3543D01*
X2953Y348819D02*
Y350000D01*
X2362Y355315D02*
X3543D01*
X2953Y354724D02*
Y355906D01*
X2362Y302165D02*
X3543D01*
X2953Y301575D02*
Y302756D01*
X2362Y352362D02*
X3543D01*
X2953Y351772D02*
Y352953D01*
X200197Y390748D02*
X201378D01*
X200787Y390158D02*
Y391339D01*
X203150Y390748D02*
X204331D01*
X203740Y390158D02*
Y391339D01*
X194291Y390748D02*
X195472D01*
X194882Y390158D02*
Y391339D01*
X173622Y390748D02*
X174803D01*
X174213Y390158D02*
Y391339D01*
X167717Y390748D02*
X168898D01*
X168307Y390158D02*
Y391339D01*
X206102Y390748D02*
X207283D01*
X206693Y390158D02*
Y391339D01*
X176575Y390748D02*
X177756D01*
X177165Y390158D02*
Y391339D01*
X170669Y390748D02*
X171850D01*
X171260Y390158D02*
Y391339D01*
X179528Y390748D02*
X180709D01*
X180118Y390158D02*
Y391339D01*
X182480Y390748D02*
X183661D01*
X183071Y390158D02*
Y391339D01*
X185433Y390748D02*
X186614D01*
X186024Y390158D02*
Y391339D01*
X188386Y390748D02*
X189567D01*
X188976Y390158D02*
Y391339D01*
X191339Y390748D02*
X192520D01*
X191929Y390158D02*
Y391339D01*
X197244Y390748D02*
X198425D01*
X197835Y390158D02*
Y391339D01*
X164764Y390748D02*
X165945D01*
X165354Y390158D02*
Y391339D01*
X161811Y390748D02*
X162992D01*
X162402Y390158D02*
Y391339D01*
X158858Y390748D02*
X160039D01*
X159449Y390158D02*
Y391339D01*
X208465Y358268D02*
X210433D01*
X209449Y357283D02*
Y359252D01*
X202165Y358268D02*
X204134D01*
X203150Y357283D02*
Y359252D01*
X211873Y352008D02*
X213842D01*
X212857Y351024D02*
Y352992D01*
X172035Y246545D02*
X174004D01*
X173020Y245560D02*
Y247529D01*
X172035Y240639D02*
X174004D01*
X173020Y239655D02*
Y241623D01*
X172035Y234733D02*
X174004D01*
X173020Y233749D02*
Y235718D01*
X164764Y204724D02*
X166732D01*
X165748Y203740D02*
Y205709D01*
X155905Y390748D02*
X157087D01*
X156496Y390158D02*
Y391339D01*
X150000Y390748D02*
X151181D01*
X150591Y390158D02*
Y391339D01*
X147047Y390748D02*
X148228D01*
X147638Y390158D02*
Y391339D01*
X129331Y390748D02*
X130512D01*
X129921Y390158D02*
Y391339D01*
X123425Y390748D02*
X124606D01*
X124016Y390158D02*
Y391339D01*
X126378Y390748D02*
X127559D01*
X126969Y390158D02*
Y391339D01*
X135236Y390748D02*
X136417D01*
X135827Y390158D02*
Y391339D01*
X138189Y390748D02*
X139370D01*
X138779Y390158D02*
Y391339D01*
X114567Y390748D02*
X115748D01*
X115157Y390158D02*
Y391339D01*
X111614Y390748D02*
X112795D01*
X112205Y390158D02*
Y391339D01*
X152953Y390748D02*
X154134D01*
X153543Y390158D02*
Y391339D01*
X141142Y390748D02*
X142323D01*
X141732Y390158D02*
Y391339D01*
X132283Y390748D02*
X133465D01*
X132874Y390158D02*
Y391339D01*
X117520Y390748D02*
X118701D01*
X118110Y390158D02*
Y391339D01*
X120472Y390748D02*
X121653D01*
X121063Y390158D02*
Y391339D01*
X108661Y390748D02*
X109843D01*
X109252Y390158D02*
Y391339D01*
X144095Y390748D02*
X145276D01*
X144685Y390158D02*
Y391339D01*
X143110Y215748D02*
X145079D01*
X144095Y214764D02*
Y216732D01*
X151575Y208661D02*
X153543D01*
X152559Y207677D02*
Y209646D01*
X171125Y187572D02*
X173094D01*
X172110Y186588D02*
Y188557D01*
X390158Y166339D02*
X391339D01*
X390748Y165748D02*
Y166929D01*
X390158Y163386D02*
X391339D01*
X390748Y162795D02*
Y163976D01*
X390158Y160433D02*
X391339D01*
X390748Y159843D02*
Y161024D01*
X390158Y157480D02*
X391339D01*
X390748Y156890D02*
Y158071D01*
X390158Y154528D02*
X391339D01*
X390748Y153937D02*
Y155118D01*
X390158Y151575D02*
X391339D01*
X390748Y150984D02*
Y152165D01*
X390158Y148622D02*
X391339D01*
X390748Y148031D02*
Y149213D01*
X390158Y145669D02*
X391339D01*
X390748Y145079D02*
Y146260D01*
X390158Y142717D02*
X391339D01*
X390748Y142126D02*
Y143307D01*
X390158Y139764D02*
X391339D01*
X390748Y139173D02*
Y140354D01*
X390158Y136811D02*
X391339D01*
X390748Y136221D02*
Y137402D01*
X390158Y133858D02*
X391339D01*
X390748Y133268D02*
Y134449D01*
X390158Y130905D02*
X391339D01*
X390748Y130315D02*
Y131496D01*
X390158Y127953D02*
X391339D01*
X390748Y127362D02*
Y128543D01*
X390158Y125000D02*
X391339D01*
X390748Y124409D02*
Y125591D01*
X390158Y122047D02*
X391339D01*
X390748Y121457D02*
Y122638D01*
X390158Y119095D02*
X391339D01*
X390748Y118504D02*
Y119685D01*
X390158Y116142D02*
X391339D01*
X390748Y115551D02*
Y116732D01*
X390158Y113189D02*
X391339D01*
X390748Y112598D02*
Y113779D01*
X390158Y110236D02*
X391339D01*
X390748Y109646D02*
Y110827D01*
X390158Y107283D02*
X391339D01*
X390748Y106693D02*
Y107874D01*
X390158Y104331D02*
X391339D01*
X390748Y103740D02*
Y104921D01*
X390158Y101378D02*
X391339D01*
X390748Y100787D02*
Y101969D01*
X390158Y201772D02*
X391339D01*
X390748Y201181D02*
Y202362D01*
X390158Y198819D02*
X391339D01*
X390748Y198228D02*
Y199409D01*
X390158Y195866D02*
X391339D01*
X390748Y195276D02*
Y196457D01*
X390158Y192913D02*
X391339D01*
X390748Y192323D02*
Y193504D01*
X390158Y189961D02*
X391339D01*
X390748Y189370D02*
Y190551D01*
X390158Y187008D02*
X391339D01*
X390748Y186417D02*
Y187598D01*
X390158Y184055D02*
X391339D01*
X390748Y183465D02*
Y184646D01*
X390158Y181102D02*
X391339D01*
X390748Y180512D02*
Y181693D01*
X390158Y178150D02*
X391339D01*
X390748Y177559D02*
Y178740D01*
X390158Y175197D02*
X391339D01*
X390748Y174606D02*
Y175787D01*
X390158Y172244D02*
X391339D01*
X390748Y171653D02*
Y172835D01*
X390158Y169291D02*
X391339D01*
X390748Y168701D02*
Y169882D01*
X390158Y98425D02*
X391339D01*
X390748Y97835D02*
Y99016D01*
X390158Y95472D02*
X391339D01*
X390748Y94882D02*
Y96063D01*
X308071Y93504D02*
X310039D01*
X309055Y92520D02*
Y94488D01*
X314961Y93504D02*
X316929D01*
X315945Y92520D02*
Y94488D01*
X390158Y92520D02*
X391339D01*
X390748Y91929D02*
Y93110D01*
X390158Y89567D02*
X391339D01*
X390748Y88976D02*
Y90158D01*
X390158Y86614D02*
X391339D01*
X390748Y86024D02*
Y87205D01*
X390158Y83661D02*
X391339D01*
X390748Y83071D02*
Y84252D01*
X390158Y80709D02*
X391339D01*
X390748Y80118D02*
Y81299D01*
X390158Y77756D02*
X391339D01*
X390748Y77165D02*
Y78347D01*
X390158Y74803D02*
X391339D01*
X390748Y74213D02*
Y75394D01*
X390158Y71850D02*
X391339D01*
X390748Y71260D02*
Y72441D01*
X390158Y68898D02*
X391339D01*
X390748Y68307D02*
Y69488D01*
X390158Y65945D02*
X391339D01*
X390748Y65354D02*
Y66535D01*
X390158Y62992D02*
X391339D01*
X390748Y62402D02*
Y63583D01*
X390158Y60039D02*
X391339D01*
X390748Y59449D02*
Y60630D01*
X390158Y57087D02*
X391339D01*
X390748Y56496D02*
Y57677D01*
X390158Y54134D02*
X391339D01*
X390748Y53543D02*
Y54724D01*
X390158Y51181D02*
X391339D01*
X390748Y50591D02*
Y51772D01*
X390158Y48228D02*
X391339D01*
X390748Y47638D02*
Y48819D01*
X390158Y45276D02*
X391339D01*
X390748Y44685D02*
Y45866D01*
X390158Y42323D02*
X391339D01*
X390748Y41732D02*
Y42913D01*
X390158Y39370D02*
X391339D01*
X390748Y38780D02*
Y39961D01*
X390158Y36417D02*
X391339D01*
X390748Y35827D02*
Y37008D01*
X390158Y33465D02*
X391339D01*
X390748Y32874D02*
Y34055D01*
X390158Y30512D02*
X391339D01*
X390748Y29921D02*
Y31102D01*
X390158Y27559D02*
X391339D01*
X390748Y26969D02*
Y28150D01*
X390158Y24606D02*
X391339D01*
X390748Y24016D02*
Y25197D01*
X368504Y2953D02*
X369685D01*
X369094Y2362D02*
Y3543D01*
X365551Y2953D02*
X366732D01*
X366142Y2362D02*
Y3543D01*
X362598Y2953D02*
X363779D01*
X363189Y2362D02*
Y3543D01*
X359646Y2953D02*
X360827D01*
X360236Y2362D02*
Y3543D01*
X356693Y2953D02*
X357874D01*
X357283Y2362D02*
Y3543D01*
X353740Y2953D02*
X354921D01*
X354331Y2362D02*
Y3543D01*
X350787Y2953D02*
X351969D01*
X351378Y2362D02*
Y3543D01*
X308071Y87598D02*
X310039D01*
X309055Y86614D02*
Y88583D01*
X314961Y87598D02*
X316929D01*
X315945Y86614D02*
Y88583D01*
X308071Y81693D02*
X310039D01*
X309055Y80709D02*
Y82677D01*
X314961Y81693D02*
X316929D01*
X315945Y80709D02*
Y82677D01*
X347835Y2953D02*
X349016D01*
X348425Y2362D02*
Y3543D01*
X344882Y2953D02*
X346063D01*
X345472Y2362D02*
Y3543D01*
X341929Y2953D02*
X343110D01*
X342520Y2362D02*
Y3543D01*
X338976Y2953D02*
X340158D01*
X339567Y2362D02*
Y3543D01*
X333071Y2953D02*
X334252D01*
X333661Y2362D02*
Y3543D01*
X336024Y2953D02*
X337205D01*
X336614Y2362D02*
Y3543D01*
X327165Y2953D02*
X328346D01*
X327756Y2362D02*
Y3543D01*
X324213Y2953D02*
X325394D01*
X324803Y2362D02*
Y3543D01*
X321260Y2953D02*
X322441D01*
X321850Y2362D02*
Y3543D01*
X309449Y2953D02*
X310630D01*
X310039Y2362D02*
Y3543D01*
X330118Y2953D02*
X331299D01*
X330709Y2362D02*
Y3543D01*
X297638Y2953D02*
X298819D01*
X298228Y2362D02*
Y3543D01*
X303543Y2953D02*
X304724D01*
X304134Y2362D02*
Y3543D01*
X300590Y2953D02*
X301772D01*
X301181Y2362D02*
Y3543D01*
X318307Y2953D02*
X319488D01*
X318898Y2362D02*
Y3543D01*
X294685Y2953D02*
X295866D01*
X295276Y2362D02*
Y3543D01*
X291732Y2953D02*
X292913D01*
X292323Y2362D02*
Y3543D01*
X315354Y2953D02*
X316535D01*
X315945Y2362D02*
Y3543D01*
X312402Y2953D02*
X313583D01*
X312992Y2362D02*
Y3543D01*
X306496Y2953D02*
X307677D01*
X307087Y2362D02*
Y3543D01*
X288779Y2953D02*
X289961D01*
X289370Y2362D02*
Y3543D01*
X268359Y105723D02*
X270327D01*
X269343Y104739D02*
Y106708D01*
X240158Y101378D02*
X242126D01*
X241142Y100394D02*
Y102362D01*
X233268Y101378D02*
X235236D01*
X234252Y100394D02*
Y102362D01*
X247047Y101378D02*
X249016D01*
X248031Y100394D02*
Y102362D01*
X226378Y101378D02*
X228346D01*
X227362Y100394D02*
Y102362D01*
X219488Y94488D02*
X221457D01*
X220472Y93504D02*
Y95472D01*
X213583Y94488D02*
X215551D01*
X214567Y93504D02*
Y95472D01*
X226150Y94073D02*
X228118D01*
X227134Y93089D02*
Y95057D01*
X219488Y86614D02*
X221457D01*
X220472Y85630D02*
Y87598D01*
X213583Y86614D02*
X215551D01*
X214567Y85630D02*
Y87598D01*
X245079Y74803D02*
X247047D01*
X246063Y73819D02*
Y75787D01*
X251496Y74668D02*
X253465D01*
X252481Y73684D02*
Y75652D01*
X225894Y73805D02*
X227862D01*
X226878Y72821D02*
Y74790D01*
X218988Y73805D02*
X220957D01*
X219972Y72821D02*
Y74790D01*
X213083Y73805D02*
X215051D01*
X214067Y72821D02*
Y74790D01*
X251969Y68898D02*
X253937D01*
X252953Y67913D02*
Y69882D01*
X245079Y68898D02*
X247047D01*
X246063Y67913D02*
Y69882D01*
X285827Y2953D02*
X287008D01*
X286417Y2362D02*
Y3543D01*
X274016Y2953D02*
X275197D01*
X274606Y2362D02*
Y3543D01*
X268110Y2953D02*
X269291D01*
X268701Y2362D02*
Y3543D01*
X271063Y2953D02*
X272244D01*
X271654Y2362D02*
Y3543D01*
X253346Y2953D02*
X254528D01*
X253937Y2362D02*
Y3543D01*
X232677Y2953D02*
X233858D01*
X233268Y2362D02*
Y3543D01*
X241535Y2953D02*
X242717D01*
X242126Y2362D02*
Y3543D01*
X220866Y2953D02*
X222047D01*
X221457Y2362D02*
Y3543D01*
X214961Y2953D02*
X216142D01*
X215551Y2362D02*
Y3543D01*
X123031Y170079D02*
X125000D01*
X124016Y169095D02*
Y171063D01*
X132874Y151575D02*
X134843D01*
X133858Y150591D02*
Y152559D01*
X138779Y151575D02*
X140748D01*
X139764Y150591D02*
Y152559D01*
X121063Y147638D02*
X123031D01*
X122047Y146653D02*
Y148622D01*
X132874Y143701D02*
X134843D01*
X133858Y142717D02*
Y144685D01*
X138779Y143701D02*
X140748D01*
X139764Y142717D02*
Y144685D01*
X111221Y137795D02*
X113189D01*
X112205Y136811D02*
Y138779D01*
X117126Y114567D02*
X119095D01*
X118110Y113583D02*
Y115551D01*
X177961Y109413D02*
X179930D01*
X178946Y108429D02*
Y110397D01*
X117126Y106961D02*
X119095D01*
X118110Y105976D02*
Y107945D01*
X171260Y204724D02*
X173228D01*
X172244Y203740D02*
Y205709D01*
X177808Y101786D02*
X179776D01*
X178792Y100802D02*
Y102770D01*
X117126Y96063D02*
X119095D01*
X118110Y95079D02*
Y97047D01*
X117126Y89764D02*
X119095D01*
X118110Y88779D02*
Y90748D01*
X117126Y81496D02*
X119095D01*
X118110Y80512D02*
Y82480D01*
X124016Y51181D02*
X125984D01*
X125000Y50197D02*
Y52165D01*
X189936Y70760D02*
X191904D01*
X190920Y69776D02*
Y71745D01*
X209055Y2953D02*
X210236D01*
X209646Y2362D02*
Y3543D01*
X206102Y2953D02*
X207283D01*
X206693Y2362D02*
Y3543D01*
X203150Y2953D02*
X204331D01*
X203740Y2362D02*
Y3543D01*
X194291Y2953D02*
X195472D01*
X194882Y2362D02*
Y3543D01*
X179527Y2953D02*
X180709D01*
X180118Y2362D02*
Y3543D01*
X259252Y2953D02*
X260433D01*
X259842Y2362D02*
Y3543D01*
X265158Y2953D02*
X266339D01*
X265748Y2362D02*
Y3543D01*
X164764Y2953D02*
X165945D01*
X165354Y2362D02*
Y3543D01*
X167717Y2953D02*
X168898D01*
X168307Y2362D02*
Y3543D01*
X173622Y2953D02*
X174803D01*
X174213Y2362D02*
Y3543D01*
X170669Y2953D02*
X171850D01*
X171260Y2362D02*
Y3543D01*
X200197Y2953D02*
X201378D01*
X200787Y2362D02*
Y3543D01*
X250394Y2953D02*
X251575D01*
X250984Y2362D02*
Y3543D01*
X262205Y2953D02*
X263386D01*
X262795Y2362D02*
Y3543D01*
X235630Y2953D02*
X236811D01*
X236221Y2362D02*
Y3543D01*
X182480Y2953D02*
X183661D01*
X183071Y2362D02*
Y3543D01*
X223819Y2953D02*
X225000D01*
X224409Y2362D02*
Y3543D01*
X185433Y2953D02*
X186614D01*
X186024Y2362D02*
Y3543D01*
X176575Y2953D02*
X177756D01*
X177165Y2362D02*
Y3543D01*
X256299Y2953D02*
X257480D01*
X256890Y2362D02*
Y3543D01*
X276969Y2953D02*
X278150D01*
X277559Y2362D02*
Y3543D01*
X279921Y2953D02*
X281102D01*
X280512Y2362D02*
Y3543D01*
X226772Y2953D02*
X227953D01*
X227362Y2362D02*
Y3543D01*
X282874Y2953D02*
X284055D01*
X283465Y2362D02*
Y3543D01*
X229724Y2953D02*
X230906D01*
X230315Y2362D02*
Y3543D01*
X188386Y2953D02*
X189567D01*
X188976Y2362D02*
Y3543D01*
X247441Y2953D02*
X248622D01*
X248031Y2362D02*
Y3543D01*
X197244Y2953D02*
X198425D01*
X197835Y2362D02*
Y3543D01*
X238583Y2953D02*
X239764D01*
X239173Y2362D02*
Y3543D01*
X191339Y2953D02*
X192520D01*
X191929Y2362D02*
Y3543D01*
X244488Y2953D02*
X245669D01*
X245079Y2362D02*
Y3543D01*
X212008Y2953D02*
X213189D01*
X212598Y2362D02*
Y3543D01*
X161811Y2953D02*
X162992D01*
X162402Y2362D02*
Y3543D01*
X158858Y2953D02*
X160039D01*
X159449Y2362D02*
Y3543D01*
X155905Y2953D02*
X157087D01*
X156496Y2362D02*
Y3543D01*
X217913Y2953D02*
X219094D01*
X218504Y2362D02*
Y3543D01*
X152953Y2953D02*
X154134D01*
X153543Y2362D02*
Y3543D01*
X150000Y2953D02*
X151181D01*
X150591Y2362D02*
Y3543D01*
X147047Y2953D02*
X148228D01*
X147638Y2362D02*
Y3543D01*
X144095Y2953D02*
X145276D01*
X144685Y2362D02*
Y3543D01*
X141142Y2953D02*
X142323D01*
X141732Y2362D02*
Y3543D01*
X138189Y2953D02*
X139370D01*
X138779Y2362D02*
Y3543D01*
X135236Y2953D02*
X136417D01*
X135827Y2362D02*
Y3543D01*
X132283Y2953D02*
X133465D01*
X132874Y2362D02*
Y3543D01*
X129331Y2953D02*
X130512D01*
X129921Y2362D02*
Y3543D01*
X126378Y2953D02*
X127559D01*
X126969Y2362D02*
Y3543D01*
X123425Y2953D02*
X124606D01*
X124016Y2362D02*
Y3543D01*
X120472Y2953D02*
X121653D01*
X121063Y2362D02*
Y3543D01*
X117520Y2953D02*
X118701D01*
X118110Y2362D02*
Y3543D01*
X114567Y2953D02*
X115748D01*
X115157Y2362D02*
Y3543D01*
X111614Y2953D02*
X112795D01*
X112205Y2362D02*
Y3543D01*
X108661Y2953D02*
X109843D01*
X109252Y2362D02*
Y3543D01*
X105709Y390748D02*
X106890D01*
X106299Y390158D02*
Y391339D01*
X102756Y390748D02*
X103937D01*
X103347Y390158D02*
Y391339D01*
X99803Y390748D02*
X100984D01*
X100394Y390158D02*
Y391339D01*
X96850Y390748D02*
X98032D01*
X97441Y390158D02*
Y391339D01*
X93898Y390748D02*
X95079D01*
X94488Y390158D02*
Y391339D01*
X90945Y390748D02*
X92126D01*
X91535Y390158D02*
Y391339D01*
X87992Y390748D02*
X89173D01*
X88583Y390158D02*
Y391339D01*
X85039Y390748D02*
X86221D01*
X85630Y390158D02*
Y391339D01*
X82087Y390748D02*
X83268D01*
X82677Y390158D02*
Y391339D01*
X78961Y366586D02*
X80929D01*
X79945Y365602D02*
Y367570D01*
X79134Y390748D02*
X80315D01*
X79724Y390158D02*
Y391339D01*
X76181Y390748D02*
X77362D01*
X76772Y390158D02*
Y391339D01*
X73228Y390748D02*
X74409D01*
X73819Y390158D02*
Y391339D01*
X72309Y366560D02*
X74278D01*
X73294Y365576D02*
Y367544D01*
X70276Y390748D02*
X71457D01*
X70866Y390158D02*
Y391339D01*
X67323Y390748D02*
X68504D01*
X67913Y390158D02*
Y391339D01*
X74673Y300549D02*
X76642D01*
X75658Y299565D02*
Y301534D01*
X62779Y310548D02*
X64748D01*
X63763Y309564D02*
Y311532D01*
X2362Y269685D02*
X3543D01*
X2953Y269094D02*
Y270276D01*
X64370Y390748D02*
X65551D01*
X64961Y390158D02*
Y391339D01*
X61417Y390748D02*
X62598D01*
X62008Y390158D02*
Y391339D01*
X58465Y390748D02*
X59646D01*
X59055Y390158D02*
Y391339D01*
X55512Y390748D02*
X56693D01*
X56102Y390158D02*
Y391339D01*
X52559Y390748D02*
X53740D01*
X53150Y390158D02*
Y391339D01*
X49606Y390748D02*
X50787D01*
X50197Y390158D02*
Y391339D01*
X46654Y390748D02*
X47835D01*
X47244Y390158D02*
Y391339D01*
X43701Y390748D02*
X44882D01*
X44291Y390158D02*
Y391339D01*
X40748Y390748D02*
X41929D01*
X41339Y390158D02*
Y391339D01*
X37795Y390748D02*
X38976D01*
X38386Y390158D02*
Y391339D01*
X34843Y390748D02*
X36024D01*
X35433Y390158D02*
Y391339D01*
X31890Y390748D02*
X33071D01*
X32480Y390158D02*
Y391339D01*
X28937Y390748D02*
X30118D01*
X29528Y390158D02*
Y391339D01*
X25984Y390748D02*
X27165D01*
X26575Y390158D02*
Y391339D01*
X23031Y390748D02*
X24213D01*
X23622Y390158D02*
Y391339D01*
M02*
