G04*
G04 #@! TF.GenerationSoftware,Altium Limited,Altium Designer,24.5.2 (23)*
G04*
G04 Layer_Physical_Order=1*
G04 Layer_Color=255*
%FSLAX25Y25*%
%MOIN*%
G70*
G04*
G04 #@! TF.SameCoordinates,CA4C738F-C60C-4ACC-8FA1-BFDE70A38C08*
G04*
G04*
G04 #@! TF.FilePolarity,Positive*
G04*
G01*
G75*
%ADD10C,0.01000*%
%ADD12C,0.00787*%
%ADD14C,0.01575*%
%ADD16R,0.03937X0.03543*%
%ADD17R,0.04016X0.03701*%
%ADD18R,0.03701X0.04016*%
%ADD19R,0.03543X0.03937*%
%ADD20R,0.05512X0.04724*%
%ADD22R,0.03996X0.10000*%
%ADD23R,0.10000X0.03996*%
%ADD24R,0.03937X0.05591*%
%ADD25R,0.09252X0.06102*%
%ADD26R,0.05512X0.03937*%
%ADD27R,0.07480X0.05906*%
%ADD28R,0.01575X0.03150*%
%ADD29R,0.03150X0.01575*%
%ADD30R,0.04685X0.12992*%
%ADD31R,0.04331X0.02559*%
%ADD32R,0.02362X0.04724*%
%ADD33R,0.06693X0.04528*%
%ADD34R,0.13780X0.07284*%
%ADD35R,0.01937X0.01181*%
%ADD36R,0.01575X0.04724*%
%ADD37R,0.07284X0.13780*%
%ADD38R,0.13780X0.08661*%
%ADD39R,0.04724X0.08661*%
%ADD46R,0.01102X0.03347*%
%ADD47R,0.03347X0.01102*%
%ADD82C,0.00799*%
%ADD83C,0.03150*%
%ADD84C,0.00799*%
%ADD85R,0.13583X0.13583*%
%AMCUSTOMSHAPE86*
4,1,61,0.07874,-0.07874,0.07874,-0.03937,0.06890,-0.03937,0.06890,-0.01968,0.07874,-0.01968,0.07874,0.01968,0.06890,0.01968,0.06890,0.03937,0.07874,0.03937,0.07874,0.07874,0.03937,0.07874,0.03937,0.06890,0.01968,0.06890,0.01968,0.07874,-0.01968,0.07874,-0.01968,0.06890,-0.03937,0.06890,-0.03937,0.07874,-0.07874,0.07874,-0.07874,0.03937,-0.06890,0.03937,-0.06890,0.01968,-0.07874,0.01968,-0.07874,-0.01968,-0.06890,-0.01968,-0.06890,-0.03937,-0.07874,-0.03937,-0.07874,-0.05906,-0.05906,-0.07874,-0.03937,-0.07874,-0.03937,-0.03937,-0.04921,-0.03937,-0.04921,-0.01968,-0.03937,-0.01968,-0.03937,0.01968,-0.04921,0.01968,-0.04921,0.03937,-0.03937,0.03937,-0.03937,0.04921,-0.01968,0.04921,-0.01968,0.03937,-0.00984,0.03937,-0.00984,0.01968,-0.01968,0.01968,-0.01968,-0.01968,0.01968,-0.01968,0.01968,0.01968,0.00984,0.01968,0.00984,0.03937,0.01968,0.03937,0.01968,0.04921,0.03937,0.04921,0.03937,0.03937,0.04921,0.03937,0.04921,0.01968,0.03937,0.01968,0.03937,-0.01968,0.04921,-0.01968,0.04921,-0.03937,0.03937,-0.03937,0.03937,-0.07874,0.07874,-0.07874,0.0*%
%ADD86CUSTOMSHAPE86*%

%ADD87C,0.01500*%
%ADD88C,0.00100*%
%ADD89C,0.00829*%
%ADD90C,0.00984*%
%ADD91C,0.01102*%
%ADD92C,0.04724*%
%ADD93C,0.02362*%
%ADD94C,0.01181*%
%ADD95C,0.03937*%
%ADD96C,0.02000*%
%ADD97C,0.07677*%
%ADD98C,0.06063*%
%ADD99C,0.23622*%
%ADD100C,0.03937*%
%ADD101C,0.09449*%
%ADD102C,0.08858*%
%ADD103C,0.05118*%
%ADD104R,0.04992X0.04992*%
%ADD105C,0.04992*%
%ADD106C,0.12598*%
%ADD107R,0.07677X0.07677*%
%ADD108C,0.04803*%
%ADD109R,0.04803X0.04803*%
%ADD110C,0.05906*%
%ADD111C,0.01968*%
%ADD112C,0.03150*%
G36*
X18864Y364345D02*
X18864Y304561D01*
X18999Y303534D01*
X19396Y302576D01*
X20027Y301753D01*
X20849Y301122D01*
X21800Y300729D01*
Y219488D01*
X21800Y219488D01*
X21938Y218791D01*
X22333Y218199D01*
X59118Y181415D01*
Y167314D01*
X59118Y167314D01*
X59256Y166617D01*
X59651Y166025D01*
X84792Y140885D01*
Y133886D01*
X84004Y133431D01*
X83380Y133791D01*
X82129Y134127D01*
X80833D01*
X79581Y133791D01*
X78459Y133144D01*
X77938Y132622D01*
X77690Y132870D01*
X76568Y133517D01*
X75317Y133853D01*
X74021D01*
X72769Y133517D01*
X71647Y132870D01*
X70731Y131953D01*
X70083Y130831D01*
X69747Y129579D01*
Y128284D01*
X70083Y127032D01*
X70731Y125910D01*
X71647Y124994D01*
X72769Y124346D01*
X74021Y124010D01*
X75317D01*
X76568Y124346D01*
X76854Y124511D01*
X78492Y122873D01*
Y120472D01*
X75197D01*
Y120291D01*
X74516D01*
Y117717D01*
Y115142D01*
X75197D01*
Y114961D01*
X107098D01*
X107701Y114265D01*
X107677Y113779D01*
X107677D01*
Y109843D01*
Y106693D01*
Y103543D01*
Y100394D01*
Y97244D01*
Y94095D01*
Y90945D01*
Y87795D01*
Y84646D01*
Y81496D01*
Y78347D01*
Y74722D01*
X107480Y74016D01*
X72047D01*
Y73835D01*
X71366D01*
Y71260D01*
Y68685D01*
X71553D01*
X71708Y68554D01*
X72060Y67999D01*
X72067Y67716D01*
X71989Y67323D01*
Y66886D01*
X71260D01*
Y60587D01*
Y59002D01*
X70499Y58319D01*
X70487Y58320D01*
X70291Y58492D01*
X70291Y60474D01*
X70291Y61261D01*
Y63237D01*
X67520D01*
Y63737D01*
X67020D01*
Y66705D01*
X64748D01*
Y66704D01*
X63961Y66288D01*
X63624Y66483D01*
X62979Y66655D01*
Y63716D01*
X62479D01*
Y63216D01*
X59539D01*
X59712Y62571D01*
X60103Y61894D01*
X60656Y61341D01*
X61052Y61112D01*
X61087Y60288D01*
X61068Y60236D01*
X60714Y60032D01*
X60161Y59479D01*
X59771Y58803D01*
X59722Y58622D01*
X58822Y58143D01*
X58742Y58176D01*
X57715Y58311D01*
X51772D01*
Y58916D01*
X51436Y60167D01*
X50788Y61289D01*
X49872Y62206D01*
X48750Y62854D01*
X47498Y63189D01*
X46202D01*
X44951Y62854D01*
X43829Y62206D01*
X42912Y61289D01*
X42766Y61035D01*
X39961D01*
Y61673D01*
X33268D01*
Y56752D01*
X39961D01*
Y57390D01*
X41991D01*
X42265Y56368D01*
X42912Y55246D01*
X43829Y54330D01*
X44324Y54044D01*
X44257Y53542D01*
Y38680D01*
X43376Y38444D01*
X42254Y37796D01*
X41338Y36880D01*
X40748Y35859D01*
X40686Y35854D01*
X39961Y36083D01*
Y36083D01*
X33268D01*
Y31161D01*
X39961D01*
Y31918D01*
X40713D01*
X41338Y30836D01*
X42254Y29920D01*
X43376Y29272D01*
X44454Y28984D01*
Y24016D01*
Y22624D01*
Y9877D01*
X29861D01*
X29230Y10664D01*
X29528Y12540D01*
Y15019D01*
X29140Y17467D01*
X28374Y19825D01*
X27248Y22033D01*
X25791Y24039D01*
X24039Y25791D01*
X22033Y27248D01*
X19825Y28374D01*
X18733Y28729D01*
X18717Y29561D01*
X19024Y29674D01*
X19721Y29812D01*
X20312Y30207D01*
X25046Y34941D01*
X31693D01*
Y39862D01*
X25000D01*
X25000Y39862D01*
X24805Y40564D01*
X24712Y40910D01*
X24065Y42033D01*
X23148Y42949D01*
X22026Y43597D01*
X21949Y43617D01*
Y47008D01*
X23071D01*
Y53386D01*
X17291D01*
X16816Y53855D01*
X16732Y54059D01*
Y55264D01*
X21555D01*
X21555Y55264D01*
X22253Y55403D01*
X22844Y55798D01*
X27577Y60532D01*
X31693D01*
Y65453D01*
X25000D01*
Y63109D01*
X20800Y58909D01*
X19496D01*
X19100Y59697D01*
X19387Y60390D01*
X19522Y61417D01*
Y64567D01*
X19387Y65595D01*
X18990Y66552D01*
X18359Y67375D01*
X17537Y68006D01*
X16732Y68339D01*
Y71925D01*
X16816Y72130D01*
X17291Y72598D01*
X17638Y72598D01*
X23071D01*
Y73965D01*
X26575D01*
X26575Y73965D01*
X27272Y74104D01*
X27863Y74499D01*
X30816Y77451D01*
X30816Y77451D01*
X31211Y78043D01*
X31350Y78740D01*
Y82008D01*
X31427Y82028D01*
X32549Y82676D01*
X33466Y83592D01*
X34113Y84715D01*
X34449Y85966D01*
Y87262D01*
X34113Y88514D01*
X33466Y89636D01*
X32549Y90552D01*
X31427Y91200D01*
X30176Y91535D01*
X28880D01*
X27628Y91200D01*
X26506Y90552D01*
X25590Y89636D01*
X24942Y88514D01*
X24606Y87262D01*
Y85966D01*
X24942Y84715D01*
X25590Y83592D01*
X26506Y82676D01*
X27628Y82028D01*
X27705Y82008D01*
Y79495D01*
X25820Y77610D01*
X23071D01*
Y78976D01*
X17638D01*
X16684Y78976D01*
X16551Y79709D01*
X16551D01*
Y82177D01*
X13780D01*
Y83037D01*
X15551D01*
X16551Y83168D01*
Y83169D01*
X16579Y83172D01*
X17537Y83569D01*
X18359Y84200D01*
X18990Y85022D01*
X19387Y85980D01*
X19522Y87008D01*
Y90158D01*
X19387Y91185D01*
X18990Y92143D01*
X18359Y92965D01*
X17537Y93597D01*
X16732Y93930D01*
Y97516D01*
X16816Y97720D01*
X17291Y98189D01*
X17638Y98189D01*
X23071D01*
Y99555D01*
X30972D01*
X31495Y98649D01*
X32411Y97733D01*
X33533Y97085D01*
X34785Y96749D01*
X36081D01*
X37333Y97085D01*
X38455Y97733D01*
X39371Y98649D01*
X40019Y99771D01*
X40354Y101023D01*
Y102318D01*
X40019Y103570D01*
X39371Y104692D01*
X38455Y105608D01*
X38405Y105637D01*
X38275Y106621D01*
X38625Y106971D01*
X39273Y108093D01*
X39608Y109344D01*
Y110640D01*
X39273Y111892D01*
X38625Y113014D01*
X37709Y113930D01*
X36586Y114578D01*
X35335Y114914D01*
X34136D01*
X33912Y115031D01*
X33421Y115563D01*
Y116888D01*
X33122Y118390D01*
X32536Y119805D01*
X31685Y121079D01*
X30602Y122162D01*
X29329Y123013D01*
X27914Y123599D01*
X26412Y123898D01*
X24880D01*
X23378Y123599D01*
X21962Y123013D01*
X20689Y122162D01*
X20569Y122042D01*
X19691Y122277D01*
X19599Y122619D01*
X19069Y123538D01*
X18318Y124289D01*
X17399Y124820D01*
X16373Y125094D01*
X16342D01*
Y121063D01*
Y117032D01*
X16373D01*
X17136Y117236D01*
X17463Y117081D01*
X17719Y116874D01*
X17870Y116669D01*
Y115356D01*
X18169Y113854D01*
X18755Y112439D01*
X19606Y111165D01*
X20689Y110082D01*
X21962Y109231D01*
X23378Y108645D01*
X24880Y108346D01*
X26412D01*
X27914Y108645D01*
X29015Y109102D01*
X29778Y108836D01*
X29940Y108693D01*
X30101Y108093D01*
X30749Y106971D01*
X31665Y106054D01*
X31715Y106026D01*
X31844Y105042D01*
X31495Y104692D01*
X30847Y103570D01*
X30748Y103200D01*
X23071D01*
Y104567D01*
X17638D01*
X17008Y104567D01*
X16220Y104567D01*
X10787D01*
Y98409D01*
X10787Y98189D01*
X10787D01*
X10827Y97638D01*
X10827D01*
Y94014D01*
X10690Y93929D01*
X9903Y94366D01*
Y133750D01*
X10690Y134077D01*
X11400Y133367D01*
X12542Y132604D01*
X13810Y132079D01*
X15156Y131811D01*
X16529D01*
X17875Y132079D01*
X19143Y132604D01*
X20285Y133367D01*
X21255Y134337D01*
X21435Y134606D01*
X34793D01*
Y133397D01*
X41171D01*
Y138830D01*
X41171Y139460D01*
X41171Y140303D01*
X41728Y140860D01*
X42690D01*
Y139764D01*
X48989D01*
Y140860D01*
X49876D01*
X50296Y140073D01*
X50296Y139617D01*
X50296D01*
Y139460D01*
X50296D01*
Y133397D01*
X55760D01*
X56101Y132805D01*
X57018Y131889D01*
X58140Y131241D01*
X59391Y130905D01*
X60687D01*
X61939Y131241D01*
X63061Y131889D01*
X63977Y132805D01*
X64625Y133927D01*
X64961Y135179D01*
Y136475D01*
X64625Y137726D01*
X63977Y138848D01*
X63554Y139272D01*
X63977Y139695D01*
X64625Y140817D01*
X64961Y142069D01*
Y143364D01*
X64625Y144616D01*
X63977Y145738D01*
X63061Y146654D01*
X61939Y147302D01*
X60687Y147638D01*
X59391D01*
X58140Y147302D01*
X57018Y146654D01*
X56101Y145738D01*
X56068Y145680D01*
X50296D01*
Y144505D01*
X48989D01*
Y145669D01*
X42690D01*
Y144505D01*
X41171D01*
Y145680D01*
X34793D01*
Y140247D01*
X34793Y139617D01*
X34793Y138807D01*
X34236Y138251D01*
X32227D01*
X31868Y139038D01*
X32536Y140037D01*
X33122Y141452D01*
X33421Y142955D01*
Y144486D01*
X33122Y145989D01*
X32536Y147404D01*
X31685Y148677D01*
X30756Y149606D01*
X31685Y150536D01*
X32536Y151809D01*
X33122Y153224D01*
X33421Y154726D01*
Y156258D01*
X33122Y157760D01*
X32536Y159175D01*
X31685Y160449D01*
X30602Y161532D01*
X29329Y162383D01*
X27914Y162969D01*
X26412Y163268D01*
X24880D01*
X23378Y162969D01*
X21962Y162383D01*
X20689Y161532D01*
X20569Y161412D01*
X19691Y161647D01*
X19599Y161989D01*
X19069Y162908D01*
X18318Y163659D01*
X17399Y164190D01*
X16373Y164465D01*
X16342D01*
Y160433D01*
Y156402D01*
X16373D01*
X17136Y156606D01*
X17463Y156451D01*
X17719Y156244D01*
X17870Y156039D01*
Y154726D01*
X18169Y153224D01*
X18755Y151809D01*
X19606Y150536D01*
X20535Y149606D01*
X19606Y148677D01*
X18755Y147404D01*
X18169Y145989D01*
X18091Y145596D01*
X17875Y145480D01*
X16529Y145748D01*
X15156D01*
X13810Y145480D01*
X12542Y144955D01*
X11400Y144192D01*
X10690Y143482D01*
X9903Y143809D01*
Y173121D01*
X10690Y173447D01*
X11400Y172737D01*
X12542Y171974D01*
X13810Y171449D01*
X15156Y171181D01*
X16529D01*
X17875Y171449D01*
X19143Y171974D01*
X20285Y172737D01*
X20922Y173374D01*
X36220D01*
Y172638D01*
X42520D01*
Y173532D01*
X44055D01*
Y172323D01*
X44055Y172323D01*
Y172165D01*
X44055D01*
X44055Y171535D01*
Y166102D01*
X49379D01*
X50128Y165353D01*
X51250Y164705D01*
X52502Y164370D01*
X53798D01*
X55049Y164705D01*
X56171Y165353D01*
X57088Y166270D01*
X57736Y167392D01*
X58071Y168643D01*
Y169939D01*
X57736Y171191D01*
X57088Y172313D01*
X56171Y173229D01*
X55049Y173877D01*
X53798Y174213D01*
X52502D01*
X51250Y173877D01*
X51115Y173799D01*
X50433Y174193D01*
Y178386D01*
X44055D01*
Y177177D01*
X42520D01*
Y178543D01*
X36220D01*
Y177019D01*
X31684D01*
X31358Y177807D01*
X31685Y178134D01*
X32536Y179407D01*
X33122Y180823D01*
X33421Y182325D01*
Y183856D01*
X33122Y185359D01*
X32536Y186774D01*
X31685Y188047D01*
X30602Y189130D01*
X29329Y189981D01*
X27914Y190567D01*
X26412Y190866D01*
X24880D01*
X23378Y190567D01*
X21962Y189981D01*
X20689Y189130D01*
X19606Y188047D01*
X18755Y186774D01*
X18169Y185359D01*
X18091Y184966D01*
X17875Y184850D01*
X16529Y185118D01*
X15156D01*
X13810Y184850D01*
X12542Y184325D01*
X11400Y183562D01*
X10690Y182852D01*
X9903Y183179D01*
Y363824D01*
X10690Y364466D01*
X12540Y364173D01*
X15019D01*
X17467Y364561D01*
X18227Y364808D01*
X18864Y364345D01*
D02*
G37*
G36*
X76158Y298018D02*
X76652Y298150D01*
X76772Y298219D01*
X77559Y297765D01*
Y297244D01*
X83071D01*
X83858Y297244D01*
Y297244D01*
X83858D01*
Y297244D01*
X89370D01*
X90158Y297244D01*
Y297244D01*
X90158D01*
Y297244D01*
X94060D01*
Y296276D01*
X93807D01*
Y293504D01*
X92807D01*
Y296276D01*
X90764D01*
X90339Y296276D01*
X89551Y296276D01*
X87508D01*
Y293504D01*
X86508D01*
Y296276D01*
X84465D01*
X84039Y296276D01*
X83252Y296276D01*
X81209D01*
Y293504D01*
X80709D01*
Y293004D01*
X77740D01*
Y290732D01*
X77740Y290732D01*
X77855Y289945D01*
X77730Y289476D01*
X80669D01*
Y288976D01*
X81169D01*
Y286037D01*
X81815Y286210D01*
X82492Y286601D01*
X83045Y287154D01*
X83396Y287762D01*
X83671Y287806D01*
X84099Y287762D01*
X84224Y287732D01*
X84605Y287074D01*
X85157Y286521D01*
X85834Y286130D01*
X86480Y285957D01*
Y288896D01*
X87480D01*
Y285957D01*
X88126Y286130D01*
X88803Y286521D01*
X89355Y287074D01*
X89746Y287751D01*
X89755Y287785D01*
X90082Y287880D01*
X90590Y287856D01*
X90895Y287327D01*
X91448Y286774D01*
X92125Y286383D01*
X92770Y286210D01*
Y289149D01*
X93770D01*
Y286097D01*
X94060Y285874D01*
Y276969D01*
X94196Y275941D01*
X94592Y274983D01*
X95224Y274161D01*
X96046Y273530D01*
X97004Y273133D01*
X98032Y272997D01*
X117904D01*
X118033Y273015D01*
X118163Y273006D01*
X118545Y273082D01*
X118931Y273133D01*
X119052Y273183D01*
X119180Y273208D01*
X119529Y273380D01*
X119889Y273530D01*
X119993Y273609D01*
X120110Y273667D01*
X120141Y273694D01*
X121019Y273330D01*
X122047Y273194D01*
X126935D01*
Y206693D01*
Y200787D01*
Y174864D01*
X126253Y174470D01*
X125915Y174665D01*
X124664Y175000D01*
X123368D01*
X122116Y174665D01*
X120994Y174017D01*
X120078Y173100D01*
X119430Y171978D01*
X119095Y170727D01*
Y169431D01*
X119430Y168179D01*
X119470Y168110D01*
X104207Y152848D01*
X103812Y152257D01*
X103674Y151559D01*
X103674Y151559D01*
Y142796D01*
X103635Y142766D01*
X102886Y142511D01*
X85831Y159566D01*
Y201757D01*
X102330Y218256D01*
X109881D01*
X109895Y218184D01*
X110385Y217002D01*
X111096Y215938D01*
X111955Y215079D01*
X111096Y214220D01*
X110385Y213156D01*
X109895Y211974D01*
X109646Y210719D01*
Y209439D01*
X109895Y208184D01*
X110385Y207002D01*
X111096Y205938D01*
X112001Y205033D01*
X113065Y204322D01*
X114074Y203904D01*
X114199Y203381D01*
X114163Y203046D01*
X113956Y202927D01*
X113294Y202264D01*
X112825Y201452D01*
X112591Y200579D01*
X116142D01*
X119692D01*
X119458Y201452D01*
X118990Y202264D01*
X118327Y202927D01*
X118120Y203046D01*
X118085Y203381D01*
X118209Y203904D01*
X119219Y204322D01*
X120283Y205033D01*
X121188Y205938D01*
X121898Y207002D01*
X122388Y208184D01*
X122638Y209439D01*
Y210719D01*
X122388Y211974D01*
X121898Y213156D01*
X121188Y214220D01*
X120328Y215079D01*
X121188Y215938D01*
X121898Y217002D01*
X122388Y218184D01*
X122638Y219439D01*
Y220719D01*
X122388Y221974D01*
X121898Y223156D01*
X121188Y224220D01*
X120328Y225079D01*
X121188Y225938D01*
X121898Y227002D01*
X122388Y228184D01*
X122638Y229439D01*
Y230719D01*
X122388Y231974D01*
X121898Y233156D01*
X121188Y234220D01*
X120328Y235079D01*
X121188Y235938D01*
X121898Y237002D01*
X122388Y238184D01*
X122638Y239439D01*
Y240719D01*
X122388Y241974D01*
X121898Y243156D01*
X121188Y244220D01*
X120328Y245079D01*
X121188Y245938D01*
X121898Y247002D01*
X122388Y248184D01*
X122638Y249439D01*
Y250719D01*
X122388Y251974D01*
X121898Y253156D01*
X121188Y254220D01*
X120283Y255125D01*
X119219Y255836D01*
X118037Y256325D01*
X116781Y256575D01*
X115502D01*
X114247Y256325D01*
X113065Y255836D01*
X112001Y255125D01*
X111096Y254220D01*
X110385Y253156D01*
X109895Y251974D01*
X109646Y250719D01*
Y249439D01*
X109895Y248184D01*
X110385Y247002D01*
X111096Y245938D01*
X111955Y245079D01*
X111096Y244220D01*
X110385Y243156D01*
X109895Y241974D01*
X109646Y240719D01*
Y239439D01*
X109895Y238184D01*
X110385Y237002D01*
X111096Y235938D01*
X111955Y235079D01*
X111096Y234220D01*
X110385Y233156D01*
X109895Y231974D01*
X109646Y230719D01*
Y229439D01*
X109895Y228184D01*
X110385Y227002D01*
X111096Y225938D01*
X111955Y225079D01*
X111096Y224220D01*
X110385Y223156D01*
X109895Y221974D01*
X109881Y221901D01*
X101575D01*
X100877Y221762D01*
X100286Y221367D01*
X100286Y221367D01*
X82720Y203801D01*
X82324Y203209D01*
X82186Y202512D01*
X82186Y202512D01*
Y164240D01*
X81458Y163938D01*
X73062Y172335D01*
Y186635D01*
X73062Y186635D01*
X72923Y187332D01*
X72528Y187923D01*
X72528Y187923D01*
X65917Y194534D01*
Y289876D01*
X66474Y290433D01*
X67119Y290433D01*
X67759Y289843D01*
X67680Y289549D01*
X73558D01*
X73451Y289949D01*
X73441Y290732D01*
X73441Y290732D01*
X73441Y290732D01*
Y293004D01*
X70472D01*
Y293504D01*
X69972D01*
Y296276D01*
X68379D01*
X67855Y296857D01*
X67863Y297155D01*
X67933Y297244D01*
X73622D01*
Y297887D01*
X74409Y298297D01*
X74664Y298150D01*
X75158Y298018D01*
Y300549D01*
X76158D01*
Y298018D01*
D02*
G37*
G36*
X118076Y292810D02*
X118043Y292772D01*
X116445D01*
Y288976D01*
Y285181D01*
X118043D01*
X118076Y285143D01*
Y277165D01*
X117904Y276969D01*
X98032D01*
Y287904D01*
X98192Y288501D01*
Y289797D01*
X98032Y290395D01*
Y298043D01*
X98051Y298058D01*
X98832D01*
X99587Y298260D01*
X100264Y298651D01*
X100817Y299204D01*
X101208Y299881D01*
X101398Y300590D01*
X116735Y300591D01*
X118076D01*
Y292810D01*
D02*
G37*
G36*
X386379Y383308D02*
X386933Y382753D01*
X387233Y382029D01*
Y381638D01*
Y224157D01*
Y223765D01*
X386933Y223041D01*
X386379Y222487D01*
X385655Y222187D01*
X227391D01*
X226667Y222487D01*
X226113Y223041D01*
X225813Y223765D01*
Y224157D01*
X225813Y375732D01*
Y376124D01*
X226113Y376848D01*
X226667Y377402D01*
X227391Y377702D01*
X227783Y377702D01*
X379358Y377702D01*
X379750D01*
X380474Y377402D01*
X381028Y376848D01*
X381328Y376124D01*
Y375732D01*
X381328Y230063D01*
X381328D01*
X381328Y229671D01*
X381028Y228947D01*
X380474Y228393D01*
X379750Y228093D01*
X379358Y228093D01*
X233688Y228093D01*
X233297D01*
X232573Y228393D01*
X232018Y228947D01*
X231719Y229671D01*
Y230063D01*
X231719Y369827D01*
Y370218D01*
X232018Y370942D01*
X232573Y371497D01*
X233297Y371796D01*
X233689D01*
X373452Y371796D01*
X373452Y371796D01*
X373844Y371796D01*
X374568Y371497D01*
X375122Y370942D01*
X375422Y370218D01*
X375422Y369827D01*
X375422Y235968D01*
X375422D01*
X375422Y235576D01*
X375122Y234852D01*
X374568Y234298D01*
X373844Y233998D01*
X373452Y233998D01*
X239594Y233998D01*
X239202D01*
X238478Y234298D01*
X237924Y234852D01*
X237624Y235576D01*
Y235968D01*
X237624Y363921D01*
Y364313D01*
X237924Y365037D01*
X238478Y365591D01*
X239202Y365891D01*
X239594Y365891D01*
X367547Y365891D01*
X367547Y365891D01*
X367939Y365891D01*
X368663Y365591D01*
X369217Y365037D01*
X369517Y364313D01*
X369517Y363921D01*
X369517Y241874D01*
X369517D01*
X369517Y241482D01*
X369217Y240758D01*
X368663Y240204D01*
X367939Y239904D01*
X367547Y239904D01*
X245500Y239904D01*
X245108D01*
X244384Y240204D01*
X243829Y240758D01*
X243530Y241482D01*
Y241874D01*
X243530Y358015D01*
Y358407D01*
X243829Y359131D01*
X244384Y359686D01*
X245108Y359985D01*
X245500D01*
X361641Y359985D01*
X361641Y359985D01*
X362033Y359985D01*
X362757Y359686D01*
X363311Y359131D01*
X363611Y358407D01*
X363611Y358015D01*
X363611Y247779D01*
Y247387D01*
X363311Y246663D01*
X362757Y246109D01*
X362033Y245809D01*
X251013D01*
X250289Y246109D01*
X249735Y246663D01*
X249435Y247387D01*
Y247779D01*
Y347990D01*
Y348382D01*
X249735Y349106D01*
X250289Y349660D01*
X251013Y349960D01*
X251797D01*
X252521Y349660D01*
X253075Y349106D01*
X253375Y348382D01*
Y347990D01*
Y249749D01*
X359671D01*
Y356046D01*
X247470Y356046D01*
X247470Y243844D01*
X365577D01*
X365577Y361951D01*
X241564Y361951D01*
X241564Y237938D01*
X371482D01*
X371482Y367857D01*
X235659Y367857D01*
X235659Y232033D01*
X377388D01*
X377388Y373762D01*
X229753Y373762D01*
X229753Y226127D01*
X383293D01*
Y379667D01*
X227167D01*
X226443Y379967D01*
X225889Y380522D01*
X225589Y381246D01*
Y382029D01*
X225889Y382753D01*
X226443Y383308D01*
X227167Y383608D01*
X385655D01*
X386379Y383308D01*
D02*
G37*
G36*
X149461Y218614D02*
X148122D01*
X148032Y218770D01*
X147116Y219686D01*
X145994Y220334D01*
X144742Y220669D01*
X143447D01*
X142195Y220334D01*
X141073Y219686D01*
X140156Y218770D01*
X139509Y217648D01*
X139173Y216396D01*
Y215100D01*
X139509Y213848D01*
X140156Y212726D01*
X141073Y211810D01*
X142195Y211162D01*
X143447Y210827D01*
X144742D01*
X145994Y211162D01*
X147116Y211810D01*
X147421Y212115D01*
X147997Y211990D01*
X148367Y211244D01*
X147973Y210561D01*
X147638Y209309D01*
Y208014D01*
X147232Y207635D01*
X146901Y207414D01*
X146680Y207083D01*
X146602Y206693D01*
Y201272D01*
X146680Y200882D01*
X146901Y200551D01*
X147232Y200330D01*
X147622Y200252D01*
Y198409D01*
X151181D01*
Y198228D01*
X159646D01*
Y205315D01*
X159507D01*
Y206693D01*
X160365D01*
X160970Y205906D01*
X160827Y205372D01*
Y204077D01*
X161162Y202825D01*
X161810Y201703D01*
X162598Y200914D01*
Y195669D01*
X168110D01*
X168898Y195669D01*
Y195669D01*
X168898D01*
Y195669D01*
X175197D01*
Y200747D01*
X175266Y200786D01*
X176182Y201703D01*
X176830Y202825D01*
X177165Y204077D01*
Y205372D01*
X177023Y205906D01*
X177627Y206693D01*
X181102D01*
Y205375D01*
X180616Y204741D01*
X180219Y203784D01*
X180084Y202756D01*
Y124016D01*
X180219Y122988D01*
X180616Y122030D01*
X181102Y121397D01*
Y120079D01*
X183797D01*
X184055Y120045D01*
X282480D01*
X282738Y120079D01*
X291339D01*
Y81693D01*
X304134D01*
Y81045D01*
X304224Y80709D01*
X304469Y79793D01*
X305117Y78671D01*
X306033Y77755D01*
X306102Y77715D01*
Y51181D01*
X237205Y51181D01*
Y29528D01*
X218504D01*
Y59055D01*
X272638D01*
Y78706D01*
X279528D01*
X280555Y78842D01*
X281513Y79238D01*
X282335Y79869D01*
X282480Y80058D01*
X282966Y80692D01*
X283363Y81649D01*
X283499Y82677D01*
Y102397D01*
X283657Y102578D01*
X283925D01*
Y105547D01*
Y108515D01*
X282480D01*
Y112205D01*
X259864D01*
X259606Y112239D01*
X258638D01*
X258380Y112205D01*
X253353D01*
X253095Y112239D01*
X208661D01*
X208403Y112205D01*
X183016D01*
X182884Y112435D01*
X181967Y113351D01*
X180845Y113999D01*
X179594Y114334D01*
X178298D01*
X177046Y113999D01*
X175924Y113351D01*
X175217Y112644D01*
X170551D01*
Y112644D01*
X170394D01*
Y112644D01*
X169586D01*
Y116850D01*
X172244D01*
Y125118D01*
X162402D01*
Y116850D01*
X165138D01*
Y112644D01*
X164331D01*
Y112205D01*
X161137D01*
Y126496D01*
X161758Y127117D01*
X162402Y126850D01*
Y126850D01*
X172244D01*
Y135118D01*
X162402D01*
Y133192D01*
X161629Y133039D01*
X160908Y132557D01*
X160908Y132557D01*
X157341Y128990D01*
X156859Y128268D01*
X156690Y127417D01*
X156690Y127417D01*
Y112205D01*
X130905D01*
Y116850D01*
X136811D01*
Y117799D01*
X138950D01*
X139828Y117914D01*
X140646Y118253D01*
X141348Y118792D01*
X151070Y128514D01*
X151609Y129217D01*
X151948Y130035D01*
X152063Y130912D01*
Y138188D01*
X152763Y138655D01*
X153668Y139560D01*
X154379Y140624D01*
X154868Y141806D01*
X155118Y143061D01*
Y144341D01*
X154868Y145596D01*
X154379Y146778D01*
X153668Y147842D01*
X152763Y148747D01*
X151699Y149458D01*
X150517Y149947D01*
X149262Y150197D01*
X147982D01*
X146727Y149947D01*
X145545Y149458D01*
X144875Y149010D01*
X144284Y149562D01*
X144350Y149675D01*
X144685Y150927D01*
Y152223D01*
X144350Y153474D01*
X143702Y154596D01*
X142786Y155513D01*
X141663Y156161D01*
X140412Y156496D01*
X139116D01*
X137864Y156161D01*
X136811Y155553D01*
X135758Y156161D01*
X134506Y156496D01*
X133210D01*
X131959Y156161D01*
X131587Y155946D01*
X130905Y156340D01*
Y200787D01*
Y277165D01*
X122047D01*
Y285143D01*
X122819Y285181D01*
X122835Y285181D01*
X125287D01*
Y288976D01*
Y292772D01*
X122835D01*
X122819Y292772D01*
X122047Y292810D01*
Y300591D01*
X149461Y300591D01*
Y218614D01*
D02*
G37*
G36*
X209610Y218504D02*
Y206727D01*
X185069D01*
X184938Y207721D01*
X184541Y208678D01*
X183910Y209501D01*
X183088Y210132D01*
X182130Y210529D01*
X181102Y210664D01*
X177627D01*
X177369Y210630D01*
X177108D01*
X176857Y210563D01*
X176599Y210529D01*
X176358Y210429D01*
X176107Y210362D01*
X175882Y210231D01*
X175641Y210132D01*
X175435Y209973D01*
X175209Y209843D01*
X175025Y209659D01*
X174819Y209501D01*
X174660Y209294D01*
X174476Y209110D01*
X173872Y208323D01*
X173785Y208172D01*
X173741Y208097D01*
X173583Y207891D01*
X173390Y207491D01*
X172744Y207664D01*
Y204724D01*
X171744D01*
Y207664D01*
X171098Y207491D01*
X170421Y207100D01*
X169869Y206547D01*
X169478Y205870D01*
X169404Y205593D01*
X168588D01*
X168514Y205870D01*
X168123Y206547D01*
X167571Y207100D01*
X166894Y207491D01*
X166248Y207664D01*
Y204724D01*
X165248D01*
Y207664D01*
X164602Y207491D01*
X164409Y207891D01*
X164251Y208097D01*
X164207Y208172D01*
X164120Y208323D01*
X163516Y209110D01*
X163332Y209294D01*
X163173Y209501D01*
X162967Y209659D01*
X162783Y209843D01*
X162557Y209973D01*
X162351Y210132D01*
X162110Y210231D01*
X161885Y210362D01*
X161634Y210429D01*
X161393Y210529D01*
X161135Y210563D01*
X160884Y210630D01*
X160624D01*
X160365Y210664D01*
X159507D01*
Y212236D01*
X160269D01*
Y218614D01*
X154206D01*
X154206Y218614D01*
X153432Y218647D01*
Y236500D01*
X160524D01*
Y241142D01*
Y245783D01*
X153432D01*
Y278508D01*
X209610D01*
Y218504D01*
D02*
G37*
G36*
X383824Y157514D02*
X342479D01*
X342024Y158302D01*
X342214Y158631D01*
X342442Y159480D01*
X338957D01*
X335471D01*
X335699Y158631D01*
X335889Y158302D01*
X335434Y157514D01*
X332709D01*
X332284Y157458D01*
X331681Y157379D01*
X331681Y157379D01*
X331681Y157379D01*
X331555Y157327D01*
X331103Y157778D01*
X330306Y158238D01*
X329457Y158466D01*
Y155773D01*
X329270Y155529D01*
X329270Y155529D01*
X329270Y155529D01*
X329187Y155329D01*
X328985Y154980D01*
X328928D01*
X328727Y155329D01*
X328644Y155529D01*
X328644Y155529D01*
X328644Y155529D01*
X328457Y155773D01*
Y158466D01*
X327607Y158238D01*
X326810Y157778D01*
X326359Y157327D01*
X326233Y157379D01*
X326232Y157379D01*
X326232Y157379D01*
X325629Y157458D01*
X325205Y157514D01*
X322835D01*
X321807Y157379D01*
X320849Y156982D01*
X320027Y156351D01*
X319396Y155529D01*
X318999Y154571D01*
X318864Y153543D01*
Y118882D01*
X318076Y118556D01*
X308683Y127949D01*
Y134606D01*
X312244D01*
Y140669D01*
X312244D01*
Y140827D01*
X312244D01*
Y146890D01*
X308909D01*
Y152788D01*
X324278Y168158D01*
X326077D01*
X326403Y167370D01*
X326159Y167127D01*
X325699Y166330D01*
X325471Y165480D01*
X328957D01*
X332442D01*
X332214Y166330D01*
X331754Y167127D01*
X331511Y167370D01*
X331837Y168158D01*
X332760D01*
X332771Y168104D01*
X333256Y166933D01*
X333960Y165879D01*
X334856Y164983D01*
X335910Y164279D01*
X337031Y163815D01*
X337093Y163648D01*
X337155Y162977D01*
X336810Y162778D01*
X336159Y162127D01*
X335699Y161330D01*
X335471Y160480D01*
X338957D01*
X342442D01*
X342214Y161330D01*
X341754Y162127D01*
X341103Y162778D01*
X340759Y162977D01*
X340820Y163648D01*
X340882Y163815D01*
X342004Y164279D01*
X343057Y164983D01*
X343954Y165879D01*
X344658Y166933D01*
X345143Y168104D01*
X345390Y169347D01*
Y170614D01*
X345229Y171421D01*
X345782Y172209D01*
X357252D01*
X357432Y172029D01*
X359108Y170909D01*
X360971Y170138D01*
X362948Y169744D01*
X364965D01*
X366943Y170138D01*
X368805Y170909D01*
X370482Y172029D01*
X370661Y172209D01*
X383824D01*
Y157514D01*
D02*
G37*
G36*
X126935Y165294D02*
Y156340D01*
X127070Y155312D01*
X127466Y154355D01*
X128098Y153532D01*
X128920Y152901D01*
X129602Y152507D01*
X130560Y152111D01*
X130890Y151966D01*
Y151184D01*
X131092Y150429D01*
X131483Y149752D01*
X132036Y149199D01*
X132712Y148809D01*
X133358Y148636D01*
Y151575D01*
X134358D01*
Y148636D01*
X135004Y148809D01*
X135681Y149199D01*
X136234Y149752D01*
X136356Y149965D01*
X137266D01*
X137388Y149752D01*
X137941Y149199D01*
X138618Y148809D01*
X139264Y148636D01*
Y151575D01*
X140264D01*
Y148541D01*
X140484Y148409D01*
X140672Y147996D01*
X140845Y147577D01*
X140885Y147525D01*
X140912Y147465D01*
X141106Y147230D01*
X140972Y146873D01*
X140651Y146536D01*
X140264Y146640D01*
Y143701D01*
Y140762D01*
X140910Y140935D01*
X141586Y141325D01*
X141683Y141421D01*
X142611Y141237D01*
X142865Y140624D01*
X143576Y139560D01*
X144481Y138655D01*
X145281Y138120D01*
Y132317D01*
X137598Y124634D01*
X136811Y124710D01*
Y125118D01*
X126969D01*
Y119340D01*
X126181Y119014D01*
X113076Y132119D01*
X113312Y132997D01*
X114104Y133209D01*
X115226Y133857D01*
X116143Y134774D01*
X116791Y135896D01*
X117126Y137147D01*
Y138443D01*
X116791Y139695D01*
X116751Y139764D01*
X120079Y143092D01*
X120148Y143052D01*
X121399Y142717D01*
X122695D01*
X123947Y143052D01*
X125069Y143700D01*
X125985Y144616D01*
X126633Y145738D01*
X126969Y146990D01*
Y148286D01*
X126633Y149537D01*
X125985Y150660D01*
X125069Y151576D01*
X123947Y152224D01*
X122695Y152559D01*
X121399D01*
X120148Y152224D01*
X119026Y151576D01*
X118109Y150660D01*
X117461Y149537D01*
X117126Y148286D01*
Y146990D01*
X117461Y145738D01*
X117501Y145669D01*
X114173Y142341D01*
X114104Y142381D01*
X112853Y142717D01*
X111557D01*
X110305Y142381D01*
X109183Y141733D01*
X108267Y140817D01*
X108106Y140538D01*
X107318Y140749D01*
Y150804D01*
X122047Y165533D01*
X122116Y165493D01*
X123368Y165157D01*
X124664D01*
X125915Y165493D01*
X126253Y165688D01*
X126935Y165294D01*
D02*
G37*
G36*
X383824Y29861D02*
X383037Y29230D01*
X381161Y29528D01*
X378682D01*
X376234Y29140D01*
X373876Y28374D01*
X371668Y27248D01*
X369662Y25791D01*
X367909Y24039D01*
X366452Y22033D01*
X365327Y19825D01*
X364561Y17467D01*
X364173Y15019D01*
Y12540D01*
X364470Y10664D01*
X363840Y9877D01*
X220472D01*
Y13544D01*
X220713Y13575D01*
X221442Y13770D01*
X221562Y13563D01*
X222224Y12900D01*
X223036Y12432D01*
X223909Y12197D01*
Y15633D01*
X223912Y15636D01*
Y15636D01*
X223912Y15636D01*
X223958Y15748D01*
X224909D01*
Y12197D01*
X225783Y12432D01*
X226595Y12900D01*
X227257Y13563D01*
X227394Y13799D01*
X227529Y13841D01*
X228285Y13768D01*
X228720Y13014D01*
X229549Y12185D01*
X230565Y11599D01*
X231697Y11295D01*
X232870D01*
X234002Y11599D01*
X235017Y12185D01*
X235846Y13014D01*
X236433Y14029D01*
X236736Y15162D01*
Y16334D01*
X236433Y17467D01*
X235846Y18482D01*
X235017Y19311D01*
X234002Y19897D01*
X232870Y20201D01*
X231697D01*
X230565Y19897D01*
X229549Y19311D01*
X228720Y18482D01*
X228285Y17728D01*
X227529Y17655D01*
X227394Y17697D01*
X227257Y17933D01*
X226595Y18596D01*
X225783Y19064D01*
X224878Y19307D01*
X224443D01*
Y19685D01*
X224308Y20713D01*
X223911Y21670D01*
X223280Y22493D01*
X223280Y22493D01*
X221004Y24769D01*
X221330Y25557D01*
X237205D01*
X238232Y25692D01*
X239190Y26089D01*
X240013Y26720D01*
X240644Y27542D01*
X241040Y28500D01*
X241176Y29528D01*
Y47210D01*
X306102Y47210D01*
X307130Y47345D01*
X308088Y47742D01*
X308910Y48373D01*
X309541Y49196D01*
X309938Y50153D01*
X310073Y51181D01*
X322835D01*
Y104217D01*
X323622Y104456D01*
X323960Y103950D01*
X324856Y103054D01*
X325909Y102350D01*
X326449Y102127D01*
X326506Y101251D01*
X326503Y101249D01*
X325759Y100505D01*
X325233Y99594D01*
X324961Y98577D01*
Y97525D01*
X325233Y96509D01*
X325759Y95597D01*
X326503Y94854D01*
X327414Y94327D01*
X328431Y94055D01*
X329483D01*
X330499Y94327D01*
X331410Y94854D01*
X332154Y95597D01*
X332680Y96509D01*
X332953Y97525D01*
Y98577D01*
X332746Y99350D01*
X333473Y99679D01*
X333960Y98950D01*
X334856Y98054D01*
X335910Y97350D01*
X336449Y97127D01*
X336506Y96251D01*
X336503Y96249D01*
X335759Y95505D01*
X335233Y94594D01*
X334961Y93577D01*
Y92525D01*
X335233Y91509D01*
X335759Y90597D01*
X336503Y89854D01*
X337414Y89327D01*
X338431Y89055D01*
X339483D01*
X340499Y89327D01*
X341410Y89854D01*
X342154Y90597D01*
X342680Y91509D01*
X342953Y92525D01*
Y93577D01*
X342680Y94594D01*
X342154Y95505D01*
X341410Y96249D01*
X341407Y96251D01*
X341464Y97127D01*
X342004Y97350D01*
X343057Y98054D01*
X343954Y98950D01*
X344658Y100004D01*
X345143Y101175D01*
X345390Y102418D01*
Y103685D01*
X345143Y104928D01*
X344658Y106098D01*
X343954Y107152D01*
X343057Y108048D01*
X342004Y108752D01*
X340833Y109237D01*
X340703Y109263D01*
X340640Y109575D01*
X340245Y110167D01*
X340245Y110167D01*
X332982Y117430D01*
X332390Y117825D01*
X331693Y117964D01*
X331693Y117964D01*
X322835D01*
Y153543D01*
X325205D01*
X325233Y153438D01*
X325759Y152527D01*
X326503Y151783D01*
X327414Y151257D01*
X328431Y150984D01*
X329483D01*
X330499Y151257D01*
X331410Y151783D01*
X332154Y152527D01*
X332680Y153438D01*
X332709Y153543D01*
X336561D01*
X336784Y152858D01*
X336788Y152756D01*
X336159Y152127D01*
X335699Y151330D01*
X335471Y150480D01*
X338957D01*
X342442D01*
X342214Y151330D01*
X341754Y152127D01*
X341125Y152756D01*
X341129Y152858D01*
X341352Y153543D01*
X383824D01*
Y29861D01*
D02*
G37*
G36*
X107348Y129051D02*
X107299Y128939D01*
X106884Y128402D01*
X106405Y128530D01*
Y126091D01*
X108845D01*
X108717Y126569D01*
X109254Y126985D01*
X109367Y127033D01*
X116410Y119989D01*
X116264Y119227D01*
X116161Y119124D01*
X115088Y118505D01*
X114172Y117589D01*
X113768Y116888D01*
X113008Y116748D01*
Y116748D01*
X113008Y116748D01*
X110933D01*
Y114961D01*
X109933D01*
Y116748D01*
X107858D01*
X107480Y117379D01*
Y120472D01*
X101035D01*
Y134335D01*
X101762Y134637D01*
X107348Y129051D01*
D02*
G37*
G36*
X282480Y124016D02*
X184055D01*
Y202756D01*
X282480D01*
Y124016D01*
D02*
G37*
G36*
X259606Y102397D02*
X265512D01*
X265512Y102397D01*
Y102397D01*
X266116Y101991D01*
X266321Y101785D01*
X267444Y101137D01*
X268695Y100802D01*
X269991D01*
X271243Y101137D01*
X272365Y101785D01*
X273281Y102701D01*
X273475Y103038D01*
X274780D01*
Y102397D01*
X279528D01*
Y82677D01*
X241513D01*
Y88523D01*
X236872D01*
X232230D01*
Y82677D01*
X208661D01*
Y108268D01*
X253095D01*
Y106047D01*
X255866D01*
X258638D01*
Y108268D01*
X259606D01*
Y102397D01*
D02*
G37*
G36*
X128920Y108766D02*
X129878Y108369D01*
X130905Y108234D01*
X156690D01*
Y105594D01*
X155665D01*
Y105744D01*
X151366D01*
Y102201D01*
Y98264D01*
X155665D01*
Y102351D01*
X157390D01*
X159573Y100168D01*
X159573Y100168D01*
X160294Y99686D01*
X161145Y99517D01*
X164393D01*
Y98551D01*
X170456D01*
Y98551D01*
X170614D01*
Y98551D01*
X175067D01*
X175770Y97848D01*
X176892Y97200D01*
X178144Y96865D01*
X179440D01*
X180691Y97200D01*
X181814Y97848D01*
X182730Y98764D01*
X183378Y99887D01*
X183713Y101138D01*
Y102434D01*
X183378Y103686D01*
X182730Y104808D01*
X182015Y105523D01*
X182884Y106391D01*
X183531Y107513D01*
X183725Y108234D01*
X204690D01*
Y82677D01*
X204826Y81649D01*
X205222Y80692D01*
X205854Y79869D01*
X206676Y79238D01*
X207634Y78842D01*
X208661Y78706D01*
X232230D01*
X233258Y78842D01*
X234215Y79238D01*
X235038Y79869D01*
X235669Y80692D01*
X235777Y80952D01*
X237967D01*
X238074Y80692D01*
X238706Y79869D01*
X239528Y79238D01*
X240486Y78842D01*
X241513Y78706D01*
X264874D01*
Y74440D01*
X264324D01*
Y63417D01*
X263699Y63026D01*
X262695D01*
X262175Y63598D01*
X262175Y63814D01*
Y68429D01*
X258813D01*
Y68929D01*
X258313D01*
Y74260D01*
X256185D01*
X255451Y74277D01*
X255449Y75046D01*
Y75059D01*
X255247Y75814D01*
X254856Y76491D01*
X254303Y77043D01*
X253626Y77434D01*
X252981Y77607D01*
Y74668D01*
X251981D01*
Y77607D01*
X251335Y77434D01*
X250658Y77043D01*
X250105Y76491D01*
X249714Y75814D01*
X249697Y75751D01*
X248882D01*
X248829Y75949D01*
X248438Y76626D01*
X247886Y77179D01*
X247209Y77569D01*
X246563Y77742D01*
Y74803D01*
X246063D01*
Y74303D01*
X243124D01*
X243297Y73657D01*
X243688Y72980D01*
X244240Y72428D01*
X244453Y72305D01*
Y71396D01*
X244240Y71273D01*
X243688Y70720D01*
X243297Y70043D01*
X243124Y69398D01*
X249002D01*
X248829Y70043D01*
X248438Y70720D01*
X247886Y71273D01*
X247673Y71396D01*
Y72305D01*
X247886Y72428D01*
X248438Y72980D01*
X248829Y73657D01*
X248846Y73721D01*
X249661D01*
X249714Y73522D01*
X250105Y72845D01*
X250658Y72293D01*
X250990Y72101D01*
X251074Y71601D01*
X251061Y71213D01*
X251056Y71199D01*
X250577Y70720D01*
X250186Y70043D01*
X250013Y69398D01*
X252953D01*
Y68898D01*
X253453D01*
Y65958D01*
X254099Y66131D01*
X254663Y66457D01*
X255079Y66325D01*
X255451Y66084D01*
Y63814D01*
X255451Y63598D01*
X254930Y63026D01*
X241513D01*
Y67657D01*
X236872D01*
Y68157D01*
D01*
Y67657D01*
X232230D01*
Y63026D01*
X218504D01*
X217476Y62891D01*
X216518Y62494D01*
X215696Y61863D01*
X215065Y61041D01*
X214668Y60083D01*
X214533Y59055D01*
Y51215D01*
X200787D01*
X199760Y51080D01*
X198802Y50683D01*
X197979Y50052D01*
X197348Y49230D01*
X196952Y48272D01*
X196816Y47244D01*
Y20201D01*
X196952Y19173D01*
X197348Y18215D01*
X197519Y17993D01*
X197104Y17274D01*
X196835Y16268D01*
Y16248D01*
X200647D01*
X200787Y16230D01*
Y15248D01*
X196835D01*
Y15228D01*
X197104Y14222D01*
X197624Y13321D01*
X197627Y13319D01*
X197301Y12531D01*
X132454D01*
X131537Y13447D01*
Y15784D01*
X132012D01*
Y23587D01*
X124209D01*
Y15784D01*
X125549D01*
Y12207D01*
X125651Y11432D01*
X125950Y10710D01*
X125986Y10664D01*
X125598Y9877D01*
X75821D01*
Y13009D01*
X76609Y13521D01*
X77486Y13347D01*
X78734D01*
X79959Y13590D01*
X81113Y14068D01*
X82151Y14762D01*
X82571Y15181D01*
X83110Y15587D01*
X83650Y15181D01*
X84070Y14762D01*
X85108Y14068D01*
X86261Y13590D01*
X87486Y13347D01*
X88735D01*
X89959Y13590D01*
X91113Y14068D01*
X92151Y14762D01*
X92571Y15181D01*
X93110Y15587D01*
X93650Y15181D01*
X94070Y14762D01*
X95108Y14068D01*
X96261Y13590D01*
X97486Y13347D01*
X98734D01*
X99959Y13590D01*
X101113Y14068D01*
X102151Y14762D01*
X102571Y15181D01*
X103110Y15587D01*
X103650Y15181D01*
X104070Y14762D01*
X105108Y14068D01*
X106261Y13590D01*
X107486Y13347D01*
X108735D01*
X109959Y13590D01*
X111113Y14068D01*
X112151Y14762D01*
X113034Y15644D01*
X113727Y16683D01*
X114205Y17836D01*
X114249Y18054D01*
X115070Y18148D01*
X115388Y17596D01*
X116022Y16963D01*
X116797Y16515D01*
X117610Y16297D01*
Y19685D01*
Y23073D01*
X116797Y22855D01*
X116022Y22407D01*
X115388Y21774D01*
X115123Y21315D01*
X114506Y21348D01*
X114356Y21373D01*
X114110Y22033D01*
X114454Y22481D01*
X114713Y23107D01*
X114802Y23779D01*
Y26890D01*
X115589Y27236D01*
X115748Y27165D01*
Y27165D01*
X123622D01*
Y33465D01*
X116148D01*
X115921Y33488D01*
X115663Y33981D01*
X116052Y34646D01*
X123622D01*
Y40945D01*
X118325D01*
X113326Y45944D01*
X112735Y46339D01*
X112037Y46478D01*
X112037Y46478D01*
X92884D01*
X92884Y46478D01*
X92187Y46339D01*
X91596Y45944D01*
X91596Y45944D01*
X87294Y41643D01*
X86899Y41052D01*
X86760Y40354D01*
X86760Y40354D01*
Y39606D01*
X85394D01*
Y33543D01*
X85394D01*
Y33386D01*
X85394D01*
Y27323D01*
X91772D01*
X92126Y27165D01*
Y27165D01*
X93466D01*
Y24407D01*
X92702Y24090D01*
X92571Y24189D01*
X92151Y24609D01*
X91113Y25302D01*
X89959Y25780D01*
X88735Y26024D01*
X87486D01*
X86261Y25780D01*
X85108Y25302D01*
X84070Y24609D01*
X83650Y24189D01*
X83110Y23783D01*
X82571Y24189D01*
X82151Y24609D01*
X81113Y25302D01*
X79959Y25780D01*
X78734Y26024D01*
X77486D01*
X77034Y25934D01*
X76425Y26433D01*
Y29494D01*
X77559D01*
X78587Y29629D01*
X79545Y30026D01*
X80367Y30657D01*
X80998Y31479D01*
X81395Y32437D01*
X81530Y33465D01*
Y47693D01*
X81515Y47805D01*
X81524Y47918D01*
X81448Y48318D01*
X81395Y48721D01*
X81352Y48825D01*
X81331Y48936D01*
X81154Y49303D01*
X80998Y49679D01*
X80929Y49768D01*
X80880Y49870D01*
X80615Y50178D01*
X80367Y50501D01*
X80277Y50570D01*
X80204Y50655D01*
X79629Y51169D01*
X79293Y51398D01*
X78970Y51645D01*
X78865Y51688D01*
X78772Y51752D01*
X78600Y51812D01*
X78548Y52203D01*
X78152Y53160D01*
X77521Y53983D01*
X77165Y54355D01*
Y60587D01*
Y66886D01*
X76436D01*
Y67323D01*
X76358Y67716D01*
X76921Y68504D01*
X87941D01*
Y65174D01*
X87688Y64920D01*
X87293Y64329D01*
X87154Y63631D01*
X87154Y63631D01*
Y56299D01*
X87154Y56299D01*
X87293Y55602D01*
X87688Y55011D01*
X92018Y50680D01*
X92018Y50680D01*
X92610Y50285D01*
X93307Y50146D01*
X93307Y50146D01*
X120183D01*
X120414Y49282D01*
X121062Y48159D01*
X121978Y47243D01*
X123100Y46595D01*
X124352Y46260D01*
X125648D01*
X125899Y46327D01*
X126524Y45848D01*
Y37205D01*
X124409D01*
Y30906D01*
X132283D01*
Y37205D01*
X130169D01*
Y48031D01*
X130169Y48031D01*
X130030Y48729D01*
X129635Y49320D01*
X129635Y49320D01*
X129604Y49351D01*
X129921Y50533D01*
Y51829D01*
X129586Y53081D01*
X128938Y54203D01*
X128022Y55119D01*
X126900Y55767D01*
X125648Y56102D01*
X124352D01*
X123100Y55767D01*
X121978Y55119D01*
X121062Y54203D01*
X120824Y53791D01*
X94062D01*
X90799Y57054D01*
Y59903D01*
X91586Y60114D01*
X91669Y59970D01*
X92585Y59054D01*
X93707Y58406D01*
X94959Y58071D01*
X96255D01*
X97506Y58406D01*
X98629Y59054D01*
X98985Y59410D01*
X99340Y59054D01*
X100463Y58406D01*
X101714Y58071D01*
X103010D01*
X104262Y58406D01*
X105384Y59054D01*
X106300Y59970D01*
X106948Y61093D01*
X107283Y62344D01*
Y62654D01*
X126485D01*
X126485Y62654D01*
X127182Y62793D01*
X127773Y63188D01*
X134613Y70028D01*
X161614D01*
Y68701D01*
X161614Y68701D01*
X161384Y68112D01*
X161384D01*
X161384Y68009D01*
Y62678D01*
X161384Y62049D01*
X161384Y61261D01*
Y55828D01*
X162948D01*
Y53635D01*
X162802D01*
Y46942D01*
X162802Y46351D01*
X162802Y45761D01*
Y39068D01*
X162948D01*
Y37236D01*
X161614D01*
Y32090D01*
X160720Y31196D01*
X160072Y30074D01*
X159737Y28822D01*
Y27526D01*
X160072Y26275D01*
X160720Y25153D01*
X161636Y24236D01*
X162759Y23588D01*
X164010Y23253D01*
X165306D01*
X166558Y23588D01*
X167680Y24236D01*
X168596Y25153D01*
X169244Y26275D01*
X169579Y27526D01*
Y28822D01*
X169244Y30074D01*
X169035Y30436D01*
X169429Y31118D01*
X170760D01*
Y33586D01*
X168488D01*
Y33084D01*
X167701Y32663D01*
X167520Y32784D01*
Y37236D01*
X166593D01*
Y39068D01*
X166739D01*
Y45761D01*
X166739Y46155D01*
X166809Y46234D01*
X167849D01*
X167920Y46155D01*
X167920Y45761D01*
Y39068D01*
X171857D01*
Y45761D01*
X171857Y46351D01*
X171857Y46942D01*
Y53635D01*
X167920D01*
Y53454D01*
X167829D01*
Y50092D01*
X166829D01*
Y53454D01*
X166739D01*
Y53635D01*
X166593D01*
Y55828D01*
X167762D01*
Y61261D01*
X167762Y61891D01*
X167762Y62678D01*
Y68014D01*
X167762Y68112D01*
X167762D01*
X167520Y68701D01*
X167520Y68701D01*
Y75000D01*
X161614D01*
Y73673D01*
X133858D01*
X133161Y73534D01*
X132570Y73139D01*
X132570Y73139D01*
X125730Y66299D01*
X108019D01*
X107334Y66984D01*
Y68504D01*
X107480D01*
Y71341D01*
X107677Y72047D01*
X113189D01*
Y72193D01*
X121653D01*
X121653Y72193D01*
X122351Y72332D01*
X122942Y72727D01*
X130029Y79814D01*
X130029Y79814D01*
X130424Y80405D01*
X130563Y81102D01*
Y87828D01*
X133432Y90697D01*
X143465D01*
Y89331D01*
X149154D01*
X149528Y89331D01*
X150240Y89512D01*
X152217D01*
Y92520D01*
Y95528D01*
X150240D01*
X149528Y95709D01*
X149154Y95709D01*
X143748D01*
Y99243D01*
X144012Y99429D01*
X144799Y99019D01*
Y98264D01*
X149099D01*
Y100232D01*
Y103776D01*
X148917D01*
Y103776D01*
X146949D01*
Y103972D01*
X146449D01*
Y105563D01*
X144980D01*
Y103776D01*
X144799D01*
Y103626D01*
X143736D01*
X143116Y103502D01*
X142590Y103151D01*
X140979Y101540D01*
X140628Y101014D01*
X140504Y100394D01*
Y94342D01*
X132677D01*
X131980Y94203D01*
X131388Y93808D01*
X131388Y93808D01*
X128200Y90620D01*
X127413Y90946D01*
Y108996D01*
X127796Y109220D01*
X128200Y109318D01*
X128920Y108766D01*
D02*
G37*
G36*
X318510Y171481D02*
X302845Y155816D01*
X302450Y155225D01*
X302311Y154528D01*
X302311Y154527D01*
Y147566D01*
X301635Y146890D01*
X297992D01*
Y140827D01*
X297992D01*
Y140669D01*
X297992D01*
Y134606D01*
X301635D01*
X302311Y133930D01*
Y126280D01*
X302311Y126280D01*
X302450Y125583D01*
X302845Y124991D01*
X319910Y107926D01*
X319999Y107242D01*
X319936Y106931D01*
X319672Y106562D01*
X319396Y106202D01*
X319371Y106142D01*
X319333Y106089D01*
X319173Y105664D01*
X318999Y105245D01*
X318990Y105180D01*
X318967Y105119D01*
X318923Y104667D01*
X318864Y104217D01*
Y95897D01*
X318076Y95571D01*
X317768Y95879D01*
X317091Y96270D01*
X316445Y96443D01*
Y93504D01*
X315945D01*
Y93004D01*
X313006D01*
X313179Y92358D01*
X313569Y91681D01*
X314122Y91128D01*
X314335Y91006D01*
Y90097D01*
X314122Y89974D01*
X313569Y89421D01*
X313179Y88744D01*
X313006Y88098D01*
X315945D01*
Y87098D01*
X313006D01*
X313179Y86453D01*
X313569Y85776D01*
X314122Y85223D01*
X314335Y85100D01*
Y84191D01*
X314122Y84068D01*
X313569Y83516D01*
X313179Y82839D01*
X313006Y82193D01*
X315945D01*
Y81693D01*
X316445D01*
Y78754D01*
X317091Y78927D01*
X317768Y79317D01*
X318076Y79626D01*
X318864Y79300D01*
Y55152D01*
X310073D01*
Y77715D01*
X309938Y78743D01*
X310002Y78873D01*
X310201Y78927D01*
X310878Y79317D01*
X311431Y79870D01*
X311821Y80547D01*
X311994Y81193D01*
X309055D01*
Y82193D01*
X311994D01*
X311821Y82839D01*
X311431Y83516D01*
X310878Y84068D01*
X310665Y84191D01*
Y85100D01*
X310878Y85223D01*
X311431Y85776D01*
X311821Y86453D01*
X311994Y87098D01*
X306116D01*
X306289Y86453D01*
X306680Y85776D01*
X307029Y85426D01*
X306509Y84833D01*
X306119Y85132D01*
X305162Y85529D01*
X304134Y85664D01*
X302848D01*
Y91854D01*
X298206D01*
Y92354D01*
X297706D01*
Y100244D01*
X295310D01*
Y120079D01*
X295174Y121107D01*
X294778Y122064D01*
X294146Y122887D01*
X293324Y123518D01*
X292366Y123914D01*
X291339Y124050D01*
X286451D01*
Y172209D01*
X318209D01*
X318510Y171481D01*
D02*
G37*
G36*
X15551Y87008D02*
X13189D01*
Y90158D01*
X15551D01*
Y87008D01*
D02*
G37*
G36*
Y61417D02*
X13189D01*
Y64567D01*
X15551D01*
Y61417D01*
D02*
G37*
G36*
Y35827D02*
X13189D01*
Y38976D01*
X15551D01*
Y35827D01*
D02*
G37*
G36*
X58169Y53553D02*
X57834Y52972D01*
X57499Y51721D01*
Y50425D01*
X57834Y49173D01*
X58482Y48051D01*
X59111Y47422D01*
X58870Y46566D01*
X58500Y46467D01*
X57823Y46076D01*
X57270Y45524D01*
X56880Y44847D01*
X56706Y44201D01*
X62585D01*
X62412Y44847D01*
X62113Y45364D01*
X62302Y45887D01*
X62507Y46152D01*
X63068D01*
X63897Y46374D01*
X64304Y45668D01*
X64160Y45524D01*
X63769Y44847D01*
X63596Y44201D01*
X66035D01*
Y46709D01*
X65662Y47355D01*
X66332Y48025D01*
X70472D01*
Y53639D01*
X70653Y53767D01*
X71034Y53663D01*
X71441Y53358D01*
Y51675D01*
X74213D01*
Y51175D01*
X74713D01*
Y48206D01*
X76772D01*
X76984Y48206D01*
X77559Y47693D01*
Y33465D01*
X72455D01*
Y25591D01*
X68913D01*
Y28240D01*
X62976D01*
Y25591D01*
X61811D01*
Y33465D01*
X56743D01*
X56573Y33875D01*
X55942Y34698D01*
X55392Y35120D01*
X55182Y35805D01*
X55226Y36137D01*
X55522Y36650D01*
X55695Y37295D01*
X49627D01*
X49076Y37018D01*
X48297Y37796D01*
X48228Y37836D01*
Y53542D01*
X48750Y53682D01*
X49872Y54330D01*
X49882Y54340D01*
X57715D01*
X58169Y53553D01*
D02*
G37*
G36*
X214533Y29528D02*
X214668Y28500D01*
X215065Y27542D01*
X215696Y26720D01*
X216518Y26089D01*
X216535Y26082D01*
Y23622D01*
X220472Y19685D01*
Y17622D01*
X219685Y17411D01*
X219383Y17933D01*
X218721Y18596D01*
X217909Y19064D01*
X217035Y19299D01*
Y15748D01*
X216035D01*
Y19299D01*
X215162Y19064D01*
X214625Y18755D01*
X214418Y18825D01*
X213707Y19889D01*
X212802Y20794D01*
X211738Y21505D01*
X210556Y21994D01*
X209301Y22244D01*
X208022D01*
X206767Y21994D01*
X205584Y21505D01*
X204520Y20794D01*
X203616Y19889D01*
X203311Y19433D01*
X202506Y19897D01*
X201374Y20201D01*
X200787D01*
Y47244D01*
X214533D01*
Y29528D01*
D02*
G37*
G36*
X53134Y29240D02*
X56102D01*
Y28740D01*
X56602D01*
Y24945D01*
X57925D01*
X57975Y24563D01*
X58202Y24016D01*
X58372Y23605D01*
X58680Y23204D01*
X58704Y23120D01*
X58511Y22241D01*
X58489Y22218D01*
X58217Y22060D01*
X57664Y21508D01*
X57273Y20831D01*
X57100Y20185D01*
X62979D01*
X62823Y20766D01*
X63244Y21454D01*
X63684Y21490D01*
X64034Y21009D01*
X64154Y20798D01*
X63990Y20185D01*
X69868D01*
X69695Y20831D01*
X69695Y20832D01*
X70149Y21620D01*
X71850D01*
Y20705D01*
X71772Y20309D01*
Y19061D01*
X71850Y18665D01*
Y9877D01*
X48425D01*
Y22624D01*
Y30048D01*
X49214Y30836D01*
X49822Y31890D01*
X53134D01*
Y29240D01*
D02*
G37*
G36*
X5932Y393701D02*
X208661D01*
Y387795D01*
X5932D01*
Y5906D01*
X387795D01*
Y204724D01*
X393701D01*
Y0D01*
X0D01*
Y5906D01*
X27D01*
Y387795D01*
X0D01*
Y393701D01*
X27D01*
Y393701D01*
X5932D01*
Y393701D01*
D02*
G37*
%LPC*%
G36*
X42339Y171669D02*
X39870D01*
Y169398D01*
X42339D01*
Y171669D01*
D02*
G37*
G36*
X38870D02*
X36402D01*
Y169398D01*
X38870D01*
Y171669D01*
D02*
G37*
G36*
X42339Y168398D02*
X39870D01*
Y166126D01*
X42339D01*
Y168398D01*
D02*
G37*
G36*
X38870D02*
X36402D01*
Y166126D01*
X38870D01*
Y168398D01*
D02*
G37*
G36*
X15342Y164465D02*
X15312D01*
X14286Y164190D01*
X13367Y163659D01*
X12617Y162908D01*
X12086Y161989D01*
X11811Y160964D01*
Y160933D01*
X15342D01*
Y164465D01*
D02*
G37*
G36*
Y159933D02*
X11811D01*
Y159902D01*
X12086Y158877D01*
X12617Y157958D01*
X13367Y157207D01*
X14286Y156676D01*
X15312Y156402D01*
X15342D01*
Y159933D01*
D02*
G37*
G36*
X48808Y138795D02*
X46340D01*
Y136524D01*
X48808D01*
Y138795D01*
D02*
G37*
G36*
X45340D02*
X42871D01*
Y136524D01*
X45340D01*
Y138795D01*
D02*
G37*
G36*
X48808Y135524D02*
X46340D01*
Y133252D01*
X48808D01*
Y135524D01*
D02*
G37*
G36*
X45340D02*
X42871D01*
Y133252D01*
X45340D01*
Y135524D01*
D02*
G37*
G36*
X15342Y125094D02*
X15312D01*
X14286Y124820D01*
X13367Y124289D01*
X12617Y123538D01*
X12086Y122619D01*
X11811Y121594D01*
Y121563D01*
X15342D01*
Y125094D01*
D02*
G37*
G36*
X67216Y120291D02*
X65929D01*
Y118217D01*
X67216D01*
Y120291D01*
D02*
G37*
G36*
X15342Y120563D02*
X11811D01*
Y120532D01*
X12086Y119507D01*
X12617Y118588D01*
X13367Y117837D01*
X14286Y117306D01*
X15312Y117032D01*
X15342D01*
Y120563D01*
D02*
G37*
G36*
X62295Y116748D02*
X60220D01*
Y115461D01*
X62295D01*
Y116748D01*
D02*
G37*
G36*
X73516Y120291D02*
X71366D01*
Y117717D01*
Y115142D01*
X73516D01*
Y117717D01*
Y120291D01*
D02*
G37*
G36*
X70366D02*
X68217D01*
Y117717D01*
Y115142D01*
X70366D01*
Y117717D01*
Y120291D01*
D02*
G37*
G36*
X67216Y117217D02*
X65845D01*
X65370Y116748D01*
X65142Y116748D01*
X63295D01*
Y114961D01*
X62795D01*
Y114461D01*
X60220D01*
Y113173D01*
Y112311D01*
X62795D01*
X65370D01*
Y114591D01*
X65929Y115142D01*
X66158Y115142D01*
X67216D01*
Y117217D01*
D02*
G37*
G36*
X65370Y111311D02*
X62795D01*
X60220D01*
Y110024D01*
Y109161D01*
X62795D01*
X65370D01*
Y110024D01*
Y111311D01*
D02*
G37*
G36*
Y108161D02*
X62795D01*
X60220D01*
Y106874D01*
Y106012D01*
X62795D01*
X65370D01*
Y106874D01*
Y108161D01*
D02*
G37*
G36*
X94488Y103382D02*
X90551D01*
X90161Y103304D01*
X89830Y103083D01*
X89304D01*
X88973Y103304D01*
X88583Y103382D01*
X87114D01*
Y94988D01*
X95508D01*
Y96457D01*
X95430Y96847D01*
X95209Y97178D01*
Y97704D01*
X95430Y98035D01*
X95508Y98425D01*
Y102362D01*
X95430Y102752D01*
X95209Y103083D01*
X94878Y103304D01*
X94488Y103382D01*
D02*
G37*
G36*
X86114D02*
X84646D01*
X84255Y103304D01*
X83925Y103083D01*
X83398D01*
X83067Y103304D01*
X82677Y103382D01*
X78740D01*
X78350Y103304D01*
X78019Y103083D01*
X77798Y102752D01*
X77721Y102362D01*
Y98425D01*
X77798Y98035D01*
X78019Y97704D01*
Y97178D01*
X77798Y96847D01*
X77721Y96457D01*
Y94988D01*
X86114D01*
Y103382D01*
D02*
G37*
G36*
X65370Y105012D02*
X62795D01*
X60220D01*
Y103724D01*
Y102862D01*
X62795D01*
X65370D01*
Y103724D01*
Y105012D01*
D02*
G37*
G36*
Y101862D02*
X62795D01*
X60220D01*
Y100575D01*
Y99713D01*
X62795D01*
X65370D01*
Y100575D01*
Y101862D01*
D02*
G37*
G36*
Y98713D02*
X62795D01*
X60220D01*
Y97425D01*
Y96563D01*
X62795D01*
X65370D01*
Y97425D01*
Y98713D01*
D02*
G37*
G36*
Y95563D02*
X62795D01*
X60220D01*
Y94276D01*
Y93413D01*
X62795D01*
X65370D01*
Y94276D01*
Y95563D01*
D02*
G37*
G36*
X86114Y93988D02*
X77721D01*
Y92520D01*
X77798Y92129D01*
X78019Y91799D01*
Y91272D01*
X77798Y90941D01*
X77721Y90551D01*
Y88583D01*
X77798Y88192D01*
X78019Y87862D01*
X79988Y85893D01*
X80318Y85672D01*
X80709Y85595D01*
X82677D01*
X83067Y85672D01*
X83398Y85893D01*
X83619Y86224D01*
X83697Y86614D01*
Y90551D01*
X83619Y90941D01*
X83880Y91317D01*
X84255Y91578D01*
X84646Y91500D01*
X86114D01*
Y93988D01*
D02*
G37*
G36*
X65370Y92413D02*
X62795D01*
X60220D01*
Y91126D01*
Y90264D01*
X62795D01*
X65370D01*
Y91126D01*
Y92413D01*
D02*
G37*
G36*
Y89264D02*
X62795D01*
X60220D01*
Y87976D01*
Y87114D01*
X62795D01*
X65370D01*
Y87976D01*
Y89264D01*
D02*
G37*
G36*
X95508Y93988D02*
X87114D01*
Y91500D01*
X88583D01*
X88973Y91578D01*
X89349Y91317D01*
X89609Y90941D01*
X89532Y90551D01*
Y86614D01*
X89609Y86224D01*
X89830Y85893D01*
X90161Y85672D01*
X90551Y85595D01*
X94488D01*
X94878Y85672D01*
X95209Y85893D01*
X95430Y86224D01*
X95508Y86614D01*
Y90551D01*
X95430Y90941D01*
X95209Y91272D01*
Y91799D01*
X95430Y92129D01*
X95508Y92520D01*
Y93988D01*
D02*
G37*
G36*
X65370Y86114D02*
X62795D01*
X60220D01*
Y84827D01*
Y83965D01*
X62795D01*
X65370D01*
Y84827D01*
Y86114D01*
D02*
G37*
G36*
Y82965D02*
X62795D01*
X60220D01*
Y81677D01*
Y80815D01*
X62795D01*
X65370D01*
Y81677D01*
Y82965D01*
D02*
G37*
G36*
Y79815D02*
X62795D01*
X60220D01*
Y78528D01*
Y77665D01*
X62795D01*
X65370D01*
Y78528D01*
Y79815D01*
D02*
G37*
G36*
X62295Y73516D02*
X60220D01*
Y72228D01*
X62295D01*
Y73516D01*
D02*
G37*
G36*
X65370Y76665D02*
X62795D01*
X60220D01*
Y75378D01*
Y74516D01*
X62795D01*
Y74016D01*
X63295D01*
Y72228D01*
X65142D01*
X65370Y72228D01*
X65845Y71760D01*
X67216D01*
Y73835D01*
X66158D01*
X65929Y73835D01*
X65370Y74386D01*
Y76665D01*
D02*
G37*
G36*
X68217Y73835D02*
Y71260D01*
Y68685D01*
X70366D01*
Y71260D01*
Y73835D01*
X68217D01*
D02*
G37*
G36*
X67216Y70760D02*
X65929D01*
Y68685D01*
X67216D01*
Y70760D01*
D02*
G37*
G36*
X39779Y69051D02*
X37114D01*
Y67272D01*
X39779D01*
Y69051D01*
D02*
G37*
G36*
X36114D02*
X33449D01*
Y67272D01*
X36114D01*
Y69051D01*
D02*
G37*
G36*
X39779Y66272D02*
X37114D01*
Y64492D01*
X39779D01*
Y66272D01*
D02*
G37*
G36*
X36114D02*
X33449D01*
Y64492D01*
X36114D01*
Y66272D01*
D02*
G37*
G36*
X70291Y66705D02*
X68020D01*
Y64237D01*
X70291D01*
Y66705D01*
D02*
G37*
G36*
X61979Y66655D02*
X61333Y66483D01*
X60656Y66092D01*
X60103Y65539D01*
X59712Y64862D01*
X59539Y64216D01*
X61979D01*
Y66655D01*
D02*
G37*
G36*
X35131Y50365D02*
Y47926D01*
X37570D01*
X37397Y48572D01*
X37006Y49249D01*
X36454Y49801D01*
X35777Y50192D01*
X35131Y50365D01*
D02*
G37*
G36*
X34131D02*
X33485Y50192D01*
X32808Y49801D01*
X32255Y49249D01*
X31865Y48572D01*
X31692Y47926D01*
X34131D01*
Y50365D01*
D02*
G37*
G36*
X37570Y46926D02*
X35131D01*
Y44487D01*
X35777Y44660D01*
X36454Y45051D01*
X37006Y45603D01*
X37397Y46280D01*
X37570Y46926D01*
D02*
G37*
G36*
X34131D02*
X31692D01*
X31865Y46280D01*
X32255Y45603D01*
X32808Y45051D01*
X33485Y44660D01*
X34131Y44487D01*
Y46926D01*
D02*
G37*
G36*
X39779Y43461D02*
X37114D01*
Y41681D01*
X39779D01*
Y43461D01*
D02*
G37*
G36*
X36114D02*
X33449D01*
Y41681D01*
X36114D01*
Y43461D01*
D02*
G37*
G36*
X39779Y40681D02*
X37114D01*
Y38902D01*
X39779D01*
Y40681D01*
D02*
G37*
G36*
X36114D02*
X33449D01*
Y38902D01*
X36114D01*
Y40681D01*
D02*
G37*
G36*
X80209Y296276D02*
X77740D01*
Y294004D01*
X80209D01*
Y296276D01*
D02*
G37*
G36*
X70972D02*
Y294004D01*
X73441D01*
Y296276D01*
X70972D01*
D02*
G37*
G36*
X73558Y288549D02*
X71119D01*
Y286109D01*
X71765Y286282D01*
X72442Y286673D01*
X72995Y287226D01*
X73385Y287903D01*
X73558Y288549D01*
D02*
G37*
G36*
X70119D02*
X67680D01*
X67853Y287903D01*
X68244Y287226D01*
X68796Y286673D01*
X69473Y286282D01*
X70119Y286109D01*
Y288549D01*
D02*
G37*
G36*
X80169Y288476D02*
X77730D01*
X77903Y287831D01*
X78294Y287154D01*
X78847Y286601D01*
X79523Y286210D01*
X80169Y286037D01*
Y288476D01*
D02*
G37*
G36*
X115642Y199579D02*
X112591D01*
X112825Y198705D01*
X113294Y197893D01*
X113956Y197231D01*
X114768Y196762D01*
X115642Y196528D01*
Y199579D01*
D02*
G37*
G36*
X119692D02*
X116642D01*
Y196528D01*
X117516Y196762D01*
X118327Y197231D01*
X118990Y197893D01*
X119458Y198705D01*
X119692Y199579D01*
D02*
G37*
G36*
X108555Y298805D02*
X107909Y298632D01*
X107232Y298241D01*
X106680Y297689D01*
X106557Y297476D01*
X105648D01*
X105525Y297689D01*
X104972Y298241D01*
X104295Y298632D01*
X103650Y298805D01*
Y295866D01*
Y292927D01*
X104295Y293100D01*
X104972Y293491D01*
X105525Y294043D01*
X105648Y294256D01*
X106557D01*
X106680Y294043D01*
X107232Y293491D01*
X107909Y293100D01*
X108555Y292927D01*
Y295866D01*
Y298805D01*
D02*
G37*
G36*
X109555D02*
Y296366D01*
X111994D01*
X111821Y297012D01*
X111431Y297689D01*
X110878Y298241D01*
X110201Y298632D01*
X109555Y298805D01*
D02*
G37*
G36*
X102650D02*
X102004Y298632D01*
X101327Y298241D01*
X100774Y297689D01*
X100383Y297012D01*
X100210Y296366D01*
X102650D01*
Y298805D01*
D02*
G37*
G36*
X111994Y295366D02*
X109555D01*
Y292927D01*
X110201Y293100D01*
X110878Y293491D01*
X111431Y294043D01*
X111821Y294720D01*
X111994Y295366D01*
D02*
G37*
G36*
X102650D02*
X100210D01*
X100383Y294720D01*
X100774Y294043D01*
X101327Y293491D01*
X102004Y293100D01*
X102650Y292927D01*
Y295366D01*
D02*
G37*
G36*
X108555Y291916D02*
X107909Y291743D01*
X107232Y291352D01*
X106680Y290799D01*
X106557Y290586D01*
X105648D01*
X105525Y290799D01*
X104972Y291352D01*
X104295Y291743D01*
X103650Y291916D01*
Y288976D01*
Y286037D01*
X104295Y286210D01*
X104972Y286601D01*
X105525Y287154D01*
X105648Y287366D01*
X106557D01*
X106680Y287154D01*
X107232Y286601D01*
X107909Y286210D01*
X108555Y286037D01*
Y288976D01*
Y291916D01*
D02*
G37*
G36*
X115445Y292772D02*
X112976D01*
Y289476D01*
X115445D01*
Y292772D01*
D02*
G37*
G36*
X109555Y291916D02*
Y289476D01*
X111994D01*
X111821Y290122D01*
X111431Y290799D01*
X110878Y291352D01*
X110201Y291743D01*
X109555Y291916D01*
D02*
G37*
G36*
X102650D02*
X102004Y291743D01*
X101327Y291352D01*
X100774Y290799D01*
X100383Y290122D01*
X100210Y289476D01*
X102650D01*
Y291916D01*
D02*
G37*
G36*
X111994Y288476D02*
X109555D01*
Y286037D01*
X110201Y286210D01*
X110878Y286601D01*
X111431Y287154D01*
X111821Y287831D01*
X111994Y288476D01*
D02*
G37*
G36*
X102650D02*
X100210D01*
X100383Y287831D01*
X100774Y287154D01*
X101327Y286601D01*
X102004Y286210D01*
X102650Y286037D01*
Y288476D01*
D02*
G37*
G36*
X115445Y288476D02*
X112976D01*
Y285181D01*
X115445D01*
Y288476D01*
D02*
G37*
G36*
X108555Y285026D02*
X107909Y284853D01*
X107232Y284462D01*
X106680Y283909D01*
X106557Y283697D01*
X105648D01*
X105525Y283909D01*
X104972Y284462D01*
X104295Y284853D01*
X103650Y285026D01*
Y282087D01*
Y279147D01*
X104295Y279320D01*
X104972Y279711D01*
X105525Y280264D01*
X105648Y280476D01*
X106557D01*
X106680Y280264D01*
X107232Y279711D01*
X107909Y279320D01*
X108555Y279147D01*
Y282087D01*
Y285026D01*
D02*
G37*
G36*
X109555D02*
Y282587D01*
X111994D01*
X111821Y283232D01*
X111431Y283909D01*
X110878Y284462D01*
X110201Y284853D01*
X109555Y285026D01*
D02*
G37*
G36*
X102650D02*
X102004Y284853D01*
X101327Y284462D01*
X100774Y283909D01*
X100383Y283232D01*
X100210Y282587D01*
X102650D01*
Y285026D01*
D02*
G37*
G36*
X111994Y281587D02*
X109555D01*
Y279147D01*
X110201Y279320D01*
X110878Y279711D01*
X111431Y280264D01*
X111821Y280941D01*
X111994Y281587D01*
D02*
G37*
G36*
X102650D02*
X100210D01*
X100383Y280941D01*
X100774Y280264D01*
X101327Y279711D01*
X102004Y279320D01*
X102650Y279147D01*
Y281587D01*
D02*
G37*
G36*
X126287Y292772D02*
Y289476D01*
X128756D01*
Y292772D01*
X126287D01*
D02*
G37*
G36*
X128756Y288476D02*
X126287D01*
Y285181D01*
X128756D01*
Y288476D01*
D02*
G37*
G36*
X148047Y245783D02*
X140657D01*
Y241642D01*
X148047D01*
Y245783D01*
D02*
G37*
G36*
X139657D02*
X132268D01*
Y241642D01*
X139657D01*
Y245783D01*
D02*
G37*
G36*
X148047Y240642D02*
X140657D01*
Y236500D01*
X148047D01*
Y240642D01*
D02*
G37*
G36*
X139657D02*
X132268D01*
Y236500D01*
X139657D01*
Y240642D01*
D02*
G37*
G36*
X144087Y206315D02*
X140241D01*
Y203551D01*
X144087D01*
Y206315D01*
D02*
G37*
G36*
X139241D02*
X135394D01*
Y205906D01*
Y203551D01*
X139241D01*
Y206315D01*
D02*
G37*
G36*
X159646Y195472D02*
X154921D01*
Y188386D01*
X154921D01*
X155400Y187805D01*
X155538Y187107D01*
X155933Y186516D01*
X156856Y185594D01*
X156856Y185593D01*
X157447Y185198D01*
X158144Y185060D01*
X164434D01*
X164434Y185060D01*
X165131Y185198D01*
X165722Y185593D01*
X166517Y186388D01*
X167048Y186345D01*
X167382Y186202D01*
X167524Y185673D01*
X168172Y184551D01*
X169088Y183634D01*
X170210Y182986D01*
X171462Y182651D01*
X172758D01*
X174009Y182986D01*
X175131Y183634D01*
X176048Y184551D01*
X176696Y185673D01*
X177031Y186924D01*
Y188220D01*
X176696Y189472D01*
X176048Y190594D01*
X175197Y191445D01*
Y194882D01*
X169685D01*
X168898Y194882D01*
Y194882D01*
X168898D01*
Y194882D01*
X162598D01*
Y188976D01*
X161924Y188705D01*
X159646D01*
Y195472D01*
D02*
G37*
G36*
X144087Y202551D02*
X139741D01*
X135394D01*
Y200787D01*
Y199787D01*
X135791D01*
Y194095D01*
X135213D01*
Y187205D01*
X136373D01*
Y185838D01*
X136488Y184961D01*
X136628Y184622D01*
X136827Y184143D01*
X137366Y183440D01*
X140133Y180673D01*
X140133Y180673D01*
X140836Y180134D01*
X141654Y179795D01*
X142092Y179737D01*
X142531Y179680D01*
X142531Y179680D01*
X143075D01*
X143576Y178930D01*
X144481Y178025D01*
X145545Y177314D01*
X146727Y176824D01*
X147982Y176575D01*
X149262D01*
X150517Y176824D01*
X151699Y177314D01*
X152763Y178025D01*
X153668Y178930D01*
X154379Y179994D01*
X154868Y181176D01*
X155118Y182431D01*
Y183711D01*
X154868Y184966D01*
X154379Y186148D01*
X153668Y187212D01*
X152763Y188117D01*
X152165Y188516D01*
Y195472D01*
X150674D01*
X150359Y195943D01*
X149667Y196635D01*
X149141Y196986D01*
X148521Y197110D01*
X145705D01*
Y199787D01*
X145627Y200178D01*
X145406Y200508D01*
X145075Y200729D01*
X144783Y200787D01*
X144685Y200807D01*
X144087D01*
Y202551D01*
D02*
G37*
G36*
X287197Y108515D02*
X284925D01*
Y106047D01*
X287197D01*
Y108515D01*
D02*
G37*
G36*
Y105047D02*
X284925D01*
Y102578D01*
X287197D01*
Y105047D01*
D02*
G37*
G36*
X302848Y79378D02*
X298706D01*
Y71988D01*
X302848D01*
Y79378D01*
D02*
G37*
G36*
X297706D02*
X293565D01*
Y71988D01*
X297706D01*
Y79378D01*
D02*
G37*
G36*
X280285Y74260D02*
X277423D01*
Y69429D01*
X280285D01*
Y74260D01*
D02*
G37*
G36*
X276423D02*
X273561D01*
Y69429D01*
X276423D01*
Y74260D01*
D02*
G37*
G36*
X302848Y70988D02*
X298706D01*
Y63598D01*
X302848D01*
Y70988D01*
D02*
G37*
G36*
X297706D02*
X293565D01*
Y63598D01*
X297706D01*
Y70988D01*
D02*
G37*
G36*
X280285Y68429D02*
X277423D01*
Y63598D01*
X280285D01*
Y68429D01*
D02*
G37*
G36*
X276423D02*
X273561D01*
Y63598D01*
X276423D01*
Y68429D01*
D02*
G37*
G36*
X230626Y41602D02*
X225500D01*
Y38051D01*
X230626D01*
Y41602D01*
D02*
G37*
G36*
X224500D02*
X219374D01*
Y38051D01*
X224500D01*
Y41602D01*
D02*
G37*
G36*
X230626Y37051D02*
X225500D01*
Y33500D01*
X230626D01*
Y37051D01*
D02*
G37*
G36*
X224500D02*
X219374D01*
Y33500D01*
X224500D01*
Y37051D01*
D02*
G37*
G36*
X173520Y249484D02*
Y247044D01*
X175959D01*
X175786Y247690D01*
X175395Y248367D01*
X174842Y248920D01*
X174165Y249311D01*
X173520Y249484D01*
D02*
G37*
G36*
X172520D02*
X171874Y249311D01*
X171197Y248920D01*
X170644Y248367D01*
X170253Y247690D01*
X170080Y247044D01*
X172520D01*
Y249484D01*
D02*
G37*
G36*
X168913Y245783D02*
X161524D01*
Y241642D01*
X168913D01*
Y245783D01*
D02*
G37*
G36*
X175959Y246044D02*
X170080D01*
X170253Y245399D01*
X170644Y244722D01*
X171197Y244169D01*
X171410Y244046D01*
Y243137D01*
X171197Y243014D01*
X170644Y242462D01*
X170253Y241785D01*
X170080Y241139D01*
X175959D01*
X175786Y241785D01*
X175395Y242462D01*
X174842Y243014D01*
X174630Y243137D01*
Y244046D01*
X174842Y244169D01*
X175395Y244722D01*
X175786Y245399D01*
X175959Y246044D01*
D02*
G37*
G36*
X168913Y240642D02*
X161524D01*
Y236500D01*
X168913D01*
Y240642D01*
D02*
G37*
G36*
X175959Y240139D02*
X170080D01*
X170253Y239493D01*
X170644Y238816D01*
X171197Y238264D01*
X171410Y238141D01*
Y237232D01*
X171197Y237109D01*
X170644Y236556D01*
X170253Y235879D01*
X170080Y235233D01*
X175959D01*
X175786Y235879D01*
X175395Y236556D01*
X174842Y237109D01*
X174630Y237232D01*
Y238141D01*
X174842Y238264D01*
X175395Y238816D01*
X175786Y239493D01*
X175959Y240139D01*
D02*
G37*
G36*
Y234233D02*
X173520D01*
Y231794D01*
X174165Y231967D01*
X174842Y232358D01*
X175395Y232911D01*
X175786Y233588D01*
X175959Y234233D01*
D02*
G37*
G36*
X172520D02*
X170080D01*
X170253Y233588D01*
X170644Y232911D01*
X171197Y232358D01*
X171874Y231967D01*
X172520Y231794D01*
Y234233D01*
D02*
G37*
G36*
X328457Y164480D02*
X325471D01*
X325699Y163631D01*
X326159Y162834D01*
X326810Y162183D01*
X327607Y161723D01*
X328457Y161495D01*
Y164480D01*
D02*
G37*
G36*
X332442D02*
X329457D01*
Y161495D01*
X330306Y161723D01*
X331103Y162183D01*
X331754Y162834D01*
X332214Y163631D01*
X332442Y164480D01*
D02*
G37*
G36*
X139264Y146640D02*
X138618Y146467D01*
X137941Y146076D01*
X137388Y145524D01*
X137266Y145311D01*
X136356D01*
X136234Y145524D01*
X135681Y146076D01*
X135004Y146467D01*
X134358Y146640D01*
Y143701D01*
Y140762D01*
X135004Y140935D01*
X135681Y141325D01*
X136234Y141878D01*
X136356Y142091D01*
X137266D01*
X137388Y141878D01*
X137941Y141325D01*
X138618Y140935D01*
X139264Y140762D01*
Y143701D01*
Y146640D01*
D02*
G37*
G36*
X133358D02*
X132712Y146467D01*
X132036Y146076D01*
X131483Y145524D01*
X131092Y144847D01*
X130919Y144201D01*
X133358D01*
Y146640D01*
D02*
G37*
G36*
Y143201D02*
X130919D01*
X131092Y142555D01*
X131483Y141878D01*
X132036Y141325D01*
X132712Y140935D01*
X133358Y140762D01*
Y143201D01*
D02*
G37*
G36*
X136630Y134937D02*
X132390D01*
Y131484D01*
X136630D01*
Y134937D01*
D02*
G37*
G36*
X131390D02*
X127150D01*
Y131484D01*
X131390D01*
Y134937D01*
D02*
G37*
G36*
X136630Y130484D02*
X132390D01*
Y127032D01*
X136630D01*
Y130484D01*
D02*
G37*
G36*
X131390D02*
X127150D01*
Y127032D01*
X131390D01*
Y130484D01*
D02*
G37*
G36*
X338457Y149480D02*
X335471D01*
X335699Y148631D01*
X336159Y147834D01*
X336810Y147183D01*
X337607Y146722D01*
X338457Y146495D01*
Y149480D01*
D02*
G37*
G36*
X342442D02*
X339457D01*
Y146495D01*
X340306Y146722D01*
X341103Y147183D01*
X341754Y147834D01*
X342214Y148631D01*
X342442Y149480D01*
D02*
G37*
G36*
X329457Y148466D02*
Y145480D01*
X332442D01*
X332214Y146330D01*
X331754Y147127D01*
X331103Y147778D01*
X330306Y148238D01*
X329457Y148466D01*
D02*
G37*
G36*
X328457Y148466D02*
X327607Y148238D01*
X326810Y147778D01*
X326159Y147127D01*
X325699Y146330D01*
X325471Y145480D01*
X328457D01*
Y148466D01*
D02*
G37*
G36*
Y144480D02*
X325471D01*
X325699Y143631D01*
X326159Y142834D01*
X326810Y142183D01*
X327607Y141723D01*
X328457Y141495D01*
Y144480D01*
D02*
G37*
G36*
X332442D02*
X329457D01*
Y141495D01*
X330306Y141723D01*
X331103Y142183D01*
X331754Y142834D01*
X332214Y143631D01*
X332442Y144480D01*
D02*
G37*
G36*
X342453Y143476D02*
X339457D01*
Y140480D01*
X342453D01*
Y143476D01*
D02*
G37*
G36*
X338457D02*
X335461D01*
Y140480D01*
X338457D01*
Y143476D01*
D02*
G37*
G36*
X342453Y139480D02*
X339457D01*
Y136484D01*
X342453D01*
Y139480D01*
D02*
G37*
G36*
X338457D02*
X335461D01*
Y136484D01*
X338457D01*
Y139480D01*
D02*
G37*
G36*
X364965Y145217D02*
X362948D01*
X360971Y144823D01*
X359108Y144052D01*
X357432Y142931D01*
X356006Y141506D01*
X354886Y139829D01*
X354114Y137966D01*
X353720Y135988D01*
Y133972D01*
X354114Y131994D01*
X354886Y130132D01*
X356006Y128455D01*
X357432Y127029D01*
X359108Y125909D01*
X360971Y125137D01*
X362948Y124744D01*
X364965D01*
X366943Y125137D01*
X368805Y125909D01*
X370482Y127029D01*
X371908Y128455D01*
X373028Y130132D01*
X373799Y131994D01*
X374193Y133972D01*
Y135988D01*
X373799Y137966D01*
X373028Y139829D01*
X371908Y141506D01*
X370482Y142931D01*
X368805Y144052D01*
X366943Y144823D01*
X364965Y145217D01*
D02*
G37*
G36*
Y123287D02*
X362948D01*
X360971Y122894D01*
X359108Y122122D01*
X357432Y121002D01*
X356006Y119576D01*
X354886Y117900D01*
X354114Y116037D01*
X353720Y114059D01*
Y112043D01*
X354114Y110065D01*
X354886Y108203D01*
X356006Y106526D01*
X357432Y105100D01*
X359108Y103980D01*
X360971Y103208D01*
X362948Y102815D01*
X364965D01*
X366943Y103208D01*
X368805Y103980D01*
X370482Y105100D01*
X371908Y106526D01*
X373028Y108203D01*
X373799Y110065D01*
X374193Y112043D01*
Y114059D01*
X373799Y116037D01*
X373028Y117900D01*
X371908Y119576D01*
X370482Y121002D01*
X368805Y122122D01*
X366943Y122894D01*
X364965Y123287D01*
D02*
G37*
G36*
X329483Y92047D02*
X328431D01*
X327414Y91775D01*
X326503Y91249D01*
X325759Y90505D01*
X325233Y89594D01*
X324961Y88577D01*
Y87525D01*
X325233Y86509D01*
X325759Y85597D01*
X326503Y84854D01*
X327414Y84327D01*
X328431Y84055D01*
X329483D01*
X330499Y84327D01*
X331410Y84854D01*
X332154Y85597D01*
X332680Y86509D01*
X332953Y87525D01*
Y88577D01*
X332680Y89594D01*
X332154Y90505D01*
X331410Y91249D01*
X330499Y91775D01*
X329483Y92047D01*
D02*
G37*
G36*
X339457Y86537D02*
Y83551D01*
X342442D01*
X342214Y84401D01*
X341754Y85198D01*
X341103Y85849D01*
X340306Y86309D01*
X339457Y86537D01*
D02*
G37*
G36*
X338457D02*
X337607Y86309D01*
X336810Y85849D01*
X336159Y85198D01*
X335699Y84401D01*
X335471Y83551D01*
X338457D01*
Y86537D01*
D02*
G37*
G36*
X342442Y82551D02*
X339457D01*
Y79566D01*
X340306Y79793D01*
X341103Y80254D01*
X341754Y80905D01*
X342214Y81702D01*
X342442Y82551D01*
D02*
G37*
G36*
X338457D02*
X335471D01*
X335699Y81702D01*
X336159Y80905D01*
X336810Y80254D01*
X337607Y79793D01*
X338457Y79566D01*
Y82551D01*
D02*
G37*
G36*
X329457Y81537D02*
Y78551D01*
X332442D01*
X332214Y79401D01*
X331754Y80198D01*
X331103Y80849D01*
X330306Y81309D01*
X329457Y81537D01*
D02*
G37*
G36*
X328457D02*
X327607Y81309D01*
X326810Y80849D01*
X326159Y80198D01*
X325699Y79401D01*
X325471Y78551D01*
X328457D01*
Y81537D01*
D02*
G37*
G36*
X332442Y77551D02*
X329457D01*
Y74566D01*
X330306Y74793D01*
X331103Y75254D01*
X331754Y75905D01*
X332214Y76702D01*
X332442Y77551D01*
D02*
G37*
G36*
X328457D02*
X325471D01*
X325699Y76702D01*
X326159Y75905D01*
X326810Y75254D01*
X327607Y74793D01*
X328457Y74566D01*
Y77551D01*
D02*
G37*
G36*
X342453Y76547D02*
X339457D01*
Y73551D01*
X342453D01*
Y76547D01*
D02*
G37*
G36*
X338457D02*
X335461D01*
Y73551D01*
X338457D01*
Y76547D01*
D02*
G37*
G36*
X342453Y72551D02*
X339457D01*
Y69555D01*
X342453D01*
Y72551D01*
D02*
G37*
G36*
X338457D02*
X335461D01*
Y69555D01*
X338457D01*
Y72551D01*
D02*
G37*
G36*
X364965Y78287D02*
X362948D01*
X360971Y77894D01*
X359108Y77122D01*
X357432Y76002D01*
X356006Y74576D01*
X354886Y72900D01*
X354114Y71037D01*
X353720Y69059D01*
Y67043D01*
X354114Y65065D01*
X354886Y63203D01*
X356006Y61526D01*
X357432Y60100D01*
X359108Y58980D01*
X360971Y58208D01*
X362948Y57815D01*
X364965D01*
X366943Y58208D01*
X368805Y58980D01*
X370482Y60100D01*
X371908Y61526D01*
X373028Y63203D01*
X373799Y65065D01*
X374193Y67043D01*
Y69059D01*
X373799Y71037D01*
X373028Y72900D01*
X371908Y74576D01*
X370482Y76002D01*
X368805Y77122D01*
X366943Y77894D01*
X364965Y78287D01*
D02*
G37*
G36*
X354051Y44209D02*
X349713D01*
Y39870D01*
X354051D01*
Y44209D01*
D02*
G37*
G36*
X329850D02*
X329713D01*
Y39870D01*
X334051D01*
Y40007D01*
X333721Y41238D01*
X333084Y42341D01*
X332184Y43242D01*
X331080Y43879D01*
X329850Y44209D01*
D02*
G37*
G36*
X309850D02*
X309713D01*
Y39870D01*
X314051D01*
Y40007D01*
X313721Y41238D01*
X313084Y42341D01*
X312184Y43242D01*
X311080Y43879D01*
X309850Y44209D01*
D02*
G37*
G36*
X348713D02*
X344374D01*
Y39870D01*
X348713D01*
Y44209D01*
D02*
G37*
G36*
X328713D02*
X328576D01*
X327345Y43879D01*
X326242Y43242D01*
X325341Y42341D01*
X324704Y41238D01*
X324374Y40007D01*
Y39870D01*
X328713D01*
Y44209D01*
D02*
G37*
G36*
X308713D02*
X308576D01*
X307345Y43879D01*
X306242Y43242D01*
X305341Y42341D01*
X304704Y41238D01*
X304374Y40007D01*
Y39870D01*
X308713D01*
Y44209D01*
D02*
G37*
G36*
X354051Y38870D02*
X349713D01*
Y34532D01*
X354051D01*
Y38870D01*
D02*
G37*
G36*
X348713D02*
X344374D01*
Y34532D01*
X348713D01*
Y38870D01*
D02*
G37*
G36*
X334051D02*
X329713D01*
Y34532D01*
X329850D01*
X331080Y34861D01*
X332184Y35498D01*
X333084Y36399D01*
X333721Y37503D01*
X334051Y38733D01*
Y38870D01*
D02*
G37*
G36*
X328713D02*
X324374D01*
Y38733D01*
X324704Y37503D01*
X325341Y36399D01*
X326242Y35498D01*
X327345Y34861D01*
X328576Y34532D01*
X328713D01*
Y38870D01*
D02*
G37*
G36*
X314051D02*
X309713D01*
Y34532D01*
X309850D01*
X311080Y34861D01*
X312184Y35498D01*
X313084Y36399D01*
X313721Y37503D01*
X314051Y38733D01*
Y38870D01*
D02*
G37*
G36*
X308713D02*
X304374D01*
Y38733D01*
X304704Y37503D01*
X305341Y36399D01*
X306242Y35498D01*
X307345Y34861D01*
X308576Y34532D01*
X308713D01*
Y38870D01*
D02*
G37*
G36*
X289915Y44709D02*
X288510D01*
X287152Y44345D01*
X285935Y43642D01*
X284941Y42648D01*
X284238Y41431D01*
X283874Y40073D01*
Y38667D01*
X284238Y37310D01*
X284941Y36092D01*
X285935Y35098D01*
X287152Y34395D01*
X288510Y34032D01*
X289915D01*
X291273Y34395D01*
X292491Y35098D01*
X293484Y36092D01*
X294187Y37310D01*
X294551Y38667D01*
Y40073D01*
X294187Y41431D01*
X293484Y42648D01*
X292491Y43642D01*
X291273Y44345D01*
X289915Y44709D01*
D02*
G37*
G36*
X269915D02*
X268510D01*
X267152Y44345D01*
X265935Y43642D01*
X264941Y42648D01*
X264238Y41431D01*
X263874Y40073D01*
Y38667D01*
X264238Y37310D01*
X264941Y36092D01*
X265935Y35098D01*
X267152Y34395D01*
X268510Y34032D01*
X269915D01*
X271273Y34395D01*
X272491Y35098D01*
X273484Y36092D01*
X274187Y37310D01*
X274551Y38667D01*
Y40073D01*
X274187Y41431D01*
X273484Y42648D01*
X272491Y43642D01*
X271273Y44345D01*
X269915Y44709D01*
D02*
G37*
G36*
X249915D02*
X248510D01*
X247152Y44345D01*
X245935Y43642D01*
X244941Y42648D01*
X244238Y41431D01*
X243874Y40073D01*
Y38667D01*
X244238Y37310D01*
X244941Y36092D01*
X245935Y35098D01*
X247152Y34395D01*
X248510Y34032D01*
X249915D01*
X251273Y34395D01*
X252491Y35098D01*
X253485Y36092D01*
X254187Y37310D01*
X254551Y38667D01*
Y40073D01*
X254187Y41431D01*
X253485Y42648D01*
X252491Y43642D01*
X251273Y44345D01*
X249915Y44709D01*
D02*
G37*
G36*
X105405Y128530D02*
X104760Y128357D01*
X104083Y127966D01*
X103530Y127413D01*
X103139Y126736D01*
X102966Y126091D01*
X105405D01*
Y128530D01*
D02*
G37*
G36*
X108845Y125091D02*
X106405D01*
Y122651D01*
X107051Y122824D01*
X107728Y123215D01*
X108281Y123768D01*
X108672Y124445D01*
X108845Y125091D01*
D02*
G37*
G36*
X105405D02*
X102966D01*
X103139Y124445D01*
X103530Y123768D01*
X104083Y123215D01*
X104760Y122824D01*
X105405Y122651D01*
Y125091D01*
D02*
G37*
G36*
X258638Y105047D02*
X256366D01*
Y102578D01*
X258638D01*
Y105047D01*
D02*
G37*
G36*
X255366D02*
X253095D01*
Y102578D01*
X255366D01*
Y105047D01*
D02*
G37*
G36*
X248532Y104317D02*
Y101878D01*
X250971D01*
X250798Y102524D01*
X250407Y103201D01*
X249854Y103753D01*
X249177Y104144D01*
X248532Y104317D01*
D02*
G37*
G36*
X247532D02*
X246886Y104144D01*
X246209Y103753D01*
X245656Y103201D01*
X245265Y102524D01*
X245092Y101878D01*
X247532D01*
Y104317D01*
D02*
G37*
G36*
X241642D02*
Y101878D01*
X244081D01*
X243908Y102524D01*
X243517Y103201D01*
X242964Y103753D01*
X242287Y104144D01*
X241642Y104317D01*
D02*
G37*
G36*
X240642D02*
X239996Y104144D01*
X239319Y103753D01*
X238766Y103201D01*
X238375Y102524D01*
X238203Y101878D01*
X240642D01*
Y104317D01*
D02*
G37*
G36*
X234752D02*
Y101878D01*
X237191D01*
X237018Y102524D01*
X236627Y103201D01*
X236075Y103753D01*
X235398Y104144D01*
X234752Y104317D01*
D02*
G37*
G36*
X233752D02*
X233106Y104144D01*
X232429Y103753D01*
X231877Y103201D01*
X231486Y102524D01*
X231313Y101878D01*
X233752D01*
Y104317D01*
D02*
G37*
G36*
X227862D02*
Y101878D01*
X230301D01*
X230128Y102524D01*
X229738Y103201D01*
X229185Y103753D01*
X228508Y104144D01*
X227862Y104317D01*
D02*
G37*
G36*
X226862D02*
X226216Y104144D01*
X225539Y103753D01*
X224987Y103201D01*
X224596Y102524D01*
X224423Y101878D01*
X226862D01*
Y104317D01*
D02*
G37*
G36*
X250971Y100878D02*
X248532D01*
Y98439D01*
X249177Y98612D01*
X249854Y99002D01*
X250407Y99555D01*
X250798Y100232D01*
X250971Y100878D01*
D02*
G37*
G36*
X247532D02*
X245092D01*
X245265Y100232D01*
X245656Y99555D01*
X246209Y99002D01*
X246886Y98612D01*
X247532Y98439D01*
Y100878D01*
D02*
G37*
G36*
X244081D02*
X241642D01*
Y98439D01*
X242287Y98612D01*
X242964Y99002D01*
X243517Y99555D01*
X243908Y100232D01*
X244081Y100878D01*
D02*
G37*
G36*
X240642D02*
X238203D01*
X238375Y100232D01*
X238766Y99555D01*
X239319Y99002D01*
X239996Y98612D01*
X240642Y98439D01*
Y100878D01*
D02*
G37*
G36*
X237191D02*
X234752D01*
Y98439D01*
X235398Y98612D01*
X236075Y99002D01*
X236627Y99555D01*
X237018Y100232D01*
X237191Y100878D01*
D02*
G37*
G36*
X233752D02*
X231313D01*
X231486Y100232D01*
X231877Y99555D01*
X232429Y99002D01*
X233106Y98612D01*
X233752Y98439D01*
Y100878D01*
D02*
G37*
G36*
X230301D02*
X227862D01*
Y98439D01*
X228508Y98612D01*
X229185Y99002D01*
X229738Y99555D01*
X230128Y100232D01*
X230301Y100878D01*
D02*
G37*
G36*
X226862D02*
X224423D01*
X224596Y100232D01*
X224987Y99555D01*
X225539Y99002D01*
X226216Y98612D01*
X226862Y98439D01*
Y100878D01*
D02*
G37*
G36*
X219972Y97427D02*
X219327Y97254D01*
X218650Y96864D01*
X218097Y96311D01*
X217974Y96098D01*
X217065D01*
X216942Y96311D01*
X216390Y96864D01*
X215713Y97254D01*
X215067Y97427D01*
Y94488D01*
Y91549D01*
X215713Y91722D01*
X216390Y92113D01*
X216942Y92665D01*
X217065Y92878D01*
X217974D01*
X218097Y92665D01*
X218650Y92113D01*
X219327Y91722D01*
X219972Y91549D01*
Y94488D01*
Y97427D01*
D02*
G37*
G36*
X214067D02*
X213421Y97254D01*
X212744Y96864D01*
X212192Y96311D01*
X211801Y95634D01*
X211628Y94988D01*
X214067D01*
Y97427D01*
D02*
G37*
G36*
X227634Y97012D02*
Y94573D01*
X230073D01*
X229900Y95219D01*
X229509Y95896D01*
X228956Y96448D01*
X228279Y96839D01*
X227634Y97012D01*
D02*
G37*
G36*
X275758Y98669D02*
X268368D01*
Y93838D01*
X275758D01*
Y98669D01*
D02*
G37*
G36*
X267368D02*
X259978D01*
Y93838D01*
X267368D01*
Y98669D01*
D02*
G37*
G36*
X214067Y93988D02*
X211628D01*
X211801Y93342D01*
X212192Y92665D01*
X212744Y92113D01*
X213421Y91722D01*
X214067Y91549D01*
Y93988D01*
D02*
G37*
G36*
X230073Y93573D02*
X227634D01*
Y91134D01*
X228279Y91307D01*
X228956Y91698D01*
X229509Y92250D01*
X229900Y92927D01*
X230073Y93573D01*
D02*
G37*
G36*
X220972Y97427D02*
Y94488D01*
Y91549D01*
X221618Y91722D01*
X222295Y92113D01*
X222848Y92665D01*
X223239Y93342D01*
X223378Y93862D01*
X224165Y93758D01*
Y93682D01*
X224367Y92927D01*
X224758Y92250D01*
X225311Y91698D01*
X225988Y91307D01*
X226634Y91134D01*
Y94073D01*
Y97012D01*
X225988Y96839D01*
X225311Y96448D01*
X224758Y95896D01*
X224367Y95219D01*
X224228Y94699D01*
X223441Y94803D01*
Y94879D01*
X223239Y95634D01*
X222848Y96311D01*
X222295Y96864D01*
X221618Y97254D01*
X220972Y97427D01*
D02*
G37*
G36*
X241513Y96913D02*
X237372D01*
Y89523D01*
X241513D01*
Y96913D01*
D02*
G37*
G36*
X236372D02*
X232230D01*
Y89523D01*
X236372D01*
Y96913D01*
D02*
G37*
G36*
X219972Y89553D02*
X219327Y89380D01*
X218650Y88990D01*
X218097Y88437D01*
X217974Y88224D01*
X217065D01*
X216942Y88437D01*
X216390Y88990D01*
X215713Y89380D01*
X215067Y89553D01*
Y86614D01*
Y83675D01*
X215713Y83848D01*
X216390Y84239D01*
X216942Y84791D01*
X217065Y85004D01*
X217974D01*
X218097Y84791D01*
X218650Y84239D01*
X219327Y83848D01*
X219972Y83675D01*
Y86614D01*
Y89553D01*
D02*
G37*
G36*
X275758Y92838D02*
X268368D01*
Y88007D01*
X275758D01*
Y92838D01*
D02*
G37*
G36*
X267368D02*
X259978D01*
Y88007D01*
X267368D01*
Y92838D01*
D02*
G37*
G36*
X220972Y89553D02*
Y87114D01*
X223412D01*
X223239Y87760D01*
X222848Y88437D01*
X222295Y88990D01*
X221618Y89380D01*
X220972Y89553D01*
D02*
G37*
G36*
X214067D02*
X213421Y89380D01*
X212744Y88990D01*
X212192Y88437D01*
X211801Y87760D01*
X211628Y87114D01*
X214067D01*
Y89553D01*
D02*
G37*
G36*
X223412Y86114D02*
X220972D01*
Y83675D01*
X221618Y83848D01*
X222295Y84239D01*
X222848Y84791D01*
X223239Y85468D01*
X223412Y86114D01*
D02*
G37*
G36*
X214067D02*
X211628D01*
X211801Y85468D01*
X212192Y84791D01*
X212744Y84239D01*
X213421Y83848D01*
X214067Y83675D01*
Y86114D01*
D02*
G37*
G36*
X148917Y105563D02*
X147449D01*
Y104472D01*
X148917D01*
Y105563D01*
D02*
G37*
G36*
X153217Y95528D02*
Y93020D01*
X155567D01*
Y95528D01*
X153217D01*
D02*
G37*
G36*
X155567Y92020D02*
X153217D01*
Y89512D01*
X155567D01*
Y92020D01*
D02*
G37*
G36*
X219472Y76745D02*
X218827Y76572D01*
X218150Y76181D01*
X217597Y75628D01*
X217474Y75415D01*
X216565D01*
X216442Y75628D01*
X215890Y76181D01*
X215213Y76572D01*
X214567Y76745D01*
Y73805D01*
Y70866D01*
X215213Y71039D01*
X215890Y71430D01*
X216442Y71983D01*
X216565Y72195D01*
X217474D01*
X217597Y71983D01*
X218150Y71430D01*
X218827Y71039D01*
X219472Y70866D01*
Y73805D01*
Y76745D01*
D02*
G37*
G36*
X245563Y77742D02*
X244917Y77569D01*
X244240Y77179D01*
X243688Y76626D01*
X243297Y75949D01*
X243124Y75303D01*
X245563D01*
Y77742D01*
D02*
G37*
G36*
X227378Y76745D02*
Y74305D01*
X229817D01*
X229644Y74951D01*
X229253Y75628D01*
X228701Y76181D01*
X228024Y76572D01*
X227378Y76745D01*
D02*
G37*
G36*
X226378D02*
X225732Y76572D01*
X225055Y76181D01*
X224503Y75628D01*
X224112Y74951D01*
X223939Y74305D01*
X226378D01*
Y76745D01*
D02*
G37*
G36*
X220472D02*
Y74305D01*
X222912D01*
X222739Y74951D01*
X222348Y75628D01*
X221795Y76181D01*
X221118Y76572D01*
X220472Y76745D01*
D02*
G37*
G36*
X213567D02*
X212921Y76572D01*
X212244Y76181D01*
X211691Y75628D01*
X211301Y74951D01*
X211128Y74305D01*
X213567D01*
Y76745D01*
D02*
G37*
G36*
X174031Y74819D02*
X171760D01*
Y72350D01*
X174031D01*
Y74819D01*
D02*
G37*
G36*
X170760D02*
X168488D01*
Y72350D01*
X170760D01*
Y74819D01*
D02*
G37*
G36*
X229817Y73305D02*
X227378D01*
Y70866D01*
X228024Y71039D01*
X228701Y71430D01*
X229253Y71983D01*
X229644Y72660D01*
X229817Y73305D01*
D02*
G37*
G36*
X226378D02*
X223939D01*
X224112Y72660D01*
X224503Y71983D01*
X225055Y71430D01*
X225732Y71039D01*
X226378Y70866D01*
Y73305D01*
D02*
G37*
G36*
X222912D02*
X220472D01*
Y70866D01*
X221118Y71039D01*
X221795Y71430D01*
X222348Y71983D01*
X222739Y72660D01*
X222912Y73305D01*
D02*
G37*
G36*
X213567D02*
X211128D01*
X211301Y72660D01*
X211691Y71983D01*
X212244Y71430D01*
X212921Y71039D01*
X213567Y70866D01*
Y73305D01*
D02*
G37*
G36*
X262175Y74260D02*
X259313D01*
Y69429D01*
X262175D01*
Y74260D01*
D02*
G37*
G36*
X174031Y71350D02*
X171760D01*
Y68882D01*
X174031D01*
Y71350D01*
D02*
G37*
G36*
X170760D02*
X168488D01*
Y68882D01*
X170760D01*
Y71350D01*
D02*
G37*
G36*
X241513Y76047D02*
X237372D01*
Y68657D01*
X241513D01*
Y76047D01*
D02*
G37*
G36*
X236372D02*
X232230D01*
Y68657D01*
X236372D01*
Y76047D01*
D02*
G37*
G36*
X252453Y68398D02*
X250013D01*
X250186Y67752D01*
X250577Y67075D01*
X251130Y66522D01*
X251807Y66131D01*
X252453Y65958D01*
Y68398D01*
D02*
G37*
G36*
X249002D02*
X246563D01*
Y65958D01*
X247209Y66131D01*
X247886Y66522D01*
X248438Y67075D01*
X248829Y67752D01*
X249002Y68398D01*
D02*
G37*
G36*
X245563D02*
X243124D01*
X243297Y67752D01*
X243688Y67075D01*
X244240Y66522D01*
X244917Y66131D01*
X245563Y65958D01*
Y68398D01*
D02*
G37*
G36*
X174031Y37055D02*
X171760D01*
Y34586D01*
X174031D01*
Y37055D01*
D02*
G37*
G36*
X170760D02*
X168488D01*
Y34586D01*
X170760D01*
Y37055D01*
D02*
G37*
G36*
X174031Y33586D02*
X171760D01*
Y31118D01*
X174031D01*
Y33586D01*
D02*
G37*
G36*
X118610Y23073D02*
Y20185D01*
X121498D01*
X121280Y20998D01*
X120832Y21774D01*
X120199Y22407D01*
X119423Y22855D01*
X118610Y23073D01*
D02*
G37*
G36*
X121498Y19185D02*
X118610D01*
Y16297D01*
X119423Y16515D01*
X120199Y16963D01*
X120832Y17596D01*
X121280Y18372D01*
X121498Y19185D01*
D02*
G37*
G36*
X315445Y96443D02*
X314799Y96270D01*
X314122Y95879D01*
X313569Y95327D01*
X313179Y94650D01*
X313006Y94004D01*
X315445D01*
Y96443D01*
D02*
G37*
G36*
X309555D02*
Y94004D01*
X311994D01*
X311821Y94650D01*
X311431Y95327D01*
X310878Y95879D01*
X310201Y96270D01*
X309555Y96443D01*
D02*
G37*
G36*
X308555D02*
X307909Y96270D01*
X307232Y95879D01*
X306680Y95327D01*
X306289Y94650D01*
X306116Y94004D01*
X308555D01*
Y96443D01*
D02*
G37*
G36*
X302848Y100244D02*
X298706D01*
Y92854D01*
X302848D01*
Y100244D01*
D02*
G37*
G36*
X311994Y93004D02*
X306116D01*
X306289Y92358D01*
X306680Y91681D01*
X307232Y91128D01*
X307445Y91006D01*
Y90097D01*
X307232Y89974D01*
X306680Y89421D01*
X306289Y88744D01*
X306116Y88098D01*
X311994D01*
X311821Y88744D01*
X311431Y89421D01*
X310878Y89974D01*
X310665Y90097D01*
Y91006D01*
X310878Y91128D01*
X311431Y91681D01*
X311821Y92358D01*
X311994Y93004D01*
D02*
G37*
G36*
X315445Y81193D02*
X313006D01*
X313179Y80547D01*
X313569Y79870D01*
X314122Y79317D01*
X314799Y78927D01*
X315445Y78754D01*
Y81193D01*
D02*
G37*
G36*
X73713Y50675D02*
X71441D01*
Y48206D01*
X73713D01*
Y50675D01*
D02*
G37*
G36*
X67035Y46640D02*
Y44201D01*
X69475D01*
X69302Y44847D01*
X68911Y45524D01*
X68358Y46076D01*
X67681Y46467D01*
X67035Y46640D01*
D02*
G37*
G36*
X53256D02*
Y44201D01*
X55695D01*
X55522Y44847D01*
X55131Y45524D01*
X54579Y46076D01*
X53902Y46467D01*
X53256Y46640D01*
D02*
G37*
G36*
X52256D02*
X51610Y46467D01*
X50933Y46076D01*
X50380Y45524D01*
X49990Y44847D01*
X49817Y44201D01*
X52256D01*
Y46640D01*
D02*
G37*
G36*
X69475Y43201D02*
X63596D01*
X63769Y42555D01*
X64160Y41878D01*
X64713Y41325D01*
X64925Y41203D01*
Y40293D01*
X64713Y40171D01*
X64160Y39618D01*
X63769Y38941D01*
X63596Y38295D01*
X69475D01*
X69302Y38941D01*
X68911Y39618D01*
X68358Y40171D01*
X68146Y40293D01*
Y41203D01*
X68358Y41325D01*
X68911Y41878D01*
X69302Y42555D01*
X69475Y43201D01*
D02*
G37*
G36*
X62585D02*
X56706D01*
X56880Y42555D01*
X57270Y41878D01*
X57823Y41325D01*
X58036Y41203D01*
Y40293D01*
X57823Y40171D01*
X57270Y39618D01*
X56880Y38941D01*
X56706Y38295D01*
X62585D01*
X62412Y38941D01*
X62021Y39618D01*
X61468Y40171D01*
X61256Y40293D01*
Y41203D01*
X61468Y41325D01*
X62021Y41878D01*
X62412Y42555D01*
X62585Y43201D01*
D02*
G37*
G36*
X55695D02*
X49817D01*
X49990Y42555D01*
X50380Y41878D01*
X50933Y41325D01*
X51146Y41203D01*
Y40293D01*
X50933Y40171D01*
X50380Y39618D01*
X49990Y38941D01*
X49817Y38295D01*
X55695D01*
X55522Y38941D01*
X55131Y39618D01*
X54579Y40171D01*
X54366Y40293D01*
Y41203D01*
X54579Y41325D01*
X55131Y41878D01*
X55522Y42555D01*
X55695Y43201D01*
D02*
G37*
G36*
X69475Y37295D02*
X67035D01*
Y34856D01*
X67681Y35029D01*
X68358Y35420D01*
X68911Y35973D01*
X69302Y36650D01*
X69475Y37295D01*
D02*
G37*
G36*
X66035D02*
X63596D01*
X63769Y36650D01*
X64160Y35973D01*
X64713Y35420D01*
X65390Y35029D01*
X66035Y34856D01*
Y37295D01*
D02*
G37*
G36*
X62585D02*
X60146D01*
Y34856D01*
X60791Y35029D01*
X61468Y35420D01*
X61811Y35763D01*
X62021Y35973D01*
X62412Y36650D01*
X62585Y37295D01*
D02*
G37*
G36*
X59146D02*
X56706D01*
X56880Y36650D01*
X57270Y35973D01*
X57823Y35420D01*
X58500Y35029D01*
X59146Y34856D01*
Y37295D01*
D02*
G37*
G36*
X68913Y32535D02*
X66445D01*
Y29240D01*
X68913D01*
Y32535D01*
D02*
G37*
G36*
X65445D02*
X62976D01*
Y29240D01*
X65445D01*
Y32535D01*
D02*
G37*
G36*
X213697Y41602D02*
X208571D01*
Y38051D01*
X213697D01*
Y41602D01*
D02*
G37*
G36*
X207571D02*
X202445D01*
Y38051D01*
X207571D01*
Y41602D01*
D02*
G37*
G36*
X213697Y37051D02*
X208571D01*
Y33500D01*
X213697D01*
Y37051D01*
D02*
G37*
G36*
X207571D02*
X202445D01*
Y33500D01*
X207571D01*
Y37051D01*
D02*
G37*
G36*
X55602Y28240D02*
X53134D01*
Y24945D01*
X55602D01*
Y28240D01*
D02*
G37*
G36*
X53650Y22624D02*
Y20185D01*
X56089D01*
X55916Y20831D01*
X55525Y21508D01*
X54972Y22060D01*
X54295Y22451D01*
X53650Y22624D01*
D02*
G37*
G36*
X52650D02*
X52004Y22451D01*
X51327Y22060D01*
X50774Y21508D01*
X50383Y20831D01*
X50210Y20185D01*
X52650D01*
Y22624D01*
D02*
G37*
G36*
X69868Y19185D02*
X63990D01*
X64163Y18539D01*
X64554Y17862D01*
X65106Y17310D01*
X65319Y17187D01*
Y16278D01*
X65106Y16155D01*
X64554Y15602D01*
X64163Y14925D01*
X63990Y14279D01*
X69868D01*
X69695Y14925D01*
X69305Y15602D01*
X68752Y16155D01*
X68539Y16278D01*
Y17187D01*
X68752Y17310D01*
X69305Y17862D01*
X69695Y18539D01*
X69868Y19185D01*
D02*
G37*
G36*
X62979D02*
X57100D01*
X57273Y18539D01*
X57664Y17862D01*
X58217Y17310D01*
X58429Y17187D01*
Y16278D01*
X58217Y16155D01*
X57664Y15602D01*
X57273Y14925D01*
X57100Y14279D01*
X62979D01*
X62806Y14925D01*
X62415Y15602D01*
X61862Y16155D01*
X61650Y16278D01*
Y17187D01*
X61862Y17310D01*
X62415Y17862D01*
X62806Y18539D01*
X62979Y19185D01*
D02*
G37*
G36*
X56089D02*
X50210D01*
X50383Y18539D01*
X50774Y17862D01*
X51327Y17310D01*
X51539Y17187D01*
Y16278D01*
X51327Y16155D01*
X50774Y15602D01*
X50383Y14925D01*
X50210Y14279D01*
X56089D01*
X55916Y14925D01*
X55525Y15602D01*
X54972Y16155D01*
X54760Y16278D01*
Y17187D01*
X54972Y17310D01*
X55525Y17862D01*
X55916Y18539D01*
X56089Y19185D01*
D02*
G37*
G36*
X69868Y13280D02*
X67429D01*
Y10840D01*
X68075Y11013D01*
X68752Y11404D01*
X69305Y11957D01*
X69695Y12634D01*
X69868Y13280D01*
D02*
G37*
G36*
X66429D02*
X63990D01*
X64163Y12634D01*
X64554Y11957D01*
X65106Y11404D01*
X65783Y11013D01*
X66429Y10840D01*
Y13280D01*
D02*
G37*
G36*
X62979D02*
X60539D01*
Y10840D01*
X61185Y11013D01*
X61862Y11404D01*
X62415Y11957D01*
X62806Y12634D01*
X62979Y13280D01*
D02*
G37*
G36*
X59539D02*
X57100D01*
X57273Y12634D01*
X57664Y11957D01*
X58217Y11404D01*
X58894Y11013D01*
X59539Y10840D01*
Y13280D01*
D02*
G37*
G36*
X56089D02*
X53650D01*
Y10840D01*
X54295Y11013D01*
X54972Y11404D01*
X55525Y11957D01*
X55916Y12634D01*
X56089Y13280D01*
D02*
G37*
G36*
X52650D02*
X50210D01*
X50383Y12634D01*
X50774Y11957D01*
X51327Y11404D01*
X52004Y11013D01*
X52650Y10840D01*
Y13280D01*
D02*
G37*
%LPD*%
D10*
X76938Y319270D02*
X77716Y318898D01*
X75744Y320751D02*
X76938Y319270D01*
X80733Y324778D02*
X90945Y314567D01*
X75692Y321924D02*
X75744Y320751D01*
X96926Y318701D02*
Y324606D01*
X87206Y324592D02*
X96926D01*
X83786Y318898D02*
X87125Y315559D01*
X92945Y313622D02*
Y316025D01*
X82273Y326697D02*
X92945Y316025D01*
X96926Y306102D02*
X97044Y305984D01*
X83102Y328697D02*
X87206Y324592D01*
X90945Y305906D02*
Y314567D01*
X87125Y303064D02*
Y315559D01*
X87008Y302947D02*
X87125Y303064D01*
X87008Y300197D02*
Y302947D01*
X82845Y328697D02*
X83102D01*
X82759Y328782D02*
X82845Y328697D01*
X82016Y326697D02*
X82273D01*
X81355Y328782D02*
X82759D01*
X81931Y326782D02*
X82016Y326697D01*
X81158Y326782D02*
X81931D01*
X78545Y328715D02*
Y330684D01*
X77716Y318898D02*
X83786D01*
X71754Y344882D02*
Y347022D01*
X67765Y341463D02*
X67816Y341412D01*
X66488Y345717D02*
X67449Y344756D01*
X66488Y354720D02*
X66611Y354842D01*
X66488Y345717D02*
Y354720D01*
X96926Y306102D02*
Y312795D01*
X96808Y312913D02*
X96926Y312795D01*
X93654Y312913D02*
X96808D01*
X92945Y313622D02*
X93654Y312913D01*
X97044Y302969D02*
X98441Y301571D01*
X97044Y302969D02*
Y305984D01*
X90945Y305906D02*
X93307Y303543D01*
Y300197D02*
Y303543D01*
X98441Y301027D02*
Y301571D01*
X73304Y348571D02*
Y354331D01*
X71754Y347022D02*
X73304Y348571D01*
Y354331D02*
X79997D01*
X46850Y354331D02*
X46850Y354331D01*
X59721Y348153D02*
X61811Y346063D01*
X53815Y354331D02*
X59721D01*
Y348153D02*
Y354331D01*
X88602Y30335D02*
X89213Y29724D01*
X96063D01*
X67230Y318898D02*
X67816Y319483D01*
X63937Y299685D02*
X64095D01*
X60236Y303386D02*
X63937Y299685D01*
X67816Y319483D02*
Y321924D01*
X62519Y314881D02*
X66049Y318412D01*
X67158Y318898D02*
X67230D01*
X66672Y318412D02*
X67158Y318898D01*
X66049Y318412D02*
X66672D01*
X2953Y160433D02*
Y163386D01*
Y133858D02*
Y136811D01*
Y89567D02*
Y92520D01*
X60236Y303386D02*
Y305118D01*
X59449Y305906D02*
X60236Y305118D01*
X61043Y313641D02*
X62284Y314881D01*
X61043Y312702D02*
Y313641D01*
X59449Y311107D02*
X61043Y312702D01*
X59449Y305906D02*
Y311107D01*
X62284Y314881D02*
X62519D01*
X660763Y264779D02*
X662763D01*
X661763D01*
Y270778D01*
X660763Y269778D01*
X665762Y264779D02*
Y265779D01*
X666761D01*
Y264779D01*
X665762D01*
X674759Y270778D02*
X672759Y269778D01*
X670760Y267779D01*
Y265779D01*
X671760Y264779D01*
X673759D01*
X674759Y265779D01*
Y266779D01*
X673759Y267779D01*
X670760D01*
X676758Y269778D02*
X677758Y270778D01*
X679757D01*
X680757Y269778D01*
Y265779D01*
X679757Y264779D01*
X677758D01*
X676758Y265779D01*
Y269778D01*
X682756D02*
X683756Y270778D01*
X685755D01*
X686755Y269778D01*
Y265779D01*
X685755Y264779D01*
X683756D01*
X682756Y265779D01*
Y269778D01*
X688754Y264779D02*
Y268778D01*
X689754D01*
X690754Y267779D01*
Y264779D01*
Y267779D01*
X691753Y268778D01*
X692753Y267779D01*
Y264779D01*
X694752D02*
Y268778D01*
X695752D01*
X696752Y267779D01*
Y264779D01*
Y267779D01*
X697751Y268778D01*
X698751Y267779D01*
Y264779D01*
X440821Y270778D02*
X444820D01*
X442820D01*
Y264779D01*
X447819D02*
X449818D01*
X450818Y265779D01*
Y267779D01*
X449818Y268778D01*
X447819D01*
X446819Y267779D01*
Y265779D01*
X447819Y264779D01*
X453817Y269778D02*
Y268778D01*
X452817D01*
X454816D01*
X453817D01*
Y265779D01*
X454816Y264779D01*
X458815Y268778D02*
X460814D01*
X461814Y267779D01*
Y264779D01*
X458815D01*
X457815Y265779D01*
X458815Y266779D01*
X461814D01*
X463813Y264779D02*
X465813D01*
X464813D01*
Y270778D01*
X463813D01*
X474810D02*
Y264779D01*
X477809D01*
X478809Y265779D01*
Y266779D01*
Y267779D01*
X477809Y268778D01*
X474810D01*
X481808Y264779D02*
X483807D01*
X484807Y265779D01*
Y267779D01*
X483807Y268778D01*
X481808D01*
X480808Y267779D01*
Y265779D01*
X481808Y264779D01*
X487806Y268778D02*
X489805D01*
X490805Y267779D01*
Y264779D01*
X487806D01*
X486806Y265779D01*
X487806Y266779D01*
X490805D01*
X492804Y268778D02*
Y264779D01*
Y266779D01*
X493804Y267779D01*
X494803Y268778D01*
X495803D01*
X502801Y270778D02*
Y264779D01*
X499802D01*
X498802Y265779D01*
Y267779D01*
X499802Y268778D01*
X502801D01*
X511798Y269778D02*
Y268778D01*
X510798D01*
X512798D01*
X511798D01*
Y265779D01*
X512798Y264779D01*
X515797Y270778D02*
Y264779D01*
Y267779D01*
X516796Y268778D01*
X518796D01*
X519795Y267779D01*
Y264779D01*
X521795D02*
X523794D01*
X522794D01*
Y268778D01*
X521795D01*
X530792D02*
X527793D01*
X526793Y267779D01*
Y265779D01*
X527793Y264779D01*
X530792D01*
X532791D02*
Y270778D01*
Y266779D02*
X535790Y268778D01*
X532791Y266779D02*
X535790Y264779D01*
X538789D02*
Y268778D01*
X541788D01*
X542788Y267779D01*
Y264779D01*
X547786D02*
X545787D01*
X544787Y265779D01*
Y267779D01*
X545787Y268778D01*
X547786D01*
X548786Y267779D01*
Y266779D01*
X544787D01*
X550785Y264779D02*
X553784D01*
X554784Y265779D01*
X553784Y266779D01*
X551785D01*
X550785Y267779D01*
X551785Y268778D01*
X554784D01*
X556783Y264779D02*
X559782D01*
X560782Y265779D01*
X559782Y266779D01*
X557783D01*
X556783Y267779D01*
X557783Y268778D01*
X560782D01*
X562781D02*
X563781D01*
Y267779D01*
X562781D01*
Y268778D01*
Y265779D02*
X563781D01*
Y264779D01*
X562781D01*
Y265779D01*
X782733Y414778D02*
Y408779D01*
X785732D01*
X786732Y409779D01*
Y410779D01*
X785732Y411779D01*
X782733D01*
X785732D01*
X786732Y412778D01*
Y413778D01*
X785732Y414778D01*
X782733D01*
X789731Y408779D02*
X791730D01*
X792730Y409779D01*
Y411779D01*
X791730Y412778D01*
X789731D01*
X788731Y411779D01*
Y409779D01*
X789731Y408779D01*
X795729Y412778D02*
X797728D01*
X798728Y411779D01*
Y408779D01*
X795729D01*
X794729Y409779D01*
X795729Y410779D01*
X798728D01*
X800727Y412778D02*
Y408779D01*
Y410779D01*
X801727Y411779D01*
X802726Y412778D01*
X803726D01*
X810724Y414778D02*
Y408779D01*
X807725D01*
X806725Y409779D01*
Y411779D01*
X807725Y412778D01*
X810724D01*
X818721Y414778D02*
Y408779D01*
X822720D01*
X825719Y412778D02*
X827718D01*
X828718Y411779D01*
Y408779D01*
X825719D01*
X824719Y409779D01*
X825719Y410779D01*
X828718D01*
X830717Y412778D02*
Y409779D01*
X831717Y408779D01*
X834716D01*
Y407780D01*
X833716Y406780D01*
X832717D01*
X834716Y408779D02*
Y412778D01*
X839715Y408779D02*
X837715D01*
X836715Y409779D01*
Y411779D01*
X837715Y412778D01*
X839715D01*
X840714Y411779D01*
Y410779D01*
X836715D01*
X842714Y412778D02*
Y408779D01*
Y410779D01*
X843713Y411779D01*
X844713Y412778D01*
X845712D01*
X858708Y413778D02*
X857709Y414778D01*
X855709D01*
X854710Y413778D01*
Y412778D01*
X855709Y411779D01*
X857709D01*
X858708Y410779D01*
Y409779D01*
X857709Y408779D01*
X855709D01*
X854710Y409779D01*
X861707Y413778D02*
Y412778D01*
X860708D01*
X862707D01*
X861707D01*
Y409779D01*
X862707Y408779D01*
X866706Y412778D02*
X868705D01*
X869705Y411779D01*
Y408779D01*
X866706D01*
X865706Y409779D01*
X866706Y410779D01*
X869705D01*
X875703Y412778D02*
X872704D01*
X871704Y411779D01*
Y409779D01*
X872704Y408779D01*
X875703D01*
X877702D02*
Y414778D01*
Y410779D02*
X880701Y412778D01*
X877702Y410779D02*
X880701Y408779D01*
X725747Y389778D02*
X726747Y390778D01*
X728746D01*
X729745Y389778D01*
Y388778D01*
X728746Y387779D01*
X727746D01*
X728746D01*
X729745Y386779D01*
Y385779D01*
X728746Y384780D01*
X726747D01*
X725747Y385779D01*
X731745Y384780D02*
Y385779D01*
X732745D01*
Y384780D01*
X731745D01*
X740742Y390778D02*
X736743D01*
Y387779D01*
X738743Y388778D01*
X739742D01*
X740742Y387779D01*
Y385779D01*
X739742Y384780D01*
X737743D01*
X736743Y385779D01*
X728746Y360780D02*
Y366778D01*
X725747Y363779D01*
X729745D01*
X731745Y360780D02*
Y361779D01*
X732745D01*
Y360780D01*
X731745D01*
X736743Y365778D02*
X737743Y366778D01*
X739742D01*
X740742Y365778D01*
Y364778D01*
X739742Y363779D01*
X738743D01*
X739742D01*
X740742Y362779D01*
Y361779D01*
X739742Y360780D01*
X737743D01*
X736743Y361779D01*
X728746Y336779D02*
Y342778D01*
X725747Y339779D01*
X729745D01*
X731745Y336779D02*
Y337779D01*
X732745D01*
Y336779D01*
X731745D01*
X740742Y342778D02*
X738743Y341778D01*
X736743Y339779D01*
Y337779D01*
X737743Y336779D01*
X739742D01*
X740742Y337779D01*
Y338779D01*
X739742Y339779D01*
X736743D01*
X728746Y312779D02*
Y318778D01*
X725747Y315779D01*
X729745D01*
X731745Y312779D02*
Y313779D01*
X732745D01*
Y312779D01*
X731745D01*
X736743Y317778D02*
X737743Y318778D01*
X739742D01*
X740742Y317778D01*
Y316778D01*
X739742Y315779D01*
X738743D01*
X739742D01*
X740742Y314779D01*
Y313779D01*
X739742Y312779D01*
X737743D01*
X736743Y313779D01*
X725747Y293778D02*
X726747Y294778D01*
X728746D01*
X729745Y293778D01*
Y292778D01*
X728746Y291779D01*
X727746D01*
X728746D01*
X729745Y290779D01*
Y289779D01*
X728746Y288779D01*
X726747D01*
X725747Y289779D01*
X731745Y288779D02*
Y289779D01*
X732745D01*
Y288779D01*
X731745D01*
X740742Y294778D02*
X736743D01*
Y291779D01*
X738743Y292778D01*
X739742D01*
X740742Y291779D01*
Y289779D01*
X739742Y288779D01*
X737743D01*
X736743Y289779D01*
X729745Y413778D02*
X728746Y414778D01*
X726747D01*
X725747Y413778D01*
Y409779D01*
X726747Y408779D01*
X728746D01*
X729745Y409779D01*
X732745Y408779D02*
X734744D01*
X735744Y409779D01*
Y411779D01*
X734744Y412778D01*
X732745D01*
X731745Y411779D01*
Y409779D01*
X732745Y408779D01*
X737743D02*
Y412778D01*
X740742D01*
X741742Y411779D01*
Y408779D01*
X743741D02*
X746740D01*
X747740Y409779D01*
X746740Y410779D01*
X744741D01*
X743741Y411779D01*
X744741Y412778D01*
X747740D01*
X750739Y413778D02*
Y412778D01*
X749739D01*
X751738D01*
X750739D01*
Y409779D01*
X751738Y408779D01*
X755737Y412778D02*
X757736D01*
X758736Y411779D01*
Y408779D01*
X755737D01*
X754737Y409779D01*
X755737Y410779D01*
X758736D01*
X760736Y408779D02*
Y412778D01*
X763734D01*
X764734Y411779D01*
Y408779D01*
X767733Y413778D02*
Y412778D01*
X766734D01*
X768733D01*
X767733D01*
Y409779D01*
X768733Y408779D01*
X660763Y389778D02*
X661763Y390778D01*
X663762D01*
X664762Y389778D01*
Y385779D01*
X663762Y384780D01*
X661763D01*
X660763Y385779D01*
Y389778D01*
X666761Y384780D02*
Y385779D01*
X667761D01*
Y384780D01*
X666761D01*
X671760Y389778D02*
X672759Y390778D01*
X674759D01*
X675758Y389778D01*
Y385779D01*
X674759Y384780D01*
X672759D01*
X671760Y385779D01*
Y389778D01*
X677758Y384780D02*
X679757D01*
X678757D01*
Y390778D01*
X677758Y389778D01*
X682756D02*
X683756Y390778D01*
X685755D01*
X686755Y389778D01*
Y385779D01*
X685755Y384780D01*
X683756D01*
X682756Y385779D01*
Y389778D01*
X688754Y384780D02*
Y388778D01*
X689754D01*
X690754Y387779D01*
Y384780D01*
Y387779D01*
X691753Y388778D01*
X692753Y387779D01*
Y384780D01*
X694752D02*
Y388778D01*
X695752D01*
X696752Y387779D01*
Y384780D01*
Y387779D01*
X697751Y388778D01*
X698751Y387779D01*
Y384780D01*
X660763Y377778D02*
X661763Y378778D01*
X663762D01*
X664762Y377778D01*
Y373779D01*
X663762Y372779D01*
X661763D01*
X660763Y373779D01*
Y377778D01*
X666761Y372779D02*
Y373779D01*
X667761D01*
Y372779D01*
X666761D01*
X671760Y377778D02*
X672759Y378778D01*
X674759D01*
X675758Y377778D01*
Y373779D01*
X674759Y372779D01*
X672759D01*
X671760Y373779D01*
Y377778D01*
X677758D02*
X678757Y378778D01*
X680757D01*
X681756Y377778D01*
Y376778D01*
X680757Y375779D01*
X679757D01*
X680757D01*
X681756Y374779D01*
Y373779D01*
X680757Y372779D01*
X678757D01*
X677758Y373779D01*
X687755Y378778D02*
X683756D01*
Y375779D01*
X685755Y376778D01*
X686755D01*
X687755Y375779D01*
Y373779D01*
X686755Y372779D01*
X684756D01*
X683756Y373779D01*
X689754Y372779D02*
Y376778D01*
X690754D01*
X691753Y375779D01*
Y372779D01*
Y375779D01*
X692753Y376778D01*
X693753Y375779D01*
Y372779D01*
X695752D02*
Y376778D01*
X696752D01*
X697751Y375779D01*
Y372779D01*
Y375779D01*
X698751Y376778D01*
X699751Y375779D01*
Y372779D01*
X660763Y365778D02*
X661763Y366778D01*
X663762D01*
X664762Y365778D01*
Y361779D01*
X663762Y360780D01*
X661763D01*
X660763Y361779D01*
Y365778D01*
X666761Y360780D02*
Y361779D01*
X667761D01*
Y360780D01*
X666761D01*
X671760D02*
X673759D01*
X672759D01*
Y366778D01*
X671760Y365778D01*
X680757Y360780D02*
X676758D01*
X680757Y364778D01*
Y365778D01*
X679757Y366778D01*
X677758D01*
X676758Y365778D01*
X682756D02*
X683756Y366778D01*
X685755D01*
X686755Y365778D01*
Y361779D01*
X685755Y360780D01*
X683756D01*
X682756Y361779D01*
Y365778D01*
X688754Y360780D02*
Y364778D01*
X689754D01*
X690754Y363779D01*
Y360780D01*
Y363779D01*
X691753Y364778D01*
X692753Y363779D01*
Y360780D01*
X694752D02*
Y364778D01*
X695752D01*
X696752Y363779D01*
Y360780D01*
Y363779D01*
X697751Y364778D01*
X698751Y363779D01*
Y360780D01*
X660763Y353778D02*
X661763Y354778D01*
X663762D01*
X664762Y353778D01*
Y349779D01*
X663762Y348780D01*
X661763D01*
X660763Y349779D01*
Y353778D01*
X666761Y348780D02*
Y349779D01*
X667761D01*
Y348780D01*
X666761D01*
X671760Y353778D02*
X672759Y354778D01*
X674759D01*
X675758Y353778D01*
Y349779D01*
X674759Y348780D01*
X672759D01*
X671760Y349779D01*
Y353778D01*
X677758D02*
X678757Y354778D01*
X680757D01*
X681756Y353778D01*
Y352778D01*
X680757Y351779D01*
X679757D01*
X680757D01*
X681756Y350779D01*
Y349779D01*
X680757Y348780D01*
X678757D01*
X677758Y349779D01*
X687755Y354778D02*
X683756D01*
Y351779D01*
X685755Y352778D01*
X686755D01*
X687755Y351779D01*
Y349779D01*
X686755Y348780D01*
X684756D01*
X683756Y349779D01*
X689754Y348780D02*
Y352778D01*
X690754D01*
X691753Y351779D01*
Y348780D01*
Y351779D01*
X692753Y352778D01*
X693753Y351779D01*
Y348780D01*
X695752D02*
Y352778D01*
X696752D01*
X697751Y351779D01*
Y348780D01*
Y351779D01*
X698751Y352778D01*
X699751Y351779D01*
Y348780D01*
X660763Y336779D02*
X662763D01*
X661763D01*
Y342778D01*
X660763Y341778D01*
X665762Y336779D02*
Y337779D01*
X666761D01*
Y336779D01*
X665762D01*
X674759D02*
X670760D01*
X674759Y340778D01*
Y341778D01*
X673759Y342778D01*
X671760D01*
X670760Y341778D01*
X676758D02*
X677758Y342778D01*
X679757D01*
X680757Y341778D01*
Y337779D01*
X679757Y336779D01*
X677758D01*
X676758Y337779D01*
Y341778D01*
X682756D02*
X683756Y342778D01*
X685755D01*
X686755Y341778D01*
Y337779D01*
X685755Y336779D01*
X683756D01*
X682756Y337779D01*
Y341778D01*
X688754Y336779D02*
Y340778D01*
X689754D01*
X690754Y339779D01*
Y336779D01*
Y339779D01*
X691753Y340778D01*
X692753Y339779D01*
Y336779D01*
X694752D02*
Y340778D01*
X695752D01*
X696752Y339779D01*
Y336779D01*
Y339779D01*
X697751Y340778D01*
X698751Y339779D01*
Y336779D01*
X660763Y329778D02*
X661763Y330778D01*
X663762D01*
X664762Y329778D01*
Y325779D01*
X663762Y324780D01*
X661763D01*
X660763Y325779D01*
Y329778D01*
X666761Y324780D02*
Y325779D01*
X667761D01*
Y324780D01*
X666761D01*
X671760Y329778D02*
X672759Y330778D01*
X674759D01*
X675758Y329778D01*
Y325779D01*
X674759Y324780D01*
X672759D01*
X671760Y325779D01*
Y329778D01*
X677758D02*
X678757Y330778D01*
X680757D01*
X681756Y329778D01*
Y328778D01*
X680757Y327779D01*
X679757D01*
X680757D01*
X681756Y326779D01*
Y325779D01*
X680757Y324780D01*
X678757D01*
X677758Y325779D01*
X687755Y330778D02*
X683756D01*
Y327779D01*
X685755Y328778D01*
X686755D01*
X687755Y327779D01*
Y325779D01*
X686755Y324780D01*
X684756D01*
X683756Y325779D01*
X689754Y324780D02*
Y328778D01*
X690754D01*
X691753Y327779D01*
Y324780D01*
Y327779D01*
X692753Y328778D01*
X693753Y327779D01*
Y324780D01*
X695752D02*
Y328778D01*
X696752D01*
X697751Y327779D01*
Y324780D01*
Y327779D01*
X698751Y328778D01*
X699751Y327779D01*
Y324780D01*
X660763Y317778D02*
X661763Y318778D01*
X663762D01*
X664762Y317778D01*
Y313779D01*
X663762Y312779D01*
X661763D01*
X660763Y313779D01*
Y317778D01*
X666761Y312779D02*
Y313779D01*
X667761D01*
Y312779D01*
X666761D01*
X671760D02*
X673759D01*
X672759D01*
Y318778D01*
X671760Y317778D01*
X680757Y312779D02*
X676758D01*
X680757Y316778D01*
Y317778D01*
X679757Y318778D01*
X677758D01*
X676758Y317778D01*
X682756D02*
X683756Y318778D01*
X685755D01*
X686755Y317778D01*
Y313779D01*
X685755Y312779D01*
X683756D01*
X682756Y313779D01*
Y317778D01*
X688754Y312779D02*
Y316778D01*
X689754D01*
X690754Y315779D01*
Y312779D01*
Y315779D01*
X691753Y316778D01*
X692753Y315779D01*
Y312779D01*
X694752D02*
Y316778D01*
X695752D01*
X696752Y315779D01*
Y312779D01*
Y315779D01*
X697751Y316778D01*
X698751Y315779D01*
Y312779D01*
X660763Y305778D02*
X661763Y306778D01*
X663762D01*
X664762Y305778D01*
Y301779D01*
X663762Y300780D01*
X661763D01*
X660763Y301779D01*
Y305778D01*
X666761Y300780D02*
Y301779D01*
X667761D01*
Y300780D01*
X666761D01*
X671760Y305778D02*
X672759Y306778D01*
X674759D01*
X675758Y305778D01*
Y301779D01*
X674759Y300780D01*
X672759D01*
X671760Y301779D01*
Y305778D01*
X677758D02*
X678757Y306778D01*
X680757D01*
X681756Y305778D01*
Y304778D01*
X680757Y303779D01*
X679757D01*
X680757D01*
X681756Y302779D01*
Y301779D01*
X680757Y300780D01*
X678757D01*
X677758Y301779D01*
X687755Y306778D02*
X683756D01*
Y303779D01*
X685755Y304778D01*
X686755D01*
X687755Y303779D01*
Y301779D01*
X686755Y300780D01*
X684756D01*
X683756Y301779D01*
X689754Y300780D02*
Y304778D01*
X690754D01*
X691753Y303779D01*
Y300780D01*
Y303779D01*
X692753Y304778D01*
X693753Y303779D01*
Y300780D01*
X695752D02*
Y304778D01*
X696752D01*
X697751Y303779D01*
Y300780D01*
Y303779D01*
X698751Y304778D01*
X699751Y303779D01*
Y300780D01*
X660763Y293778D02*
X661763Y294778D01*
X663762D01*
X664762Y293778D01*
Y289779D01*
X663762Y288779D01*
X661763D01*
X660763Y289779D01*
Y293778D01*
X666761Y288779D02*
Y289779D01*
X667761D01*
Y288779D01*
X666761D01*
X671760Y293778D02*
X672759Y294778D01*
X674759D01*
X675758Y293778D01*
Y289779D01*
X674759Y288779D01*
X672759D01*
X671760Y289779D01*
Y293778D01*
X677758Y288779D02*
X679757D01*
X678757D01*
Y294778D01*
X677758Y293778D01*
X682756D02*
X683756Y294778D01*
X685755D01*
X686755Y293778D01*
Y289779D01*
X685755Y288779D01*
X683756D01*
X682756Y289779D01*
Y293778D01*
X688754Y288779D02*
Y292778D01*
X689754D01*
X690754Y291779D01*
Y288779D01*
Y291779D01*
X691753Y292778D01*
X692753Y291779D01*
Y288779D01*
X694752D02*
Y292778D01*
X695752D01*
X696752Y291779D01*
Y288779D01*
Y291779D01*
X697751Y292778D01*
X698751Y291779D01*
Y288779D01*
X660763Y414778D02*
X664762D01*
X662763D01*
Y408779D01*
X666761Y414778D02*
Y408779D01*
Y411779D01*
X667761Y412778D01*
X669760D01*
X670760Y411779D01*
Y408779D01*
X672759D02*
X674759D01*
X673759D01*
Y412778D01*
X672759D01*
X681756D02*
X678757D01*
X677758Y411779D01*
Y409779D01*
X678757Y408779D01*
X681756D01*
X683756D02*
Y414778D01*
Y410779D02*
X686755Y412778D01*
X683756Y410779D02*
X686755Y408779D01*
X689754D02*
Y412778D01*
X692753D01*
X693753Y411779D01*
Y408779D01*
X698751D02*
X696752D01*
X695752Y409779D01*
Y411779D01*
X696752Y412778D01*
X698751D01*
X699751Y411779D01*
Y410779D01*
X695752D01*
X701750Y408779D02*
X704749D01*
X705749Y409779D01*
X704749Y410779D01*
X702750D01*
X701750Y411779D01*
X702750Y412778D01*
X705749D01*
X707748Y408779D02*
X710747D01*
X711747Y409779D01*
X710747Y410779D01*
X708748D01*
X707748Y411779D01*
X708748Y412778D01*
X711747D01*
X578785Y389778D02*
X577786Y390778D01*
X575786D01*
X574787Y389778D01*
Y388778D01*
X575786Y387779D01*
X577786D01*
X578785Y386779D01*
Y385779D01*
X577786Y384780D01*
X575786D01*
X574787Y385779D01*
X581784Y384780D02*
X583784D01*
X584783Y385779D01*
Y387779D01*
X583784Y388778D01*
X581784D01*
X580785Y387779D01*
Y385779D01*
X581784Y384780D01*
X586783D02*
X588782D01*
X587782D01*
Y390778D01*
X586783D01*
X595780D02*
Y384780D01*
X592781D01*
X591781Y385779D01*
Y387779D01*
X592781Y388778D01*
X595780D01*
X600778Y384780D02*
X598779D01*
X597779Y385779D01*
Y387779D01*
X598779Y388778D01*
X600778D01*
X601778Y387779D01*
Y386779D01*
X597779D01*
X603777Y388778D02*
Y384780D01*
Y386779D01*
X604777Y387779D01*
X605777Y388778D01*
X606776D01*
X615773Y384780D02*
Y390778D01*
X618772D01*
X619772Y389778D01*
Y387779D01*
X618772Y386779D01*
X615773D01*
X617773D02*
X619772Y384780D01*
X624770D02*
X622771D01*
X621771Y385779D01*
Y387779D01*
X622771Y388778D01*
X624770D01*
X625770Y387779D01*
Y386779D01*
X621771D01*
X627769Y384780D02*
X630768D01*
X631768Y385779D01*
X630768Y386779D01*
X628769D01*
X627769Y387779D01*
X628769Y388778D01*
X631768D01*
X633768Y384780D02*
X635767D01*
X634767D01*
Y388778D01*
X633768D01*
X638766Y384780D02*
X641765D01*
X642765Y385779D01*
X641765Y386779D01*
X639766D01*
X638766Y387779D01*
X639766Y388778D01*
X642765D01*
X645764Y389778D02*
Y388778D01*
X644764D01*
X646763D01*
X645764D01*
Y385779D01*
X646763Y384780D01*
X574787Y360780D02*
Y366778D01*
X577786D01*
X578785Y365778D01*
Y363779D01*
X577786Y362779D01*
X574787D01*
X580785Y360780D02*
Y366778D01*
X583784D01*
X584783Y365778D01*
Y363779D01*
X583784Y362779D01*
X580785D01*
X586783Y363779D02*
X590781D01*
X592781Y365778D02*
X593781Y366778D01*
X595780D01*
X596779Y365778D01*
Y361779D01*
X595780Y360780D01*
X593781D01*
X592781Y361779D01*
Y365778D01*
X598779Y360780D02*
X600778D01*
X599779D01*
Y366778D01*
X598779Y365778D01*
X603777Y366778D02*
X607776D01*
Y365778D01*
X603777Y361779D01*
Y360780D01*
X578785Y353778D02*
X577786Y354778D01*
X575786D01*
X574787Y353778D01*
Y349779D01*
X575786Y348780D01*
X577786D01*
X578785Y349779D01*
X584783Y354778D02*
X580785D01*
Y351779D01*
X582784D01*
X580785D01*
Y348780D01*
X586783Y351779D02*
X590781D01*
X592781Y353778D02*
X593781Y354778D01*
X595780D01*
X596779Y353778D01*
Y349779D01*
X595780Y348780D01*
X593781D01*
X592781Y349779D01*
Y353778D01*
X598779D02*
X599779Y354778D01*
X601778D01*
X602777Y353778D01*
Y349779D01*
X601778Y348780D01*
X599779D01*
X598779Y349779D01*
Y353778D01*
X607776Y348780D02*
Y354778D01*
X604777Y351779D01*
X608776D01*
X578785Y341778D02*
X577786Y342778D01*
X575786D01*
X574787Y341778D01*
Y337779D01*
X575786Y336779D01*
X577786D01*
X578785Y337779D01*
X581784Y336779D02*
X583784D01*
X584783Y337779D01*
Y339779D01*
X583784Y340778D01*
X581784D01*
X580785Y339779D01*
Y337779D01*
X581784Y336779D01*
X586783Y340778D02*
Y336779D01*
Y338779D01*
X587782Y339779D01*
X588782Y340778D01*
X589782D01*
X595780Y336779D02*
X593781D01*
X592781Y337779D01*
Y339779D01*
X593781Y340778D01*
X595780D01*
X596779Y339779D01*
Y338779D01*
X592781D01*
X598779Y339779D02*
X602777D01*
X604777Y341778D02*
X605777Y342778D01*
X607776D01*
X608776Y341778D01*
Y337779D01*
X607776Y336779D01*
X605777D01*
X604777Y337779D01*
Y341778D01*
X610775D02*
X611775Y342778D01*
X613774D01*
X614774Y341778D01*
Y340778D01*
X613774Y339779D01*
X612774D01*
X613774D01*
X614774Y338779D01*
Y337779D01*
X613774Y336779D01*
X611775D01*
X610775Y337779D01*
X620772Y336779D02*
X616773D01*
X620772Y340778D01*
Y341778D01*
X619772Y342778D01*
X617773D01*
X616773Y341778D01*
X578785Y329778D02*
X577786Y330778D01*
X575786D01*
X574787Y329778D01*
Y325779D01*
X575786Y324780D01*
X577786D01*
X578785Y325779D01*
X584783Y330778D02*
X580785D01*
Y327779D01*
X582784D01*
X580785D01*
Y324780D01*
X586783Y327779D02*
X590781D01*
X592781Y329778D02*
X593781Y330778D01*
X595780D01*
X596779Y329778D01*
Y325779D01*
X595780Y324780D01*
X593781D01*
X592781Y325779D01*
Y329778D01*
X598779D02*
X599779Y330778D01*
X601778D01*
X602777Y329778D01*
Y325779D01*
X601778Y324780D01*
X599779D01*
X598779Y325779D01*
Y329778D01*
X607776Y324780D02*
Y330778D01*
X604777Y327779D01*
X608776D01*
X574787Y312779D02*
Y318778D01*
X577786D01*
X578785Y317778D01*
Y315779D01*
X577786Y314779D01*
X574787D01*
X580785Y312779D02*
Y318778D01*
X583784D01*
X584783Y317778D01*
Y315779D01*
X583784Y314779D01*
X580785D01*
X586783Y315779D02*
X590781D01*
X592781Y317778D02*
X593781Y318778D01*
X595780D01*
X596779Y317778D01*
Y313779D01*
X595780Y312779D01*
X593781D01*
X592781Y313779D01*
Y317778D01*
X598779Y312779D02*
X600778D01*
X599779D01*
Y318778D01*
X598779Y317778D01*
X603777Y318778D02*
X607776D01*
Y317778D01*
X603777Y313779D01*
Y312779D01*
X578785Y293778D02*
X577786Y294778D01*
X575786D01*
X574787Y293778D01*
Y292778D01*
X575786Y291779D01*
X577786D01*
X578785Y290779D01*
Y289779D01*
X577786Y288779D01*
X575786D01*
X574787Y289779D01*
X581784Y288779D02*
X583784D01*
X584783Y289779D01*
Y291779D01*
X583784Y292778D01*
X581784D01*
X580785Y291779D01*
Y289779D01*
X581784Y288779D01*
X586783D02*
X588782D01*
X587782D01*
Y294778D01*
X586783D01*
X595780D02*
Y288779D01*
X592781D01*
X591781Y289779D01*
Y291779D01*
X592781Y292778D01*
X595780D01*
X600778Y288779D02*
X598779D01*
X597779Y289779D01*
Y291779D01*
X598779Y292778D01*
X600778D01*
X601778Y291779D01*
Y290779D01*
X597779D01*
X603777Y292778D02*
Y288779D01*
Y290779D01*
X604777Y291779D01*
X605777Y292778D01*
X606776D01*
X615773Y288779D02*
Y294778D01*
X618772D01*
X619772Y293778D01*
Y291779D01*
X618772Y290779D01*
X615773D01*
X617773D02*
X619772Y288779D01*
X624770D02*
X622771D01*
X621771Y289779D01*
Y291779D01*
X622771Y292778D01*
X624770D01*
X625770Y291779D01*
Y290779D01*
X621771D01*
X627769Y288779D02*
X630768D01*
X631768Y289779D01*
X630768Y290779D01*
X628769D01*
X627769Y291779D01*
X628769Y292778D01*
X631768D01*
X633768Y288779D02*
X635767D01*
X634767D01*
Y292778D01*
X633768D01*
X638766Y288779D02*
X641765D01*
X642765Y289779D01*
X641765Y290779D01*
X639766D01*
X638766Y291779D01*
X639766Y292778D01*
X642765D01*
X645764Y293778D02*
Y292778D01*
X644764D01*
X646763D01*
X645764D01*
Y289779D01*
X646763Y288779D01*
X574787Y408779D02*
Y414778D01*
X576786Y412778D01*
X578785Y414778D01*
Y408779D01*
X581784Y412778D02*
X583784D01*
X584783Y411779D01*
Y408779D01*
X581784D01*
X580785Y409779D01*
X581784Y410779D01*
X584783D01*
X587782Y413778D02*
Y412778D01*
X586783D01*
X588782D01*
X587782D01*
Y409779D01*
X588782Y408779D01*
X594780D02*
X592781D01*
X591781Y409779D01*
Y411779D01*
X592781Y412778D01*
X594780D01*
X595780Y411779D01*
Y410779D01*
X591781D01*
X597779Y412778D02*
Y408779D01*
Y410779D01*
X598779Y411779D01*
X599779Y412778D01*
X600778D01*
X603777Y408779D02*
X605777D01*
X604777D01*
Y412778D01*
X603777D01*
X609775D02*
X611775D01*
X612774Y411779D01*
Y408779D01*
X609775D01*
X608776Y409779D01*
X609775Y410779D01*
X612774D01*
X614774Y408779D02*
X616773D01*
X615773D01*
Y414778D01*
X614774D01*
X481812Y402778D02*
X485811D01*
X483812D01*
Y396779D01*
X488810D02*
X490809D01*
X491809Y397779D01*
Y399779D01*
X490809Y400778D01*
X488810D01*
X487810Y399779D01*
Y397779D01*
X488810Y396779D01*
X493808Y394780D02*
Y400778D01*
X496807D01*
X497807Y399779D01*
Y397779D01*
X496807Y396779D01*
X493808D01*
X508803Y402778D02*
X506804D01*
X505804Y401778D01*
Y397779D01*
X506804Y396779D01*
X508803D01*
X509803Y397779D01*
Y401778D01*
X508803Y402778D01*
X511802Y400778D02*
X513802Y396779D01*
X515801Y400778D01*
X520799Y396779D02*
X518800D01*
X517801Y397779D01*
Y399779D01*
X518800Y400778D01*
X520799D01*
X521799Y399779D01*
Y398779D01*
X517801D01*
X523799Y400778D02*
Y396779D01*
Y398779D01*
X524798Y399779D01*
X525798Y400778D01*
X526798D01*
X529797Y396779D02*
X531796D01*
X530796D01*
Y402778D01*
X529797D01*
X535795Y400778D02*
X537794D01*
X538794Y399779D01*
Y396779D01*
X535795D01*
X534795Y397779D01*
X535795Y398779D01*
X538794D01*
X540793Y400778D02*
Y397779D01*
X541793Y396779D01*
X544792D01*
Y395780D01*
X543792Y394780D01*
X542792D01*
X544792Y396779D02*
Y400778D01*
X481812Y390778D02*
X485811D01*
X483812D01*
Y384780D01*
X488810D02*
X490809D01*
X491809Y385779D01*
Y387779D01*
X490809Y388778D01*
X488810D01*
X487810Y387779D01*
Y385779D01*
X488810Y384780D01*
X493808Y382780D02*
Y388778D01*
X496807D01*
X497807Y387779D01*
Y385779D01*
X496807Y384780D01*
X493808D01*
X509803Y389778D02*
X508803Y390778D01*
X506804D01*
X505804Y389778D01*
Y388778D01*
X506804Y387779D01*
X508803D01*
X509803Y386779D01*
Y385779D01*
X508803Y384780D01*
X506804D01*
X505804Y385779D01*
X512802Y384780D02*
X514802D01*
X515801Y385779D01*
Y387779D01*
X514802Y388778D01*
X512802D01*
X511802Y387779D01*
Y385779D01*
X512802Y384780D01*
X517801D02*
X519800D01*
X518800D01*
Y390778D01*
X517801D01*
X526798D02*
Y384780D01*
X523799D01*
X522799Y385779D01*
Y387779D01*
X523799Y388778D01*
X526798D01*
X531796Y384780D02*
X529797D01*
X528797Y385779D01*
Y387779D01*
X529797Y388778D01*
X531796D01*
X532796Y387779D01*
Y386779D01*
X528797D01*
X534795Y388778D02*
Y384780D01*
Y386779D01*
X535795Y387779D01*
X536794Y388778D01*
X537794D01*
X481812Y378778D02*
Y372779D01*
X485811D01*
X487810D02*
X489810D01*
X488810D01*
Y378778D01*
X487810Y377778D01*
X481812Y366778D02*
Y360780D01*
X484811D01*
X485811Y361779D01*
Y365778D01*
X484811Y366778D01*
X481812D01*
X487810Y360780D02*
X489810D01*
X488810D01*
Y364778D01*
X487810D01*
X495808Y360780D02*
X493808D01*
X492809Y361779D01*
Y363779D01*
X493808Y364778D01*
X495808D01*
X496807Y363779D01*
Y362779D01*
X492809D01*
X498807Y360780D02*
X500806D01*
X499806D01*
Y366778D01*
X498807D01*
X506804Y360780D02*
X504805D01*
X503805Y361779D01*
Y363779D01*
X504805Y364778D01*
X506804D01*
X507804Y363779D01*
Y362779D01*
X503805D01*
X513802Y364778D02*
X510803D01*
X509803Y363779D01*
Y361779D01*
X510803Y360780D01*
X513802D01*
X516801Y365778D02*
Y364778D01*
X515801D01*
X517801D01*
X516801D01*
Y361779D01*
X517801Y360780D01*
X520799Y364778D02*
Y360780D01*
Y362779D01*
X521799Y363779D01*
X522799Y364778D01*
X523799D01*
X526798Y360780D02*
X528797D01*
X527797D01*
Y364778D01*
X526798D01*
X535795D02*
X532796D01*
X531796Y363779D01*
Y361779D01*
X532796Y360780D01*
X535795D01*
X543792D02*
X545791D01*
X544792D01*
Y366778D01*
X543792Y365778D01*
X481812Y354778D02*
Y348780D01*
X485811D01*
X491809D02*
X487810D01*
X491809Y352778D01*
Y353778D01*
X490809Y354778D01*
X488810D01*
X487810Y353778D01*
X485811Y341778D02*
X484811Y342778D01*
X482812D01*
X481812Y341778D01*
Y337779D01*
X482812Y336779D01*
X484811D01*
X485811Y337779D01*
X488810Y336779D02*
X490809D01*
X491809Y337779D01*
Y339779D01*
X490809Y340778D01*
X488810D01*
X487810Y339779D01*
Y337779D01*
X488810Y336779D01*
X493808Y340778D02*
Y336779D01*
Y338779D01*
X494808Y339779D01*
X495808Y340778D01*
X496807D01*
X502805Y336779D02*
X500806D01*
X499806Y337779D01*
Y339779D01*
X500806Y340778D01*
X502805D01*
X503805Y339779D01*
Y338779D01*
X499806D01*
X511802Y336779D02*
X513802D01*
X512802D01*
Y342778D01*
X511802Y341778D01*
X481812Y330778D02*
Y324780D01*
X485811D01*
X487810Y329778D02*
X488810Y330778D01*
X490809D01*
X491809Y329778D01*
Y328778D01*
X490809Y327779D01*
X489810D01*
X490809D01*
X491809Y326779D01*
Y325779D01*
X490809Y324780D01*
X488810D01*
X487810Y325779D01*
X481812Y318778D02*
Y312779D01*
X484811D01*
X485811Y313779D01*
Y317778D01*
X484811Y318778D01*
X481812D01*
X487810Y312779D02*
X489810D01*
X488810D01*
Y316778D01*
X487810D01*
X495808Y312779D02*
X493808D01*
X492809Y313779D01*
Y315779D01*
X493808Y316778D01*
X495808D01*
X496807Y315779D01*
Y314779D01*
X492809D01*
X498807Y312779D02*
X500806D01*
X499806D01*
Y318778D01*
X498807D01*
X506804Y312779D02*
X504805D01*
X503805Y313779D01*
Y315779D01*
X504805Y316778D01*
X506804D01*
X507804Y315779D01*
Y314779D01*
X503805D01*
X513802Y316778D02*
X510803D01*
X509803Y315779D01*
Y313779D01*
X510803Y312779D01*
X513802D01*
X516801Y317778D02*
Y316778D01*
X515801D01*
X517801D01*
X516801D01*
Y313779D01*
X517801Y312779D01*
X520799Y316778D02*
Y312779D01*
Y314779D01*
X521799Y315779D01*
X522799Y316778D01*
X523799D01*
X526798Y312779D02*
X528797D01*
X527797D01*
Y316778D01*
X526798D01*
X535795D02*
X532796D01*
X531796Y315779D01*
Y313779D01*
X532796Y312779D01*
X535795D01*
X547791D02*
X543792D01*
X547791Y316778D01*
Y317778D01*
X546791Y318778D01*
X544792D01*
X543792Y317778D01*
X481812Y306778D02*
Y300780D01*
X485811D01*
X490809D02*
Y306778D01*
X487810Y303779D01*
X491809D01*
X481812Y294778D02*
Y288779D01*
X484811D01*
X485811Y289779D01*
Y290779D01*
X484811Y291779D01*
X481812D01*
X484811D01*
X485811Y292778D01*
Y293778D01*
X484811Y294778D01*
X481812D01*
X488810Y288779D02*
X490809D01*
X491809Y289779D01*
Y291779D01*
X490809Y292778D01*
X488810D01*
X487810Y291779D01*
Y289779D01*
X488810Y288779D01*
X494808Y293778D02*
Y292778D01*
X493808D01*
X495808D01*
X494808D01*
Y289779D01*
X495808Y288779D01*
X499806Y293778D02*
Y292778D01*
X498807D01*
X500806D01*
X499806D01*
Y289779D01*
X500806Y288779D01*
X504805D02*
X506804D01*
X507804Y289779D01*
Y291779D01*
X506804Y292778D01*
X504805D01*
X503805Y291779D01*
Y289779D01*
X504805Y288779D01*
X509803D02*
Y292778D01*
X510803D01*
X511802Y291779D01*
Y288779D01*
Y291779D01*
X512802Y292778D01*
X513802Y291779D01*
Y288779D01*
X525798Y293778D02*
X524798Y294778D01*
X522799D01*
X521799Y293778D01*
Y292778D01*
X522799Y291779D01*
X524798D01*
X525798Y290779D01*
Y289779D01*
X524798Y288779D01*
X522799D01*
X521799Y289779D01*
X528797Y288779D02*
X530796D01*
X531796Y289779D01*
Y291779D01*
X530796Y292778D01*
X528797D01*
X527797Y291779D01*
Y289779D01*
X528797Y288779D01*
X533795D02*
X535795D01*
X534795D01*
Y294778D01*
X533795D01*
X542792D02*
Y288779D01*
X539793D01*
X538794Y289779D01*
Y291779D01*
X539793Y292778D01*
X542792D01*
X547791Y288779D02*
X545791D01*
X544792Y289779D01*
Y291779D01*
X545791Y292778D01*
X547791D01*
X548791Y291779D01*
Y290779D01*
X544792D01*
X550790Y292778D02*
Y288779D01*
Y290779D01*
X551790Y291779D01*
X552789Y292778D01*
X553789D01*
X481812Y282778D02*
Y276780D01*
X484811D01*
X485811Y277779D01*
Y278779D01*
X484811Y279779D01*
X481812D01*
X484811D01*
X485811Y280778D01*
Y281778D01*
X484811Y282778D01*
X481812D01*
X488810Y276780D02*
X490809D01*
X491809Y277779D01*
Y279779D01*
X490809Y280778D01*
X488810D01*
X487810Y279779D01*
Y277779D01*
X488810Y276780D01*
X494808Y281778D02*
Y280778D01*
X493808D01*
X495808D01*
X494808D01*
Y277779D01*
X495808Y276780D01*
X499806Y281778D02*
Y280778D01*
X498807D01*
X500806D01*
X499806D01*
Y277779D01*
X500806Y276780D01*
X504805D02*
X506804D01*
X507804Y277779D01*
Y279779D01*
X506804Y280778D01*
X504805D01*
X503805Y279779D01*
Y277779D01*
X504805Y276780D01*
X509803D02*
Y280778D01*
X510803D01*
X511802Y279779D01*
Y276780D01*
Y279779D01*
X512802Y280778D01*
X513802Y279779D01*
Y276780D01*
X524798Y282778D02*
X522799D01*
X521799Y281778D01*
Y277779D01*
X522799Y276780D01*
X524798D01*
X525798Y277779D01*
Y281778D01*
X524798Y282778D01*
X527797Y280778D02*
X529797Y276780D01*
X531796Y280778D01*
X536794Y276780D02*
X534795D01*
X533795Y277779D01*
Y279779D01*
X534795Y280778D01*
X536794D01*
X537794Y279779D01*
Y278779D01*
X533795D01*
X539793Y280778D02*
Y276780D01*
Y278779D01*
X540793Y279779D01*
X541793Y280778D01*
X542792D01*
X545791Y276780D02*
X547791D01*
X546791D01*
Y282778D01*
X545791D01*
X551790Y280778D02*
X553789D01*
X554788Y279779D01*
Y276780D01*
X551790D01*
X550790Y277779D01*
X551790Y278779D01*
X554788D01*
X556788Y280778D02*
Y277779D01*
X557788Y276780D01*
X560787D01*
Y275780D01*
X559787Y274780D01*
X558787D01*
X560787Y276780D02*
Y280778D01*
X481812Y408779D02*
Y414778D01*
X485811Y408779D01*
Y414778D01*
X488810Y412778D02*
X490809D01*
X491809Y411779D01*
Y408779D01*
X488810D01*
X487810Y409779D01*
X488810Y410779D01*
X491809D01*
X493808Y408779D02*
Y412778D01*
X494808D01*
X495808Y411779D01*
Y408779D01*
Y411779D01*
X496807Y412778D01*
X497807Y411779D01*
Y408779D01*
X502805D02*
X500806D01*
X499806Y409779D01*
Y411779D01*
X500806Y412778D01*
X502805D01*
X503805Y411779D01*
Y410779D01*
X499806D01*
X440821Y372779D02*
X442820D01*
X441821D01*
Y378778D01*
X440821Y377778D01*
X444820Y348780D02*
X440821D01*
X444820Y352778D01*
Y353778D01*
X443820Y354778D01*
X441821D01*
X440821Y353778D01*
Y329778D02*
X441821Y330778D01*
X443820D01*
X444820Y329778D01*
Y328778D01*
X443820Y327779D01*
X442820D01*
X443820D01*
X444820Y326779D01*
Y325779D01*
X443820Y324780D01*
X441821D01*
X440821Y325779D01*
X443820Y300780D02*
Y306778D01*
X440821Y303779D01*
X444820D01*
X440821Y414778D02*
Y408779D01*
X444820D01*
X447819Y412778D02*
X449818D01*
X450818Y411779D01*
Y408779D01*
X447819D01*
X446819Y409779D01*
X447819Y410779D01*
X450818D01*
X452817Y412778D02*
Y409779D01*
X453817Y408779D01*
X456816D01*
Y407780D01*
X455816Y406780D01*
X454816D01*
X456816Y408779D02*
Y412778D01*
X461814Y408779D02*
X459815D01*
X458815Y409779D01*
Y411779D01*
X459815Y412778D01*
X461814D01*
X462814Y411779D01*
Y410779D01*
X458815D01*
X464813Y412778D02*
Y408779D01*
Y410779D01*
X465813Y411779D01*
X466813Y412778D01*
X467812D01*
D12*
X83271Y336036D02*
X83465D01*
X78545Y336589D02*
X78702Y336432D01*
X82867D02*
X83183Y336117D01*
X81856Y334621D02*
X83271Y336036D01*
X78702Y336432D02*
X82867D01*
X78545Y334621D02*
X81856D01*
X81288Y328715D02*
X81355Y328782D01*
X81123Y326747D02*
X81158Y326782D01*
X78545Y328715D02*
X81288D01*
X78545Y326747D02*
X81123D01*
X61909Y341412D02*
Y345965D01*
X61811Y346063D02*
X61909Y345965D01*
X67816Y341412D02*
Y344389D01*
X67449Y344756D02*
X67816Y344389D01*
X64470Y335999D02*
X68801Y331668D01*
X63878Y336591D02*
X64470Y335999D01*
X73723Y345604D02*
X77551Y349432D01*
X73723Y341412D02*
Y345604D01*
X77551Y349432D02*
X81912D01*
X71754Y341412D02*
Y344882D01*
X87358Y354878D02*
Y359248D01*
X81912Y349432D02*
X87358Y354878D01*
X47083Y312795D02*
X50197D01*
X47083Y306102D02*
X50197D01*
X47083Y324606D02*
X48166Y325689D01*
X47293Y330302D02*
X50555D01*
X48166Y325689D02*
X49653D01*
X47083Y318701D02*
X50466D01*
X47083Y330512D02*
X47293Y330302D01*
X50466Y318701D02*
X51779Y320014D01*
X53874Y313266D02*
X55575Y314967D01*
X53733Y324713D02*
X55767Y326747D01*
X51779Y325287D02*
X55180Y328688D01*
X49653Y325689D02*
X54648Y330684D01*
X50197Y312795D02*
X53733Y316331D01*
X51779Y320014D02*
Y325287D01*
X50555Y330302D02*
X52838Y332584D01*
X47721Y341685D02*
X49653D01*
X52953Y342126D02*
Y345079D01*
X49653Y341685D02*
X51937Y339402D01*
X47083Y348228D02*
X49803D01*
X47083Y342323D02*
X47721Y341685D01*
X47083Y336417D02*
X50881D01*
X50197Y306102D02*
X53874Y309780D01*
X53733Y316331D02*
Y324713D01*
X53874Y309780D02*
Y313266D01*
X52838Y332584D02*
X58988D01*
X54713Y336625D02*
X59021D01*
X54648Y330684D02*
X59018D01*
X52720Y334578D02*
X59014D01*
X51937Y339402D02*
X54713Y336625D01*
X56521Y338558D02*
X59057D01*
X51937Y339402D02*
Y339402D01*
X58988Y332584D02*
X59057Y332652D01*
X50881Y336417D02*
X52720Y334578D01*
X59030Y328688D02*
X59057Y328715D01*
X52953Y342126D02*
X56521Y338558D01*
X55180Y328688D02*
X59030D01*
X55575Y324027D02*
X56202Y324655D01*
X55767Y326747D02*
X58985D01*
X55575Y314967D02*
Y324027D01*
X49803Y348228D02*
X52953Y345079D01*
X58985Y326747D02*
X59021Y326711D01*
X58933Y324655D02*
X59057Y324778D01*
X56202Y324655D02*
X58933D01*
X69785Y318160D02*
Y321924D01*
X63878Y319154D02*
Y321924D01*
X57402Y299685D02*
X57449Y299732D01*
X77953Y302844D02*
Y306445D01*
X75658Y300549D02*
X77953Y302844D01*
X59150Y314425D02*
X63878Y319154D01*
X69291Y317666D02*
X69785Y318160D01*
X69291Y313138D02*
Y317666D01*
X50787Y299764D02*
Y304165D01*
X50709Y299685D02*
X50787Y299764D01*
Y304165D02*
X55661Y309039D01*
X57449Y299732D02*
Y311785D01*
X57362Y314227D02*
Y315166D01*
X55661Y309039D02*
Y312526D01*
X57362Y314227D01*
X61855Y321870D02*
X61909Y321924D01*
X61855Y319658D02*
Y321870D01*
X57362Y315166D02*
X61855Y319658D01*
X59150Y313486D02*
Y314425D01*
X57449Y311785D02*
X59150Y313486D01*
D14*
X40666Y324410D02*
X40863Y324606D01*
X34252Y324410D02*
X40666D01*
X28772Y221621D02*
Y299441D01*
X26197Y220555D02*
Y305724D01*
X23622Y219488D02*
Y357283D01*
X15748Y138779D02*
X16658D01*
X14764Y178150D02*
X16054D01*
X26197Y220555D02*
X63515Y183237D01*
X23622Y219488D02*
X60940Y182170D01*
X28772Y221621D02*
X66090Y184303D01*
X16054Y178150D02*
X19007Y175197D01*
X38976D01*
X38016Y142683D02*
X53485D01*
X19009Y136428D02*
X37982D01*
X16658Y138779D02*
X19009Y136428D01*
X37982Y142649D02*
X38016Y142683D01*
X60940Y167314D02*
Y182170D01*
X66090Y169447D02*
X96063Y139474D01*
X63515Y168381D02*
X92913Y138982D01*
X60940Y167314D02*
X86614Y141640D01*
X104766Y27762D02*
Y34014D01*
X35140Y101378D02*
X35433Y101671D01*
X20039Y101378D02*
X35140D01*
X35433Y369094D02*
X62992D01*
X57402Y196633D02*
Y293465D01*
X68664Y170514D02*
Y185370D01*
X66090Y169447D02*
Y184303D01*
X63515Y168381D02*
Y183237D01*
X57402Y196633D02*
X68664Y185370D01*
X64095Y193780D02*
Y293465D01*
X38976Y175197D02*
X39370Y175591D01*
X47244Y169134D02*
X47402Y169291D01*
X53150D01*
X39606Y175354D02*
X47244D01*
X39370Y175591D02*
X39606Y175354D01*
X53485Y136428D02*
X53786Y136127D01*
X53485Y142683D02*
X53485Y142683D01*
X60005D02*
X60039Y142717D01*
X59739Y136127D02*
X60039Y135827D01*
X53786Y136127D02*
X59739D01*
X53485Y142683D02*
X60005D01*
X64095Y193780D02*
X71239Y186635D01*
X66611Y361063D02*
Y365476D01*
X62992Y369094D02*
X66611Y365476D01*
X63763Y310548D02*
Y310614D01*
X69146Y312992D02*
X69291Y313138D01*
X66142Y312992D02*
X69146D01*
X63763Y310614D02*
X66142Y312992D01*
X28772Y299441D02*
X35433Y306102D01*
X13819Y43347D02*
Y50197D01*
X13780Y43307D02*
X13819Y43347D01*
X13780Y94488D02*
Y101339D01*
Y75748D02*
X13819Y75787D01*
X13780Y68898D02*
Y75748D01*
Y101339D02*
X13819Y101378D01*
X150856Y215586D02*
X151017Y215425D01*
X144256Y215586D02*
X150856D01*
X144095Y215748D02*
X144256Y215586D01*
X172047Y191929D02*
X172079Y191898D01*
Y187604D02*
Y191898D01*
X165354Y191929D02*
X172047D01*
X172079Y187604D02*
X172110Y187572D01*
X84008Y202512D02*
X101575Y220079D01*
X116142D01*
X105496Y151559D02*
X124016Y170079D01*
X71239Y171580D02*
X84008Y158811D01*
X71239Y171580D02*
Y186635D01*
X84008Y158811D02*
Y202512D01*
X68664Y170514D02*
X99213Y139966D01*
X112205Y137795D02*
X122047Y147638D01*
X118110Y114059D02*
Y114567D01*
X115862Y111811D02*
X118110Y114059D01*
X110433Y111811D02*
X115862D01*
X110433Y108661D02*
X115631D01*
X128740Y81102D02*
Y88583D01*
X125591Y81594D02*
Y117027D01*
X122835Y87795D02*
Y116142D01*
X110433Y89764D02*
X118110D01*
X110433Y96063D02*
X118110D01*
X120472Y85433D02*
X122835Y87795D01*
X142126Y92520D02*
X146496D01*
X132677D02*
X142126D01*
X128740Y88583D02*
X132677Y92520D01*
X117332Y106961D02*
X117971D01*
X115631Y108661D02*
X117332Y106961D01*
X101787Y137189D02*
X122835Y116142D01*
X105496Y137122D02*
X125591Y117027D01*
X81481Y128566D02*
X83465Y126582D01*
X81481Y128566D02*
Y129206D01*
X80315Y117717D02*
Y123627D01*
X75011Y128931D02*
X80315Y123627D01*
X74669Y128931D02*
X75011D01*
X105496Y137122D02*
Y151559D01*
X101787Y137189D02*
Y141032D01*
X99213Y117717D02*
Y139966D01*
X96063Y117717D02*
Y139474D01*
X92913Y117717D02*
Y138982D01*
X84008Y158811D02*
X101787Y141032D01*
X86614Y117717D02*
Y141640D01*
X83465Y117717D02*
Y126582D01*
X153543Y201772D02*
Y207038D01*
X152559Y208022D02*
X153543Y207038D01*
X165157Y191929D02*
X165354D01*
X165356Y187805D02*
Y191927D01*
X157222Y187805D02*
Y191868D01*
X152559Y208022D02*
Y208661D01*
X164434Y186882D02*
X165356Y187805D01*
X157222D02*
X158144Y186882D01*
X164434D01*
X173624Y109413D02*
X178946D01*
X173583Y109455D02*
X173624Y109413D01*
X173668Y101763D02*
X178769D01*
X173645Y101741D02*
X173668Y101763D01*
X178769D02*
X178792Y101786D01*
X110236Y38386D02*
X112047Y36575D01*
X96653Y38386D02*
X110236D01*
X92884Y44656D02*
X112037D01*
X96063Y37795D02*
X96653Y38386D01*
X112047Y36575D02*
X112205D01*
X128347Y34055D02*
Y48031D01*
X118898Y37795D02*
X119685D01*
X112037Y44656D02*
X118898Y37795D01*
X88583Y40354D02*
X92884Y44656D01*
X96063Y37795D02*
X96457D01*
X104724Y34055D02*
X104766Y34014D01*
X88583Y36575D02*
Y40354D01*
X24929Y37402D02*
X28346D01*
X19024Y31496D02*
X24929Y37402D01*
X20127Y39011D02*
Y50110D01*
X20039Y50197D02*
X20127Y50110D01*
X88976Y56299D02*
X93307Y51968D01*
X74016Y70011D02*
Y71260D01*
Y70011D02*
X74047Y69980D01*
Y67489D02*
Y69980D01*
Y67489D02*
X74213Y67323D01*
X88976Y63631D02*
X89764Y64419D01*
X88976Y62992D02*
Y63631D01*
Y56299D02*
Y62992D01*
X89764Y64419D02*
Y71260D01*
X117717Y81496D02*
X118110D01*
X110433Y77165D02*
X121162D01*
X116535Y80315D02*
X117717Y81496D01*
X110433Y80315D02*
X116535D01*
X110433Y74016D02*
X121653D01*
X121162Y77165D02*
X125591Y81594D01*
X116437Y85433D02*
X120472D01*
X115256Y86614D02*
X116437Y85433D01*
X110433Y86614D02*
X115256D01*
X121653Y74016D02*
X128740Y81102D01*
X29528Y78740D02*
Y86614D01*
X26575Y75787D02*
X29528Y78740D01*
X20039Y75787D02*
X26575D01*
X27461Y62992D02*
X28346D01*
X21555Y57087D02*
X27461Y62992D01*
X13780Y57087D02*
X21555D01*
X95607Y62278D02*
Y62305D01*
X126485Y64477D02*
X133858Y71850D01*
X107264Y64477D02*
X126485D01*
X105512Y66229D02*
X107264Y64477D01*
X102362Y62992D02*
Y71260D01*
X99213Y65911D02*
Y71260D01*
X95607Y62305D02*
X99213Y65911D01*
X105512Y66229D02*
Y71260D01*
X93307Y51968D02*
X124409D01*
X164770Y34290D02*
Y42611D01*
X36614Y59213D02*
X45266D01*
X46211Y58268D01*
X46850D01*
X124409Y51968D02*
X128347Y48031D01*
X164770Y50092D02*
Y58663D01*
X164573Y58860D02*
X164770Y58663D01*
X164570Y65083D02*
X164573Y65080D01*
X164570Y65083D02*
Y71847D01*
X133858Y71850D02*
X164567D01*
X164570Y71847D01*
X35433Y306102D02*
X40863D01*
X33268Y312795D02*
X40863D01*
X26197Y305724D02*
X33268Y312795D01*
X23622Y357283D02*
X35433Y369094D01*
X36614Y33622D02*
X36732Y33740D01*
X45158D02*
X45276Y33858D01*
X36732Y33740D02*
X45158D01*
X164567Y34086D02*
X164770Y34290D01*
X13780Y31496D02*
X19024D01*
X307087Y145669D02*
Y153543D01*
X304134Y146811D02*
Y154528D01*
X307087Y153543D02*
X323524Y169980D01*
X304134Y154528D02*
X324803Y175197D01*
X301339Y137638D02*
X302402Y136575D01*
X306861Y127195D02*
X317913Y116142D01*
X304134Y126280D02*
X322363Y108051D01*
X338957Y103051D02*
Y108878D01*
X322363Y108051D02*
X328957D01*
X331693Y116142D02*
X338957Y108878D01*
X317913Y116142D02*
X331693D01*
X302402Y136417D02*
Y136575D01*
X308898Y143858D02*
X309055D01*
X307087Y145669D02*
X308898Y143858D01*
X306861Y135601D02*
X308898Y137638D01*
X309055D01*
X306861Y127195D02*
Y135601D01*
X304134Y126280D02*
Y134685D01*
X302402Y145079D02*
X304134Y146811D01*
X302402Y136417D02*
X304134Y134685D01*
X302402Y144921D02*
Y145079D01*
X301181Y143858D02*
X301339D01*
X302402Y144921D01*
X301181Y137638D02*
X301339D01*
X328740Y175197D02*
X328957Y174980D01*
X323524Y169980D02*
X338957D01*
X324803Y175197D02*
X328740D01*
D16*
X59881Y361024D02*
D03*
Y354331D02*
D03*
X53815Y361024D02*
D03*
Y354331D02*
D03*
X87008Y300197D02*
D03*
Y293504D02*
D03*
X150773Y336024D02*
D03*
Y329331D02*
D03*
X144342Y336030D02*
D03*
Y329337D02*
D03*
Y348406D02*
D03*
Y341714D02*
D03*
X120888Y329337D02*
D03*
Y336030D02*
D03*
X114606Y342717D02*
D03*
Y336024D02*
D03*
X73304Y361024D02*
D03*
Y354331D02*
D03*
X79997Y361024D02*
D03*
Y354331D02*
D03*
X70472Y300197D02*
D03*
Y293504D02*
D03*
X80709Y300197D02*
D03*
Y293504D02*
D03*
X93307Y300197D02*
D03*
Y293504D02*
D03*
X45840Y142717D02*
D03*
Y136024D02*
D03*
X39370Y175591D02*
D03*
Y168898D02*
D03*
X216142Y363976D02*
D03*
Y370669D02*
D03*
X209452Y370669D02*
D03*
Y363976D02*
D03*
X187057Y370669D02*
D03*
Y363976D02*
D03*
X203143Y363976D02*
D03*
Y370669D02*
D03*
X166535Y363976D02*
D03*
Y370669D02*
D03*
X172047Y191929D02*
D03*
Y198622D02*
D03*
X165748Y191929D02*
D03*
Y198622D02*
D03*
D17*
X164961Y345315D02*
D03*
Y351535D02*
D03*
X66611Y354842D02*
D03*
Y361063D02*
D03*
X57402Y299685D02*
D03*
Y293465D02*
D03*
X50709Y299685D02*
D03*
Y293465D02*
D03*
X64095Y299685D02*
D03*
Y293465D02*
D03*
X47244Y175354D02*
D03*
Y169134D02*
D03*
X37982Y136428D02*
D03*
Y142649D02*
D03*
X53485Y142649D02*
D03*
Y136428D02*
D03*
X112205Y36575D02*
D03*
Y30354D02*
D03*
X196372Y364458D02*
D03*
Y370679D02*
D03*
X309055Y143858D02*
D03*
Y137638D02*
D03*
X301181Y143858D02*
D03*
Y137638D02*
D03*
X88583Y36575D02*
D03*
Y30354D02*
D03*
X164961Y320974D02*
D03*
Y327195D02*
D03*
X164573Y58860D02*
D03*
Y65080D02*
D03*
D18*
X40863Y306102D02*
D03*
X47083D02*
D03*
X40863Y312795D02*
D03*
X47083D02*
D03*
X40863Y318701D02*
D03*
X47083D02*
D03*
X40863Y324606D02*
D03*
X47083D02*
D03*
X40863Y330512D02*
D03*
X47083D02*
D03*
X40863Y336417D02*
D03*
X47083D02*
D03*
X40863Y342323D02*
D03*
X47083D02*
D03*
X40863Y348228D02*
D03*
X47083D02*
D03*
X13819Y101378D02*
D03*
X20039D02*
D03*
X146496Y92520D02*
D03*
X152717D02*
D03*
X167362Y109455D02*
D03*
X173583D02*
D03*
X167425Y101741D02*
D03*
X173645D02*
D03*
X13819Y75787D02*
D03*
X20039D02*
D03*
X13819Y50197D02*
D03*
X20039D02*
D03*
X151017Y215425D02*
D03*
X157238D02*
D03*
D19*
X103619Y306102D02*
D03*
X96926D02*
D03*
X156857Y348509D02*
D03*
X150164D02*
D03*
X121299D02*
D03*
X114606D02*
D03*
X89213Y338583D02*
D03*
X95905D02*
D03*
X89213Y332677D02*
D03*
X95906D02*
D03*
X135839Y345760D02*
D03*
X129146D02*
D03*
X103619Y318701D02*
D03*
X96926D02*
D03*
X103619Y324606D02*
D03*
X96926D02*
D03*
X103619Y312795D02*
D03*
X96926D02*
D03*
X171260Y34086D02*
D03*
X164567D02*
D03*
X284425Y105547D02*
D03*
X277732D02*
D03*
X255866D02*
D03*
X262559D02*
D03*
X67520Y51175D02*
D03*
X74213D02*
D03*
X67520Y57505D02*
D03*
X74213D02*
D03*
X67520Y63737D02*
D03*
X74213D02*
D03*
X173866Y370731D02*
D03*
X180559D02*
D03*
X180096Y363953D02*
D03*
X173403D02*
D03*
X180512Y377559D02*
D03*
X173819D02*
D03*
X13780Y31496D02*
D03*
Y43307D02*
D03*
Y57087D02*
D03*
Y68898D02*
D03*
Y82677D02*
D03*
Y94488D02*
D03*
X171260Y71850D02*
D03*
X164567D02*
D03*
D20*
X77953Y306445D02*
D03*
X69291D02*
D03*
Y313138D02*
D03*
X77953D02*
D03*
D22*
X136993Y336221D02*
D03*
X127993D02*
D03*
D23*
X105093Y341707D02*
D03*
Y332707D02*
D03*
D24*
X125787Y288976D02*
D03*
X115945D02*
D03*
X65945Y28740D02*
D03*
X56102D02*
D03*
D25*
X208071Y37551D02*
D03*
X225000D02*
D03*
D26*
X128347Y34055D02*
D03*
X119685Y30315D02*
D03*
Y37795D02*
D03*
X104724Y34055D02*
D03*
X96063Y30315D02*
D03*
Y37795D02*
D03*
D27*
X131890Y120984D02*
D03*
Y130984D02*
D03*
X167323D02*
D03*
Y120984D02*
D03*
D28*
X67716Y71260D02*
D03*
X70866D02*
D03*
X74016D02*
D03*
X77165D02*
D03*
X80315D02*
D03*
X83465D02*
D03*
X86614D02*
D03*
X89764D02*
D03*
X92913D02*
D03*
X96063D02*
D03*
X99213D02*
D03*
X102362D02*
D03*
X105512D02*
D03*
Y117717D02*
D03*
X102362D02*
D03*
X99213D02*
D03*
X96063D02*
D03*
X92913D02*
D03*
X89764D02*
D03*
X86614D02*
D03*
X83465D02*
D03*
X80315D02*
D03*
X77165D02*
D03*
X74016D02*
D03*
X70866D02*
D03*
X67716D02*
D03*
D29*
X110433Y74016D02*
D03*
Y77165D02*
D03*
Y80315D02*
D03*
Y83465D02*
D03*
Y86614D02*
D03*
Y89764D02*
D03*
Y92913D02*
D03*
Y96063D02*
D03*
Y99213D02*
D03*
Y102362D02*
D03*
Y105512D02*
D03*
Y108661D02*
D03*
Y111811D02*
D03*
Y114961D02*
D03*
X62795D02*
D03*
Y111811D02*
D03*
Y108661D02*
D03*
Y105512D02*
D03*
Y102362D02*
D03*
Y99213D02*
D03*
Y96063D02*
D03*
Y92913D02*
D03*
Y89764D02*
D03*
Y86614D02*
D03*
Y83465D02*
D03*
Y80315D02*
D03*
Y77165D02*
D03*
Y74016D02*
D03*
D30*
X186457Y325984D02*
D03*
X196457Y351181D02*
D03*
X206457Y325984D02*
D03*
D31*
X36614Y59213D02*
D03*
Y66772D02*
D03*
X28346Y62992D02*
D03*
X28346Y37402D02*
D03*
X36614Y41181D02*
D03*
Y33622D02*
D03*
D32*
X157283Y201772D02*
D03*
X153543D02*
D03*
X149803D02*
D03*
Y191929D02*
D03*
X157283D02*
D03*
D33*
X139741Y203051D02*
D03*
Y190650D02*
D03*
D34*
X161024Y241142D02*
D03*
X140157D02*
D03*
D35*
X146949Y100036D02*
D03*
Y102004D02*
D03*
Y103972D02*
D03*
X153516D02*
D03*
Y102004D02*
D03*
Y100036D02*
D03*
D36*
X169888Y42611D02*
D03*
X164770D02*
D03*
Y50092D02*
D03*
X167329D02*
D03*
X169888D02*
D03*
D37*
X236872Y68157D02*
D03*
Y89023D02*
D03*
X298206Y71488D02*
D03*
Y92354D02*
D03*
D38*
X267868Y93338D02*
D03*
D39*
X276923Y68929D02*
D03*
X267868D02*
D03*
X258813D02*
D03*
D46*
X75692Y321924D02*
D03*
X73723D02*
D03*
X71754D02*
D03*
X69785D02*
D03*
X67816D02*
D03*
X65847D02*
D03*
X63878D02*
D03*
X61909D02*
D03*
Y341412D02*
D03*
X63878D02*
D03*
X65847D02*
D03*
X67816D02*
D03*
X69785D02*
D03*
X71754D02*
D03*
X73723D02*
D03*
X75692D02*
D03*
D47*
X59057Y324778D02*
D03*
Y326747D02*
D03*
Y328715D02*
D03*
Y330684D02*
D03*
Y332652D02*
D03*
Y334621D02*
D03*
Y336589D02*
D03*
Y338558D02*
D03*
X78545D02*
D03*
Y336589D02*
D03*
Y334621D02*
D03*
Y332652D02*
D03*
Y330684D02*
D03*
Y328715D02*
D03*
Y326747D02*
D03*
Y324778D02*
D03*
D82*
X152334Y336024D02*
X151983Y336030D01*
X164207Y345315D02*
X163226Y345267D01*
X162256Y345123D01*
X161304Y344884D01*
X160380Y344554D01*
X159493Y344134D01*
X158651Y343630D01*
X157863Y343045D01*
X157135Y342386D01*
X156673Y330124D02*
X157400Y329465D01*
X158188Y328880D01*
X159030Y328376D01*
X159917Y327956D01*
X160841Y327625D01*
X161793Y327387D01*
X162764Y327243D01*
X163744Y327195D01*
X164403Y370131D02*
X163700Y369364D01*
X163067Y368539D01*
X162508Y367662D01*
X162028Y366739D01*
X161630Y365778D01*
X161318Y364786D01*
X161092Y363770D01*
X160957Y362739D01*
X160912Y361700D01*
Y361700D02*
X160950Y360738D01*
X161064Y359783D01*
X161252Y358839D01*
X161514Y357913D01*
X161848Y357011D01*
X206457Y337039D02*
X206409Y338019D01*
X206264Y338990D01*
X206026Y339942D01*
X205696Y340866D01*
X205276Y341753D01*
X204771Y342595D01*
X204187Y343383D01*
X203528Y344110D01*
X164966Y370479D02*
X164403Y370131D01*
X161848Y357011D02*
X162279Y356102D01*
X162796Y355239D01*
X163396Y354432D01*
X164071Y353687D01*
X164593Y352987D02*
X164071Y353687D01*
X72835Y308071D02*
X73247Y309065D01*
X72835Y308071D02*
X71932Y307982D01*
X71064Y307719D01*
X70263Y307291D01*
X69562Y306716D01*
X69291Y303048D02*
X69429Y302005D01*
X69832Y301032D01*
X70472Y300197D01*
X69562Y306716D02*
X69561Y306715D01*
X73247Y315500D02*
X72718Y316494D01*
X71754Y317569D02*
X72106Y316907D01*
X169468Y298611D02*
X169460Y299635D01*
X169432Y300658D01*
X169384Y301680D01*
X169317Y302701D01*
X169230Y303721D01*
X169123Y304738D01*
X168996Y305754D01*
X168850Y306767D01*
X168684Y307777D01*
X168499Y308783D01*
X168295Y309786D01*
X168071Y310784D01*
X167827Y311778D01*
X167565Y312767D01*
X167283Y313751D01*
X166983Y314729D01*
X166664Y315702D01*
X166326Y316668D01*
X165969Y317627D01*
X165594Y318579D01*
X165200Y319523D01*
X169468Y298611D02*
X169565Y298235D01*
X221614Y381536D02*
X220539Y381430D01*
X219505Y381116D01*
X218552Y380607D01*
X217717Y379921D01*
X217048Y379106D01*
X216551Y378177D01*
X216245Y377168D01*
X216142Y376119D01*
X196372Y351385D02*
X196456Y351182D01*
X196457Y351181D01*
X180512Y370845D02*
X180559Y370731D01*
X187057Y370669D02*
X186907Y370731D01*
X173866Y377445D02*
X173819Y377559D01*
X166602Y370685D02*
X166530Y370630D01*
X166775Y370731D02*
X166602Y370685D01*
X164207Y345315D02*
X164961D01*
X150781Y336030D02*
X151983D01*
X150773Y336024D02*
X156673Y330124D01*
X150773Y336024D02*
X157135Y342386D01*
X163744Y327195D02*
X164803D01*
X164806Y343864D02*
X164961Y345315D01*
X75847Y316929D02*
X76772D01*
X77756Y313335D02*
Y315945D01*
X206457Y325984D02*
Y337039D01*
X214573Y370669D02*
X215136Y371260D01*
X187057Y370669D02*
X214573D01*
X180559Y370731D02*
X186907D01*
X173866D02*
Y377445D01*
X166775Y370731D02*
X173866D01*
X180512Y370845D02*
Y377559D01*
X166535Y363976D02*
X173379D01*
X164966Y370479D02*
X166530Y370630D01*
X164966Y370479D02*
X164966D01*
X173379Y363976D02*
X173403Y363953D01*
X187033D02*
X187057Y363976D01*
X164593Y352987D02*
X164961Y351535D01*
X180096Y363953D02*
X187033D01*
X196372Y351385D02*
Y364458D01*
X196456Y351182D02*
X196457Y351181D01*
X203528Y344110D01*
X81547Y313138D02*
X82677Y312008D01*
X80709Y302165D02*
X82677Y304134D01*
X77953Y313138D02*
X81547D01*
X77756Y313335D02*
X77953Y313138D01*
X80709Y300197D02*
Y302165D01*
X76772Y316929D02*
X77756Y315945D01*
X82677Y304134D02*
Y312008D01*
X69291Y306445D02*
X69561Y306715D01*
X69291Y303048D02*
Y306445D01*
X69561Y306715D02*
X69562Y306716D01*
X73723Y319053D02*
X75847Y316929D01*
X73723Y319053D02*
Y321924D01*
X71754Y317569D02*
Y321924D01*
X73247Y309065D02*
Y315500D01*
X72106Y316907D02*
X72718Y316494D01*
X164803Y327195D02*
X164961D01*
Y320974D02*
X165200Y319523D01*
X169565Y298235D02*
X169565Y298235D01*
X221614Y381536D02*
X222638D01*
X216142Y370669D02*
Y376119D01*
D83*
X156949Y354327D02*
X156857Y354105D01*
X144427Y329132D02*
X144342Y329337D01*
X156857Y348509D02*
Y354105D01*
X107892Y318797D02*
X107989Y318894D01*
X103715Y318797D02*
X107892D01*
X103619Y324606D02*
X103715Y324703D01*
X103619Y318701D02*
X103715Y318797D01*
X121299Y342533D02*
Y348509D01*
X150735Y324220D02*
X150773Y324258D01*
X103620Y306101D02*
X108025D01*
X107931Y312892D02*
X108027Y312988D01*
X103715Y312892D02*
X107931D01*
X103619Y312795D02*
X103715Y312892D01*
X108025Y306101D02*
X108027Y306099D01*
X103619Y306102D02*
X103620Y306101D01*
X120866Y329315D02*
X120888Y329337D01*
X120866Y324410D02*
Y329315D01*
X107931Y324703D02*
X108027Y324799D01*
X103715Y324703D02*
X107931D01*
X144427Y324410D02*
Y329132D01*
X80689Y293484D02*
X80709Y293504D01*
X86994Y293490D02*
X87008Y293504D01*
X70546Y289122D02*
X70619Y289049D01*
X70546Y289122D02*
Y293431D01*
X70472Y293504D02*
X70546Y293431D01*
X93289Y293486D02*
X93307Y293504D01*
X93289Y289168D02*
Y293486D01*
X93270Y289149D02*
X93289Y289168D01*
X150773Y329134D02*
X151167D01*
X150773Y324258D02*
Y329134D01*
X73294Y361034D02*
X73304Y361024D01*
X73294Y361034D02*
Y366560D01*
X73284Y366570D02*
X73294Y366560D01*
X79945Y361075D02*
X79997Y361024D01*
X79945Y361075D02*
Y366586D01*
X121299Y342533D02*
X121317Y342515D01*
X79893Y366638D02*
X79945Y366586D01*
X80689Y288996D02*
Y293484D01*
X80669Y288976D02*
X80689Y288996D01*
X86994Y288910D02*
Y293490D01*
X86980Y288896D02*
X86994Y288910D01*
X40766Y348325D02*
X40863Y348228D01*
X40764Y336319D02*
X40863Y336417D01*
X40862Y342323D02*
X40863Y342323D01*
X34252Y342323D02*
X40862D01*
X34305Y348325D02*
X40766D01*
X34208Y348421D02*
X34305Y348325D01*
X34252Y342324D02*
X34252Y342323D01*
X34350Y336319D02*
X40764D01*
X47988Y361217D02*
X48084Y361120D01*
X59624D01*
X46850Y354331D02*
X53815D01*
X59624Y361120D02*
X59721Y361024D01*
X34252Y336221D02*
X34350Y336319D01*
X34195Y336278D02*
X34252Y336221D01*
X88583Y30354D02*
X88602Y30335D01*
X96043D02*
X96063Y30315D01*
X88602Y30335D02*
X96043D01*
X96063Y22180D02*
Y30315D01*
X209452Y363976D02*
X212797D01*
X209452Y358271D02*
Y363976D01*
X212797D02*
X212797Y363976D01*
X186457Y315127D02*
Y325984D01*
X179565Y308235D02*
X186457Y315127D01*
X203150Y358268D02*
Y363970D01*
X172146Y198721D02*
Y204626D01*
X172047Y198622D02*
X172146Y198721D01*
Y204626D02*
X172244Y204724D01*
X165748Y198622D02*
Y204724D01*
X74213Y57505D02*
Y63737D01*
X62489Y63727D02*
X67509D01*
X62479Y63716D02*
X62489Y63727D01*
X62471Y51124D02*
X67323D01*
X67444Y57581D02*
X67520Y57505D01*
X67323Y51124D02*
Y51153D01*
X74213Y51175D02*
Y57505D01*
X62613Y57581D02*
X67444D01*
X67509Y63727D02*
X67516Y63733D01*
X62420Y51073D02*
X62471Y51124D01*
X62537Y57657D02*
X62613Y57581D01*
X112205Y30354D02*
X119055D01*
X112205Y23779D02*
Y30354D01*
X108110Y19685D02*
X112205Y23779D01*
X96063Y22180D02*
X98110Y20132D01*
Y19685D02*
Y20132D01*
X212797Y363976D02*
X216142D01*
X284425Y75811D02*
Y105547D01*
X269431Y105635D02*
X277644D01*
X269255D02*
X269343Y105723D01*
X262647Y105635D02*
X269255D01*
X262559Y105547D02*
X262647Y105635D01*
X269343Y105723D02*
X269431Y105635D01*
X277644D02*
X277732Y105547D01*
D84*
X128998Y352861D02*
X127994Y352859D01*
X126990Y352853D01*
X125986Y352841D01*
X124983Y352825D01*
X123979Y352805D01*
X122975Y352780D01*
X121972Y352750D01*
X120968Y352716D01*
X119965Y352677D01*
X118962Y352634D01*
X117959Y352586D01*
X116957Y352533D01*
X115955Y352475D01*
X114953Y352413D01*
X113951Y352347D01*
X112950Y352275D01*
X111949Y352200D01*
X110948Y352119D01*
X109948Y352034D01*
X108948Y351944D01*
X107948Y351850D01*
X106949Y351751D01*
X105951Y351648D01*
X104953Y351540D01*
X103955Y351427D01*
X102958Y351310D01*
X101961Y351188D01*
X100965Y351061D01*
X99970Y350930D01*
X98975Y350795D01*
X97981Y350654D01*
X96988Y350509D01*
X95995Y350360D01*
X95003Y350206D01*
X94012Y350047D01*
X93021Y349884D01*
X92031Y349717D01*
X91042Y349545D01*
X90054Y349368D01*
X89067Y349186D01*
X88080Y349001D01*
X144225Y349763D02*
X143320Y350133D01*
X142406Y350480D01*
X141483Y350804D01*
X140553Y351105D01*
X139616Y351383D01*
X138672Y351637D01*
X137722Y351867D01*
X136766Y352074D01*
X135806Y352257D01*
X134841Y352416D01*
X133873Y352551D01*
X132902Y352661D01*
X131928Y352748D01*
X130952Y352810D01*
X129975Y352848D01*
X128998Y352861D01*
X113249Y348642D02*
X112245Y348637D01*
X111240Y348616D01*
X110236Y348579D01*
X109233Y348525D01*
X108231Y348456D01*
X107230Y348370D01*
X106230Y348268D01*
X105233Y348150D01*
X104237Y348017D01*
X103244Y347867D01*
X102253Y347701D01*
X101265Y347519D01*
X100280Y347322D01*
X99298Y347108D01*
X98320Y346879D01*
X97346Y346634D01*
X96375Y346374D01*
X95409Y346098D01*
X94448Y345806D01*
X93491Y345499D01*
X92540Y345177D01*
X91593Y344840D01*
X90653Y344487D01*
X89718Y344119D01*
X88789Y343737D01*
X87866Y343339D01*
X86950Y342927D01*
X86041Y342499D01*
X144342Y336030D02*
X143882Y336221D01*
X121348D02*
X120888Y336030D01*
X136993Y342975D02*
X136859Y343994D01*
X136465Y344944D01*
X135839Y345760D01*
X129146D02*
X128520Y344944D01*
X128127Y343994D01*
X127993Y342975D01*
X88080Y349000D02*
X87128Y348808D01*
X86180Y348596D01*
X85236Y348364D01*
X84298Y348113D01*
X83365Y347841D01*
X82439Y347551D01*
X81518Y347240D01*
X80604Y346911D01*
X79697Y346563D01*
X85966Y342464D02*
X85273Y341920D01*
X84604Y341345D01*
X83963Y340740D01*
X83349Y340107D01*
X79697Y346563D02*
X78754Y346132D01*
X77859Y345607D01*
X77022Y344994D01*
X76252Y344298D01*
X79803Y338558D02*
X80785Y338658D01*
X81726Y338956D01*
X82586Y339439D01*
X83331Y340087D01*
X76252Y344298D02*
X75692Y342951D01*
X86041Y342499D02*
X85966Y342464D01*
X149917Y348406D02*
X150164Y348509D01*
X144342Y336030D02*
X150781D01*
X83331Y340087D02*
X83349Y340107D01*
X144225Y349763D02*
X144342Y348406D01*
X144225Y349763D02*
Y349763D01*
X111607Y339022D02*
X114606Y336024D01*
X111255Y339375D02*
X111607Y339022D01*
X114606Y342717D02*
X114606Y342717D01*
X105093Y341707D02*
X109678Y341001D01*
X111255Y339375D01*
X95905Y332677D02*
Y338583D01*
X89213Y332677D02*
Y338583D01*
X89213Y338583D02*
X89213Y338583D01*
X144342Y348406D02*
X149917D01*
X114606Y342717D02*
Y348509D01*
X120881Y336024D02*
X120888Y336030D01*
X114606Y336024D02*
X120881D01*
X105064Y332677D02*
X105093Y332707D01*
X95906Y332677D02*
X105064D01*
X95905Y332677D02*
X95906Y332677D01*
X89188Y332652D02*
X89213Y332677D01*
X78545Y332652D02*
X89188D01*
X75692Y342951D02*
X75692Y342671D01*
X78545Y338558D02*
X79803D01*
X136993Y336221D02*
X143882D01*
X136993D02*
Y342975D01*
X144342Y336030D02*
Y341714D01*
X75692Y341412D02*
Y342671D01*
X127993Y336221D02*
Y342975D01*
X121348Y336221D02*
X127993D01*
X113249Y348642D02*
X113249D01*
X114606Y348509D01*
D85*
X68801Y331668D02*
D03*
D86*
X86614Y94488D02*
D03*
D87*
X887701Y273780D02*
Y417779D01*
X775733Y393779D02*
X887701D01*
X775733Y381780D02*
X887701D01*
X775733Y369779D02*
X887701D01*
X775733Y357780D02*
X887701D01*
X775733Y345779D02*
X887701D01*
X775733Y333780D02*
X887701D01*
X775733Y321779D02*
X887701D01*
X775733Y309780D02*
X887701D01*
X775733Y297779D02*
X887701D01*
X775733Y285780D02*
X887701D01*
X775733Y273780D02*
X887701D01*
X775733D02*
Y417779D01*
X718747Y393779D02*
X775733D01*
X718747Y381780D02*
X775733D01*
X718747Y369779D02*
X775733D01*
X718747Y357780D02*
X775733D01*
X718747Y345779D02*
X775733D01*
X718747Y333780D02*
X775733D01*
X718747Y321779D02*
X775733D01*
X718747Y309780D02*
X775733D01*
X718747Y297779D02*
X775733D01*
X718747Y285780D02*
X775733D01*
X718747Y273780D02*
X775733D01*
X718747D02*
Y417779D01*
X653763Y393779D02*
X718747D01*
X653763Y381780D02*
X718747D01*
X653763Y369779D02*
X718747D01*
X653763Y357780D02*
X718747D01*
X653763Y345779D02*
X718747D01*
X653763Y333780D02*
X718747D01*
X653763Y321779D02*
X718747D01*
X653763Y309780D02*
X718747D01*
X653763Y297779D02*
X718747D01*
X653763Y285780D02*
X718747D01*
X653763Y273780D02*
X718747D01*
X653763D02*
Y417779D01*
X567787Y393779D02*
X653763D01*
X567787Y381780D02*
X653763D01*
X567787Y369779D02*
X653763D01*
X567787Y357780D02*
X653763D01*
X567787Y345779D02*
X653763D01*
X567787Y333780D02*
X653763D01*
X567787Y321779D02*
X653763D01*
X567787Y309780D02*
X653763D01*
X567787Y297779D02*
X653763D01*
X567787Y285780D02*
X653763D01*
X567787Y273780D02*
X653763D01*
X567787D02*
Y417779D01*
X474812Y393779D02*
X567787D01*
X474812Y381780D02*
X567787D01*
X474812Y369779D02*
X567787D01*
X474812Y357780D02*
X567787D01*
X474812Y345779D02*
X567787D01*
X474812Y333780D02*
X567787D01*
X474812Y321779D02*
X567787D01*
X474812Y309780D02*
X567787D01*
X474812Y297779D02*
X567787D01*
X474812Y285780D02*
X567787D01*
X474812Y273780D02*
X567787D01*
X474812D02*
Y417779D01*
X433821Y393779D02*
X474812D01*
X433821Y381780D02*
X474812D01*
X433821Y369779D02*
X474812D01*
X433821Y357780D02*
X474812D01*
X433821Y345779D02*
X474812D01*
X433821Y333780D02*
X474812D01*
X433821Y321779D02*
X474812D01*
X433821Y309780D02*
X474812D01*
X433821Y297779D02*
X474812D01*
X433821Y285780D02*
X474812D01*
X433821Y273780D02*
X474812D01*
X433821D02*
Y417779D01*
X887701D01*
X433821Y405780D02*
X887701D01*
D88*
X775733Y401811D02*
X779701Y405780D01*
X775733Y395811D02*
X785701Y405780D01*
X779701Y393779D02*
X791701Y405780D01*
X785701Y393779D02*
X797701Y405780D01*
X791701Y393779D02*
X803701Y405780D01*
X797701Y393779D02*
X809701Y405780D01*
X803701Y393779D02*
X815701Y405780D01*
X809701Y393779D02*
X821701Y405780D01*
X815701Y393779D02*
X827701Y405780D01*
X821701Y393779D02*
X833701Y405780D01*
X827701Y393779D02*
X839701Y405780D01*
X833701Y393779D02*
X845701Y405780D01*
X839701Y393779D02*
X851701Y405780D01*
X845701Y393779D02*
X857701Y405780D01*
X851701Y393779D02*
X863701Y405780D01*
X857701Y393779D02*
X869701Y405780D01*
X863701Y393779D02*
X875701Y405780D01*
X869701Y393779D02*
X881701Y405780D01*
X875701Y393779D02*
X887701Y405780D01*
X881701Y393779D02*
X887701Y399780D01*
X775733Y389811D02*
X779701Y393779D01*
X775733Y383811D02*
X785701Y393779D01*
X779701Y381780D02*
X791701Y393779D01*
X785701Y381780D02*
X797701Y393779D01*
X791701Y381780D02*
X803701Y393779D01*
X797701Y381780D02*
X809701Y393779D01*
X803701Y381780D02*
X815701Y393779D01*
X809701Y381780D02*
X821701Y393779D01*
X815701Y381780D02*
X827701Y393779D01*
X821701Y381780D02*
X833701Y393779D01*
X827701Y381780D02*
X839701Y393779D01*
X833701Y381780D02*
X845701Y393779D01*
X839701Y381780D02*
X851701Y393779D01*
X845701Y381780D02*
X857701Y393779D01*
X851701Y381780D02*
X863701Y393779D01*
X857701Y381780D02*
X869701Y393779D01*
X863701Y381780D02*
X875701Y393779D01*
X869701Y381780D02*
X881701Y393779D01*
X875701Y381780D02*
X887701Y393779D01*
X881701Y381780D02*
X887701Y387779D01*
X775733Y377811D02*
X779701Y381780D01*
X775733Y371811D02*
X785701Y381780D01*
X779701Y369779D02*
X791701Y381780D01*
X785701Y369779D02*
X797701Y381780D01*
X791701Y369779D02*
X803701Y381780D01*
X797701Y369779D02*
X809701Y381780D01*
X803701Y369779D02*
X815701Y381780D01*
X809701Y369779D02*
X821701Y381780D01*
X815701Y369779D02*
X827701Y381780D01*
X821701Y369779D02*
X833701Y381780D01*
X827701Y369779D02*
X839701Y381780D01*
X833701Y369779D02*
X845701Y381780D01*
X839701Y369779D02*
X851701Y381780D01*
X845701Y369779D02*
X857701Y381780D01*
X851701Y369779D02*
X863701Y381780D01*
X857701Y369779D02*
X869701Y381780D01*
X863701Y369779D02*
X875701Y381780D01*
X869701Y369779D02*
X881701Y381780D01*
X875701Y369779D02*
X887701Y381780D01*
X881701Y369779D02*
X887701Y375780D01*
X775733Y365811D02*
X779701Y369779D01*
X775733Y359811D02*
X785701Y369779D01*
X779701Y357780D02*
X791701Y369779D01*
X785701Y357780D02*
X797701Y369779D01*
X791701Y357780D02*
X803701Y369779D01*
X797701Y357780D02*
X809701Y369779D01*
X803701Y357780D02*
X815701Y369779D01*
X809701Y357780D02*
X821701Y369779D01*
X815701Y357780D02*
X827701Y369779D01*
X821701Y357780D02*
X833701Y369779D01*
X827701Y357780D02*
X839701Y369779D01*
X833701Y357780D02*
X845701Y369779D01*
X839701Y357780D02*
X851701Y369779D01*
X845701Y357780D02*
X857701Y369779D01*
X851701Y357780D02*
X863701Y369779D01*
X857701Y357780D02*
X869701Y369779D01*
X863701Y357780D02*
X875701Y369779D01*
X869701Y357780D02*
X881701Y369779D01*
X875701Y357780D02*
X887701Y369779D01*
X881701Y357780D02*
X887701Y363779D01*
X775733Y353811D02*
X779701Y357780D01*
X775733Y347811D02*
X785701Y357780D01*
X779701Y345779D02*
X791701Y357780D01*
X785701Y345779D02*
X797701Y357780D01*
X791701Y345779D02*
X803701Y357780D01*
X797701Y345779D02*
X809701Y357780D01*
X803701Y345779D02*
X815701Y357780D01*
X809701Y345779D02*
X821701Y357780D01*
X815701Y345779D02*
X827701Y357780D01*
X821701Y345779D02*
X833701Y357780D01*
X827701Y345779D02*
X839701Y357780D01*
X833701Y345779D02*
X845701Y357780D01*
X839701Y345779D02*
X851701Y357780D01*
X845701Y345779D02*
X857701Y357780D01*
X851701Y345779D02*
X863701Y357780D01*
X857701Y345779D02*
X869701Y357780D01*
X863701Y345779D02*
X875701Y357780D01*
X869701Y345779D02*
X881701Y357780D01*
X875701Y345779D02*
X887701Y357780D01*
X881701Y345779D02*
X887701Y351780D01*
X775733Y341811D02*
X779701Y345779D01*
X775733Y335811D02*
X785701Y345779D01*
X779701Y333780D02*
X791701Y345779D01*
X785701Y333780D02*
X797701Y345779D01*
X791701Y333780D02*
X803701Y345779D01*
X797701Y333780D02*
X809701Y345779D01*
X803701Y333780D02*
X815701Y345779D01*
X809701Y333780D02*
X821701Y345779D01*
X815701Y333780D02*
X827701Y345779D01*
X821701Y333780D02*
X833701Y345779D01*
X827701Y333780D02*
X839701Y345779D01*
X833701Y333780D02*
X845701Y345779D01*
X839701Y333780D02*
X851701Y345779D01*
X845701Y333780D02*
X857701Y345779D01*
X851701Y333780D02*
X863701Y345779D01*
X857701Y333780D02*
X869701Y345779D01*
X863701Y333780D02*
X875701Y345779D01*
X869701Y333780D02*
X881701Y345779D01*
X875701Y333780D02*
X887701Y345779D01*
X881701Y333780D02*
X887701Y339779D01*
X775733Y329811D02*
X779701Y333780D01*
X775733Y323811D02*
X785701Y333780D01*
X779701Y321779D02*
X791701Y333780D01*
X785701Y321779D02*
X797701Y333780D01*
X791701Y321779D02*
X803701Y333780D01*
X797701Y321779D02*
X809701Y333780D01*
X803701Y321779D02*
X815701Y333780D01*
X809701Y321779D02*
X821701Y333780D01*
X815701Y321779D02*
X827701Y333780D01*
X821701Y321779D02*
X833701Y333780D01*
X827701Y321779D02*
X839701Y333780D01*
X833701Y321779D02*
X845701Y333780D01*
X839701Y321779D02*
X851701Y333780D01*
X845701Y321779D02*
X857701Y333780D01*
X851701Y321779D02*
X863701Y333780D01*
X857701Y321779D02*
X869701Y333780D01*
X863701Y321779D02*
X875701Y333780D01*
X869701Y321779D02*
X881701Y333780D01*
X875701Y321779D02*
X887701Y333780D01*
X881701Y321779D02*
X887701Y327780D01*
X775733Y317811D02*
X779701Y321779D01*
X775733Y311811D02*
X785701Y321779D01*
X779701Y309780D02*
X791701Y321779D01*
X785701Y309780D02*
X797701Y321779D01*
X791701Y309780D02*
X803701Y321779D01*
X797701Y309780D02*
X809701Y321779D01*
X803701Y309780D02*
X815701Y321779D01*
X809701Y309780D02*
X821701Y321779D01*
X815701Y309780D02*
X827701Y321779D01*
X821701Y309780D02*
X833701Y321779D01*
X827701Y309780D02*
X839701Y321779D01*
X833701Y309780D02*
X845701Y321779D01*
X839701Y309780D02*
X851701Y321779D01*
X845701Y309780D02*
X857701Y321779D01*
X851701Y309780D02*
X863701Y321779D01*
X857701Y309780D02*
X869701Y321779D01*
X863701Y309780D02*
X875701Y321779D01*
X869701Y309780D02*
X881701Y321779D01*
X875701Y309780D02*
X887701Y321779D01*
X881701Y309780D02*
X887701Y315779D01*
X775733Y305811D02*
X779701Y309780D01*
X775733Y299811D02*
X785701Y309780D01*
X779701Y297779D02*
X791701Y309780D01*
X785701Y297779D02*
X797701Y309780D01*
X791701Y297779D02*
X803701Y309780D01*
X797701Y297779D02*
X809701Y309780D01*
X803701Y297779D02*
X815701Y309780D01*
X809701Y297779D02*
X821701Y309780D01*
X815701Y297779D02*
X827701Y309780D01*
X821701Y297779D02*
X833701Y309780D01*
X827701Y297779D02*
X839701Y309780D01*
X833701Y297779D02*
X845701Y309780D01*
X839701Y297779D02*
X851701Y309780D01*
X845701Y297779D02*
X857701Y309780D01*
X851701Y297779D02*
X863701Y309780D01*
X857701Y297779D02*
X869701Y309780D01*
X863701Y297779D02*
X875701Y309780D01*
X869701Y297779D02*
X881701Y309780D01*
X875701Y297779D02*
X887701Y309780D01*
X881701Y297779D02*
X887701Y303780D01*
X775733Y293811D02*
X779701Y297779D01*
X775733Y287811D02*
X785701Y297779D01*
X779701Y285780D02*
X791701Y297779D01*
X785701Y285780D02*
X797701Y297779D01*
X791701Y285780D02*
X803701Y297779D01*
X797701Y285780D02*
X809701Y297779D01*
X803701Y285780D02*
X815701Y297779D01*
X809701Y285780D02*
X821701Y297779D01*
X815701Y285780D02*
X827701Y297779D01*
X821701Y285780D02*
X833701Y297779D01*
X827701Y285780D02*
X839701Y297779D01*
X833701Y285780D02*
X845701Y297779D01*
X839701Y285780D02*
X851701Y297779D01*
X845701Y285780D02*
X857701Y297779D01*
X851701Y285780D02*
X863701Y297779D01*
X857701Y285780D02*
X869701Y297779D01*
X863701Y285780D02*
X875701Y297779D01*
X869701Y285780D02*
X881701Y297779D01*
X875701Y285780D02*
X887701Y297779D01*
X881701Y285780D02*
X887701Y291779D01*
X775733Y281811D02*
X779701Y285780D01*
X775733Y275811D02*
X785701Y285780D01*
X779701Y273780D02*
X791701Y285780D01*
X785701Y273780D02*
X797701Y285780D01*
X791701Y273780D02*
X803701Y285780D01*
X797701Y273780D02*
X809701Y285780D01*
X803701Y273780D02*
X815701Y285780D01*
X809701Y273780D02*
X821701Y285780D01*
X815701Y273780D02*
X827701Y285780D01*
X821701Y273780D02*
X833701Y285780D01*
X827701Y273780D02*
X839701Y285780D01*
X833701Y273780D02*
X845701Y285780D01*
X839701Y273780D02*
X851701Y285780D01*
X845701Y273780D02*
X857701Y285780D01*
X851701Y273780D02*
X863701Y285780D01*
X857701Y273780D02*
X869701Y285780D01*
X863701Y273780D02*
X875701Y285780D01*
X869701Y273780D02*
X881701Y285780D01*
X875701Y273780D02*
X887701Y285780D01*
X881701Y273780D02*
X887701Y279780D01*
D89*
X78545Y324778D02*
X80733D01*
D90*
X63878Y336591D02*
Y341412D01*
D91*
X69785Y321924D02*
Y327337D01*
D92*
X142531Y183071D02*
X148622D01*
X139764Y185838D02*
X142531Y183071D01*
X148672Y130912D02*
Y143651D01*
X139764Y185838D02*
Y190627D01*
X139741Y190650D02*
X139764Y190627D01*
X131890Y120984D02*
X132096Y121190D01*
X138950D01*
X148672Y130912D01*
D93*
X157238Y215425D02*
X157283Y215379D01*
Y201772D02*
Y215379D01*
X158913Y127417D02*
X162480Y130984D01*
X167323D01*
X167362Y109455D02*
Y120945D01*
X167323Y120984D02*
X167362Y120945D01*
X158913Y103972D02*
X161145Y101741D01*
X158913Y103972D02*
Y127417D01*
X161145Y101741D02*
X167425D01*
X74213Y63737D02*
Y67323D01*
X164567Y34086D02*
X164612Y34041D01*
Y28220D02*
Y34041D01*
Y28220D02*
X164658Y28174D01*
D94*
X149213Y192520D02*
Y194796D01*
X148521Y195488D02*
X149213Y194796D01*
X140762Y198064D02*
X149120D01*
X140860Y195488D02*
X148521D01*
X149213Y192520D02*
X149803Y191929D01*
X139764Y194392D02*
X140860Y195488D01*
X139764Y199062D02*
X140762Y198064D01*
X139764Y199062D02*
Y203028D01*
Y190673D02*
Y194392D01*
X139741Y190650D02*
X139764Y190673D01*
X139741Y203051D02*
X139764Y203028D01*
X143736Y102004D02*
X146949D01*
X142126Y100394D02*
X143736Y102004D01*
X142126Y92520D02*
Y100394D01*
X149778Y201747D02*
X149803Y201772D01*
X149778Y198722D02*
Y201747D01*
X149120Y198064D02*
X149778Y198722D01*
X153516Y103972D02*
X158913D01*
D95*
X128543Y12207D02*
Y19252D01*
X128110Y19685D02*
X128543Y19252D01*
Y12207D02*
X131213Y9537D01*
X221911D01*
X267868Y68929D02*
Y93338D01*
X284425Y75811D02*
X285433Y74803D01*
X224218Y11843D02*
Y15556D01*
X221911Y9537D02*
X224218Y11843D01*
X216309Y15522D02*
X216535Y15748D01*
X224218Y15556D02*
X224410Y15748D01*
X222441Y381616D02*
X229018D01*
X251362Y346219D02*
Y352160D01*
D96*
X64470Y331668D02*
D03*
X73132D02*
D03*
X73132Y335999D02*
D03*
X68801D02*
D03*
X64470D02*
D03*
Y327337D02*
D03*
X68801D02*
D03*
X73132D02*
D03*
X68801Y331668D02*
D03*
D97*
X25646Y155492D02*
D03*
Y183091D02*
D03*
Y116122D02*
D03*
Y143720D02*
D03*
X329213Y39370D02*
D03*
X309213D02*
D03*
X289213D02*
D03*
X269213D02*
D03*
X249213D02*
D03*
D98*
X15843Y160433D02*
D03*
Y178150D02*
D03*
Y121063D02*
D03*
Y138779D02*
D03*
D99*
X13780Y13780D02*
D03*
X379921D02*
D03*
X13780Y379921D02*
D03*
D100*
X222441Y381616D02*
D03*
X251362Y352160D02*
D03*
X156949Y354327D02*
D03*
X121317Y342515D02*
D03*
X150735Y324410D02*
D03*
X144427D02*
D03*
X120866D02*
D03*
X109055Y295866D02*
D03*
Y288976D02*
D03*
Y282087D02*
D03*
X108027Y306099D02*
D03*
Y312988D02*
D03*
Y324799D02*
D03*
X107989Y318894D02*
D03*
X103150Y282087D02*
D03*
Y288976D02*
D03*
Y295866D02*
D03*
X98441Y301027D02*
D03*
X93270Y289149D02*
D03*
X87358Y359248D02*
D03*
X86980Y288896D02*
D03*
X83465Y336036D02*
D03*
X80669Y288976D02*
D03*
X70619Y289049D02*
D03*
X47988Y361217D02*
D03*
X47004Y354327D02*
D03*
X34252Y342324D02*
D03*
Y336221D02*
D03*
Y324410D02*
D03*
X34208Y348421D02*
D03*
X105905Y125591D02*
D03*
X104766Y27762D02*
D03*
X102362Y62992D02*
D03*
X95607D02*
D03*
X81481Y129206D02*
D03*
X74669Y128931D02*
D03*
X66929Y19685D02*
D03*
X66535Y43701D02*
D03*
Y37795D02*
D03*
X62537Y57657D02*
D03*
X62479Y63716D02*
D03*
X62420Y51073D02*
D03*
X60039Y135827D02*
D03*
Y142717D02*
D03*
Y19685D02*
D03*
X59646Y43701D02*
D03*
Y37795D02*
D03*
X53150Y169291D02*
D03*
Y19685D02*
D03*
X52756Y43701D02*
D03*
Y37795D02*
D03*
X46850Y58268D02*
D03*
X45276Y33858D02*
D03*
X35433Y101671D02*
D03*
X34687Y109992D02*
D03*
X34631Y47426D02*
D03*
X29528Y86614D02*
D03*
X66929Y13780D02*
D03*
X60039D02*
D03*
X53150D02*
D03*
X20127Y39011D02*
D03*
X209449Y358268D02*
D03*
X203150D02*
D03*
X212857Y352008D02*
D03*
X173020Y246545D02*
D03*
Y240639D02*
D03*
Y234733D02*
D03*
X165748Y204724D02*
D03*
X144095Y215748D02*
D03*
X152559Y208661D02*
D03*
X172110Y187572D02*
D03*
X309055Y93504D02*
D03*
X315945D02*
D03*
X309055Y87598D02*
D03*
X315945D02*
D03*
X309055Y81693D02*
D03*
X315945D02*
D03*
X269343Y105723D02*
D03*
X241142Y101378D02*
D03*
X234252D02*
D03*
X248031D02*
D03*
X227362D02*
D03*
X220472Y94488D02*
D03*
X214567D02*
D03*
X227134Y94073D02*
D03*
X220472Y86614D02*
D03*
X214567D02*
D03*
X246063Y74803D02*
D03*
X252481Y74668D02*
D03*
X226878Y73805D02*
D03*
X219972D02*
D03*
X214067D02*
D03*
X252953Y68898D02*
D03*
X246063D02*
D03*
X124016Y170079D02*
D03*
X133858Y151575D02*
D03*
X139764D02*
D03*
X122047Y147638D02*
D03*
X133858Y143701D02*
D03*
X139764D02*
D03*
X112205Y137795D02*
D03*
X118110Y114567D02*
D03*
X178946Y109413D02*
D03*
X118110Y106961D02*
D03*
X172244Y204724D02*
D03*
X178792Y101786D02*
D03*
X118110Y96063D02*
D03*
Y89764D02*
D03*
Y81496D02*
D03*
X125000Y51181D02*
D03*
X164658Y28174D02*
D03*
X79945Y366586D02*
D03*
X73294Y366560D02*
D03*
X63763Y310548D02*
D03*
D101*
X159565Y288235D02*
D03*
Y308235D02*
D03*
X179565D02*
D03*
Y288235D02*
D03*
D102*
X169565Y298235D02*
D03*
D103*
X116142Y250079D02*
D03*
Y240079D02*
D03*
Y230079D02*
D03*
Y220079D02*
D03*
Y210079D02*
D03*
Y200079D02*
D03*
X148622Y143701D02*
D03*
Y183071D02*
D03*
X208661Y15748D02*
D03*
X216535D02*
D03*
X224410D02*
D03*
D104*
X338957Y139980D02*
D03*
Y73051D02*
D03*
D105*
X328957Y144980D02*
D03*
X338957Y149980D02*
D03*
X328957Y154980D02*
D03*
X338957Y159980D02*
D03*
X328957Y164980D02*
D03*
X338957Y169980D02*
D03*
X328957Y174980D02*
D03*
Y108051D02*
D03*
X338957Y103051D02*
D03*
X328957Y98051D02*
D03*
X338957Y93051D02*
D03*
X328957Y88051D02*
D03*
X338957Y83051D02*
D03*
X328957Y78051D02*
D03*
D106*
X363957Y134980D02*
D03*
Y179980D02*
D03*
Y113051D02*
D03*
Y68051D02*
D03*
D107*
X349213Y39370D02*
D03*
D108*
X78110Y19685D02*
D03*
X88110D02*
D03*
X98110D02*
D03*
X108110D02*
D03*
X118110D02*
D03*
D109*
X128110D02*
D03*
D110*
X200787Y15748D02*
D03*
X232283D02*
D03*
D111*
X58784Y2979D02*
D03*
X56102Y2953D02*
D03*
X53150D02*
D03*
X50197D02*
D03*
X47244D02*
D03*
X44291D02*
D03*
X41339D02*
D03*
X38386D02*
D03*
X35433D02*
D03*
X32480D02*
D03*
X29528D02*
D03*
X26575D02*
D03*
X2953Y346457D02*
D03*
Y311024D02*
D03*
Y331693D02*
D03*
Y334646D02*
D03*
Y337598D02*
D03*
Y340551D02*
D03*
Y343504D02*
D03*
Y370079D02*
D03*
Y299213D02*
D03*
Y296260D02*
D03*
Y293307D02*
D03*
Y290354D02*
D03*
Y287402D02*
D03*
Y284449D02*
D03*
Y281496D02*
D03*
Y278543D02*
D03*
Y275590D02*
D03*
Y272638D02*
D03*
Y266732D02*
D03*
Y263779D02*
D03*
Y260827D02*
D03*
Y257874D02*
D03*
Y254921D02*
D03*
Y251969D02*
D03*
Y249016D02*
D03*
Y246063D02*
D03*
Y243110D02*
D03*
Y240158D02*
D03*
Y237205D02*
D03*
Y234252D02*
D03*
Y231299D02*
D03*
Y228346D02*
D03*
Y222441D02*
D03*
Y219488D02*
D03*
Y216535D02*
D03*
Y213583D02*
D03*
Y210630D02*
D03*
Y207677D02*
D03*
Y204724D02*
D03*
Y201772D02*
D03*
Y198819D02*
D03*
Y195866D02*
D03*
Y192913D02*
D03*
Y189961D02*
D03*
Y187008D02*
D03*
Y184055D02*
D03*
Y225394D02*
D03*
X106299Y2953D02*
D03*
X103347D02*
D03*
X100394D02*
D03*
X97441D02*
D03*
X94488D02*
D03*
X91535D02*
D03*
X88583D02*
D03*
X85630D02*
D03*
X82677D02*
D03*
X79724D02*
D03*
X76772D02*
D03*
X73819D02*
D03*
X70866D02*
D03*
X67913D02*
D03*
X64961D02*
D03*
X62008D02*
D03*
X2953Y151575D02*
D03*
Y136811D02*
D03*
Y142717D02*
D03*
Y169291D02*
D03*
Y139764D02*
D03*
Y127953D02*
D03*
Y130905D02*
D03*
Y178150D02*
D03*
Y175197D02*
D03*
Y172244D02*
D03*
Y133858D02*
D03*
Y181102D02*
D03*
Y166339D02*
D03*
Y163386D02*
D03*
Y160433D02*
D03*
Y148622D02*
D03*
Y157480D02*
D03*
Y154528D02*
D03*
Y145669D02*
D03*
Y125000D02*
D03*
Y122047D02*
D03*
Y119095D02*
D03*
Y116142D02*
D03*
Y113189D02*
D03*
Y110236D02*
D03*
Y107283D02*
D03*
Y104331D02*
D03*
Y101378D02*
D03*
Y98425D02*
D03*
Y95472D02*
D03*
Y92520D02*
D03*
Y89567D02*
D03*
Y86614D02*
D03*
Y83661D02*
D03*
Y80709D02*
D03*
Y77756D02*
D03*
Y74803D02*
D03*
Y71850D02*
D03*
Y68898D02*
D03*
Y48228D02*
D03*
Y62992D02*
D03*
Y45276D02*
D03*
Y65945D02*
D03*
Y42323D02*
D03*
Y30512D02*
D03*
Y33465D02*
D03*
Y36417D02*
D03*
Y39370D02*
D03*
Y51181D02*
D03*
Y27559D02*
D03*
Y54134D02*
D03*
Y57087D02*
D03*
Y24606D02*
D03*
Y2953D02*
D03*
Y60039D02*
D03*
Y316929D02*
D03*
Y367126D02*
D03*
Y325787D02*
D03*
Y364173D02*
D03*
Y361221D02*
D03*
Y358268D02*
D03*
Y322835D02*
D03*
Y319882D02*
D03*
Y328740D02*
D03*
Y313976D02*
D03*
Y308071D02*
D03*
Y305118D02*
D03*
Y349410D02*
D03*
Y355315D02*
D03*
Y302165D02*
D03*
Y352362D02*
D03*
X200787Y390748D02*
D03*
X203740D02*
D03*
X194882D02*
D03*
X174213D02*
D03*
X168307D02*
D03*
X206693D02*
D03*
X177165D02*
D03*
X171260D02*
D03*
X180118D02*
D03*
X183071D02*
D03*
X186024D02*
D03*
X188976D02*
D03*
X191929D02*
D03*
X197835D02*
D03*
X165354D02*
D03*
X162402D02*
D03*
X159449D02*
D03*
X156496D02*
D03*
X150591D02*
D03*
X147638D02*
D03*
X129921D02*
D03*
X124016D02*
D03*
X126969D02*
D03*
X135827D02*
D03*
X138779D02*
D03*
X115157D02*
D03*
X112205D02*
D03*
X153543D02*
D03*
X141732D02*
D03*
X132874D02*
D03*
X118110D02*
D03*
X121063D02*
D03*
X109252D02*
D03*
X144685D02*
D03*
X390748Y166339D02*
D03*
Y163386D02*
D03*
Y160433D02*
D03*
Y157480D02*
D03*
Y154528D02*
D03*
Y151575D02*
D03*
Y148622D02*
D03*
Y145669D02*
D03*
Y142717D02*
D03*
Y139764D02*
D03*
Y136811D02*
D03*
Y133858D02*
D03*
Y130905D02*
D03*
Y127953D02*
D03*
Y125000D02*
D03*
Y122047D02*
D03*
Y119095D02*
D03*
Y116142D02*
D03*
Y113189D02*
D03*
Y110236D02*
D03*
Y107283D02*
D03*
Y104331D02*
D03*
Y101378D02*
D03*
X390748Y201772D02*
D03*
Y198819D02*
D03*
Y195866D02*
D03*
Y192913D02*
D03*
Y189961D02*
D03*
X390748Y187008D02*
D03*
Y184055D02*
D03*
Y181102D02*
D03*
Y178150D02*
D03*
Y175197D02*
D03*
Y172244D02*
D03*
Y169291D02*
D03*
X390748Y98425D02*
D03*
Y95472D02*
D03*
Y92520D02*
D03*
Y89567D02*
D03*
Y86614D02*
D03*
Y83661D02*
D03*
Y80709D02*
D03*
Y77756D02*
D03*
Y74803D02*
D03*
Y71850D02*
D03*
Y68898D02*
D03*
Y65945D02*
D03*
Y62992D02*
D03*
Y60039D02*
D03*
Y57087D02*
D03*
Y54134D02*
D03*
Y51181D02*
D03*
Y48228D02*
D03*
Y45276D02*
D03*
Y42323D02*
D03*
Y39370D02*
D03*
Y36417D02*
D03*
Y33465D02*
D03*
Y30512D02*
D03*
Y27559D02*
D03*
Y24606D02*
D03*
X369094Y2953D02*
D03*
X366142D02*
D03*
X363189D02*
D03*
X360236D02*
D03*
X357283D02*
D03*
X354331D02*
D03*
X351378D02*
D03*
X348425D02*
D03*
X345472D02*
D03*
X342520D02*
D03*
X339567D02*
D03*
X333661D02*
D03*
X336614D02*
D03*
X327756D02*
D03*
X324803D02*
D03*
X321850D02*
D03*
X310039D02*
D03*
X330709D02*
D03*
X298228D02*
D03*
X304134D02*
D03*
X301181D02*
D03*
X318898D02*
D03*
X295276D02*
D03*
X292323D02*
D03*
X315945D02*
D03*
X312992D02*
D03*
X307087D02*
D03*
X289370D02*
D03*
X286417D02*
D03*
X274606D02*
D03*
X268701D02*
D03*
X271654D02*
D03*
X253937D02*
D03*
X233268D02*
D03*
X242126D02*
D03*
X221457D02*
D03*
X215551D02*
D03*
X209646D02*
D03*
X206693D02*
D03*
X203740D02*
D03*
X194882D02*
D03*
X180118D02*
D03*
X259842D02*
D03*
X265748D02*
D03*
X165354D02*
D03*
X168307D02*
D03*
X174213D02*
D03*
X171260D02*
D03*
X200787D02*
D03*
X250984D02*
D03*
X262795D02*
D03*
X236221D02*
D03*
X183071D02*
D03*
X224409D02*
D03*
X186024D02*
D03*
X177165D02*
D03*
X256890D02*
D03*
X277559D02*
D03*
X280512D02*
D03*
X227362D02*
D03*
X283465D02*
D03*
X230315D02*
D03*
X188976D02*
D03*
X248031D02*
D03*
X197835D02*
D03*
X239173D02*
D03*
X191929D02*
D03*
X245079D02*
D03*
X212598D02*
D03*
X162402D02*
D03*
X159449D02*
D03*
X156496D02*
D03*
X218504D02*
D03*
X153543D02*
D03*
X150591D02*
D03*
X147638D02*
D03*
X144685D02*
D03*
X141732D02*
D03*
X138779D02*
D03*
X135827D02*
D03*
X132874D02*
D03*
X129921D02*
D03*
X126969D02*
D03*
X124016D02*
D03*
X121063D02*
D03*
X118110D02*
D03*
X115157D02*
D03*
X112205D02*
D03*
X109252D02*
D03*
X106299Y390748D02*
D03*
X103347D02*
D03*
X100394D02*
D03*
X97441D02*
D03*
X94488D02*
D03*
X91535D02*
D03*
X88583D02*
D03*
X85630D02*
D03*
X82677D02*
D03*
X79724D02*
D03*
X76772D02*
D03*
X73819D02*
D03*
X70866D02*
D03*
X67913D02*
D03*
X2953Y269685D02*
D03*
X64961Y390748D02*
D03*
X62008D02*
D03*
X59055D02*
D03*
X56102D02*
D03*
X53150D02*
D03*
X50197D02*
D03*
X47244D02*
D03*
X44291D02*
D03*
X41339D02*
D03*
X38386D02*
D03*
X35433D02*
D03*
X32480D02*
D03*
X29528D02*
D03*
X26575D02*
D03*
X23622D02*
D03*
D112*
X75658Y300549D02*
D03*
M02*
