G04*
G04 #@! TF.GenerationSoftware,Altium Limited,Altium Designer,24.5.2 (23)*
G04*
G04 Layer_Physical_Order=4*
G04 Layer_Color=16711680*
%FSLAX25Y25*%
%MOIN*%
G70*
G04*
G04 #@! TF.SameCoordinates,63800F2C-04A6-48C2-B29F-E79A9F1A880F*
G04*
G04*
G04 #@! TF.FilePolarity,Positive*
G04*
G01*
G75*
%ADD15C,0.01575*%
%ADD26R,0.03937X0.05591*%
%ADD106C,0.03937*%
%ADD107R,0.04992X0.04992*%
%ADD108C,0.04992*%
%ADD109C,0.14173*%
%ADD110C,0.02362*%
%ADD111C,0.07677*%
%ADD112C,0.06063*%
%ADD113C,0.03937*%
%ADD114C,0.09449*%
%ADD115C,0.08858*%
%ADD116C,0.05118*%
%ADD117R,0.07677X0.07677*%
%ADD118C,0.04803*%
%ADD119R,0.04803X0.04803*%
%ADD120C,0.05906*%
%ADD121C,0.17717*%
%ADD122C,0.03150*%
%ADD123O,0.19685X0.05906*%
%ADD124O,0.19685X0.11811*%
%ADD125C,0.01968*%
G36*
X20438Y316966D02*
Y304724D01*
X20574Y303697D01*
X20970Y302739D01*
X21601Y301917D01*
X22424Y301285D01*
X23382Y300889D01*
X24409Y300753D01*
X73083D01*
Y300210D01*
X73259Y299556D01*
X73597Y298969D01*
X74077Y298489D01*
X74664Y298150D01*
X75158Y298018D01*
Y300549D01*
X76158D01*
Y298018D01*
X76652Y298150D01*
X77239Y298489D01*
X77718Y298969D01*
X78057Y299556D01*
X78233Y300210D01*
Y300753D01*
X93520D01*
Y300379D01*
X93856Y299127D01*
X94503Y298005D01*
X95420Y297089D01*
X96542Y296441D01*
X97794Y296105D01*
X98228D01*
Y295218D01*
X98564Y293967D01*
X99212Y292844D01*
X99635Y292421D01*
X99212Y291998D01*
X98564Y290876D01*
X98228Y289624D01*
Y288329D01*
X98564Y287077D01*
X99212Y285955D01*
X99635Y285531D01*
X99212Y285108D01*
X98564Y283986D01*
X98228Y282734D01*
Y281439D01*
X98564Y280187D01*
X99212Y279065D01*
X100128Y278149D01*
X101250Y277501D01*
X102502Y277165D01*
X103797D01*
X105049Y277501D01*
X106102Y278109D01*
X107156Y277501D01*
X108407Y277165D01*
X109703D01*
X110955Y277501D01*
X112077Y278149D01*
X112993Y279065D01*
X113641Y280187D01*
X113976Y281439D01*
Y282734D01*
X113641Y283986D01*
X112993Y285108D01*
X112570Y285531D01*
X112993Y285955D01*
X113641Y287077D01*
X113976Y288329D01*
Y289624D01*
X113641Y290876D01*
X112993Y291998D01*
X112570Y292421D01*
X112993Y292844D01*
X113641Y293967D01*
X113976Y295218D01*
Y296514D01*
X113641Y297766D01*
X112993Y298888D01*
X112077Y299804D01*
X111796Y299966D01*
X112007Y300753D01*
X148587D01*
Y219329D01*
X147799Y219003D01*
X147116Y219686D01*
X145994Y220334D01*
X144742Y220669D01*
X143447D01*
X142195Y220334D01*
X141073Y219686D01*
X140156Y218770D01*
X139575Y217762D01*
X135231D01*
X135231Y217762D01*
X134534Y217623D01*
X133942Y217228D01*
X133942Y217228D01*
X130601Y213887D01*
X130206Y213296D01*
X130067Y212598D01*
X130067Y212598D01*
Y178708D01*
X125984Y174625D01*
X125915Y174665D01*
X124664Y175000D01*
X123368D01*
X122116Y174665D01*
X120994Y174017D01*
X120078Y173100D01*
X119430Y171978D01*
X119339Y171639D01*
X118552Y171743D01*
Y183658D01*
X127393Y192499D01*
X127393Y192499D01*
X127788Y193091D01*
X127927Y193788D01*
X127927Y193788D01*
Y253817D01*
X127927Y253817D01*
X127788Y254514D01*
X127393Y255105D01*
X127393Y255105D01*
X113493Y269005D01*
X112902Y269400D01*
X112205Y269539D01*
X112205Y269539D01*
X28314D01*
X18555Y279298D01*
Y316111D01*
X19711Y317268D01*
X20438Y316966D01*
D02*
G37*
G36*
X11214Y367007D02*
X12982Y366433D01*
X14818Y366142D01*
X16678D01*
X18514Y366433D01*
X19651Y366802D01*
X20438Y366230D01*
Y323150D01*
X15444Y318155D01*
X15049Y317564D01*
X14910Y316866D01*
X14910Y316866D01*
Y278543D01*
X14910Y278543D01*
X15049Y277846D01*
X15444Y277255D01*
X26270Y266428D01*
X26270Y266428D01*
X26862Y266033D01*
X27559Y265894D01*
X111450D01*
X124282Y253062D01*
Y194543D01*
X115441Y185702D01*
X115045Y185110D01*
X114907Y184413D01*
X114907Y184413D01*
Y148612D01*
X114179Y148311D01*
X104185Y158306D01*
Y222474D01*
X109293Y227581D01*
X110221Y227397D01*
X110385Y227002D01*
X111096Y225938D01*
X111955Y225079D01*
X111096Y224220D01*
X110385Y223156D01*
X109895Y221974D01*
X109646Y220719D01*
Y219439D01*
X109895Y218184D01*
X110385Y217002D01*
X111096Y215938D01*
X111955Y215079D01*
X111096Y214220D01*
X110385Y213156D01*
X109895Y211974D01*
X109646Y210719D01*
Y209439D01*
X109895Y208184D01*
X110385Y207002D01*
X111096Y205938D01*
X112001Y205033D01*
X113065Y204322D01*
X114074Y203904D01*
X114199Y203381D01*
X114163Y203046D01*
X113956Y202927D01*
X113294Y202264D01*
X112825Y201452D01*
X112591Y200579D01*
X116142D01*
X119692D01*
X119458Y201452D01*
X118990Y202264D01*
X118327Y202927D01*
X118120Y203046D01*
X118085Y203381D01*
X118209Y203904D01*
X119219Y204322D01*
X120283Y205033D01*
X121188Y205938D01*
X121898Y207002D01*
X122388Y208184D01*
X122638Y209439D01*
Y210719D01*
X122388Y211974D01*
X121898Y213156D01*
X121188Y214220D01*
X120328Y215079D01*
X121188Y215938D01*
X121898Y217002D01*
X122388Y218184D01*
X122638Y219439D01*
Y220719D01*
X122388Y221974D01*
X121898Y223156D01*
X121188Y224220D01*
X120328Y225079D01*
X121188Y225938D01*
X121898Y227002D01*
X122388Y228184D01*
X122638Y229439D01*
Y230719D01*
X122388Y231974D01*
X121898Y233156D01*
X121188Y234220D01*
X120328Y235079D01*
X121188Y235938D01*
X121898Y237002D01*
X122388Y238184D01*
X122638Y239439D01*
Y240719D01*
X122388Y241974D01*
X121898Y243156D01*
X121188Y244220D01*
X120328Y245079D01*
X121188Y245938D01*
X121898Y247002D01*
X122388Y248184D01*
X122638Y249439D01*
Y250719D01*
X122388Y251974D01*
X121898Y253156D01*
X121188Y254220D01*
X120283Y255125D01*
X119219Y255836D01*
X118037Y256325D01*
X116781Y256575D01*
X115502D01*
X114247Y256325D01*
X113065Y255836D01*
X112001Y255125D01*
X111096Y254220D01*
X110385Y253156D01*
X109895Y251974D01*
X109646Y250719D01*
Y249439D01*
X109895Y248184D01*
X110385Y247002D01*
X111096Y245938D01*
X111955Y245079D01*
X111096Y244220D01*
X110385Y243156D01*
X109895Y241974D01*
X109646Y240719D01*
Y239439D01*
X109895Y238184D01*
X110385Y237002D01*
X111096Y235938D01*
X111955Y235079D01*
X111096Y234220D01*
X110385Y233156D01*
X109895Y231974D01*
X109881Y231901D01*
X109213D01*
X108515Y231762D01*
X107924Y231367D01*
X107924Y231367D01*
X101074Y224517D01*
X100679Y223926D01*
X100540Y223228D01*
X100540Y223228D01*
Y159338D01*
X99812Y159037D01*
X88269Y170580D01*
X87678Y170975D01*
X86980Y171114D01*
X86980Y171114D01*
X57756D01*
X57736Y171191D01*
X57088Y172313D01*
X56171Y173229D01*
X55049Y173877D01*
X53798Y174213D01*
X52502D01*
X51250Y173877D01*
X50128Y173229D01*
X49212Y172313D01*
X48564Y171191D01*
X48228Y169939D01*
Y168643D01*
X48564Y167392D01*
X49212Y166270D01*
X50128Y165353D01*
X51250Y164705D01*
X52502Y164370D01*
X53798D01*
X55049Y164705D01*
X56171Y165353D01*
X57088Y166270D01*
X57736Y167392D01*
X57756Y167469D01*
X86226D01*
X109903Y143792D01*
X109667Y142914D01*
X109664Y142913D01*
X108572Y144005D01*
X107981Y144400D01*
X107283Y144539D01*
X107283Y144539D01*
X64646D01*
X64625Y144616D01*
X63977Y145738D01*
X63061Y146654D01*
X61939Y147302D01*
X60687Y147638D01*
X59391D01*
X58140Y147302D01*
X57018Y146654D01*
X56101Y145738D01*
X55453Y144616D01*
X55118Y143364D01*
Y142069D01*
X55453Y140817D01*
X56101Y139695D01*
X56524Y139272D01*
X56101Y138848D01*
X55453Y137726D01*
X55118Y136475D01*
Y135179D01*
X55453Y133927D01*
X56101Y132805D01*
X57018Y131889D01*
X58140Y131241D01*
X59391Y130905D01*
X60687D01*
X61939Y131241D01*
X63061Y131889D01*
X63977Y132805D01*
X64625Y133927D01*
X64961Y135179D01*
Y136475D01*
X64625Y137726D01*
X63977Y138848D01*
X63554Y139272D01*
X63977Y139695D01*
X64625Y140817D01*
X64646Y140894D01*
X106529D01*
X107659Y139764D01*
X107619Y139695D01*
X107283Y138443D01*
Y137147D01*
X107619Y135896D01*
X108267Y134774D01*
X108509Y134531D01*
X108183Y133744D01*
X84836D01*
X84836Y133744D01*
X84138Y133605D01*
X83937Y133470D01*
X83380Y133791D01*
X82129Y134127D01*
X80833D01*
X79581Y133791D01*
X78459Y133144D01*
X77938Y132622D01*
X77690Y132870D01*
X76568Y133517D01*
X75317Y133853D01*
X74021D01*
X72769Y133517D01*
X71647Y132870D01*
X70731Y131953D01*
X70083Y130831D01*
X69747Y129579D01*
Y128284D01*
X70083Y127032D01*
X70731Y125910D01*
X71647Y124994D01*
X72769Y124346D01*
X74021Y124010D01*
X75051D01*
X75673Y123388D01*
X75673Y123388D01*
X76264Y122993D01*
X76962Y122854D01*
X86312D01*
X86312Y122854D01*
X87009Y122993D01*
X87600Y123388D01*
X91737Y127524D01*
X102685D01*
X103139Y126737D01*
X103139Y126736D01*
X102966Y126091D01*
X108845D01*
X108672Y126736D01*
X108672Y126737D01*
X109126Y127524D01*
X118888D01*
X120146Y126266D01*
Y119931D01*
X119359Y119327D01*
X118758Y119488D01*
X117462D01*
X116211Y119153D01*
X115088Y118505D01*
X114172Y117589D01*
X113524Y116466D01*
X113189Y115215D01*
Y113919D01*
X113005Y113680D01*
X89994D01*
X89994Y113680D01*
X89296Y113541D01*
X88705Y113146D01*
X88705Y113146D01*
X39389Y63830D01*
X31600D01*
X30683Y64747D01*
X30800Y65029D01*
X30942Y66108D01*
X30800Y67187D01*
X30384Y68193D01*
X29721Y69056D01*
X28857Y69719D01*
X27852Y70135D01*
X26773Y70277D01*
X12993D01*
X11914Y70135D01*
X10908Y69719D01*
X10045Y69056D01*
X9898Y68865D01*
X9111Y69132D01*
Y73381D01*
X9898Y73648D01*
X10174Y73289D01*
X11000Y72655D01*
X11961Y72257D01*
X12993Y72121D01*
X19383D01*
Y76108D01*
Y80095D01*
X12993D01*
X11961Y79959D01*
X11000Y79561D01*
X10174Y78927D01*
X9898Y78567D01*
X9111Y78835D01*
Y87942D01*
X9687Y88518D01*
X29137Y107969D01*
X30172D01*
X30749Y106971D01*
X31665Y106054D01*
X31715Y106026D01*
X31844Y105042D01*
X31495Y104692D01*
X30847Y103570D01*
X30512Y102318D01*
Y101023D01*
X30847Y99771D01*
X31495Y98649D01*
X32411Y97733D01*
X33533Y97085D01*
X34785Y96749D01*
X36081D01*
X37333Y97085D01*
X38455Y97733D01*
X39371Y98649D01*
X40019Y99771D01*
X40354Y101023D01*
Y102318D01*
X40019Y103570D01*
X39371Y104692D01*
X39020Y105043D01*
X39346Y105831D01*
X48622D01*
X49701Y105973D01*
X50707Y106389D01*
X51570Y107052D01*
X52233Y107915D01*
X52649Y108921D01*
X52792Y110000D01*
X52649Y111079D01*
X52233Y112085D01*
X51570Y112948D01*
X50707Y113611D01*
X49701Y114027D01*
X48622Y114170D01*
X37294D01*
X36586Y114578D01*
X35335Y114914D01*
X34159D01*
X34131Y114940D01*
X34095Y115139D01*
X34768Y115840D01*
X34843Y115831D01*
X48622D01*
X49701Y115973D01*
X50707Y116389D01*
X51570Y117052D01*
X52233Y117915D01*
X52649Y118921D01*
X52792Y120000D01*
X52649Y121079D01*
X52233Y122085D01*
X51570Y122948D01*
X50707Y123611D01*
X49701Y124027D01*
X48622Y124170D01*
X34843D01*
X33763Y124027D01*
X32758Y123611D01*
X31894Y122948D01*
X31475Y122402D01*
X30734Y122198D01*
X30453Y122262D01*
X29329Y123013D01*
X27914Y123599D01*
X26412Y123898D01*
X24880D01*
X23378Y123599D01*
X21962Y123013D01*
X20689Y122162D01*
X20569Y122042D01*
X19691Y122277D01*
X19599Y122619D01*
X19069Y123538D01*
X18318Y124289D01*
X17399Y124820D01*
X16373Y125094D01*
X16342D01*
Y121063D01*
Y117032D01*
X16373D01*
X17136Y117236D01*
X17463Y117081D01*
X17719Y116874D01*
X17870Y116669D01*
Y115356D01*
X18169Y113854D01*
X18755Y112439D01*
X19606Y111165D01*
X20689Y110082D01*
X21962Y109231D01*
X23095Y108762D01*
X23364Y107918D01*
X9620Y94174D01*
X8892Y94475D01*
Y135292D01*
X9667Y135479D01*
X10430Y134337D01*
X11400Y133367D01*
X12542Y132604D01*
X13810Y132079D01*
X15156Y131811D01*
X16529D01*
X17875Y132079D01*
X19143Y132604D01*
X20285Y133367D01*
X21255Y134337D01*
X22018Y135479D01*
X22488Y136612D01*
X23378Y136244D01*
X24880Y135945D01*
X26412D01*
X27914Y136244D01*
X29329Y136830D01*
X30602Y137681D01*
X30698Y137777D01*
X31673Y137638D01*
X32023Y137181D01*
X32849Y136547D01*
X33811Y136149D01*
X34843Y136013D01*
X41232D01*
Y140000D01*
Y143987D01*
X34843D01*
X34209Y143903D01*
X33453Y144444D01*
X33411Y144538D01*
X33122Y145989D01*
X32536Y147404D01*
X31685Y148677D01*
X30756Y149606D01*
X31685Y150536D01*
X32536Y151809D01*
X33122Y153224D01*
X33421Y154726D01*
Y156258D01*
X33122Y157760D01*
X32536Y159175D01*
X31685Y160449D01*
X30602Y161532D01*
X29329Y162383D01*
X27914Y162969D01*
X26412Y163268D01*
X24880D01*
X23378Y162969D01*
X21962Y162383D01*
X20689Y161532D01*
X20569Y161412D01*
X19691Y161647D01*
X19599Y161989D01*
X19069Y162908D01*
X18318Y163659D01*
X17399Y164190D01*
X16373Y164465D01*
X16342D01*
Y160433D01*
Y156402D01*
X16373D01*
X17136Y156606D01*
X17463Y156451D01*
X17719Y156244D01*
X17870Y156039D01*
Y154726D01*
X18169Y153224D01*
X18755Y151809D01*
X19606Y150536D01*
X20535Y149606D01*
X19606Y148677D01*
X18755Y147404D01*
X18169Y145989D01*
X18091Y145596D01*
X17875Y145480D01*
X16529Y145748D01*
X15156D01*
X13810Y145480D01*
X12542Y144955D01*
X11400Y144192D01*
X10430Y143222D01*
X9667Y142080D01*
X8892Y142267D01*
Y174662D01*
X9667Y174849D01*
X10430Y173707D01*
X11400Y172737D01*
X12542Y171974D01*
X13810Y171449D01*
X15156Y171181D01*
X16529D01*
X17875Y171449D01*
X19143Y171974D01*
X20285Y172737D01*
X21255Y173707D01*
X22018Y174849D01*
X22488Y175982D01*
X23378Y175614D01*
X24880Y175315D01*
X26412D01*
X27914Y175614D01*
X29329Y176200D01*
X30602Y177051D01*
X31685Y178134D01*
X32536Y179407D01*
X33122Y180823D01*
X33421Y182325D01*
Y183856D01*
X33122Y185359D01*
X32536Y186774D01*
X31685Y188047D01*
X30602Y189130D01*
X29329Y189981D01*
X27914Y190567D01*
X26412Y190866D01*
X24880D01*
X23378Y190567D01*
X21962Y189981D01*
X20689Y189130D01*
X19606Y188047D01*
X18755Y186774D01*
X18169Y185359D01*
X18091Y184966D01*
X17875Y184850D01*
X16529Y185118D01*
X15156D01*
X13810Y184850D01*
X12542Y184325D01*
X11400Y183562D01*
X10430Y182592D01*
X9667Y181450D01*
X8892Y181637D01*
Y367510D01*
X9680Y367789D01*
X11214Y367007D01*
D02*
G37*
G36*
X139509Y213848D02*
X140156Y212726D01*
X141073Y211810D01*
X142195Y211162D01*
X143447Y210827D01*
X144742D01*
X145994Y211162D01*
X147116Y211810D01*
X147799Y212493D01*
X148587Y212167D01*
Y205709D01*
X148664Y205318D01*
X148885Y204988D01*
X149216Y204767D01*
X149606Y204689D01*
X162779D01*
Y204334D01*
X162982Y203579D01*
X163373Y202902D01*
X163925Y202349D01*
X164602Y201958D01*
X165357Y201756D01*
X166139D01*
X166894Y201958D01*
X167571Y202349D01*
X168123Y202902D01*
X168514Y203579D01*
X168588Y203856D01*
X169404D01*
X169478Y203579D01*
X169869Y202902D01*
X170421Y202349D01*
X171098Y201958D01*
X171853Y201756D01*
X172635D01*
X173390Y201958D01*
X174067Y202349D01*
X174619Y202902D01*
X175010Y203579D01*
X175213Y204334D01*
Y204689D01*
X384809D01*
Y157514D01*
X342479D01*
X342024Y158302D01*
X342214Y158631D01*
X342442Y159480D01*
X338957D01*
X335471D01*
X335699Y158631D01*
X335889Y158302D01*
X335434Y157514D01*
X332709D01*
X332284Y157458D01*
X331681Y157379D01*
X331681Y157379D01*
X331681Y157379D01*
X331555Y157327D01*
X331103Y157778D01*
X330306Y158238D01*
X329457Y158466D01*
Y155773D01*
X329270Y155529D01*
X329270Y155529D01*
X329270Y155529D01*
X329187Y155329D01*
X328985Y154980D01*
X328928D01*
X328727Y155329D01*
X328644Y155529D01*
X328644Y155529D01*
X328644Y155529D01*
X328457Y155773D01*
Y158466D01*
X327607Y158238D01*
X326810Y157778D01*
X326359Y157327D01*
X326233Y157379D01*
X326232Y157379D01*
X326232Y157379D01*
X325629Y157458D01*
X325205Y157514D01*
X322835D01*
X321807Y157379D01*
X320849Y156982D01*
X320027Y156351D01*
X319396Y155529D01*
X318999Y154571D01*
X318864Y153543D01*
Y115011D01*
X314394D01*
X314394Y115011D01*
X313696Y114873D01*
X313105Y114478D01*
X313105Y114478D01*
X252615Y53988D01*
X197672D01*
X197477Y54212D01*
X197359Y55088D01*
X198245Y56167D01*
X198903Y57399D01*
X199308Y58734D01*
X199445Y60124D01*
X199308Y61513D01*
X198903Y62849D01*
X198245Y64080D01*
X197359Y65159D01*
X196280Y66044D01*
X195049Y66703D01*
X194841Y66766D01*
X194649Y67529D01*
X194858Y67739D01*
X195506Y68861D01*
X195842Y70113D01*
Y71408D01*
X195506Y72660D01*
X195397Y72848D01*
X195703Y73894D01*
X196280Y74203D01*
X197359Y75088D01*
X198245Y76167D01*
X198903Y77399D01*
X199308Y78734D01*
X199445Y80124D01*
X199308Y81513D01*
X198903Y82849D01*
X198245Y84080D01*
X197359Y85159D01*
X196280Y86044D01*
X195049Y86703D01*
X193713Y87108D01*
X192324Y87244D01*
X184450D01*
X183061Y87108D01*
X181725Y86703D01*
X180494Y86044D01*
X179414Y85159D01*
X178529Y84080D01*
X177871Y82849D01*
X177466Y81513D01*
X177329Y80124D01*
X177466Y78734D01*
X177871Y77399D01*
X178529Y76167D01*
X179414Y75088D01*
X180494Y74203D01*
X181725Y73545D01*
X183061Y73140D01*
X184450Y73003D01*
X185680D01*
X186215Y72215D01*
X185999Y71408D01*
Y70113D01*
X186334Y68861D01*
X186813Y68032D01*
X186431Y67244D01*
X184450D01*
X183061Y67108D01*
X181725Y66703D01*
X180494Y66044D01*
X179414Y65159D01*
X178529Y64080D01*
X177871Y62849D01*
X177466Y61513D01*
X177329Y60124D01*
X177466Y58734D01*
X177871Y57399D01*
X178529Y56167D01*
X179414Y55088D01*
X180494Y54203D01*
X181725Y53545D01*
X183061Y53140D01*
X184450Y53003D01*
X192324D01*
X192876Y53057D01*
X195056Y50877D01*
X195056Y50877D01*
X195292Y50719D01*
X195463Y49777D01*
X192876Y47190D01*
X192324Y47245D01*
X184450D01*
X183061Y47108D01*
X181725Y46703D01*
X180494Y46044D01*
X179414Y45159D01*
X178529Y44080D01*
X177871Y42849D01*
X177466Y41513D01*
X177329Y40124D01*
X177466Y38734D01*
X177871Y37399D01*
X178015Y37128D01*
X177611Y36453D01*
X134646D01*
X134256Y36375D01*
X133925Y36154D01*
X133704Y35823D01*
X133626Y35433D01*
Y26024D01*
X121772D01*
Y21721D01*
X120984Y21510D01*
X120832Y21774D01*
X120199Y22407D01*
X119423Y22855D01*
X118610Y23073D01*
Y19685D01*
Y16297D01*
X119423Y16515D01*
X120199Y16963D01*
X120832Y17596D01*
X120984Y17860D01*
X121772Y17649D01*
Y13347D01*
X133626D01*
Y8892D01*
X74837D01*
Y13328D01*
X75625Y13854D01*
X76261Y13590D01*
X77486Y13347D01*
X78734D01*
X79959Y13590D01*
X81113Y14068D01*
X82151Y14762D01*
X82571Y15181D01*
X83110Y15587D01*
X83650Y15181D01*
X84070Y14762D01*
X85108Y14068D01*
X86261Y13590D01*
X87486Y13347D01*
X88735D01*
X89959Y13590D01*
X91113Y14068D01*
X92151Y14762D01*
X92571Y15181D01*
X93110Y15587D01*
X93650Y15181D01*
X94070Y14762D01*
X95108Y14068D01*
X96261Y13590D01*
X97486Y13347D01*
X98734D01*
X99959Y13590D01*
X101113Y14068D01*
X102151Y14762D01*
X102571Y15181D01*
X103110Y15587D01*
X103650Y15181D01*
X104070Y14762D01*
X105108Y14068D01*
X106261Y13590D01*
X107486Y13347D01*
X108735D01*
X109959Y13590D01*
X111113Y14068D01*
X112151Y14762D01*
X113034Y15644D01*
X113727Y16683D01*
X114205Y17836D01*
X114249Y18054D01*
X115070Y18148D01*
X115388Y17596D01*
X116022Y16963D01*
X116797Y16515D01*
X117610Y16297D01*
Y19685D01*
Y23073D01*
X116797Y22855D01*
X116022Y22407D01*
X115388Y21774D01*
X115070Y21222D01*
X114249Y21316D01*
X114205Y21534D01*
X113727Y22688D01*
X113034Y23726D01*
X112151Y24609D01*
X111113Y25302D01*
X109959Y25780D01*
X109926Y25787D01*
X109511Y26455D01*
X109687Y27114D01*
Y28410D01*
X109352Y29662D01*
X108704Y30784D01*
X107788Y31700D01*
X106665Y32348D01*
X106588Y32368D01*
Y43972D01*
X115651Y53035D01*
X115651Y53035D01*
X116046Y53626D01*
X116185Y54323D01*
X116185Y54323D01*
Y68867D01*
X116185Y68867D01*
X116046Y69564D01*
X115651Y70156D01*
X115651Y70156D01*
X115522Y70285D01*
X115824Y71012D01*
X128130D01*
X128130Y71012D01*
X128828Y71151D01*
X129419Y71546D01*
X132293Y74420D01*
X133020Y74118D01*
Y61778D01*
X126969Y55727D01*
X126900Y55767D01*
X125648Y56102D01*
X124352D01*
X123100Y55767D01*
X121978Y55119D01*
X121062Y54203D01*
X120414Y53081D01*
X120079Y51829D01*
Y50533D01*
X120414Y49282D01*
X121062Y48159D01*
X121978Y47243D01*
X123100Y46595D01*
X124352Y46260D01*
X125648D01*
X126900Y46595D01*
X128022Y47243D01*
X128938Y48159D01*
X129586Y49282D01*
X129921Y50533D01*
Y51829D01*
X129586Y53081D01*
X129546Y53150D01*
X136131Y59735D01*
X136131Y59735D01*
X136526Y60326D01*
X136665Y61024D01*
X136665Y61024D01*
Y134843D01*
X136665Y134843D01*
X136526Y135540D01*
X136131Y136131D01*
X136131Y136131D01*
X131504Y140758D01*
X132017Y141305D01*
X132017Y141305D01*
X132027Y141316D01*
X132667Y140961D01*
X132712Y140935D01*
X133358Y140762D01*
Y143201D01*
X130919D01*
X131092Y142555D01*
X131118Y142510D01*
X131474Y141869D01*
X131462Y141859D01*
D01*
X131414Y141814D01*
X130915Y141347D01*
X126593Y145669D01*
X126633Y145738D01*
X126969Y146990D01*
Y148286D01*
X126633Y149537D01*
X125985Y150660D01*
X125069Y151576D01*
X123947Y152224D01*
X122695Y152559D01*
X121399D01*
X120148Y152224D01*
X119339Y151757D01*
X118552Y152153D01*
Y168415D01*
X119339Y168518D01*
X119430Y168179D01*
X120078Y167057D01*
X120994Y166141D01*
X122116Y165493D01*
X123368Y165157D01*
X124664D01*
X125915Y165493D01*
X127038Y166141D01*
X127954Y167057D01*
X128602Y168179D01*
X128937Y169431D01*
Y170727D01*
X128602Y171978D01*
X128562Y172047D01*
X133178Y176664D01*
X133178Y176664D01*
X133573Y177255D01*
X133712Y177953D01*
X133712Y177953D01*
Y211843D01*
X135986Y214117D01*
X139437D01*
X139509Y213848D01*
D02*
G37*
G36*
X384809Y26191D02*
X384021Y25912D01*
X382487Y26694D01*
X380718Y27268D01*
X378882Y27559D01*
X377023D01*
X375187Y27268D01*
X373419Y26694D01*
X371762Y25850D01*
X370258Y24757D01*
X368944Y23442D01*
X367851Y21938D01*
X367007Y20282D01*
X366433Y18514D01*
X366142Y16678D01*
Y14818D01*
X366433Y12982D01*
X367007Y11214D01*
X367789Y9680D01*
X367510Y8892D01*
X220472D01*
Y13874D01*
X221260Y14085D01*
X221562Y13563D01*
X222224Y12900D01*
X223036Y12432D01*
X223909Y12197D01*
Y15748D01*
Y19299D01*
X223036Y19064D01*
X222224Y18596D01*
X221562Y17933D01*
X221260Y17411D01*
X220472Y17622D01*
Y47390D01*
X254808D01*
X254809Y47390D01*
X255506Y47529D01*
X256097Y47924D01*
X259354Y51181D01*
X322835D01*
Y104217D01*
X323622Y104456D01*
X323960Y103950D01*
X324856Y103054D01*
X325909Y102350D01*
X326449Y102127D01*
X326506Y101251D01*
X326503Y101249D01*
X325759Y100505D01*
X325233Y99594D01*
X324961Y98577D01*
Y97525D01*
X325233Y96509D01*
X325759Y95597D01*
X326503Y94854D01*
X327414Y94327D01*
X328431Y94055D01*
X329483D01*
X330499Y94327D01*
X331410Y94854D01*
X332154Y95597D01*
X332680Y96509D01*
X332953Y97525D01*
Y98577D01*
X332746Y99350D01*
X333473Y99679D01*
X333960Y98950D01*
X334856Y98054D01*
X335910Y97350D01*
X336449Y97127D01*
X336506Y96251D01*
X336503Y96249D01*
X335759Y95505D01*
X335233Y94594D01*
X334961Y93577D01*
Y92525D01*
X335233Y91509D01*
X335759Y90597D01*
X336503Y89854D01*
X337414Y89327D01*
X338431Y89055D01*
X339483D01*
X340499Y89327D01*
X341410Y89854D01*
X342154Y90597D01*
X342680Y91509D01*
X342953Y92525D01*
Y93577D01*
X342680Y94594D01*
X342154Y95505D01*
X341410Y96249D01*
X341407Y96251D01*
X341464Y97127D01*
X342004Y97350D01*
X343057Y98054D01*
X343954Y98950D01*
X344658Y100004D01*
X345143Y101175D01*
X345390Y102418D01*
Y103685D01*
X345143Y104928D01*
X344658Y106098D01*
X343954Y107152D01*
X343057Y108048D01*
X342004Y108752D01*
X340833Y109237D01*
X340779Y109248D01*
Y110846D01*
X340779Y110846D01*
X340640Y111544D01*
X340245Y112135D01*
X337903Y114478D01*
X337312Y114873D01*
X336614Y115011D01*
X336614Y115011D01*
X322835D01*
Y153543D01*
X325205D01*
X325233Y153438D01*
X325759Y152527D01*
X326503Y151783D01*
X327414Y151257D01*
X328431Y150984D01*
X329483D01*
X330499Y151257D01*
X331410Y151783D01*
X332154Y152527D01*
X332680Y153438D01*
X332709Y153543D01*
X336561D01*
X336784Y152858D01*
X336788Y152756D01*
X336159Y152127D01*
X335699Y151330D01*
X335471Y150480D01*
X338957D01*
X342442D01*
X342214Y151330D01*
X341754Y152127D01*
X341125Y152756D01*
X341129Y152858D01*
X341352Y153543D01*
X384809D01*
Y26191D01*
D02*
G37*
G36*
X318830Y105972D02*
X319080Y105441D01*
X318999Y105245D01*
X318990Y105180D01*
X318967Y105119D01*
X318923Y104667D01*
X318864Y104217D01*
Y95897D01*
X318076Y95571D01*
X317768Y95879D01*
X317091Y96270D01*
X316445Y96443D01*
Y93504D01*
X315945D01*
Y93004D01*
X313006D01*
X313179Y92358D01*
X313569Y91681D01*
X314122Y91128D01*
X314335Y91006D01*
Y90097D01*
X314122Y89974D01*
X313569Y89421D01*
X313179Y88744D01*
X313006Y88098D01*
X315945D01*
Y87098D01*
X313006D01*
X313179Y86453D01*
X313569Y85776D01*
X314122Y85223D01*
X314335Y85100D01*
Y84191D01*
X314122Y84068D01*
X313569Y83516D01*
X313179Y82839D01*
X313006Y82193D01*
X315945D01*
Y81693D01*
X316445D01*
Y78754D01*
X317091Y78927D01*
X317768Y79317D01*
X318076Y79626D01*
X318864Y79300D01*
Y55152D01*
X264354D01*
X264053Y55879D01*
X314402Y106229D01*
X318544D01*
X318830Y105972D01*
D02*
G37*
G36*
X91943Y66288D02*
X91669Y66014D01*
X91021Y64892D01*
X90686Y63640D01*
Y62344D01*
X91021Y61093D01*
X91669Y59970D01*
X92585Y59054D01*
X93707Y58406D01*
X94959Y58071D01*
X96255D01*
X97506Y58406D01*
X98629Y59054D01*
X98985Y59410D01*
X99340Y59054D01*
X100463Y58406D01*
X101714Y58071D01*
X103010D01*
X104262Y58406D01*
X105384Y59054D01*
X106300Y59970D01*
X106603Y60495D01*
X107391Y60284D01*
Y57269D01*
X80404Y30283D01*
X80009Y29691D01*
X79870Y28994D01*
X79870Y28994D01*
Y26418D01*
X79262Y25919D01*
X78734Y26024D01*
X77486D01*
X76261Y25780D01*
X75625Y25516D01*
X74837Y26042D01*
Y27559D01*
X74702Y28587D01*
X74305Y29544D01*
X73674Y30367D01*
X72852Y30998D01*
X71894Y31395D01*
X70866Y31530D01*
X50677D01*
X50185Y32208D01*
X50323Y32759D01*
X51065Y33154D01*
X52108Y32874D01*
X53404D01*
X54655Y33209D01*
X55778Y33857D01*
X56201Y34280D01*
X56624Y33857D01*
X57746Y33209D01*
X58998Y32874D01*
X60294D01*
X61545Y33209D01*
X62667Y33857D01*
X63090Y34280D01*
X63514Y33857D01*
X64636Y33209D01*
X65887Y32874D01*
X67183D01*
X68435Y33209D01*
X69557Y33857D01*
X70473Y34774D01*
X71121Y35896D01*
X71457Y37147D01*
Y38443D01*
X71121Y39695D01*
X70513Y40748D01*
X71121Y41801D01*
X71457Y43053D01*
Y44349D01*
X71121Y45600D01*
X70473Y46722D01*
X69557Y47639D01*
X68435Y48287D01*
X67183Y48622D01*
X65887D01*
X65059Y48400D01*
X64652Y49106D01*
X64796Y49250D01*
X65186Y49927D01*
X65359Y50573D01*
X59481D01*
X59654Y49927D01*
X59953Y49409D01*
X59764Y48887D01*
X59559Y48622D01*
X58998D01*
X57746Y48287D01*
X56624Y47639D01*
X56201Y47216D01*
X55778Y47639D01*
X54655Y48287D01*
X53404Y48622D01*
X52108D01*
X50856Y48287D01*
X49734Y47639D01*
X49213Y48210D01*
X57391Y56388D01*
X57391Y56388D01*
X57786Y56980D01*
X57925Y57677D01*
Y63124D01*
X58723Y63921D01*
X59510Y63595D01*
Y63326D01*
X59712Y62571D01*
X60103Y61894D01*
X60656Y61341D01*
X61052Y61112D01*
X61087Y60288D01*
X61068Y60236D01*
X60714Y60032D01*
X60161Y59479D01*
X59771Y58803D01*
X59597Y58157D01*
X65476D01*
X65303Y58803D01*
X64912Y59479D01*
X64359Y60032D01*
X63963Y60261D01*
X63928Y61085D01*
X63947Y61137D01*
X64301Y61341D01*
X64854Y61894D01*
X65245Y62571D01*
X65418Y63216D01*
X62479D01*
Y64216D01*
X65418D01*
X65245Y64862D01*
X64854Y65539D01*
X64301Y66092D01*
X63961Y66288D01*
X64173Y67075D01*
X91617D01*
X91943Y66288D01*
D02*
G37*
G36*
X42140Y56832D02*
X42265Y56368D01*
X42912Y55246D01*
X43829Y54330D01*
X44951Y53682D01*
X46202Y53347D01*
X47498D01*
X48294Y53560D01*
X48702Y52854D01*
X43987Y48139D01*
X43592Y47548D01*
X43453Y46850D01*
X43453Y46850D01*
Y38465D01*
X43376Y38444D01*
X42254Y37796D01*
X41338Y36880D01*
X40690Y35758D01*
X40354Y34506D01*
Y33210D01*
X40594Y32318D01*
X40102Y31530D01*
X37402D01*
X36374Y31395D01*
X36129Y31293D01*
X35474Y31731D01*
Y42341D01*
X35372Y43116D01*
X35126Y43710D01*
X35275Y44196D01*
X35493Y44584D01*
X35777Y44660D01*
X36454Y45051D01*
X37006Y45603D01*
X37397Y46280D01*
X37570Y46926D01*
X34631D01*
Y47426D01*
X34131D01*
Y50365D01*
X33485Y50192D01*
X32808Y49801D01*
X32255Y49249D01*
X31865Y48572D01*
X31808Y48361D01*
X31703Y48271D01*
X30915Y48072D01*
X30587Y48324D01*
X30141Y48509D01*
X29721Y49056D01*
X28857Y49719D01*
X27852Y50135D01*
X26773Y50277D01*
X12993D01*
X11914Y50135D01*
X11852Y50110D01*
X9558Y52404D01*
X9585Y52520D01*
X10467Y52835D01*
X10908Y52497D01*
X11914Y52080D01*
X12993Y51938D01*
X26773D01*
X27852Y52080D01*
X28857Y52497D01*
X29721Y53160D01*
X30384Y54023D01*
X30800Y55029D01*
X30942Y56108D01*
X30898Y56445D01*
X31588Y57233D01*
X40833D01*
X40833Y57233D01*
X41530Y57371D01*
X42140Y56832D01*
D02*
G37*
G36*
X216501Y19807D02*
X216001D01*
X214969Y19531D01*
X214231Y19105D01*
X213707Y19889D01*
X212802Y20794D01*
X211738Y21505D01*
X210556Y21994D01*
X209301Y22244D01*
X208022D01*
X206767Y21994D01*
X205584Y21505D01*
X204520Y20794D01*
X203616Y19889D01*
X203032Y19016D01*
X202313Y19431D01*
X201308Y19701D01*
X201287D01*
Y15748D01*
Y11795D01*
X201308D01*
X202313Y12065D01*
X203032Y12480D01*
X203616Y11607D01*
X204520Y10702D01*
X205584Y9991D01*
X206337Y9680D01*
X206180Y8892D01*
X194720D01*
Y33445D01*
X195049Y33545D01*
X196280Y34203D01*
X197359Y35088D01*
X198245Y36167D01*
X198903Y37399D01*
X199308Y38734D01*
X199445Y40124D01*
X199308Y41513D01*
X198903Y42849D01*
X198245Y44080D01*
X197359Y45159D01*
X197065Y45400D01*
X197027Y46186D01*
X198231Y47390D01*
X216501D01*
Y19807D01*
D02*
G37*
G36*
X70866Y8892D02*
X37402D01*
Y27559D01*
X70866D01*
Y8892D01*
D02*
G37*
G36*
X208661Y388779D02*
X4921D01*
Y4921D01*
X388779D01*
Y204724D01*
X392717D01*
Y984D01*
X984D01*
Y4921D01*
Y388779D01*
Y392717D01*
X208661D01*
Y388779D01*
D02*
G37*
%LPC*%
G36*
X92770Y292089D02*
X92125Y291915D01*
X91448Y291525D01*
X90895Y290972D01*
X90504Y290295D01*
X90495Y290261D01*
X90168Y290165D01*
X89661Y290190D01*
X89355Y290719D01*
X88803Y291272D01*
X88126Y291663D01*
X87480Y291835D01*
Y288896D01*
Y285957D01*
X88126Y286130D01*
X88803Y286521D01*
X89355Y287074D01*
X89746Y287751D01*
X89755Y287785D01*
X90082Y287880D01*
X90590Y287856D01*
X90895Y287327D01*
X91448Y286774D01*
X92125Y286383D01*
X92770Y286210D01*
Y289149D01*
Y292089D01*
D02*
G37*
G36*
X93770D02*
Y289649D01*
X96210D01*
X96037Y290295D01*
X95646Y290972D01*
X95093Y291525D01*
X94416Y291915D01*
X93770Y292089D01*
D02*
G37*
G36*
X71119Y291988D02*
Y289549D01*
X73558D01*
X73385Y290195D01*
X72995Y290871D01*
X72442Y291424D01*
X71765Y291815D01*
X71119Y291988D01*
D02*
G37*
G36*
X70119D02*
X69473Y291815D01*
X68796Y291424D01*
X68244Y290871D01*
X67853Y290195D01*
X67680Y289549D01*
X70119D01*
Y291988D01*
D02*
G37*
G36*
X80169Y291916D02*
X79523Y291743D01*
X78847Y291352D01*
X78294Y290799D01*
X77903Y290122D01*
X77730Y289476D01*
X80169D01*
Y291916D01*
D02*
G37*
G36*
X96210Y288649D02*
X93770D01*
Y286210D01*
X94416Y286383D01*
X95093Y286774D01*
X95646Y287327D01*
X96037Y288003D01*
X96210Y288649D01*
D02*
G37*
G36*
X73558Y288549D02*
X71119D01*
Y286109D01*
X71765Y286282D01*
X72442Y286673D01*
X72995Y287226D01*
X73385Y287903D01*
X73558Y288549D01*
D02*
G37*
G36*
X70119D02*
X67680D01*
X67853Y287903D01*
X68244Y287226D01*
X68796Y286673D01*
X69473Y286282D01*
X70119Y286109D01*
Y288549D01*
D02*
G37*
G36*
X80169Y288476D02*
X77730D01*
X77903Y287831D01*
X78294Y287154D01*
X78847Y286601D01*
X79523Y286210D01*
X80169Y286037D01*
Y288476D01*
D02*
G37*
G36*
X81169Y291916D02*
Y288976D01*
Y286037D01*
X81815Y286210D01*
X82492Y286601D01*
X83045Y287154D01*
X83396Y287762D01*
X83671Y287806D01*
X84099Y287762D01*
X84224Y287732D01*
X84605Y287074D01*
X85157Y286521D01*
X85834Y286130D01*
X86480Y285957D01*
Y288896D01*
Y291835D01*
X85834Y291663D01*
X85157Y291272D01*
X84605Y290719D01*
X84254Y290111D01*
X83978Y290066D01*
X83550Y290110D01*
X83425Y290140D01*
X83045Y290799D01*
X82492Y291352D01*
X81815Y291743D01*
X81169Y291916D01*
D02*
G37*
G36*
X115642Y199579D02*
X112591D01*
X112825Y198705D01*
X113294Y197893D01*
X113956Y197231D01*
X114768Y196762D01*
X115642Y196528D01*
Y199579D01*
D02*
G37*
G36*
X119692D02*
X116642D01*
Y196528D01*
X117516Y196762D01*
X118327Y197231D01*
X118990Y197893D01*
X119458Y198705D01*
X119692Y199579D01*
D02*
G37*
G36*
X15342Y164465D02*
X15312D01*
X14286Y164190D01*
X13367Y163659D01*
X12617Y162908D01*
X12086Y161989D01*
X11811Y160964D01*
Y160933D01*
X15342D01*
Y164465D01*
D02*
G37*
G36*
Y159933D02*
X11811D01*
Y159902D01*
X12086Y158877D01*
X12617Y157958D01*
X13367Y157207D01*
X14286Y156676D01*
X15312Y156402D01*
X15342D01*
Y159933D01*
D02*
G37*
G36*
X48622Y143987D02*
X42232D01*
Y140500D01*
X52543D01*
X52473Y141032D01*
X52075Y141993D01*
X51441Y142819D01*
X50616Y143453D01*
X49654Y143851D01*
X48622Y143987D01*
D02*
G37*
G36*
X52543Y139500D02*
X42232D01*
Y136013D01*
X48622D01*
X49654Y136149D01*
X50616Y136547D01*
X51441Y137181D01*
X52075Y138007D01*
X52473Y138968D01*
X52543Y139500D01*
D02*
G37*
G36*
X48622Y134169D02*
X34843D01*
X33763Y134027D01*
X32758Y133611D01*
X31894Y132948D01*
X31232Y132085D01*
X30815Y131079D01*
X30673Y130000D01*
X30815Y128921D01*
X31232Y127915D01*
X31894Y127052D01*
X32758Y126389D01*
X33763Y125973D01*
X34843Y125830D01*
X48622D01*
X49701Y125973D01*
X50707Y126389D01*
X51570Y127052D01*
X52233Y127915D01*
X52649Y128921D01*
X52792Y130000D01*
X52649Y131079D01*
X52233Y132085D01*
X51570Y132948D01*
X50707Y133611D01*
X49701Y134027D01*
X48622Y134169D01*
D02*
G37*
G36*
X108845Y125091D02*
X106405D01*
Y122651D01*
X107051Y122824D01*
X107728Y123215D01*
X108281Y123768D01*
X108672Y124445D01*
X108845Y125091D01*
D02*
G37*
G36*
X105405D02*
X102966D01*
X103139Y124445D01*
X103530Y123768D01*
X104083Y123215D01*
X104760Y122824D01*
X105405Y122651D01*
Y125091D01*
D02*
G37*
G36*
X15342Y125094D02*
X15312D01*
X14286Y124820D01*
X13367Y124289D01*
X12617Y123538D01*
X12086Y122619D01*
X11811Y121594D01*
Y121563D01*
X15342D01*
Y125094D01*
D02*
G37*
G36*
Y120563D02*
X11811D01*
Y120532D01*
X12086Y119507D01*
X12617Y118588D01*
X13367Y117837D01*
X14286Y117306D01*
X15312Y117032D01*
X15342D01*
Y120563D01*
D02*
G37*
G36*
X30176Y91535D02*
X28880D01*
X27628Y91200D01*
X26506Y90552D01*
X25590Y89636D01*
X24942Y88514D01*
X24606Y87262D01*
Y85966D01*
X24942Y84715D01*
X25590Y83592D01*
X26506Y82676D01*
X27628Y82028D01*
X28880Y81693D01*
X30176D01*
X31427Y82028D01*
X32549Y82676D01*
X33466Y83592D01*
X34113Y84715D01*
X34449Y85966D01*
Y87262D01*
X34113Y88514D01*
X33466Y89636D01*
X32549Y90552D01*
X31427Y91200D01*
X30176Y91535D01*
D02*
G37*
G36*
X26773Y80095D02*
X20383D01*
Y76608D01*
X30694D01*
X30624Y77140D01*
X30225Y78101D01*
X29592Y78927D01*
X28766Y79561D01*
X27804Y79959D01*
X26773Y80095D01*
D02*
G37*
G36*
X30694Y75608D02*
X20383D01*
Y72121D01*
X26773D01*
X27804Y72257D01*
X28766Y72655D01*
X29592Y73289D01*
X30225Y74114D01*
X30624Y75076D01*
X30694Y75608D01*
D02*
G37*
G36*
X333661Y183909D02*
X333661Y183909D01*
X309055D01*
X309055Y183909D01*
X308358Y183770D01*
X307767Y183375D01*
X307766Y183375D01*
X253255Y128863D01*
X253255Y128863D01*
X249245Y124854D01*
X236221D01*
X236221Y124854D01*
X235523Y124715D01*
X234932Y124320D01*
X234932Y124320D01*
X228576Y117964D01*
X224180D01*
X220776Y121369D01*
X221157Y122626D01*
X221294Y124016D01*
X221157Y125405D01*
X220752Y126741D01*
X220094Y127972D01*
X219209Y129051D01*
X218129Y129937D01*
X216898Y130595D01*
X215562Y131000D01*
X214173Y131137D01*
X206299D01*
X204910Y131000D01*
X203574Y130595D01*
X202343Y129937D01*
X201264Y129051D01*
X200378Y127972D01*
X199720Y126741D01*
X199315Y125405D01*
X199178Y124016D01*
X199315Y122626D01*
X199720Y121291D01*
X200378Y120060D01*
X201264Y118981D01*
X202343Y118095D01*
X203574Y117437D01*
X204910Y117032D01*
X206299Y116895D01*
X214173D01*
X215562Y117032D01*
X216898Y117437D01*
X218129Y118095D01*
X218550Y118440D01*
X221762Y115227D01*
X221819Y115083D01*
X221791Y114244D01*
X221747Y114166D01*
X217730Y110150D01*
X216898Y110595D01*
X215562Y111000D01*
X214173Y111137D01*
X206299D01*
X204910Y111000D01*
X203574Y110595D01*
X202343Y109937D01*
X201264Y109051D01*
X200378Y107972D01*
X199720Y106741D01*
X199315Y105405D01*
X199178Y104016D01*
X199315Y102627D01*
X199720Y101291D01*
X200378Y100060D01*
X201264Y98980D01*
X202343Y98095D01*
X203574Y97437D01*
X204910Y97032D01*
X206299Y96895D01*
X209453D01*
X209906Y96107D01*
X209646Y95136D01*
Y93840D01*
X209981Y92589D01*
X210629Y91466D01*
X211544Y90551D01*
X210629Y89636D01*
X209981Y88514D01*
X209646Y87262D01*
Y85966D01*
X209981Y84715D01*
X210629Y83592D01*
X211545Y82676D01*
X212667Y82028D01*
X213919Y81693D01*
X215215D01*
X216466Y82028D01*
X217520Y82636D01*
X218573Y82028D01*
X219825Y81693D01*
X221120D01*
X222372Y82028D01*
X223494Y82676D01*
X224410Y83592D01*
X225058Y84715D01*
X225394Y85966D01*
Y87262D01*
X225058Y88514D01*
X224894Y88798D01*
X224985Y88982D01*
X225437Y89433D01*
X226486Y89152D01*
X227782D01*
X229033Y89487D01*
X230155Y90135D01*
X231072Y91051D01*
X231720Y92173D01*
X232055Y93425D01*
Y94721D01*
X231720Y95973D01*
X231481Y96386D01*
X232057Y96962D01*
X232352Y96792D01*
X233604Y96457D01*
X234900D01*
X236152Y96792D01*
X237274Y97440D01*
X237697Y97863D01*
X238120Y97440D01*
X239242Y96792D01*
X240494Y96457D01*
X241790D01*
X243041Y96792D01*
X244163Y97440D01*
X244587Y97863D01*
X245010Y97440D01*
X246132Y96792D01*
X247384Y96457D01*
X248679D01*
X249931Y96792D01*
X251053Y97440D01*
X251970Y98356D01*
X252617Y99478D01*
X252953Y100730D01*
Y102026D01*
X252617Y103278D01*
X251970Y104400D01*
X251053Y105316D01*
X249931Y105964D01*
X248679Y106299D01*
X247384D01*
X246132Y105964D01*
X245010Y105316D01*
X244587Y104893D01*
X244163Y105316D01*
X243041Y105964D01*
X241790Y106299D01*
X240494D01*
X239242Y105964D01*
X238120Y105316D01*
X237697Y104893D01*
X237274Y105316D01*
X236152Y105964D01*
X234900Y106299D01*
X233604D01*
X232352Y105964D01*
X231230Y105316D01*
X230807Y104893D01*
X230384Y105316D01*
X229262Y105964D01*
X228010Y106299D01*
X226714D01*
X225463Y105964D01*
X224341Y105316D01*
X223424Y104400D01*
X222776Y103278D01*
X222441Y102026D01*
Y100730D01*
X222700Y99765D01*
X222663Y99689D01*
X222162Y99187D01*
X222086Y99151D01*
X221120Y99410D01*
X220579D01*
X220329Y99745D01*
X220167Y100197D01*
X220752Y101291D01*
X221157Y102627D01*
X221294Y104016D01*
X221157Y105405D01*
X220752Y106741D01*
X220307Y107573D01*
X224101Y111367D01*
X229736D01*
X229736Y111367D01*
X230434Y111505D01*
X231025Y111900D01*
X237947Y118822D01*
X251255D01*
X251255Y118822D01*
X251952Y118961D01*
X252543Y119356D01*
X256898Y123711D01*
X256898Y123711D01*
X259999Y126812D01*
X259999Y126812D01*
X306345Y173158D01*
X322760D01*
X322771Y173104D01*
X323256Y171933D01*
X323960Y170879D01*
X324856Y169983D01*
X325909Y169279D01*
X327031Y168815D01*
X327094Y168648D01*
X327155Y167977D01*
X326810Y167778D01*
X326159Y167127D01*
X325699Y166330D01*
X325471Y165480D01*
X328957D01*
X332442D01*
X332214Y166330D01*
X331754Y167127D01*
X331103Y167778D01*
X330759Y167977D01*
X330820Y168648D01*
X330882Y168815D01*
X331755Y169176D01*
X332423Y168937D01*
X332641Y168758D01*
X332771Y168104D01*
X333256Y166933D01*
X333960Y165879D01*
X334856Y164983D01*
X335910Y164279D01*
X337031Y163815D01*
X337093Y163648D01*
X337155Y162977D01*
X336810Y162778D01*
X336159Y162127D01*
X335699Y161330D01*
X335471Y160480D01*
X338957D01*
X342442D01*
X342214Y161330D01*
X341754Y162127D01*
X341103Y162778D01*
X340759Y162977D01*
X340820Y163648D01*
X340882Y163815D01*
X342004Y164279D01*
X343057Y164983D01*
X343954Y165879D01*
X344658Y166933D01*
X345143Y168104D01*
X345390Y169347D01*
Y170614D01*
X345143Y171857D01*
X344658Y173028D01*
X343954Y174081D01*
X343057Y174977D01*
X342004Y175681D01*
X340833Y176166D01*
X340779Y176791D01*
X340640Y177489D01*
X340245Y178080D01*
X340245Y178080D01*
X334950Y183375D01*
X334359Y183770D01*
X333661Y183909D01*
D02*
G37*
G36*
X172758Y192494D02*
X171462D01*
X170210Y192158D01*
X169088Y191510D01*
X168172Y190594D01*
X167524Y189472D01*
X167189Y188220D01*
Y186924D01*
X167524Y185673D01*
X168172Y184551D01*
X169088Y183634D01*
X170210Y182986D01*
X171462Y182651D01*
X172758D01*
X174009Y182986D01*
X175131Y183634D01*
X176048Y184551D01*
X176696Y185673D01*
X177031Y186924D01*
Y188220D01*
X176696Y189472D01*
X176048Y190594D01*
X175131Y191510D01*
X174009Y192158D01*
X172758Y192494D01*
D02*
G37*
G36*
X149262Y189567D02*
X147982D01*
X146727Y189317D01*
X145545Y188828D01*
X144481Y188117D01*
X143576Y187212D01*
X142865Y186148D01*
X142376Y184966D01*
X142126Y183711D01*
Y182431D01*
X142376Y181176D01*
X142865Y179994D01*
X143576Y178930D01*
X144481Y178025D01*
X145545Y177314D01*
X146727Y176824D01*
X147982Y176575D01*
X149262D01*
X150517Y176824D01*
X151699Y177314D01*
X152763Y178025D01*
X153668Y178930D01*
X154379Y179994D01*
X154868Y181176D01*
X155118Y182431D01*
Y183711D01*
X154868Y184966D01*
X154379Y186148D01*
X153668Y187212D01*
X152763Y188117D01*
X151699Y188828D01*
X150517Y189317D01*
X149262Y189567D01*
D02*
G37*
G36*
X364824Y191004D02*
X363089D01*
X361375Y190733D01*
X359725Y190196D01*
X358179Y189409D01*
X356775Y188389D01*
X355548Y187162D01*
X354528Y185758D01*
X353741Y184212D01*
X353204Y182562D01*
X352933Y180848D01*
Y179113D01*
X353204Y177399D01*
X353741Y175749D01*
X354528Y174203D01*
X355548Y172799D01*
X356775Y171572D01*
X358179Y170552D01*
X359725Y169764D01*
X361375Y169228D01*
X363089Y168957D01*
X364824D01*
X366538Y169228D01*
X368188Y169764D01*
X369734Y170552D01*
X371138Y171572D01*
X372365Y172799D01*
X373385Y174203D01*
X374173Y175749D01*
X374709Y177399D01*
X374980Y179113D01*
Y180848D01*
X374709Y182562D01*
X374173Y184212D01*
X373385Y185758D01*
X372365Y187162D01*
X371138Y188389D01*
X369734Y189409D01*
X368188Y190196D01*
X366538Y190733D01*
X364824Y191004D01*
D02*
G37*
G36*
X328457Y164480D02*
X325471D01*
X325699Y163631D01*
X326159Y162834D01*
X326810Y162183D01*
X327607Y161723D01*
X328457Y161495D01*
Y164480D01*
D02*
G37*
G36*
X332442D02*
X329457D01*
Y161495D01*
X330306Y161723D01*
X331103Y162183D01*
X331754Y162834D01*
X332214Y163631D01*
X332442Y164480D01*
D02*
G37*
G36*
X139264Y154514D02*
X138618Y154341D01*
X137941Y153950D01*
X137388Y153398D01*
X137266Y153185D01*
X136356D01*
X136234Y153398D01*
X135681Y153950D01*
X135004Y154341D01*
X134358Y154514D01*
Y151575D01*
Y148636D01*
X135004Y148809D01*
X135681Y149199D01*
X136234Y149752D01*
X136356Y149965D01*
X137266D01*
X137388Y149752D01*
X137941Y149199D01*
X138618Y148809D01*
X139264Y148636D01*
Y151575D01*
Y154514D01*
D02*
G37*
G36*
X140264D02*
Y152075D01*
X142703D01*
X142530Y152721D01*
X142139Y153398D01*
X141586Y153950D01*
X140910Y154341D01*
X140264Y154514D01*
D02*
G37*
G36*
X133358D02*
X132712Y154341D01*
X132036Y153950D01*
X131483Y153398D01*
X131092Y152721D01*
X130919Y152075D01*
X133358D01*
Y154514D01*
D02*
G37*
G36*
X142703Y151075D02*
X140264D01*
Y148636D01*
X140910Y148809D01*
X141586Y149199D01*
X142139Y149752D01*
X142530Y150429D01*
X142703Y151075D01*
D02*
G37*
G36*
X133358D02*
X130919D01*
X131092Y150429D01*
X131483Y149752D01*
X132036Y149199D01*
X132712Y148809D01*
X133358Y148636D01*
Y151075D01*
D02*
G37*
G36*
X149262Y150197D02*
X147982D01*
X146727Y149947D01*
X145545Y149458D01*
X144481Y148747D01*
X143576Y147842D01*
X142865Y146778D01*
X142611Y146165D01*
X141683Y145980D01*
X141586Y146076D01*
X140910Y146467D01*
X140264Y146640D01*
Y143701D01*
Y140762D01*
X140910Y140935D01*
X141586Y141325D01*
X141683Y141421D01*
X142611Y141237D01*
X142865Y140624D01*
X143576Y139560D01*
X144481Y138655D01*
X145545Y137944D01*
X146727Y137454D01*
X147982Y137205D01*
X149262D01*
X150517Y137454D01*
X151699Y137944D01*
X152763Y138655D01*
X153668Y139560D01*
X154379Y140624D01*
X154868Y141806D01*
X155118Y143061D01*
Y144341D01*
X154868Y145596D01*
X154379Y146778D01*
X153668Y147842D01*
X152763Y148747D01*
X151699Y149458D01*
X150517Y149947D01*
X149262Y150197D01*
D02*
G37*
G36*
X139264Y146640D02*
X138618Y146467D01*
X137941Y146076D01*
X137388Y145524D01*
X137266Y145311D01*
X136356D01*
X136234Y145524D01*
X135681Y146076D01*
X135004Y146467D01*
X134358Y146640D01*
Y143701D01*
Y140762D01*
X135004Y140935D01*
X135681Y141325D01*
X136234Y141878D01*
X136356Y142091D01*
X137266D01*
X137388Y141878D01*
X137941Y141325D01*
X138618Y140935D01*
X139264Y140762D01*
Y143701D01*
Y146640D01*
D02*
G37*
G36*
X133358D02*
X132712Y146467D01*
X132036Y146076D01*
X131483Y145524D01*
X131092Y144847D01*
X130919Y144201D01*
X133358D01*
Y146640D01*
D02*
G37*
G36*
X214173Y151137D02*
X206299D01*
X204910Y151000D01*
X203574Y150595D01*
X202343Y149937D01*
X201264Y149051D01*
X200378Y147972D01*
X199720Y146741D01*
X199315Y145405D01*
X199178Y144016D01*
X199315Y142627D01*
X199720Y141291D01*
X200378Y140060D01*
X201264Y138980D01*
X202343Y138095D01*
X203574Y137437D01*
X204910Y137032D01*
X206299Y136895D01*
X214173D01*
X215562Y137032D01*
X216898Y137437D01*
X218129Y138095D01*
X219209Y138980D01*
X220094Y140060D01*
X220752Y141291D01*
X221157Y142627D01*
X221294Y144016D01*
X221157Y145405D01*
X220752Y146741D01*
X220094Y147972D01*
X219209Y149051D01*
X218129Y149937D01*
X216898Y150595D01*
X215562Y151000D01*
X214173Y151137D01*
D02*
G37*
G36*
X269843Y108662D02*
Y106223D01*
X272282D01*
X272109Y106869D01*
X271719Y107546D01*
X271166Y108099D01*
X270489Y108490D01*
X269843Y108662D01*
D02*
G37*
G36*
X268843D02*
X268197Y108490D01*
X267520Y108099D01*
X266968Y107546D01*
X266577Y106869D01*
X266404Y106223D01*
X268843D01*
Y108662D01*
D02*
G37*
G36*
X272282Y105223D02*
X269843D01*
Y102784D01*
X270489Y102957D01*
X271166Y103348D01*
X271719Y103901D01*
X272109Y104578D01*
X272282Y105223D01*
D02*
G37*
G36*
X268843D02*
X266404D01*
X266577Y104578D01*
X266968Y103901D01*
X267520Y103348D01*
X268197Y102957D01*
X268843Y102784D01*
Y105223D01*
D02*
G37*
G36*
X179594Y114334D02*
X178298D01*
X177046Y113999D01*
X175924Y113351D01*
X175008Y112435D01*
X174360Y111312D01*
X174024Y110061D01*
Y108765D01*
X174360Y107513D01*
X175008Y106391D01*
X175722Y105676D01*
X174854Y104808D01*
X174206Y103686D01*
X173871Y102434D01*
Y101138D01*
X174206Y99887D01*
X174854Y98764D01*
X175770Y97848D01*
X176892Y97200D01*
X178144Y96865D01*
X179440D01*
X180691Y97200D01*
X181814Y97848D01*
X182730Y98764D01*
X183378Y99887D01*
X183713Y101138D01*
Y102434D01*
X183378Y103686D01*
X182730Y104808D01*
X182015Y105523D01*
X182884Y106391D01*
X183531Y107513D01*
X183867Y108765D01*
Y110061D01*
X183531Y111312D01*
X182884Y112435D01*
X181967Y113351D01*
X180845Y113999D01*
X179594Y114334D01*
D02*
G37*
G36*
X219472Y76745D02*
X218827Y76572D01*
X218150Y76181D01*
X217597Y75628D01*
X217474Y75415D01*
X216565D01*
X216442Y75628D01*
X215890Y76181D01*
X215213Y76572D01*
X214567Y76745D01*
Y73805D01*
Y70866D01*
X215213Y71039D01*
X215890Y71430D01*
X216442Y71983D01*
X216565Y72195D01*
X217474D01*
X217597Y71983D01*
X218150Y71430D01*
X218827Y71039D01*
X219472Y70866D01*
Y73805D01*
Y76745D01*
D02*
G37*
G36*
X245563Y77742D02*
X244917Y77569D01*
X244240Y77179D01*
X243688Y76626D01*
X243297Y75949D01*
X243124Y75303D01*
X245563D01*
Y77742D01*
D02*
G37*
G36*
X252981Y77607D02*
Y75168D01*
X255420D01*
X255247Y75814D01*
X254856Y76491D01*
X254303Y77043D01*
X253626Y77434D01*
X252981Y77607D01*
D02*
G37*
G36*
X227378Y76745D02*
Y74305D01*
X229817D01*
X229644Y74951D01*
X229253Y75628D01*
X228701Y76181D01*
X228024Y76572D01*
X227378Y76745D01*
D02*
G37*
G36*
X226378D02*
X225732Y76572D01*
X225055Y76181D01*
X224503Y75628D01*
X224112Y74951D01*
X223939Y74305D01*
X226378D01*
Y76745D01*
D02*
G37*
G36*
X220472D02*
Y74305D01*
X222912D01*
X222739Y74951D01*
X222348Y75628D01*
X221795Y76181D01*
X221118Y76572D01*
X220472Y76745D01*
D02*
G37*
G36*
X213567D02*
X212921Y76572D01*
X212244Y76181D01*
X211691Y75628D01*
X211301Y74951D01*
X211128Y74305D01*
X213567D01*
Y76745D01*
D02*
G37*
G36*
X229817Y73305D02*
X227378D01*
Y70866D01*
X228024Y71039D01*
X228701Y71430D01*
X229253Y71983D01*
X229644Y72660D01*
X229817Y73305D01*
D02*
G37*
G36*
X226378D02*
X223939D01*
X224112Y72660D01*
X224503Y71983D01*
X225055Y71430D01*
X225732Y71039D01*
X226378Y70866D01*
Y73305D01*
D02*
G37*
G36*
X222912D02*
X220472D01*
Y70866D01*
X221118Y71039D01*
X221795Y71430D01*
X222348Y71983D01*
X222739Y72660D01*
X222912Y73305D01*
D02*
G37*
G36*
X213567D02*
X211128D01*
X211301Y72660D01*
X211691Y71983D01*
X212244Y71430D01*
X212921Y71039D01*
X213567Y70866D01*
Y73305D01*
D02*
G37*
G36*
X246563Y77742D02*
Y74803D01*
X246063D01*
Y74303D01*
X243124D01*
X243297Y73657D01*
X243688Y72980D01*
X244240Y72428D01*
X244453Y72305D01*
Y71396D01*
X244240Y71273D01*
X243688Y70720D01*
X243297Y70043D01*
X243124Y69398D01*
X249002D01*
X248829Y70043D01*
X248438Y70720D01*
X247886Y71273D01*
X247673Y71396D01*
Y72305D01*
X247886Y72428D01*
X248438Y72980D01*
X248829Y73657D01*
X248846Y73721D01*
X249661D01*
X249714Y73522D01*
X250105Y72845D01*
X250658Y72293D01*
X250990Y72101D01*
X251074Y71601D01*
X251061Y71213D01*
X251056Y71199D01*
X250577Y70720D01*
X250186Y70043D01*
X250013Y69398D01*
X255892D01*
X255719Y70043D01*
X255328Y70720D01*
X254776Y71273D01*
X254444Y71465D01*
X254359Y71965D01*
X254372Y72353D01*
X254378Y72367D01*
X254856Y72845D01*
X255247Y73522D01*
X255420Y74168D01*
X252481D01*
Y74668D01*
X251981D01*
Y77607D01*
X251335Y77434D01*
X250658Y77043D01*
X250105Y76491D01*
X249714Y75814D01*
X249697Y75751D01*
X248882D01*
X248829Y75949D01*
X248438Y76626D01*
X247886Y77179D01*
X247209Y77569D01*
X246563Y77742D01*
D02*
G37*
G36*
X255892Y68398D02*
X253453D01*
Y65958D01*
X254099Y66131D01*
X254776Y66522D01*
X255328Y67075D01*
X255719Y67752D01*
X255892Y68398D01*
D02*
G37*
G36*
X252453D02*
X250013D01*
X250186Y67752D01*
X250577Y67075D01*
X251130Y66522D01*
X251807Y66131D01*
X252453Y65958D01*
Y68398D01*
D02*
G37*
G36*
X249002D02*
X246563D01*
Y65958D01*
X247209Y66131D01*
X247886Y66522D01*
X248438Y67075D01*
X248829Y67752D01*
X249002Y68398D01*
D02*
G37*
G36*
X245563D02*
X243124D01*
X243297Y67752D01*
X243688Y67075D01*
X244240Y66522D01*
X244917Y66131D01*
X245563Y65958D01*
Y68398D01*
D02*
G37*
G36*
X338457Y149480D02*
X335471D01*
X335699Y148631D01*
X336159Y147834D01*
X336810Y147183D01*
X337607Y146722D01*
X338457Y146495D01*
Y149480D01*
D02*
G37*
G36*
X342442D02*
X339457D01*
Y146495D01*
X340306Y146722D01*
X341103Y147183D01*
X341754Y147834D01*
X342214Y148631D01*
X342442Y149480D01*
D02*
G37*
G36*
X329457Y148466D02*
Y145480D01*
X332442D01*
X332214Y146330D01*
X331754Y147127D01*
X331103Y147778D01*
X330306Y148238D01*
X329457Y148466D01*
D02*
G37*
G36*
X328457Y148466D02*
X327607Y148238D01*
X326810Y147778D01*
X326159Y147127D01*
X325699Y146330D01*
X325471Y145480D01*
X328457D01*
Y148466D01*
D02*
G37*
G36*
Y144480D02*
X325471D01*
X325699Y143631D01*
X326159Y142834D01*
X326810Y142183D01*
X327607Y141723D01*
X328457Y141495D01*
Y144480D01*
D02*
G37*
G36*
X332442D02*
X329457D01*
Y141495D01*
X330306Y141723D01*
X331103Y142183D01*
X331754Y142834D01*
X332214Y143631D01*
X332442Y144480D01*
D02*
G37*
G36*
X342453Y143476D02*
X339457D01*
Y140480D01*
X342453D01*
Y143476D01*
D02*
G37*
G36*
X338457D02*
X335461D01*
Y140480D01*
X338457D01*
Y143476D01*
D02*
G37*
G36*
X342453Y139480D02*
X339457D01*
Y136484D01*
X342453D01*
Y139480D01*
D02*
G37*
G36*
X338457D02*
X335461D01*
Y136484D01*
X338457D01*
Y139480D01*
D02*
G37*
G36*
X364824Y146004D02*
X363089D01*
X361375Y145732D01*
X359725Y145196D01*
X358179Y144409D01*
X356775Y143389D01*
X355548Y142162D01*
X354528Y140758D01*
X353741Y139212D01*
X353204Y137562D01*
X352933Y135848D01*
Y134113D01*
X353204Y132399D01*
X353741Y130749D01*
X354528Y129203D01*
X355548Y127799D01*
X356775Y126572D01*
X358179Y125552D01*
X359725Y124764D01*
X360755Y124430D01*
Y123602D01*
X359725Y123267D01*
X358179Y122479D01*
X356775Y121459D01*
X355548Y120233D01*
X354528Y118829D01*
X353741Y117283D01*
X353204Y115632D01*
X352933Y113919D01*
Y112184D01*
X353204Y110470D01*
X353741Y108820D01*
X354528Y107273D01*
X355548Y105870D01*
X356775Y104643D01*
X358179Y103623D01*
X359725Y102835D01*
X361375Y102299D01*
X363089Y102028D01*
X364824D01*
X366538Y102299D01*
X368188Y102835D01*
X369734Y103623D01*
X371138Y104643D01*
X372365Y105870D01*
X373385Y107273D01*
X374173Y108820D01*
X374709Y110470D01*
X374980Y112184D01*
Y113919D01*
X374709Y115632D01*
X374173Y117283D01*
X373385Y118829D01*
X372365Y120233D01*
X371138Y121459D01*
X369734Y122479D01*
X368188Y123267D01*
X367158Y123602D01*
Y124430D01*
X368188Y124764D01*
X369734Y125552D01*
X371138Y126572D01*
X372365Y127799D01*
X373385Y129203D01*
X374173Y130749D01*
X374709Y132399D01*
X374980Y134113D01*
Y135848D01*
X374709Y137562D01*
X374173Y139212D01*
X373385Y140758D01*
X372365Y142162D01*
X371138Y143389D01*
X369734Y144409D01*
X368188Y145196D01*
X366538Y145732D01*
X364824Y146004D01*
D02*
G37*
G36*
X329483Y92047D02*
X328431D01*
X327414Y91775D01*
X326503Y91249D01*
X325759Y90505D01*
X325233Y89594D01*
X324961Y88577D01*
Y87525D01*
X325233Y86509D01*
X325759Y85597D01*
X326503Y84854D01*
X327414Y84327D01*
X328431Y84055D01*
X329483D01*
X330499Y84327D01*
X331410Y84854D01*
X332154Y85597D01*
X332680Y86509D01*
X332953Y87525D01*
Y88577D01*
X332680Y89594D01*
X332154Y90505D01*
X331410Y91249D01*
X330499Y91775D01*
X329483Y92047D01*
D02*
G37*
G36*
X339457Y86537D02*
Y83551D01*
X342442D01*
X342214Y84401D01*
X341754Y85198D01*
X341103Y85849D01*
X340306Y86309D01*
X339457Y86537D01*
D02*
G37*
G36*
X338457D02*
X337607Y86309D01*
X336810Y85849D01*
X336159Y85198D01*
X335699Y84401D01*
X335471Y83551D01*
X338457D01*
Y86537D01*
D02*
G37*
G36*
X342442Y82551D02*
X339457D01*
Y79566D01*
X340306Y79793D01*
X341103Y80254D01*
X341754Y80905D01*
X342214Y81702D01*
X342442Y82551D01*
D02*
G37*
G36*
X338457D02*
X335471D01*
X335699Y81702D01*
X336159Y80905D01*
X336810Y80254D01*
X337607Y79793D01*
X338457Y79566D01*
Y82551D01*
D02*
G37*
G36*
X329457Y81537D02*
Y78551D01*
X332442D01*
X332214Y79401D01*
X331754Y80198D01*
X331103Y80849D01*
X330306Y81309D01*
X329457Y81537D01*
D02*
G37*
G36*
X328457D02*
X327607Y81309D01*
X326810Y80849D01*
X326159Y80198D01*
X325699Y79401D01*
X325471Y78551D01*
X328457D01*
Y81537D01*
D02*
G37*
G36*
X332442Y77551D02*
X329457D01*
Y74566D01*
X330306Y74793D01*
X331103Y75254D01*
X331754Y75905D01*
X332214Y76702D01*
X332442Y77551D01*
D02*
G37*
G36*
X328457D02*
X325471D01*
X325699Y76702D01*
X326159Y75905D01*
X326810Y75254D01*
X327607Y74793D01*
X328457Y74566D01*
Y77551D01*
D02*
G37*
G36*
X342453Y76547D02*
X339457D01*
Y73551D01*
X342453D01*
Y76547D01*
D02*
G37*
G36*
X338457D02*
X335461D01*
Y73551D01*
X338457D01*
Y76547D01*
D02*
G37*
G36*
X342453Y72551D02*
X339457D01*
Y69555D01*
X342453D01*
Y72551D01*
D02*
G37*
G36*
X338457D02*
X335461D01*
Y69555D01*
X338457D01*
Y72551D01*
D02*
G37*
G36*
X364824Y79075D02*
X363089D01*
X361375Y78803D01*
X359725Y78267D01*
X358179Y77479D01*
X356775Y76459D01*
X355548Y75233D01*
X354528Y73829D01*
X353741Y72283D01*
X353204Y70633D01*
X352933Y68919D01*
Y67184D01*
X353204Y65470D01*
X353741Y63820D01*
X354528Y62274D01*
X355548Y60870D01*
X356775Y59643D01*
X358179Y58623D01*
X359725Y57835D01*
X361375Y57299D01*
X363089Y57028D01*
X364824D01*
X366538Y57299D01*
X368188Y57835D01*
X369734Y58623D01*
X371138Y59643D01*
X372365Y60870D01*
X373385Y62274D01*
X374173Y63820D01*
X374709Y65470D01*
X374980Y67184D01*
Y68919D01*
X374709Y70633D01*
X374173Y72283D01*
X373385Y73829D01*
X372365Y75233D01*
X371138Y76459D01*
X369734Y77479D01*
X368188Y78267D01*
X366538Y78803D01*
X364824Y79075D01*
D02*
G37*
G36*
X354051Y44209D02*
X349713D01*
Y39870D01*
X354051D01*
Y44209D01*
D02*
G37*
G36*
X329850D02*
X329713D01*
Y39870D01*
X334051D01*
Y40007D01*
X333721Y41238D01*
X333084Y42341D01*
X332184Y43242D01*
X331080Y43879D01*
X329850Y44209D01*
D02*
G37*
G36*
X309850D02*
X309713D01*
Y39870D01*
X314051D01*
Y40007D01*
X313721Y41238D01*
X313084Y42341D01*
X312184Y43242D01*
X311080Y43879D01*
X309850Y44209D01*
D02*
G37*
G36*
X348713D02*
X344374D01*
Y39870D01*
X348713D01*
Y44209D01*
D02*
G37*
G36*
X328713D02*
X328576D01*
X327345Y43879D01*
X326242Y43242D01*
X325341Y42341D01*
X324704Y41238D01*
X324374Y40007D01*
Y39870D01*
X328713D01*
Y44209D01*
D02*
G37*
G36*
X308713D02*
X308576D01*
X307345Y43879D01*
X306242Y43242D01*
X305341Y42341D01*
X304704Y41238D01*
X304374Y40007D01*
Y39870D01*
X308713D01*
Y44209D01*
D02*
G37*
G36*
X354051Y38870D02*
X349713D01*
Y34532D01*
X354051D01*
Y38870D01*
D02*
G37*
G36*
X348713D02*
X344374D01*
Y34532D01*
X348713D01*
Y38870D01*
D02*
G37*
G36*
X334051D02*
X329713D01*
Y34532D01*
X329850D01*
X331080Y34861D01*
X332184Y35498D01*
X333084Y36399D01*
X333721Y37503D01*
X334051Y38733D01*
Y38870D01*
D02*
G37*
G36*
X328713D02*
X324374D01*
Y38733D01*
X324704Y37503D01*
X325341Y36399D01*
X326242Y35498D01*
X327345Y34861D01*
X328576Y34532D01*
X328713D01*
Y38870D01*
D02*
G37*
G36*
X314051D02*
X309713D01*
Y34532D01*
X309850D01*
X311080Y34861D01*
X312184Y35498D01*
X313084Y36399D01*
X313721Y37503D01*
X314051Y38733D01*
Y38870D01*
D02*
G37*
G36*
X308713D02*
X304374D01*
Y38733D01*
X304704Y37503D01*
X305341Y36399D01*
X306242Y35498D01*
X307345Y34861D01*
X308576Y34532D01*
X308713D01*
Y38870D01*
D02*
G37*
G36*
X289915Y44709D02*
X288510D01*
X287152Y44345D01*
X285935Y43642D01*
X284941Y42648D01*
X284238Y41431D01*
X283874Y40073D01*
Y38667D01*
X284238Y37310D01*
X284941Y36092D01*
X285935Y35098D01*
X287152Y34395D01*
X288510Y34032D01*
X289915D01*
X291273Y34395D01*
X292491Y35098D01*
X293484Y36092D01*
X294187Y37310D01*
X294551Y38667D01*
Y40073D01*
X294187Y41431D01*
X293484Y42648D01*
X292491Y43642D01*
X291273Y44345D01*
X289915Y44709D01*
D02*
G37*
G36*
X269915D02*
X268510D01*
X267152Y44345D01*
X265935Y43642D01*
X264941Y42648D01*
X264238Y41431D01*
X263874Y40073D01*
Y38667D01*
X264238Y37310D01*
X264941Y36092D01*
X265935Y35098D01*
X267152Y34395D01*
X268510Y34032D01*
X269915D01*
X271273Y34395D01*
X272491Y35098D01*
X273484Y36092D01*
X274187Y37310D01*
X274551Y38667D01*
Y40073D01*
X274187Y41431D01*
X273484Y42648D01*
X272491Y43642D01*
X271273Y44345D01*
X269915Y44709D01*
D02*
G37*
G36*
X249915D02*
X248510D01*
X247152Y44345D01*
X245935Y43642D01*
X244941Y42648D01*
X244238Y41431D01*
X243874Y40073D01*
Y38667D01*
X244238Y37310D01*
X244941Y36092D01*
X245935Y35098D01*
X247152Y34395D01*
X248510Y34032D01*
X249915D01*
X251273Y34395D01*
X252491Y35098D01*
X253485Y36092D01*
X254187Y37310D01*
X254551Y38667D01*
Y40073D01*
X254187Y41431D01*
X253485Y42648D01*
X252491Y43642D01*
X251273Y44345D01*
X249915Y44709D01*
D02*
G37*
G36*
X232870Y20201D02*
X231697D01*
X230565Y19897D01*
X229549Y19311D01*
X228720Y18482D01*
X228285Y17728D01*
X227529Y17655D01*
X227394Y17697D01*
X227257Y17933D01*
X226595Y18596D01*
X225783Y19064D01*
X224909Y19299D01*
Y15748D01*
Y12197D01*
X225783Y12432D01*
X226595Y12900D01*
X227257Y13563D01*
X227394Y13799D01*
X227529Y13841D01*
X228285Y13768D01*
X228720Y13014D01*
X229549Y12185D01*
X230565Y11599D01*
X231697Y11295D01*
X232870D01*
X234002Y11599D01*
X235017Y12185D01*
X235846Y13014D01*
X236433Y14029D01*
X236736Y15162D01*
Y16334D01*
X236433Y17467D01*
X235846Y18482D01*
X235017Y19311D01*
X234002Y19897D01*
X232870Y20201D01*
D02*
G37*
G36*
X315445Y96443D02*
X314799Y96270D01*
X314122Y95879D01*
X313569Y95327D01*
X313179Y94650D01*
X313006Y94004D01*
X315445D01*
Y96443D01*
D02*
G37*
G36*
X309555D02*
Y94004D01*
X311994D01*
X311821Y94650D01*
X311431Y95327D01*
X310878Y95879D01*
X310201Y96270D01*
X309555Y96443D01*
D02*
G37*
G36*
X308555D02*
X307909Y96270D01*
X307232Y95879D01*
X306680Y95327D01*
X306289Y94650D01*
X306116Y94004D01*
X308555D01*
Y96443D01*
D02*
G37*
G36*
X311994Y93004D02*
X306116D01*
X306289Y92358D01*
X306680Y91681D01*
X307232Y91128D01*
X307445Y91006D01*
Y90097D01*
X307232Y89974D01*
X306680Y89421D01*
X306289Y88744D01*
X306116Y88098D01*
X311994D01*
X311821Y88744D01*
X311431Y89421D01*
X310878Y89974D01*
X310665Y90097D01*
Y91006D01*
X310878Y91128D01*
X311431Y91681D01*
X311821Y92358D01*
X311994Y93004D01*
D02*
G37*
G36*
Y87098D02*
X306116D01*
X306289Y86453D01*
X306680Y85776D01*
X307232Y85223D01*
X307445Y85100D01*
Y84191D01*
X307232Y84068D01*
X306680Y83516D01*
X306289Y82839D01*
X306116Y82193D01*
X311994D01*
X311821Y82839D01*
X311431Y83516D01*
X310878Y84068D01*
X310665Y84191D01*
Y85100D01*
X310878Y85223D01*
X311431Y85776D01*
X311821Y86453D01*
X311994Y87098D01*
D02*
G37*
G36*
X315445Y81193D02*
X313006D01*
X313179Y80547D01*
X313569Y79870D01*
X314122Y79317D01*
X314799Y78927D01*
X315445Y78754D01*
Y81193D01*
D02*
G37*
G36*
X311994D02*
X309555D01*
Y78754D01*
X310201Y78927D01*
X310878Y79317D01*
X311431Y79870D01*
X311821Y80547D01*
X311994Y81193D01*
D02*
G37*
G36*
X308555D02*
X306116D01*
X306289Y80547D01*
X306680Y79870D01*
X307232Y79317D01*
X307909Y78927D01*
X308555Y78754D01*
Y81193D01*
D02*
G37*
G36*
X65476Y57157D02*
X59597D01*
X59771Y56511D01*
X60161Y55834D01*
X60714Y55281D01*
X61391Y54891D01*
X61774Y54788D01*
Y53973D01*
X61274Y53839D01*
X60597Y53448D01*
X60045Y52896D01*
X59654Y52219D01*
X59481Y51573D01*
X65359D01*
X65186Y52219D01*
X64796Y52896D01*
X64243Y53448D01*
X63566Y53839D01*
X63183Y53942D01*
Y54757D01*
X63683Y54891D01*
X64359Y55281D01*
X64912Y55834D01*
X65303Y56511D01*
X65476Y57157D01*
D02*
G37*
G36*
X35131Y50365D02*
Y47926D01*
X37570D01*
X37397Y48572D01*
X37006Y49249D01*
X36454Y49801D01*
X35777Y50192D01*
X35131Y50365D01*
D02*
G37*
G36*
X200287Y19701D02*
X200267D01*
X199262Y19431D01*
X198360Y18911D01*
X197624Y18175D01*
X197104Y17274D01*
X196835Y16268D01*
Y16248D01*
X200287D01*
Y19701D01*
D02*
G37*
G36*
Y15248D02*
X196835D01*
Y15228D01*
X197104Y14222D01*
X197624Y13321D01*
X198360Y12585D01*
X199262Y12065D01*
X200267Y11795D01*
X200287D01*
Y15248D01*
D02*
G37*
G36*
X44815Y26116D02*
X42346D01*
Y22821D01*
X44815D01*
Y26116D01*
D02*
G37*
G36*
X41346D02*
X38878D01*
Y22821D01*
X41346D01*
Y26116D01*
D02*
G37*
G36*
X67429Y22624D02*
Y20185D01*
X69868D01*
X69695Y20831D01*
X69305Y21508D01*
X68752Y22060D01*
X68075Y22451D01*
X67429Y22624D01*
D02*
G37*
G36*
X66429D02*
X65783Y22451D01*
X65106Y22060D01*
X64554Y21508D01*
X64163Y20831D01*
X63990Y20185D01*
X66429D01*
Y22624D01*
D02*
G37*
G36*
X60539D02*
Y20185D01*
X62979D01*
X62806Y20831D01*
X62415Y21508D01*
X61862Y22060D01*
X61185Y22451D01*
X60539Y22624D01*
D02*
G37*
G36*
X59539D02*
X58894Y22451D01*
X58217Y22060D01*
X57664Y21508D01*
X57273Y20831D01*
X57100Y20185D01*
X59539D01*
Y22624D01*
D02*
G37*
G36*
X53650D02*
Y20185D01*
X56089D01*
X55916Y20831D01*
X55525Y21508D01*
X54972Y22060D01*
X54295Y22451D01*
X53650Y22624D01*
D02*
G37*
G36*
X52650D02*
X52004Y22451D01*
X51327Y22060D01*
X50774Y21508D01*
X50383Y20831D01*
X50210Y20185D01*
X52650D01*
Y22624D01*
D02*
G37*
G36*
X44815Y21821D02*
X42346D01*
Y18526D01*
X44815D01*
Y21821D01*
D02*
G37*
G36*
X41346D02*
X38878D01*
Y18526D01*
X41346D01*
Y21821D01*
D02*
G37*
G36*
X69868Y19185D02*
X63990D01*
X64163Y18539D01*
X64554Y17862D01*
X65106Y17310D01*
X65319Y17187D01*
Y16278D01*
X65106Y16155D01*
X64554Y15602D01*
X64163Y14925D01*
X63990Y14279D01*
X69868D01*
X69695Y14925D01*
X69305Y15602D01*
X68752Y16155D01*
X68539Y16278D01*
Y17187D01*
X68752Y17310D01*
X69305Y17862D01*
X69695Y18539D01*
X69868Y19185D01*
D02*
G37*
G36*
X62979D02*
X57100D01*
X57273Y18539D01*
X57664Y17862D01*
X58217Y17310D01*
X58429Y17187D01*
Y16278D01*
X58217Y16155D01*
X57664Y15602D01*
X57273Y14925D01*
X57100Y14279D01*
X62979D01*
X62806Y14925D01*
X62415Y15602D01*
X61862Y16155D01*
X61650Y16278D01*
Y17187D01*
X61862Y17310D01*
X62415Y17862D01*
X62806Y18539D01*
X62979Y19185D01*
D02*
G37*
G36*
X56089D02*
X50210D01*
X50383Y18539D01*
X50774Y17862D01*
X51327Y17310D01*
X51539Y17187D01*
Y16278D01*
X51327Y16155D01*
X50774Y15602D01*
X50383Y14925D01*
X50210Y14279D01*
X56089D01*
X55916Y14925D01*
X55525Y15602D01*
X54972Y16155D01*
X54760Y16278D01*
Y17187D01*
X54972Y17310D01*
X55525Y17862D01*
X55916Y18539D01*
X56089Y19185D01*
D02*
G37*
G36*
X69868Y13280D02*
X67429D01*
Y10840D01*
X68075Y11013D01*
X68752Y11404D01*
X69305Y11957D01*
X69695Y12634D01*
X69868Y13280D01*
D02*
G37*
G36*
X66429D02*
X63990D01*
X64163Y12634D01*
X64554Y11957D01*
X65106Y11404D01*
X65783Y11013D01*
X66429Y10840D01*
Y13280D01*
D02*
G37*
G36*
X62979D02*
X60539D01*
Y10840D01*
X61185Y11013D01*
X61862Y11404D01*
X62415Y11957D01*
X62806Y12634D01*
X62979Y13280D01*
D02*
G37*
G36*
X59539D02*
X57100D01*
X57273Y12634D01*
X57664Y11957D01*
X58217Y11404D01*
X58894Y11013D01*
X59539Y10840D01*
Y13280D01*
D02*
G37*
G36*
X56089D02*
X53650D01*
Y10840D01*
X54295Y11013D01*
X54972Y11404D01*
X55525Y11957D01*
X55916Y12634D01*
X56089Y13280D01*
D02*
G37*
G36*
X52650D02*
X50210D01*
X50383Y12634D01*
X50774Y11957D01*
X51327Y11404D01*
X52004Y11013D01*
X52650Y10840D01*
Y13280D01*
D02*
G37*
%LPD*%
D15*
X254543Y127575D02*
X309055Y182087D01*
X254543Y127575D02*
X255413Y128445D01*
X250000Y123031D02*
X254543Y127575D01*
X236221Y123031D02*
X250000D01*
X229331Y116142D02*
X236221Y123031D01*
X229736Y113189D02*
X237192Y120645D01*
X251255D01*
X255610Y125000D02*
X258710Y128101D01*
X305590Y174980D01*
X223425Y116142D02*
X229331D01*
X223346Y113189D02*
X229736D01*
X251255Y120645D02*
X255610Y125000D01*
X215551Y124016D02*
X223425Y116142D01*
X210236Y124016D02*
X215551D01*
X211403Y104016D02*
X214173D01*
X223346Y113189D01*
X115366Y100111D02*
X123614D01*
X124803Y96063D02*
X127118Y98378D01*
X118110Y96063D02*
X124803D01*
X118110Y81496D02*
X124016D01*
X107329Y88433D02*
X114959Y96063D01*
X107329Y75901D02*
Y88433D01*
X109903Y87271D02*
X112397Y89764D01*
X118110D01*
X104754Y74835D02*
Y89499D01*
X109903Y76968D02*
Y87271D01*
X102179Y73768D02*
Y90566D01*
X114037Y72835D02*
X128130D01*
X119147Y102686D02*
X121968Y105507D01*
X114299Y102686D02*
X119147D01*
X123614Y100111D02*
X124543Y101041D01*
X117707Y106961D02*
X117971D01*
X81693Y23268D02*
Y28994D01*
X84843Y22953D02*
Y28502D01*
X78110Y19685D02*
X81693Y23268D01*
X84843Y22953D02*
X88110Y19685D01*
X111788Y55448D02*
Y67801D01*
X109213Y56514D02*
Y66734D01*
X26913Y56108D02*
X29860Y59055D01*
X101910Y63444D02*
Y66397D01*
X95607Y62992D02*
Y66795D01*
X101910Y63444D02*
X102362Y62992D01*
X104766Y44726D02*
X114363Y54323D01*
X81693Y28994D02*
X109213Y56514D01*
X84843Y28502D02*
X111788Y55448D01*
X104766Y27762D02*
Y44726D01*
X56102Y57677D02*
Y63878D01*
X45276Y46850D02*
X56102Y57677D01*
X93504Y68898D02*
X95607Y66795D01*
X114363Y54323D02*
Y68867D01*
X60055Y71472D02*
X96835D01*
X124016Y81496D02*
X129693Y87173D01*
X128130Y72835D02*
X132268Y76972D01*
X125000Y51181D02*
X134843Y61024D01*
X121968Y105507D02*
Y127021D01*
X124543Y101041D02*
Y128087D01*
X127118Y98378D02*
Y129154D01*
X129693Y87173D02*
Y130220D01*
X132268Y76972D02*
Y131287D01*
X134843Y61024D02*
Y134843D01*
X120709Y131921D02*
X124543Y128087D01*
X119643Y129347D02*
X121968Y127021D01*
X131890Y177953D02*
Y212598D01*
X116729Y184413D02*
X126104Y193788D01*
X116729Y146825D02*
Y184413D01*
X102362Y157551D02*
X129693Y130220D01*
X40833Y59055D02*
X91030Y109252D01*
X40144Y62008D02*
X89994Y111857D01*
X26908Y65945D02*
X30845Y62008D01*
X29860Y59055D02*
X40833D01*
X30845Y62008D02*
X40144D01*
X122047Y147638D02*
X134843Y134843D01*
X116729Y146825D02*
X132268Y131287D01*
X118490Y131921D02*
X120709D01*
X86980Y169291D02*
X127118Y129154D01*
X90982Y129347D02*
X119643D01*
X53150Y169291D02*
X86980D01*
X107283Y142717D02*
X112205Y137795D01*
X84836Y131921D02*
X118490D01*
X86312Y124677D02*
X90982Y129347D01*
X82120Y129206D02*
X84836Y131921D01*
X81481Y129206D02*
X82120D01*
X76962Y124677D02*
X86312D01*
X75121Y126518D02*
X76962Y124677D01*
X75121Y126518D02*
Y128480D01*
X74669Y128931D02*
X75121Y128480D01*
X60039Y142717D02*
X107283D01*
X61122Y68898D02*
X93504D01*
X107329Y75901D02*
X114363Y68867D01*
X104754Y74835D02*
X111788Y67801D01*
X109903Y76968D02*
X114037Y72835D01*
X124016Y170079D02*
X131890Y177953D01*
X102179Y73768D02*
X109213Y66734D01*
X115400Y111857D02*
X118110Y114567D01*
X115416Y109252D02*
X117707Y106961D01*
X91030Y109252D02*
X115416D01*
X89994Y111857D02*
X115400D01*
X102179Y90566D02*
X114299Y102686D01*
X114959Y96063D02*
X118110D01*
X104754Y89499D02*
X115366Y100111D01*
X96835Y71472D02*
X101910Y66397D01*
X135231Y215940D02*
X143903D01*
X144095Y215748D01*
X131890Y212598D02*
X135231Y215940D01*
X20506Y66108D02*
X20669Y65945D01*
X19883Y66108D02*
X20506D01*
X20669Y65945D02*
X26908D01*
X56102Y63878D02*
X61122Y68898D01*
X45276Y33858D02*
Y46850D01*
X19883Y56108D02*
X26913D01*
X46850Y58268D02*
X60055Y71472D01*
X338957Y103051D02*
Y110846D01*
X313647Y108051D02*
X328957D01*
X188387Y60124D02*
X196345Y52165D01*
X305590Y174980D02*
X328957D01*
X254809Y49213D02*
X313647Y108051D01*
X253370Y52165D02*
X314394Y113189D01*
X211403Y104016D02*
X216132Y108744D01*
X210236Y104016D02*
X211403D01*
X314394Y113189D02*
X336614D01*
X309055Y182087D02*
X333661D01*
X338957Y176791D01*
X336614Y113189D02*
X338957Y110846D01*
X196345Y52165D02*
X253370D01*
X197476Y49213D02*
X254809D01*
X188387Y40124D02*
X197476Y49213D01*
X338957Y169980D02*
Y176791D01*
X102362Y157551D02*
Y223228D01*
X109213Y230079D01*
X126104Y193788D02*
Y253817D01*
X27559Y267717D02*
X112205D01*
X126104Y253817D01*
X109213Y230079D02*
X116142D01*
X24275Y324410D02*
X34252D01*
X16732Y278543D02*
X27559Y267717D01*
X16732Y316866D02*
X24275Y324410D01*
X16732Y278543D02*
Y316866D01*
D26*
X41846Y22321D02*
D03*
X32004D02*
D03*
D106*
X32480Y23625D02*
Y42341D01*
X32004Y22321D02*
Y23148D01*
X32480Y23625D01*
X29090Y45731D02*
X32480Y42341D01*
X20259Y45731D02*
X29090D01*
X19883Y46108D02*
X20259Y45731D01*
X251211Y352008D02*
X251362Y352160D01*
X212857Y352008D02*
X251211D01*
D107*
X338957Y139980D02*
D03*
Y73051D02*
D03*
D108*
X328957Y144980D02*
D03*
X338957Y149980D02*
D03*
X328957Y154980D02*
D03*
X338957Y159980D02*
D03*
X328957Y164980D02*
D03*
X338957Y169980D02*
D03*
X328957Y174980D02*
D03*
Y78051D02*
D03*
X338957Y83051D02*
D03*
X328957Y88051D02*
D03*
X338957Y93051D02*
D03*
X328957Y98051D02*
D03*
X338957Y103051D02*
D03*
X328957Y108051D02*
D03*
D109*
X363957Y134980D02*
D03*
Y179980D02*
D03*
Y68051D02*
D03*
Y113051D02*
D03*
D110*
X68779Y331693D02*
D03*
X73504Y336417D02*
D03*
X68779D02*
D03*
X64055D02*
D03*
Y326969D02*
D03*
X68779D02*
D03*
X73504D02*
D03*
X390170Y3384D02*
D03*
X20669Y390748D02*
D03*
X17717D02*
D03*
X14764D02*
D03*
X11811D02*
D03*
X8858D02*
D03*
X5906D02*
D03*
X2953D02*
D03*
Y387795D02*
D03*
Y384842D02*
D03*
Y381890D02*
D03*
Y378937D02*
D03*
Y375984D02*
D03*
Y373031D02*
D03*
X390748Y6890D02*
D03*
Y9843D02*
D03*
Y12795D02*
D03*
Y15748D02*
D03*
Y18701D02*
D03*
Y21654D02*
D03*
X386811Y2953D02*
D03*
X383858D02*
D03*
X380906D02*
D03*
X377953D02*
D03*
X375000D02*
D03*
X372047D02*
D03*
X2953Y20669D02*
D03*
Y17717D02*
D03*
Y5906D02*
D03*
Y14764D02*
D03*
Y11811D02*
D03*
Y8858D02*
D03*
X5906Y2953D02*
D03*
X8858D02*
D03*
X11811D02*
D03*
X14764D02*
D03*
X17717D02*
D03*
X20669D02*
D03*
X23622D02*
D03*
X58784Y2979D02*
D03*
X56102Y2953D02*
D03*
X53150D02*
D03*
X50197D02*
D03*
X47244D02*
D03*
X44291D02*
D03*
X41339D02*
D03*
X38386D02*
D03*
X35433D02*
D03*
X32480D02*
D03*
X29528D02*
D03*
X26575D02*
D03*
X2953Y346457D02*
D03*
Y311024D02*
D03*
Y331693D02*
D03*
Y334646D02*
D03*
Y337598D02*
D03*
Y340551D02*
D03*
Y343504D02*
D03*
Y370079D02*
D03*
Y299213D02*
D03*
Y296260D02*
D03*
Y293307D02*
D03*
Y290354D02*
D03*
Y287402D02*
D03*
Y284449D02*
D03*
Y281496D02*
D03*
Y278543D02*
D03*
Y275590D02*
D03*
Y272638D02*
D03*
Y266732D02*
D03*
Y263779D02*
D03*
Y260827D02*
D03*
Y257874D02*
D03*
Y254921D02*
D03*
Y251969D02*
D03*
Y249016D02*
D03*
Y246063D02*
D03*
Y243110D02*
D03*
Y240158D02*
D03*
Y237205D02*
D03*
Y234252D02*
D03*
Y231299D02*
D03*
Y228346D02*
D03*
Y222441D02*
D03*
Y219488D02*
D03*
Y216535D02*
D03*
Y213583D02*
D03*
Y210630D02*
D03*
Y207677D02*
D03*
Y204724D02*
D03*
Y201772D02*
D03*
Y198819D02*
D03*
Y195866D02*
D03*
Y192913D02*
D03*
Y189961D02*
D03*
Y187008D02*
D03*
Y184055D02*
D03*
Y225394D02*
D03*
X106299Y2953D02*
D03*
X103347D02*
D03*
X100394D02*
D03*
X97441D02*
D03*
X94488D02*
D03*
X91535D02*
D03*
X88583D02*
D03*
X85630D02*
D03*
X82677D02*
D03*
X79724D02*
D03*
X76772D02*
D03*
X73819D02*
D03*
X70866D02*
D03*
X67913D02*
D03*
X64961D02*
D03*
X62008D02*
D03*
X2953Y151575D02*
D03*
Y136811D02*
D03*
Y142717D02*
D03*
Y169291D02*
D03*
Y139764D02*
D03*
Y127953D02*
D03*
Y130905D02*
D03*
Y178150D02*
D03*
Y175197D02*
D03*
Y172244D02*
D03*
Y133858D02*
D03*
Y181102D02*
D03*
Y166339D02*
D03*
Y163386D02*
D03*
Y160433D02*
D03*
Y148622D02*
D03*
Y157480D02*
D03*
Y154528D02*
D03*
Y145669D02*
D03*
Y125000D02*
D03*
Y122047D02*
D03*
Y119095D02*
D03*
Y116142D02*
D03*
Y113189D02*
D03*
Y110236D02*
D03*
Y107283D02*
D03*
Y104331D02*
D03*
Y101378D02*
D03*
Y98425D02*
D03*
Y95472D02*
D03*
Y92520D02*
D03*
Y89567D02*
D03*
Y86614D02*
D03*
Y83661D02*
D03*
Y80709D02*
D03*
Y77756D02*
D03*
Y74803D02*
D03*
Y71850D02*
D03*
Y68898D02*
D03*
Y48228D02*
D03*
Y62992D02*
D03*
Y45276D02*
D03*
Y65945D02*
D03*
Y42323D02*
D03*
Y30512D02*
D03*
Y33465D02*
D03*
Y36417D02*
D03*
Y39370D02*
D03*
Y51181D02*
D03*
Y27559D02*
D03*
Y54134D02*
D03*
Y57087D02*
D03*
Y24606D02*
D03*
Y2953D02*
D03*
Y60039D02*
D03*
Y316929D02*
D03*
Y367126D02*
D03*
Y325787D02*
D03*
Y364173D02*
D03*
Y361221D02*
D03*
Y358268D02*
D03*
Y322835D02*
D03*
Y319882D02*
D03*
Y328740D02*
D03*
Y313976D02*
D03*
Y308071D02*
D03*
Y305118D02*
D03*
Y349410D02*
D03*
Y355315D02*
D03*
Y302165D02*
D03*
Y352362D02*
D03*
X200787Y390748D02*
D03*
X203740D02*
D03*
X194882D02*
D03*
X174213D02*
D03*
X168307D02*
D03*
X206693D02*
D03*
X177165D02*
D03*
X171260D02*
D03*
X180118D02*
D03*
X183071D02*
D03*
X186024D02*
D03*
X188976D02*
D03*
X191929D02*
D03*
X197835D02*
D03*
X165354D02*
D03*
X162402D02*
D03*
X159449D02*
D03*
X156496D02*
D03*
X150591D02*
D03*
X147638D02*
D03*
X129921D02*
D03*
X124016D02*
D03*
X126969D02*
D03*
X135827D02*
D03*
X138779D02*
D03*
X115157D02*
D03*
X112205D02*
D03*
X153543D02*
D03*
X141732D02*
D03*
X132874D02*
D03*
X118110D02*
D03*
X121063D02*
D03*
X109252D02*
D03*
X144685D02*
D03*
X390748Y166339D02*
D03*
Y163386D02*
D03*
Y160433D02*
D03*
Y157480D02*
D03*
Y154528D02*
D03*
Y151575D02*
D03*
Y148622D02*
D03*
Y145669D02*
D03*
Y142717D02*
D03*
Y139764D02*
D03*
Y136811D02*
D03*
Y133858D02*
D03*
Y130905D02*
D03*
Y127953D02*
D03*
Y125000D02*
D03*
Y122047D02*
D03*
Y119095D02*
D03*
Y116142D02*
D03*
Y113189D02*
D03*
Y110236D02*
D03*
Y107283D02*
D03*
Y104331D02*
D03*
Y101378D02*
D03*
X390748Y201772D02*
D03*
Y198819D02*
D03*
Y195866D02*
D03*
Y192913D02*
D03*
Y189961D02*
D03*
X390748Y187008D02*
D03*
Y184055D02*
D03*
Y181102D02*
D03*
Y178150D02*
D03*
Y175197D02*
D03*
Y172244D02*
D03*
Y169291D02*
D03*
X390748Y98425D02*
D03*
Y95472D02*
D03*
Y92520D02*
D03*
Y89567D02*
D03*
Y86614D02*
D03*
Y83661D02*
D03*
Y80709D02*
D03*
Y77756D02*
D03*
Y74803D02*
D03*
Y71850D02*
D03*
Y68898D02*
D03*
Y65945D02*
D03*
Y62992D02*
D03*
Y60039D02*
D03*
Y57087D02*
D03*
Y54134D02*
D03*
Y51181D02*
D03*
Y48228D02*
D03*
Y45276D02*
D03*
Y42323D02*
D03*
Y39370D02*
D03*
Y36417D02*
D03*
Y33465D02*
D03*
Y30512D02*
D03*
Y27559D02*
D03*
Y24606D02*
D03*
X369094Y2953D02*
D03*
X366142D02*
D03*
X363189D02*
D03*
X360236D02*
D03*
X357283D02*
D03*
X354331D02*
D03*
X351378D02*
D03*
X348425D02*
D03*
X345472D02*
D03*
X342520D02*
D03*
X339567D02*
D03*
X333661D02*
D03*
X336614D02*
D03*
X327756D02*
D03*
X324803D02*
D03*
X321850D02*
D03*
X310039D02*
D03*
X330709D02*
D03*
X298228D02*
D03*
X304134D02*
D03*
X301181D02*
D03*
X318898D02*
D03*
X295276D02*
D03*
X292323D02*
D03*
X315945D02*
D03*
X312992D02*
D03*
X307087D02*
D03*
X289370D02*
D03*
X286417D02*
D03*
X274606D02*
D03*
X268701D02*
D03*
X271654D02*
D03*
X253937D02*
D03*
X233268D02*
D03*
X242126D02*
D03*
X221457D02*
D03*
X215551D02*
D03*
X209646D02*
D03*
X206693D02*
D03*
X203740D02*
D03*
X194882D02*
D03*
X180118D02*
D03*
X259842D02*
D03*
X265748D02*
D03*
X165354D02*
D03*
X168307D02*
D03*
X174213D02*
D03*
X171260D02*
D03*
X200787D02*
D03*
X250984D02*
D03*
X262795D02*
D03*
X236221D02*
D03*
X183071D02*
D03*
X224409D02*
D03*
X186024D02*
D03*
X177165D02*
D03*
X256890D02*
D03*
X277559D02*
D03*
X280512D02*
D03*
X227362D02*
D03*
X283465D02*
D03*
X230315D02*
D03*
X188976D02*
D03*
X248031D02*
D03*
X197835D02*
D03*
X239173D02*
D03*
X191929D02*
D03*
X245079D02*
D03*
X212598D02*
D03*
X162402D02*
D03*
X159449D02*
D03*
X156496D02*
D03*
X218504D02*
D03*
X153543D02*
D03*
X150591D02*
D03*
X147638D02*
D03*
X144685D02*
D03*
X141732D02*
D03*
X138779D02*
D03*
X135827D02*
D03*
X132874D02*
D03*
X129921D02*
D03*
X126969D02*
D03*
X124016D02*
D03*
X121063D02*
D03*
X118110D02*
D03*
X115157D02*
D03*
X112205D02*
D03*
X109252D02*
D03*
X106299Y390748D02*
D03*
X103347D02*
D03*
X100394D02*
D03*
X97441D02*
D03*
X94488D02*
D03*
X91535D02*
D03*
X88583D02*
D03*
X85630D02*
D03*
X82677D02*
D03*
X79724D02*
D03*
X76772D02*
D03*
X73819D02*
D03*
X70866D02*
D03*
X67913D02*
D03*
X2953Y269685D02*
D03*
X64961Y390748D02*
D03*
X62008D02*
D03*
X59055D02*
D03*
X56102D02*
D03*
X53150D02*
D03*
X50197D02*
D03*
X47244D02*
D03*
X44291D02*
D03*
X41339D02*
D03*
X38386D02*
D03*
X35433D02*
D03*
X32480D02*
D03*
X29528D02*
D03*
X26575D02*
D03*
X23622D02*
D03*
D111*
X25646Y155492D02*
D03*
Y183091D02*
D03*
Y116122D02*
D03*
Y143720D02*
D03*
X329213Y39370D02*
D03*
X309213D02*
D03*
X289213D02*
D03*
X269213D02*
D03*
X249213D02*
D03*
D112*
X15843Y160433D02*
D03*
Y178150D02*
D03*
Y121063D02*
D03*
Y138779D02*
D03*
D113*
X222441Y381616D02*
D03*
X251362Y352160D02*
D03*
X156949Y354327D02*
D03*
X121317Y342515D02*
D03*
X150735Y324410D02*
D03*
X144427D02*
D03*
X120866D02*
D03*
X109055Y295866D02*
D03*
Y288976D02*
D03*
Y282087D02*
D03*
X108027Y306099D02*
D03*
Y312988D02*
D03*
Y324799D02*
D03*
X107989Y318894D02*
D03*
X103150Y282087D02*
D03*
Y288976D02*
D03*
Y295866D02*
D03*
X98441Y301027D02*
D03*
X93270Y289149D02*
D03*
X87358Y359248D02*
D03*
X86980Y288896D02*
D03*
X83465Y336036D02*
D03*
X80669Y288976D02*
D03*
X70619Y289049D02*
D03*
X47988Y361217D02*
D03*
X47004Y354327D02*
D03*
X34252Y342324D02*
D03*
Y336221D02*
D03*
Y324410D02*
D03*
X34208Y348421D02*
D03*
X105905Y125591D02*
D03*
X104766Y27762D02*
D03*
X102362Y62992D02*
D03*
X95607D02*
D03*
X81481Y129206D02*
D03*
X74669Y128931D02*
D03*
X66929Y19685D02*
D03*
X66535Y43701D02*
D03*
Y37795D02*
D03*
X62537Y57657D02*
D03*
X62479Y63716D02*
D03*
X62420Y51073D02*
D03*
X60039Y135827D02*
D03*
Y142717D02*
D03*
Y19685D02*
D03*
X59646Y43701D02*
D03*
Y37795D02*
D03*
X53150Y169291D02*
D03*
Y19685D02*
D03*
X52756Y43701D02*
D03*
Y37795D02*
D03*
X46850Y58268D02*
D03*
X45276Y33858D02*
D03*
X35433Y101671D02*
D03*
X34687Y109992D02*
D03*
X34631Y47426D02*
D03*
X29528Y86614D02*
D03*
X66929Y13780D02*
D03*
X60039D02*
D03*
X53150D02*
D03*
X20127Y39011D02*
D03*
X209449Y358268D02*
D03*
X203150D02*
D03*
X212857Y352008D02*
D03*
X173020Y246545D02*
D03*
Y240639D02*
D03*
Y234733D02*
D03*
X165748Y204724D02*
D03*
X144095Y215748D02*
D03*
X152559Y208661D02*
D03*
X172110Y187572D02*
D03*
X309055Y93504D02*
D03*
X315945D02*
D03*
X309055Y87598D02*
D03*
X315945D02*
D03*
X309055Y81693D02*
D03*
X315945D02*
D03*
X269343Y105723D02*
D03*
X241142Y101378D02*
D03*
X234252D02*
D03*
X248031D02*
D03*
X227362D02*
D03*
X220472Y94488D02*
D03*
X214567D02*
D03*
X227134Y94073D02*
D03*
X220472Y86614D02*
D03*
X214567D02*
D03*
X246063Y74803D02*
D03*
X252481Y74668D02*
D03*
X226878Y73805D02*
D03*
X219972D02*
D03*
X214067D02*
D03*
X252953Y68898D02*
D03*
X246063D02*
D03*
X124016Y170079D02*
D03*
X133858Y151575D02*
D03*
X139764D02*
D03*
X122047Y147638D02*
D03*
X133858Y143701D02*
D03*
X139764D02*
D03*
X112205Y137795D02*
D03*
X118110Y114567D02*
D03*
X178946Y109413D02*
D03*
X118110Y106961D02*
D03*
X172244Y204724D02*
D03*
X178792Y101786D02*
D03*
X118110Y96063D02*
D03*
Y89764D02*
D03*
Y81496D02*
D03*
X125000Y51181D02*
D03*
X190920Y70760D02*
D03*
X79945Y366586D02*
D03*
X73294Y366560D02*
D03*
X63763Y310548D02*
D03*
D114*
X159565Y288235D02*
D03*
Y308235D02*
D03*
X179565D02*
D03*
Y288235D02*
D03*
D115*
X169565Y298235D02*
D03*
D116*
X116142Y250079D02*
D03*
Y240079D02*
D03*
Y230079D02*
D03*
Y220079D02*
D03*
Y210079D02*
D03*
Y200079D02*
D03*
X148622Y143701D02*
D03*
Y183071D02*
D03*
X208661Y15748D02*
D03*
X216535D02*
D03*
X224410D02*
D03*
D117*
X349213Y39370D02*
D03*
D118*
X78110Y19685D02*
D03*
X88110D02*
D03*
X98110D02*
D03*
X108110D02*
D03*
X118110D02*
D03*
D119*
X128110D02*
D03*
D120*
X200787Y15748D02*
D03*
X232283D02*
D03*
D121*
X377953D02*
D03*
X15748D02*
D03*
Y377953D02*
D03*
D122*
X75658Y300549D02*
D03*
D123*
X41732Y140000D02*
D03*
Y130000D02*
D03*
Y120000D02*
D03*
Y110000D02*
D03*
X19883Y76108D02*
D03*
Y66108D02*
D03*
Y56108D02*
D03*
Y46108D02*
D03*
D124*
X210236Y144016D02*
D03*
Y124016D02*
D03*
Y104016D02*
D03*
X188387Y80124D02*
D03*
Y60124D02*
D03*
Y40124D02*
D03*
D125*
X7087Y52013D02*
Y88780D01*
X8256Y89949D01*
X7087Y52013D02*
X8256Y50845D01*
X28299Y109992D02*
X34687D01*
X8256Y89949D02*
X28299Y109992D01*
X12993Y46108D02*
X19883D01*
X8256Y50845D02*
X12993Y46108D01*
M02*
