M48
;Layer_Color=9474304
;FILE_FORMAT=2:5
INCH,TZ
;TYPE=PLATED
T01F00S00C0.01181
T02F00S00C0.01968
T03F00S00C0.02992
T04F00S00C0.03150
T05F00S00C0.03189
T06F00S00C0.03543
T07F00S00C0.03898
T08F00S00C0.03937
T09F00S00C0.05118
T10F00S00C0.05906
T11F00S00C0.06299
T12F00S00C0.15748
;TYPE=NON_PLATED
T13F00S00C0.12598
%
T01
X2953Y2953
X5906
X8858
X11811
X14764
X17717
X20669
X23622
X26575
X29528
X32480
X35433
X38386
X41339
X44291
X47244
X50197
X53150
X56102
X2953Y5906
Y8858
Y11811
Y14764
Y17717
Y20669
Y24606
Y27559
Y30512
Y33465
Y36417
Y39370
Y42323
Y45276
Y48228
Y51181
Y54134
Y57087
X58784Y2979
X62008Y2953
X64961
X67913
X70866
X73819
X76772
X79724
X82677
X85630
X88583
X91535
X94488
X97441
X100394
X103347
X106299
X109252
X112205
X115157
X118110
X121063
X124016
X126969
X129921
X132874
X135827
X138779
X141732
X144685
X147638
X150591
X153543
X156496
X159449
X162402
X165354
X168307
X171260
X174213
X177165
X180118
X183071
X186024
X188976
X191929
X194882
X197835
X200787
X203740
X206693
X209646
X212598
X215551
X218504
X221457
X224409
X227362
X230315
X233268
X236221
X239173
X242126
X245079
X248031
X250984
X253937
X256890
X259842
X262795
X265748
X268701
X271654
X274606
X277559
X280512
X283465
X286417
X289370
X292323
X295276
X298228
X301181
X304134
X307087
X310039
X312992
X315945
X318898
X321850
X324803
X327756
X330709
X333661
X336614
X339567
X342520
X345472
X348425
X351378
X354331
X357283
X360236
X363189
X366142
X369094
X372047
X375000
X377953
X380906
X383858
X386811
X390170Y3384
X390748Y6890
Y9843
Y12795
Y15748
Y18701
Y21654
X390748Y24606
Y27559
Y30512
Y33465
Y36417
Y39370
Y42323
Y45276
Y48228
Y51181
Y54134
Y57087
Y60039
Y62992
Y65945
Y68898
Y71850
Y74803
Y77756
Y80709
Y83661
Y86614
Y89567
Y92520
Y95472
Y98425
Y101378
Y104331
Y107283
Y110236
Y113189
Y116142
Y119095
Y122047
Y125000
Y127953
Y130905
Y133858
Y136811
Y139764
Y142717
Y145669
Y148622
Y151575
Y154528
Y157480
Y160433
Y163386
Y166339
X390748Y169291
Y172244
Y175197
Y178150
Y181102
Y184055
Y187008
X390748Y189961
Y192913
Y195866
Y198819
Y201772
X2953
Y198819
Y195866
Y192913
Y189961
Y187008
Y184055
Y181102
Y178150
Y175197
Y172244
Y169291
Y166339
Y163386
Y160433
Y157480
Y154528
Y151575
Y148622
Y145669
Y142717
Y139764
Y136811
Y133858
Y130905
Y127953
Y125000
Y122047
Y119095
Y116142
Y113189
Y110236
Y107283
Y104331
Y101378
Y98425
Y95472
Y92520
Y89567
Y86614
Y83661
Y80709
Y77756
Y74803
Y71850
Y68898
Y65945
Y62992
Y60039
Y204724
Y207677
Y210630
Y213583
Y216535
Y219488
Y222441
Y225394
Y228346
Y231299
Y234252
Y237205
Y240158
Y243110
Y246063
Y249016
Y251969
Y254921
Y257874
Y260827
Y263779
Y266732
Y269685
Y272638
Y275590
Y278543
Y281496
Y284449
Y287402
Y290354
Y293307
Y296260
Y299213
Y302165
Y305118
Y308071
Y311024
Y313976
Y316929
Y319882
Y322835
Y325787
Y328740
Y331693
Y334646
Y337598
Y340551
Y343504
Y346457
Y349410
Y352362
Y355315
Y358268
Y361221
Y364173
Y367126
Y370079
X64055Y336417
X68779
X73504
Y326969
X68779
X64055
X68779Y331693
X67913Y390748
X64961
X62008
X59055
X70866
X73819
X76772
X79724
X82677
X85630
X88583
X91535
X94488
X97441
X100394
X103347
X106299
X109252
X112205
X115157
X118110
X121063
X124016
X126969
X129921
X132874
X135827
X138779
X141732
X144685
X147638
X150591
X153543
X156496
X159449
X162402
X165354
X168307
X171260
X174213
X177165
X180118
X183071
X186024
X188976
X191929
X194882
X197835
X200787
X203740
X206693
X56102
X53150
X50197
X47244
X44291
X41339
X38386
X35433
X32480
X29528
X26575
X23622
X20669
X17717
X14764
X11811
X8858
X5906
X2953
Y387795
Y384842
Y381890
Y378937
Y375984
Y373031
T02
X20127Y39011
X34631Y47426
X52756Y43701
Y37795
X45276Y33858
X53150Y19685
Y13780
X60039
Y19685
X66929
Y13780
X66535Y37795
Y43701
X59646
Y37795
X62420Y51073
X62537Y57657
X125000Y51181
X104766Y27762
X219972Y73805
X226878
X220472Y86614
X214567
X214567Y94488
X220472
X227134Y94073
X227362Y101378
X234252
X241142
X248031
X269343Y105723
X252481Y74668
X252953Y68898
X246063
Y74803
X309055Y81693
Y87598
Y93504
X315945
Y87598
Y81693
X214067Y73805
X190920Y70760
X178792Y101786
X178946Y109413
X118110Y106961
Y114567
Y96063
Y89764
Y81496
X102362Y62992
X95607
X62479Y63716
X60039Y135827
Y142717
X74669Y128931
X81481Y129206
X105905Y125591
X112205Y137795
X122047Y147638
X133858Y151575
X139764
Y143701
X133858
X124016Y170079
X172110Y187572
X172244Y204724
X165748
X152559Y208661
X53150Y169291
X34687Y109992
X35433Y101671
X29528Y86614
X46850Y58268
X34252Y324410
Y336221
Y342324
X34208Y348421
X47004Y354327
X47988Y361217
X73294Y366560
X79945Y366586
X87358Y359248
X83465Y336036
X108027Y324799
X107989Y318894
X108027Y312988
Y306099
X109055Y295866
X103150
Y288976
X109055
Y282087
X103150
X93270Y289149
X86980Y288896
X80669Y288976
X70619Y289049
X75658Y300549
X63763Y310548
X98441Y301027
X120866Y324410
X121317Y342515
X144427Y324410
X150735
X156949Y354327
X203150Y358268
X209449
X212857Y352008
X173020Y246545
Y240639
Y234733
X144095Y215748
X251362Y352160
X222441Y381616
T03
X328957Y78051
Y88051
Y98051
Y108051
X338957Y103051
Y93051
Y83051
Y73051
Y139980
Y149980
Y159980
Y169980
X328957Y164980
Y154980
Y144980
Y174980
T04
X208661Y15748
X216535
X224410
X148622Y143701
Y183071
T05
X78110Y19685
X88110
X98110
X108110
X118110
X128110
T06
X116142Y200079
Y210079
Y220079
Y230079
Y240079
Y250079
T07
X15843Y121063
Y138779
Y160433
Y178150
T08
X200787Y15748
X232283
T09
X249213Y39370
X269213
X289213
X309213
X329213
X349213
X25646Y116122
Y143720
Y155492
Y183091
T10
X169565Y298235
T11
X159565Y288235
Y308235
X179565
Y288235
T12
X15748Y15748
X377953
X15748Y377953
T13
X363957Y68051
Y113051
Y134980
Y179980
M30
